<?xml version="1.0" encoding="UTF-8"?><svg id="Capa_2" xmlns="http://www.w3.org/2000/svg" width="548.66" height="477.36" viewBox="0 0 548.66 477.36"><defs><style>.cls-1{fill:#d14f23;}</style></defs><g id="Capa_1-2"><path class="cls-1" d="M409.17,0c-.14.86.81.33,1.38.55.08.03.45.7.62.81.52.34,1.68.44,2.15.61.56.21,5.3,2.61,5.54,2.81,1.35,1.13,3.63,4.25,4.64,5.85,4.31,6.82,4.61,17.24,0,24.32-1.07,1.65-2.47,2.2-3.39,3.44-1.04,1.4-1.22,2.67-2.64,3.97-.22.2-1.16.56-1.34.75-.69.74-.84,1.8-1.44,2.6-.75,1-1.94,1.43-3.04,1.88-.61.25-.85.26-1.46.47-.15.05-2.01,2.03-2.18,2.24-.56.68-.78,2.12-1.05,2.43-.15.17-.51.15-.73.3-.15.1-.17.39-.23.42-.41.17-.82-.02-1.22.07-1.14.26-2.94,2.17-3.86,3.01-1.32,1.21-2.27.91-3.48,1.69-.82.52-.69.74-1.75,1.32-3.83,2.11-7.66,4.69-11.44,6.92-1.4.82-5.04,3-6.53,3.49s-3.08.47-4.46,1.18c-.48.25-1.76,1.25-2.17,1.35-.31.08-.87-.1-1.02.03-.07.06.05.47-.06.63-.22.31-4.46,2.14-5.27,2.49-1.41.61-3.21,1.39-4.68,1.97s-1.58.55-3.27.88c-.09.02-1.01,1.06-1.4,1.29-2.24,1.32-6.4,3.35-8.77,4.31-.96.39-2.06.53-3.09,1.1-4.13,2.29-8.34,4.08-12.32,5.92-3.56,1.64-7.64,2.68-10.98,4.51-3.77,2.07-8.3,3.72-12.29,5.89-4.35,2.37-8.07,3.9-12.82,5.56-1.05.37-1.44.89-2.17,1.35-1.08.68-3.02.98-4.29,1.59-2.01.96-3.94,2.44-5.79,3.45-2.37,1.3-4.94,2.31-7.5,3.42-6.37,2.76-11.76,4.72-17.93,8.11-.89.49-1.94.54-2.87.96-3.67,1.63-7.89,3.06-11.54,4.55-2.53,1.03-3.87,1.68-6.13,2.93-2.9,1.61-5.6,2.49-8.72,3.66-1.26.47-1.39.2-2.43.46-.18.04-.13.41-.34.47-1.76.47-1.09.58-2.23,1.32-1.07.69-3.58,1.39-5.04,2.17-.8.43-3.54,2.46-3.76,2.52-.49.11-1.09-.1-1.59.01-.27.06-3.77,2.39-4.55,2.88-1.95,1.24-3.74,2.59-6.01,3.11-.29.07-2,1.44-2.6,1.76-2.49,1.34-5.29,1.97-7.88,2.93-1.31.48-.97,1.3-3.44,1.79-.06.01-.6.74-1.02.7l-.1,1.2c2.53.72,4.14-.44,6.25-1.29,1.37-.55,1.83-.42,3.24-.6.13-.02,1.91-.82,2.1-.9,2.96-1.18,5.07-.83,7.67-1.57.29-.08,1.3-.93,1.92-1.2,1.2-.51,5.39-2.12,6.34-2.35,1.3-.31,3.87-.17,5.18-.5.09-.02,1.18-.89,1.31-.94,4.28-1.99,9.9-2.43,14.13-4.05,1.97-.76,2.65-.56,4.49-1,.11-.03,1.58-.86,1.8-.93,3.75-1.29,7.84-2.03,11.61-3.22,1.03-.33,1.93-1.33,2.05-1.35.7-.14,1.64.14,2.3-.02.19-.05.06-.44.51-.49.71-.09,1.71.17,2.37.01.69-.17,1.72-1.54,2.56-1.79,1.33-.4,2.98-.5,4.38-.9,3.01-.87,5.79-1.81,8.51-2.9,1.36-.55,2.95-.79,4.35-1.33,3.5-1.36,7.37-2.22,10.95-3.16,2.04-.54,3.56-1.46,5.24-1.91.21-.06.16-.42.34-.47,1.48-.36,1.71.44,2.1.49.45.06,2.23.07,2.61-.03.16-.04.16-.36.25-.39.42-.17,1.41-.45,1.77-.64.16-.09.46-.71.63-.8,1.97-1.01,3.37-.58,5.28-.66,2.58-.11,4.33-1.64,6.82-2.49,1.61-.55,4.86-1.27,6-1.97,2.8-1.71,3.51-1.39,6.31-2.28,1.43-.46,2.79-1.35,4.45-1.79,3.39-.9,6.48-1.25,10.06-1.94,1.06-.21,2.23-1.05,3.2-1.36,2.22-.7,4.05-.95,6.22-1.83,1.78-.72,3.29-1.61,4.92-2.34,3.57-1.59,7.7-3.51,11.32-4.94,2.22-.88,4.16-2.48,6.23-3.25.93-.35,1.96-.3,2.75-.61.71-.28,1.57-1.25,2.75-1.77,4.12-1.8,8.87-4.35,13.45-6,.98-.35,1.77-.49,2.67-.86,4.4-1.8,9.7-4.07,14.4-5.13,1.54-.35,3-1.39,4.43-1.89s3.28-.45,4.61-1.1c.74-.36,1.02-.97,1.61-1.27,1.45-.72,4.09-1.1,5.87-1.76,1.97-.73,3.93-.96,5.77-1.97s1.9-.59,3.61-.94c.79-.16,1.28-.88,1.98-1.14,1.87-.68,5.76-.44,8.09-1.03.88-.22,2.52-1.32,2.75-1.38,1.45-.33,3.51-.2,4.71-.49,3.91-.94,7.86-2.11,12.52-2.16,3.34-.04,6.14.87,9.55.19,4.63-.91,37.31-5.38,42.54-5.36,3.06.01,4.2.84,6.78,1.64s4.59,1.03,6.86,2.14c.16.08,9.15,3.54,11.61,7.88,6.1,10.78,5.89,24.02-.55,34.6l-9.74,4.51-.21.16c-.38.11-.72.31-1.1.44-3.7,1.38-8.07,2.42-12.56,3.51s-39.54,4.46-44.25,5.51c-.72.16-2.59,1.04-3.36,1.36-2.26.92-4.3.97-6.7,2.07-1.73.79-5.08,2.17-6.83,2.52-1.47.3-3.85.22-5.18.54-.19.05-.06.44-.51.49-.9.12-2.26-.21-3.09-.01-3.87.93-8.71,2.25-13.12,3.24-2.52.57-5.27.68-7.63,1.72-.43.19-2.19,1-2.56,1.05-1.91.24-3.34.11-4.99,1.02-1.96,1.08-3.13.6-5.05.94-2.49.45-5.31,1.69-7.56,2.04-2.12.33-3.7.37-5.88,1.04-1.66.51-4.42,1.18-5.9,1.87-3.05,1.44-5.36.99-8.26,1.76-.95.25-2.14,1.03-3.24,1.32-2.17.58-3.39.68-5.52,1.49-1.15.44-2.24.25-3.26.5-.14.03-.67.31-1.44.48s-3.87,3.01-4.8,3.51c-1.57.84-4.29,1.47-6.2,2.51-5.17,2.8-10.57,5.69-15.64,8.66-1.95,1.14-3.79,2.54-5.74,3.33-3.22,1.3-6.34,3.49-9.5,5.01-2.37,1.14-3.94,2.36-6.75,3.51-2.32.95-3.79,3.17-5.12,3.87-4.42,2.33-8.87,4.56-12.88,7.17-.32.21-.39.66-.66.84-.67.43-1.91.97-2.7,1.19-.51.62,1.4,1.64,2.24,1.43.18-.05.15-.43.33-.47,1.21-.27,1.59-.14,2.89-.67,3.59-1.45,6.99-2.42,10.69-3.43.12-.03,1.4-1.32,1.79-1.42,1.09-.27,1.31.03,2.66-.47,3.96-1.46,8.06-3.32,12.2-4.08,1-.18,1.97.03,2.9-.58,2.62-1.72,34.5-1.96,37.44-3.24,1.17-.51-28.44-1.19-27.69-1.65,1.34-.82,2.46-.34,3.9-.53.45-.06.32-.46.51-.5.91-.19.78-.07,1.6-.4,6.3-2.55,13.28-4.36,19.28-6.64,1.26-.48,2.98-1.29,4.35-1.81,1.5-.57,3.58-.49,5.14-1.24.66-.32,2.46-1.71,3.24-1.89.62-.14,1.46.13,2.07-.01.09-.02,1.27-.8,1.44-.87,4-1.62,7.42-1.06,11.43-2.13,1.87-.5,4.27-.77,5.93-1.64,1.18-.61,3.35-2.75,4.22-3.09,3.76-1.47,10.72-1.37,13.39-3.46.77-.6,1.54-1.23,2.4-1.7,4.29-2.34,5.65-1.13,9.19-1.29,1.88-.09,2.7-.98,4.24-1.53,3.46-1.24,7.51-.82,11.21-1.75,1.27-.32,2.68-.28,3.74-.54.18-.04.15-.42.33-.47,1.06-.27,1.71.56,2.41.95.46.26,1.06.14,1.55-.02.17-.05,1.46-.91,1.55-.93.32-.08,1.74-.08,2.07,0,.18.04.15.43.33.47,1.95.46,4.48.56,6.62,1.02,1.19.26,4.06.91,5.05,1.38.07.04,1.04,1.01,1.21,1.12,1.81,1.13,4.06,2.37,5.43,4.11.96,1.22,3.79,5.93,4.03,7.2.13.72-.06,1.48.08,2.04.03.14,1.39,2.12,1.43,2.26.16.63.13,5.65.02,6.44-.04.28-.95,1.17-.97,1.24-.14.64.13,1.46-.02,2.06-.04.18-.41.14-.47.34-.44,1.73-1.67,4.41-2.59,6-2.62,4.58-10.05,9-14.39,11.91-1.24.83-1.28,2.5-2.08,3.44-1.31,1.54-3.9,3.2-5.35,4.5-2.42,2.17-2.79,3.8-5.91,4.47-.11.02-.79.98-1.23,1.2-.64.33-1.44.43-2.11.78-4.43,2.32-8.47,5.02-12.73,7.62-1.61.99-2.73,1.98-4.58,2.39-.43.09-1.83.74-2.38,1.03-9.54,4.87-18.76,9.37-27.98,15.03-1.55.95-3.02,2.1-4.67,2.43-.11.02-1.59,1.31-1.69,1.35-1.91.89-3.65.11-5.92.92-.93.34-1.49.95-2.12,1.29-7.27,3.9-13.15,9.17-20.7,12.85-1.15.56-2.71,1.07-3.98,1.66-7.29,3.38-14.08,7.13-21.28,10.88-2.77,1.44-5.71,2.5-8.49,4.1-4.46,2.55-8.38,5.75-13.42,7.6-.6.22-1.49.55-2.08.78-2.19.86-5.18,2.69-7.51,3.89-4.13,2.13-7.92,4.64-12.03,6.74-3.86,1.97-7.76,4.22-12.01,5.99-.42.17-.9.16-1.43.43-3.29,1.71-6.94,3.8-10.46,5.5-3,1.45-5.61,2.57-8.65,4.19-3.63,1.95-6.67,4.03-9.92,5.73-.65.34-2.23.44-2.59,1.2-.18.38-.01,1.09-.35,1.33-.19.14-.6.03-.78.13-.48.27-.52.75-1.63.46-.14.97,1.89.28,2.48.49l.56-.98c2.16.26,4.12-.23,6.2-.47,3.6-.41,7.16-.98,10.8-1.44,3.96-.51,8-1.77,11.57-2.63,1.19-.29,3.5-.2,4.71-.49,1.41-.34,2.9-1.12,4.85-1.43,5.08-.81,10.27-2,15.24-3.48,2.02-.6,2.73-.33,4.69-.58.44-.06.31-.45.51-.49.89-.21,2.36.14,3.33.01.44-.06.31-.45.51-.49.78-.18,2.01.17,2.79-.01,3.76-.88,7.75-.97,11.81-1.43,12.65-1.44,26.65-3.28,39.36-1.68,2.72.34,3.71.79,6.13,1.55,2.13.67,4.22.67,6.3,1.09.21.04.62.9.83.94.35.08.76-.07,1.1.01.18.04.15.43.33.47,1.65.39,2.06.22,3.84,1.05,2.71,1.26,6.55,3.37,9.27,4,.45.11,4.31,3.97,4.81,4.47.55.55,1.69.87,2.22,1.61,2.29,3.14,3.96,6.23,5.38,9.87.37.96,1.21,2.15,1.38,3.18,1.73,10.25-1.89,19.41-11.28,24.37-1.22.48-5.12,2.46-5.63,3.6-.13.3-.01.82-.08.89s-.59-.06-.89.08c-.2.09-2.5,2.61-3.07,3.04-.75.56-3.22,1.78-3.42,1.98-.78.83-1.06,1.5-2.39,1.86-2.51.66-6,3.84-8.3,5.45s-4.71,2.9-7.36,4.04c-.48.21-1.03.1-1.74.43-.55.26-2.69,3.81-3.39,4.63-1.38,1.62-2.81,1.25-4.4,2.1-1.22.66-1.86,2.79-3.87,3.2-1.29.27-1.45-.49-2.36-.58-1.64-.16-1.67,1.65-2.74,2.67-.66.63-1.6.86-2.07,1.17-4.04,2.67-8.25,5.96-12.86,7.42-.31.1-3.64,2.12-3.91,2.34-2.3,1.83-1.6,2.41-4.98,3.14-1.99.42-5.85,4.55-8.02,5.03-3.89.85-5.93,4.91-9.75,6.41-2.25.88-5.68,3.11-7.37,4.99-.48.54-1.18,2.07-1.75,2.45-1.13.75-2.13,1.47-3.31,2.33-.46.34-1.11.69-1.66.87.03,1,.99.83,1.5.96.21.06.16.42.34.47.87.21,2.37-.14,3.33-.01.46.06.23.46.69.52,1.03.13,4.28.13,5.31,0,.46-.06.23-.46.69-.52,1.03-.13,4.28-.13,5.31,0,.46.06.23.46.69.52,5.89.74,13.59-.79,19.47-.04.42.05.32.41.53.48,3.81,1.23,9.65-.04,13.07,1.95.59.34,1.24.83,1.9,1.22,1.5.88,2.8,2.17,3.26,4,.43,1.68.59,3.5-.01,5.13-.24.65-.96,1.52-1.08,2.05-.17.79.08,1.55-.22,2.41-.08.23-2.59,2.2-3.02,2.71s-.58,1.36-.74,1.59c-.72,1.05-2,.65-2.45,2.47s.85,2.28.85,3.01c0,.11-.76,1.82-.87,2.02-.28.51-.81.8-.98,1.06-.13.2-.01.58-.15.81-.25.4-2.17,1.22-2.78,1.65-.66.46-2.35,2.24-2.72,2.45-.21.12-.55,0-.7.07-.24.12-.21.42-.36.46-1.17.28-3.3-.27-4.47.01-.18.04-.15.43-.33.47-1.43.31-1.81.47-3.25.99s-4.37,1.21-6.09,1.39c-2.44.26-3.27-.45-5.8.67-.27.12-.27.44-.37.48-2.43,1.02-4.31,1.45-6.73,1.99-.18.04-.15.43-.33.47-.69.17-6.07.14-6.93.02-.28-.04-1.17-.95-1.24-.97-1.09-.24-2.64-.24-3.25.77-1.21,2-.34,4.25-3.19,4.72-2.11.35-3.92-.43-5.94.41-1.62.67-2.42.69-4.08,1.04-.22.05-.06.66-.76.48-.09-.02-.09-.44-.28-.48-.61-.14-1.47.14-2.07,0-.11-.03-1.66-.92-1.77-.95-.8-.2-1.75-.27-2.64-.48-.35-.08-1.51-.07-1.89-.02-.45.06-.31.45-.51.5-.39.09-.78-.08-1.22.07-.09.03-.9,1.18-1.22,1.34-.38.19-4.34,1.41-4.74,1.47-.56.07-1.54-.27-2.37-.24-2.53.08-5.88,1.17-8.64,1.45-4.37.44-8.87,1.18-13.21,1.43-3.09.18-5.26-.21-8.2.48-.84.2-2.19-.19-3.03.01-.19.05-.06.44-.51.49-.76.1-3.11.1-3.87,0-.46-.06-.23-.46-.69-.52-.84-.11-3.52-.11-4.35,0-.51.07-1.98,1.45-2.14,1.47-.6.08-2.31.08-2.9,0-.44-.06-.31-.45-.51-.49-.41-.1-2.37-.09-2.85-.02-.09.01-1.1.38-1.65.51-1.19.27-2.48.84-3.72.96v1.43s-16.09,0-16.09,0l-.03-1.17c-1-.41-2.45-.78-3.37-1.26-2.92-1.5-5.27-4.27-7.41-6.75-1.07-1.23-1.23-.97-1.67-2.65-.25-.94-.96-1.54-1.36-2.17-1.88-2.98-1.42-10.29-.55-13.67.03-.11.92-1.66.95-1.77.24-1.1.25-2.76.49-3.75.02-.09.63-1.35.79-1.66.09-.18,1.93-2.62,2.07-2.72.81-.64,2.54-.56,3.06-1.38.12-.19.05-.52.16-.8.03-.08.35-.09.39-.25.59-2.39-.78-1.81,1.44-4.09s5.04-3.96,7.67-5.95c3.52-2.67,6.93-5.58,10.74-7.84.21-.12.55-1.05.87-1.3.33-.27,1.21-.48,1.65-.82.9-.7.84-.81,1.9-1.45,1.94-1.17,3.35-2.28,4.94-3.8,2.96-2.84,7.27-3.85,10.57-6.49,1.71-1.36,2.48-1.66,4.41-2.68.47-.25,1.37-1.3,1.47-1.34,2.79-.98,4.06-1.11,6.71-3.21.89-.7,1.83-2.14,2.7-2.76.95-.68,8.21-5.02,8.7-5.13,2.27-.5,1.2-.56,2.72-1.79,1.66-1.35,4.02-2.52,5.81-3.74,2.61-1.77,5.5-3.9,8.21-5.77,1.07-.74,2.12-.46,2.95-.78.11-.04,1.28-1.5,1.59-1.75,1.43-1.15,2.83-1.8,4.28-2.75,1.7-1.11.46-.91,2.9-1.43.18-.04.15-.43.32-.47.42-.09.91.07,1.35-.01.23-.04,2.87-2.86,3.31-3.22,1.33-1.07,3.28-1.53,4.7-2.38.59-.35,1.5-1.55,2.01-1.7,1.21-.36,1.64,0,2.93-.87,1-.67,2.46-3.19,2.65-3.29.21-.11.55,0,.7-.07.24-.12.21-.42.36-.46,3.21-.7,5.14-2.27,8.07-4.01,2.31-1.38,4.5-2.54,6.59-3.9,1.95-1.28,1.33-1.04,2.69-2.55.41-.45,1.32-.58.86-1.06-.52-.06-1.16.11-1.64,0-.19-.04-.15-.42-.32-.47-.86-.25-.79.43-.97.47-.99.23-1.29.1-2.43.46-2.33.74-4.57.63-6.86,1.01s-4.52,1.2-6.82,1.58c-3.13.52-6.48.15-9.36,1.44-1.45.65-1.26.25-2.53.56-.18.04-.15.43-.33.47-.94.22-2.54-.15-3.57-.01-.44.06-.31.45-.51.49-1.14.27-1.71.05-3.13.47-1.14.34-3.22.36-4.48.52-5.76.73-12.26,1.61-17.71,3.6-.23.08-1.69.91-1.8.93-1.04.25-2.89-.16-4.05-.01-.46.06-.23.46-.69.52-1.09.14-2.83-.25-3.81-.01-.18.04-.15.43-.33.47-5.78,1.29-11.95,2.24-17.66,3.66-1.19.3-2.71,1.2-3.46,1.38-1.28.31-3.88.17-5.19.49-.18.04-.15.43-.33.47-5.47,1.22-10.4,2.88-15.98,3.67-2.22.31-3.39,1.06-5.84,1.36-1.7.21-3.79,1.41-5.57,1.87-4.75,1.25-9.95,1.94-14.38,3.75-.22.09-1.58.85-1.68.87-1.34.32-3.85-.31-5.19.01-.18.04-.15.43-.33.47-.43.09-.97-.1-1.38.02-3.21.89-6.16,3.26-9.61,3.59-3.34.31-2.95-.29-5.97,1.35-2.33,1.27-4.7.75-7.35,1.65-2.32.79-5.31,2.09-7.84,2.26-1.05.07-2.08-.39-3.31-.21s-4.92,1.39-5.97,1.82c-3.89,1.59-6.56,3.39-11.08,3.92-3.62.42-6.68.28-10.3,1.22-3.72.96-4.69,2.55-8.62,2.85-.18.01-.92,4.38-8.34-.96-17.04-12.27-17.59-37.49-1.37-50.84l2.36-1.94c.74-.16,1.53-.37,2.19-.75s.47-.49,1.45-.95c2.22-1.04,4.37-2.83,6.74-4.13.62-.34,1.95-.62,2.5-.97.4-.25,1.3-1.22,1.92-1.36,2.22-.5,1.91-1.22,3.49-1.99.65-.32,1.73-.47,2.51-.84,7.81-3.72,15.45-7.37,23.09-11.23,1.1-.55,2.32-.56,3.32-.99.36-.16.69-.89,1.09-1.09.64-.33,1.95-.63,2.5-.97.17-.1.54-.78.62-.81,4.07-1.47,8.2-3.75,12.12-5.18.09-.03.98-1.26,1.2-1.38.61-.32,1.92-.41,2.73-.81,5.34-2.66,10.41-5.69,16.05-7.7.67-.24,1.51-.77,2.19-1.12,3.18-1.62,5.96-4.04,8.98-6.21,1.92-1.38,6.01-2.67,8.56-3.67,2.93-1.14,5.25-2.26,8.03-3.61,1.31-.64,3.24-1.86,4.81-2.75,8.89-5.08,17.95-9.47,27.16-14.18,3.99-2.04,8.91-4.35,12.83-6.91.98-.64,2.9-.73,4.3-1.53.3-.17.62-.86.97-1.02.82-.36,2.4-.39,3.05-.78.38-.23.73-1.33,1.28-1.72.16-.11.53-.04.81-.15.08-.03.08-.35.25-.39.53-.14,1.46.36,1.27-.49h-3.36c-.06,0-.19.68-.68.93-1.12.58-2.61.5-3.69,1.05-.55.28-.81.83-1.38,1.02-.87.3-2.23.29-3.18.61-.18.06-1.27.92-1.45,1.01-1.37.66-2.67.8-3.86,1.29-4.43,1.81-9.17,3.44-13.65,5.14-2.9,1.1-6.23,2.78-9.45,4.28-2.44,1.13-4.8,2.25-6.9,3.06-1.17.45-1,.74-1.56,1.01-.89.43-2.11.36-2.93.62-2.77.88-6.19,2.53-8.79,3.57-2.86,1.14-6.36,2.54-9.68,3.87-1.69.68-3.28.59-4.85,1.4-1.96,1.02-3.4,1.16-5.18,2.06-3.24,1.65-7.07,2.63-9.96,4.51-.17.11-.52.05-.81.16-3,1.15-6.42,2.58-9.98,4.01-5.99,2.41-11.85,4.52-17.91,7.88-1.55.86-2.86.92-4.25,1.69-3.85,2.13-7.35,3.3-11.31,4.9-3.6,1.46-6.84,3.13-10.56,5.04-5.57,2.86-4.81,4.51-10.77,7.39-.46.22-8.75,1.83-9.38,2.1-.04.02-.26,0-.63-.03-21.83-2.34-29.53-30.25-12.13-43.64l10.27-7.9c1.74-.76,3.27-1.98,4.87-2.94,12.9-7.75,26.01-15.14,38.87-23.71,4.63-3.08,9.04-6.84,13.83-9.98,6.54-4.27,12.97-8.44,19.64-12.51,4.2-2.56,7.87-5.01,11.9-7.91s9.26-6.02,13.46-8.85c3.07-2.06,5.88-3.88,8.94-5.7.3-.18,1.2-.77,1.05-1.23-.01-.08-.77-.51-.91-.54-2.24-.47-5.45.59-7.54,1.4-1.85.71-2.6.52-4.35.94-.57.14-2.16,1.3-2.5,1.42-.67.23-2.24.3-2.99.56-1.59.56-3.15,1.39-4.75,1.97-3.11,1.14-6.31,1.87-8.84,2.97-1.74.76-3.42.65-5.14,1.05-1.83.42-4.02,1.76-5.63,2.05-1.77.31-3.4.13-5.17,1.03-1.86.94-1.79.66-3.91.93-.44.06-.32.45-.51.49-1.11.26-1.11-.12-2.43.46-2.47,1.08-4.5,1.07-6.95,1.88-1.99.66-2.33.83-4.47,1.29s-4.13,1.55-5.58,1.9c-1.79.43-3.15.32-5.06.94-3.8,1.23-57.39,21.35-61.15,22.69-1.96.7-4.36.94-6.56,1.41-1.71.37-4.09,1.3-5.49,1.47-2.87.36-8.08,9.91-18.9,2.92-.66-.43-4.89.35-9.08-8C19.97,226.1-1.37,219.13.07,199.79l1.85-10.21c4.62-25.47,18.88-48.18,39.81-63.42,2.59-1.88,4.27-3.09,4.42-3.14,3.69-1.13,7.9-3.31,11.63-5.17,2.28-1.14,4.7-1.86,6.87-2.77,5.52-2.33,60.35-24.7,65.69-27.01,2.81-1.22,5.89-2.37,8.66-3.11.21-.05.16-.42.34-.47,1.77-.43,2.72-.18,4.55-1.05,4.54-2.14,9.79-3.89,13.84-5.84,2.83-1.36,6.02-2.49,9.1-3.26,1.66-.41,2.27-1.38,3.7-1.94,3.32-1.32,7.73-2.62,11.4-4.51,1.5-.77,1.07-1,2.91-1.41,1.33-.3,3.27-1.83,4.91-2.33.53-.16,1.13,0,1.75-.17,1.25-.35,2.51-1.66,3.58-1.94.62-.16,1.23-.02,1.75-.17,2.22-.65,4-2.19,5.89-2.8,2.01-.66,1.54-.2,3.07-.02.79.09,1.69-.89,2.57-1.25,2.95-1.18,5.62-2.03,8.37-3.33,1.78-.85,2.72-.92,4.58-1.48,4.72-1.42,9.11-4.48,13.7-5.47,4.32-.93,8.75-4.86,12.95-6,4.17-1.13,8.47-2.53,12.45-4.58,1.84-.95,2.34-1.29,4.39-1.9,1.84-.55,2.97-1.95,4.6-2.12,2.33-.25,2.67.24,4.95-1,.75-.41,3.41-2.25,3.96-2.38,1.29-.3,2.43-.58,3.84-.91,3.13-.75,6.97-1.86,9.82-3.26,3.08-1.52,6.23-2.19,9.98-3.34,2.65-.81,5.52-1.65,8.03-2.66.22-.09,1.58-.85,1.68-.87,1.07-.26,1.25.14,2.55-.4,5.81-2.41,12.68-4.37,18-6.48,2-.79,3.49-1.01,5.45-1.63.76-.24,1.62-.98,2.39-1.21,2.4-.73,4.69-.87,7.26-1.82,1.36-.5,1.55-.2,2.66-.46,2.47-.59,5.03-1.74,7.99-2.37s5.49-1.53,8.39-2.17c.48-.11,1.06.05,1.61-.07,2.1-.44,1.95-1.3,4.63-1.38.46-.01.96.24.83-.48h35.76ZM183.1,159.84c1.26.33,2.77.65,3.59-.6.02-.66-3.45-.3-3.59.6ZM304.53,192h-2.4s0,.96,0,.96c.95.03,2.22.27,2.4-.96Z"/></g></svg>