<?xml version="1.0" encoding="UTF-8"?><svg id="Capa_2" xmlns="http://www.w3.org/2000/svg" width="314.95" height="302.25" viewBox="0 0 314.95 302.25"><defs><style>.cls-1{fill:#0d2932;stroke:#0d2932;stroke-miterlimit:10;stroke-width:4.07px;}.cls-2{fill:#d24f23;}</style></defs><g id="Capa_1-2"><path class="cls-1" d="M296.98,44.09L232.53,5.7s-43.1-2.64-69.17-1.19c-26.06,1.45-19.71-2.41-49.48-1.96-29.76.45-48.82,2.7-48.82,2.7L25.2,2.05S8.73,4.9,7.71,18.16c-.38,4.84-1.73,21.28-.46,54.37.59,15.36-5.21,5.32-5.21,26.58,0,7.39,5.28,20.18,5.3,27.58.04,12.74.08,25.25.13,36.68.02,3.94,3.4,8.55,3.42,12.19.01,2.96-3.35,5-3.33,7.73.09,19.2.16,32.09.16,32.09,0,0-3.09,17.98,8.25,31.54,11.35,13.56,49.58,52.44,49.58,52.44l223.09.87c13.86.05,23.51-9.96,23.57-24.44,0,0-.13.5-1.17-40.45-1.04-40.91,1.89-159.3,1.89-159.3.05-14.64-1.98-24.03-15.93-31.94Z"/><path class="cls-2" d="M204.37,126.49l-122.04.29c-8.63.02-15.77-8.26-15.87-18.5l-.36-34.23c-.11-10.31,6.9-18.46,15.57-18.18l44.69,1.33,78.13-1.7c7.63.24,13.66,9.99,13.65,19.56l-4.1,34.2c0,9.5-2.09,17.21-9.68,17.23Z"/><path class="cls-2" d="M291.82,126.68l-49.08-.15c-8.74,0-16.02-8.4-16.2-18.78l-.59-34.68c-.18-10.45,6.86-18.69,15.65-18.39l49.94.13c7.71.26,13.86,10.15,13.91,19.83l.13,34.62c.05,9.62-6.09,17.41-13.76,17.41Z"/><path class="cls-2" d="M196.53,290.62l-115.47-.55c-8.65,0-15.79-8.31-15.9-18.59l-.36-34.35c-.11-10.35,6.91-18.51,15.6-18.22l38.87-.11,59.71,3.46,17.68-2.88c7.64.26,13.68,10.05,13.67,19.64l-.07,34.31c0,9.54-6.13,17.26-13.73,17.27Z"/><path class="cls-2" d="M287.4,291.86l-49.17-.23c-8.75-.01-16.05-8.46-16.22-18.87l-.59-34.8c-.18-10.48,6.87-14.64,15.68-14.32l50.02.22c7.73.28,13.89,6.1,13.93,15.82l.13,34.74c.05,9.65-6.1,17.46-13.79,17.45Z"/><path class="cls-2" d="M122.32,205.78l-39.96-1.32c-8.64,0-15.78-7.69-15.9-17.21l-.37-31.8c-.11-9.58,6.89-13.04,15.58-12.77l40.8,1.31c7.62.23,12.34,8.54,12.33,17.42l1.22,28.4c-.01,8.82-6.12,15.97-13.71,15.98Z"/><path class="cls-2" d="M287.44,206.52l-123.49-4.23c-8.73,0-16-3.83-16.18-13.6l.99-27.06c-.17-9.84,5.31-19.1,14.09-18.8l124.28.06c7.72.26,13.88,5.48,13.93,14.6l.14,32.63c.05,9.07-6.09,16.4-13.77,16.4Z"/></g></svg>