<?xml version="1.0" encoding="UTF-8"?><svg id="Capa_2" xmlns="http://www.w3.org/2000/svg" width="1117.63" height="80.07" viewBox="0 0 1117.63 80.07"><defs><style>.cls-1{fill:#d24f23;}</style></defs><g id="Capa_1-2"><path class="cls-1" d="M.71,24.44c1.6-8.96,83.11,1.72,135.19,14.26,132.97,32,270.1-3.91,411.28,5.01,124.2,7.84,246.97-24.04,370.09-28.53,29.41-1.07,64.99-1.28,94.18-4.94,5.36-.67,19.86,1.24,24.27-1.1,8.98-4.77,12.38.06,21.93-5.32,4.62-2.6,23.71-4.33,28.72-3.69,21.01,2.69,44.26,35.32,22.53,49.13-22.14,14.07-37.75,8.32-70.5,9.77-14.52.64-76.57-6.5-78.74-6.48s-46.7-8.49-123.89,2.7c-102.94,10.41-205.4,22.78-308.21,23.44-167.1,1.07-333.78,8.98-492.29-29.41C-.75,40.55-1.48,36.7.71,24.44Z"/></g></svg>