<?xml version="1.0" encoding="UTF-8"?><svg id="Capa_2" xmlns="http://www.w3.org/2000/svg" width="305.22" height="295.74" viewBox="0 0 305.22 295.74"><defs><style>.cls-1{fill:#0d2932;stroke:#0d2932;stroke-miterlimit:10;stroke-width:4.03px;}.cls-2{fill:#d24f23;}</style></defs><g id="Capa_1-2"><path class="cls-1" d="M290.59,42.44L226.4,2.22s-147.55,2.64-177.61.9c-23.36-1.35-28.27-1.09-28.27-1.09,0,0-16.29,3.08-17.31,16.17-.21,2.68-.03,13.91.19,29.12.2,13.83,2.57,31.08.46,47.93-.63,5.01-3.12,23.48-1.03,35.43,6.74,38.58.38,81.43.38,81.43,0,0-3.05,17.68,8.14,30.83,8.67,10.19,33.24,35.06,43.9,45.78,3.17,3.19,7.24,5.03,11.06,5l61.63-1.72c8.47-.24,14.32-6.48,14.36-15.32l3.1-141.49,28.6-1.81-.29,29.24s2.91,35.94,2.03,25.09-2.43,14.32-2.43,14.32l-.31,30.74,48.42,52.23c3.34,2.7,7.26,4.2,10.94,4.17l49.12-.38c13.8-.11,17.52-5.76,17.62-20.02,0,0,2.52-1.39,1.62-41.73-.91-40.33,2.4-157.34,2.4-157.34.1-14.48,1.37-19.66-12.54-27.27Z"/><path class="cls-2" d="M276.64,278.18l-39.01-.71c-8.53-.15-16.67-5.44-16.46-15.19l-1.17-36.19c.22-9.83,7.39-13.43,15.96-13.01l43.14,1.5c7.53.37,13.17,5.75,12.85,14.87l-1.2,32.59c-.32,9.05-6.62,16.28-14.11,16.14Z"/><path class="cls-2" d="M279.75,200.81l-40.18,1.53c-8.57-.15-18.61-7.91-18.4-17.56l.71-32.27c.21-9.72,10.67-12.43,19.28-12l40.39-.45c7.6.37,13.35,5.68,13.07,14.72l-1.02,32.32c-.27,8.98-5.33,14.94-13.85,13.71Z"/><path class="cls-2" d="M118.71,202.04l-43.12-.56c-8.45-.15-15.15-8.02-14.89-17.59l.85-31.98c.26-9.64,7.4-13.09,15.9-12.67l43.67.36c7.5.37,13.12,5.59,12.81,14.55l-1.17,32.03c-.31,8.9-6.58,15.99-14.04,15.85Z"/><path class="cls-2" d="M118.52,280.05l-41.77,2.88c-3.67-.07-11.49-.08-14.22-3.45s-2.15-12.53-2-18.07c0,0-5.34-8.21-2.6-14.13,2.77-5.97,3.47-18.57,3.47-18.57.26-9.86,7.42-13.46,15.91-13.02l43.67.43c7.5.39,13.11,5.82,12.79,14.99l-1.2,32.75c-.32,9.1-6.59,16.34-14.05,16.19Z"/><path class="cls-2" d="M190.08,122.8l-37.06,1.05s-16.89-5.33-23.31-.6c-6.81,5.02-19.16,2-18.69,1.4l-34.93.82c-8.6-.17-15.49-8.41-15.31-18.42l.58-33.46c.18-10.09,7.38-17.91,16.03-17.46,0,0,58.12-1.38,64.27.67s9.42-3.84,19.66-3.84,12.1,4.17,12.1,4.17l18.86.2c7.63.4,13.39,10.08,13.1,19.46l-5.2,34.05c-.28,9.31-2.5,12.11-10.09,11.96Z"/><path class="cls-2" d="M280.42,125.36l-49.86-.29c-8.6-.15-15.44-8.32-15.22-18.25l.74-33.22c.22-10.01,7.46-17.79,16.11-17.36l50.74.22c7.6.38,13.28,9.96,12.95,19.25l-1.22,33.2c-.33,9.22-6.68,16.58-14.25,16.45Z"/></g></svg>