<?xml version="1.0" encoding="UTF-8"?><svg id="Capa_2" xmlns="http://www.w3.org/2000/svg" width="346.41" height="347.17" viewBox="0 0 346.41 347.17"><defs><style>.cls-1{stroke:#0d2932;stroke-miterlimit:10;stroke-width:3.92px;}.cls-1,.cls-2{fill:#0d2932;}.cls-3{fill:#d24f23;}</style></defs><g id="Capa_1-2"><path class="cls-2" d="M172.73,170.9c.26-.27,2.57-1.8,2.96-1.8l59.28,7.75c6.74,2.78,16.56,3.13,24.4,4.19,7.97,1.08,5.31.75,13.17,2.46,4.14.9,7.49,2,8.57,5.9,1.94,6.98-2.29,13.34-10.57,13.33-19.14-1.96-26.18-4.33-45.03-7.57-11.5-1.98-26.47,3.59-36.43-3.77-1.68-1.24-15.36-2.17-17.85-1.04,0,0,4.57-.79,4.23-.63-9.46,4.22-6.27-3.23-5.13-7.28.9-3.22.17-9.21,2.4-11.54Z"/><path class="cls-1" d="M328.57,104.96l-60.54-33.3s-6.86-.16-17.05-.24c-9.64-.07-22.37,5.17-35.3,3.06-4.1-.67-18.88-2.19-37.89-1.7-42.28,1.08-37-3.53-55.69-1-9.5-1.17-65.82-.7-65.82-.7l-18.7-.14s-33.58-3.95-34.11,15.33c-.25,9.26-1.24,24.97-1.49,40.3-.1,6.12.14,18.23,9.74,26.13l55.22,47.58.6,24.89s-.29,9.71,4.88,14.89c-1.04,5.69-5.18,10.35-4.03,20.7.18,7.42.6,24.91.6,24.91l52.55,54.3c3.21,3.31,7.4,5.24,11.41,5.24l118.82-.14c13.45-.6,22.86-10.71,22.95-24.69,0,0-.13.49-1.01-39.01-.31-13.73,1.12-87.46,1.12-87.46.11-.04,34.28-1.21,54.34-1.9,8.37-.29,14.29-6.48,14.43-15.08l.86-51.52c-1.27-10.44-2.2-13.56-15.88-20.44Z"/><path class="cls-3" d="M253.22,258.35l-112.13-1.4c-7.85-.1-14.41-7.79-14.61-17.18l-.14-6.48s-3.34-3.83-1.77-6.85,1.41-10.69,1.41-10.69l-.15-7.28c-.2-9.41,6.06-12.86,13.93-12.54,0,0,18.86,1.5,26.45,2.01,7.6.51,66.97-.28,66.97-.28l19.03-1c7.06.29,12.8,5.42,12.95,14.25l.51,31.65c.15,8.81-5.4,15.89-12.44,15.8Z"/><path class="cls-3" d="M324.58,183.14l-113.17-4.8c-7.92-.06-12.55.74-12.75-8.91,0,0,1.15-16.04-1.3-18.09s-.33-4.54-.33-4.54c0,0,1.32-2.29,1.49-6.34s-2.52-7.96-2.52-7.96c-.2-9.67,6.12-17.27,14.06-16.98l17.75.03s18.96-8.75,26.5-3.3,11.17,3.36,11.17,3.36l58.08.09c7.12.26,12.37,5.12,12.53,14.19l.24,39.21c.15,9.06-4.63,14.09-11.74,14.03Z"/><path class="cls-3" d="M176.42,178.87l-107.11,3.04c-7.77-.06-18.19-7.86-18.38-17.41l-.65-31.87c-.19-9.58,6-17.11,13.79-16.82l22.1.04s7.2-3.7,15.68-1.83c18.25,1.03,8.48,1.87,8.48,1.87l65.07.11c6.99.26,12.67,9.44,12.82,18.43,0,0-1.84,19.96-2.66,24.4s2.81,10.44,2.81,10.44c.15,8.97-5,9.66-11.97,9.6Z"/><path class="cls-3" d="M251.95,334.64l-40.54-.49c-7.92-.14-13.5-8.17-13.7-17.82l1.45-31.4c-.2-9.67,3.12-12.66,11.07-12.28l40.71-1.22c7.06.33,12.8,5.7,12.95,14.73l.51,32.38c.15,9.02-5.4,16.22-12.44,16.1Z"/><path class="cls-3" d="M176.42,334.33l-36.58.31c-7.85-.14-14.41-8.04-14.61-17.64l-.66-32.03c-.2-9.63,6.06-13.22,13.93-12.84l37.62,2.69c6.99.33,11.96,2.29,12.11,11.28l.5,32.22c.15,8.97-5.35,16.14-12.32,16.02Z"/><path class="cls-2" d="M53.46,47.57c.73-.16,12.92,1.56,13.68,1.52,0,0,72.79,22.6,125.08,24.51s25.61,5.74,41.2,6.73c15.84,1.01,10.56.73,26.28,3,8.28,1.2,15.02,2.9,17.7,10.42,4.79,13.47-2.63,26.59-18.95,27.73-37.96-1.19-52.15-4.86-89.73-8.61-22.93-2.29-51.63,10.76-72.26-2.33-3.49-2.21-30.56-2.12-35.29.46,0,0,8.9-2.19,8.25-1.84-18.03,9.64-37.16-18.9-35.49-27.02,1.33-6.46-8.59-28.5,19.54-34.58Z"/><path class="cls-2" d="M83.92,9.38C86.67,5.7,95.63.32,100.21.02c11.45-.75,13.64,15.52,14.56,23.92,1.03,6.61-3.27,11.57-6.16,17.06-2.72,2.15-5.18-.36-7.76-1.09-8.33-2.34-16.03-.94-20-10.7-2.11-5.19-.28-15.36,3.07-19.84Z"/></g></svg>