<?xml version="1.0" encoding="UTF-8"?>
<svg id="Capa_2" data-name="Capa 2" xmlns="http://www.w3.org/2000/svg" viewBox="0 0 255.56 107.51">
  <g id="Capa_1_Imagen" data-name="Capa 1 Imagen">
    <g>
      <path d="M110.45,56.74l11.92,49.52c-1.5.78-7.03,1.06-7.98-.07-1.64-6.1-3.29-12.23-4.79-18.38-1.11-4.57-2.09-9.09-3.25-13.65-.7-2.76-3.03-15.15-4.65-16.07-.44-.25-4.75-1.37-5.19-1.34-3.19.18-.93,5.28-.79,7.33.79,11.96.23,23.51-.03,35.42-.05,2.14,1.77,6.47-.88,7.26-2.3.69-6.68.14-6.73-2.86.45-26.72-.25-53.52-.54-80.16-.06-5.11-.1-10.47,1.08-15.33.68-.5,14.54,2.12,16.5,2.66,7,1.92,13.78,7.77,14.61,15.38.46,4.26.55,17.09-.13,21.14s-5.12,8.09-9.13,9.16ZM95.72,49.07c4.3-.18,7.1,1.75,11.33.16,7.92-2.96,3.69-12.09,5.56-18.42-.55-4.99-4.23-10.13-9.15-11.57-2.33-.68-6.57-1.82-7.08,1.33.29,3.37-.66,7.01-.69,10.21-.07,6.09,1.46,12.29.03,18.29Z"/>
      <path d="M135.39,16.51c9.69-.3,19.38,6.59,20.29,16.49,1.74,19.14-1.17,40.96-.13,60.37-2.3,17.15-27.03,19.03-30.78,3.81-2.39-9.69-.65-18.75-.13-28.18.43-7.78.23-17.34,0-25.13-.32-10.65-6.01-26.85,10.76-27.36ZM137.58,24.11c-2.54.25-5.92,1.39-5.89,4.51.4,21.5,1.58,43.01-.02,64.38,3.08,11.35,15.16,9.06,16.31-2.82,1.28-13.27-.59-28.46-.5-41.94.04-5.95,1.21-11.64-.1-17.85-.8-3.82-6.18-6.63-9.81-6.28Z"/>
      <path d="M51.75,95.23c2.94,2.92,3.98,1.76,7.11,2.43,2.04.44,5.26,1.7,7.14,1.61,3.32-.15,8.08-6.33,8.47-9.56.8-6.59.54-18.57.58-25.64.03-4.8-1.45-11.48-.57-16.33.79-4.32,7.73-5.05,8.18-1.15,1.06,9.3-1.05,20.26-.6,29.5.3,6.12,1.63,10.06.32,16.63-2.63,13.23-17.42,15.83-28.64,12.78-10.35-2.81-13.1-10.92-13.66-20.69-.79-13.73.74-27.83-.13-41.57,1.76-3.62,6.17-3.38,8.79-.89.12,7.97.14,15.95.11,23.92-.02,6.44-.65,13.16-.46,19.61.1,3.44.85,6.86,3.35,9.35Z"/>
      <path d="M34.66,106.32l-6.19-.07c-.85-.29-1.16-1.71-1.3-2.51-.95-5.22-.38-17.54-.16-23.33.07-1.87.93-3.73.56-5.7l-9.85,29.41-1.53-.03-7.97-15.2-.32,8.45.91,8.47c-.25.35-6.4,1.16-7.01,1-1.42-.37-1.4-1.73-1.51-2.89-.82-8.19.46-18.13.3-26.48,12.16-9.75,9.43,3.26,15.53,9.82,3.18-10.68,6.78-21.35,9.57-32.14.49-1.92.22-4.64,1.2-6.43.93-1.69,5-2.33,6.66-3.72l1.11.58v60.8Z"/>
      <path d="M.31,16.63c.21-.98,1.52-1.99,2.34-2.56,2.14-1.49,21.31-10.98,23.15-11.23,5.44-.76,8.98,3.84,9.41,8.87,1.31,15.3.04,21.6-13.62,28.94-4.01,2.16-12.48,4.02-13.12,9.23s2.81,15.3-2.97,18.84c-1.27.78-2.87,1.01-4.08,1.93l-1.11-.58V16.63ZM9.03,20.45v17.18c1.54-.68,2.99-1.62,4.54-2.28,2.73-1.16,7.91-2.99,10-4.99.87-.84,2.95-4.54,3.21-5.79.28-1.34.87-6.12.82-7.38-.42-10.74-14.74.78-18.57,3.26Z"/>
      <path d="M208.57,78.52c-6.16,2.55-12.09.03-18.27-.54-6.78-.62-13.67-.66-20.45-1.36-2.19-1.1-1.91-14.71-1.65-17.48.22-2.42,1.21-4.2,3.58-5.15,9.83,1.6,19.66,3.29,29.5,4.84,1.38.22,2.81-.12,4.18.18.75.17,3.11,1.91,3.11,2.34v17.18Z"/>
      <path d="M242.37,89.43c.72,2.88-3.92,3.11-4.64,4.36-.51.89.01,2.18-.8,3.02-1.5,1.54-8.59,1.84-10.92,1.89.63,3.42-.77,5.44-4.24,5.9-1.65.22-2.72-.46-4.19-.47-8.55-.04-17.1.08-25.65.03-.79,0-.93-.33-1.25-.93-.99-1.88-.84-10.95-.67-13.55.08-1.36.5-6.4,1.46-6.72,6,.02,11.97,1.16,17.92,1.56,3.98.26,11.67-.77,14.96.85.86.42.98,1.31,2.51,1.85,2.26.8,14.86,1.55,15.5,2.22Z"/>
      <path d="M40.65,0l7.68,1.45c2.11,7.42-2.05,19.33,2.69,25.53,2.59,3.38,10.13,7.16,14.43,6.82,13.84-1.1,8.57-14.21,9.55-23.71.62-5.96,2.86-4.25,7.54-2.92.86,1.28.85,17.71.65,20.38-.3,4.05-1.13,7.15-4.2,9.97-9.87,9.07-30.49,2.5-36.37-8.7-.41-.78-1.97-4.57-1.97-5.12V0Z"/>
      <path d="M190.58,30.81c.64-2.06,7.35.73,9.08.78,2.99.1,6.13-1.28,9.43.34.83.41,1.55,1.71,2.56,2.35s2.57.69,3.45,1.46c1.37,1.19,2.54,4.58,4.65,6.26s5.15,1.6,6.01,4.89c.44,1.69.73,7.55-.83,8.47-1.38.81-16.45-1.09-19.21-1.52-3.04-.47-10.73-1.67-13.22-2.59-.83-.31-1.4-.59-1.92-1.35v-19.08Z"/>
      <path d="M238.01,69.25c-.29.28-6.59-.17-7.09,1.63,4.44-.53,9.63,2.68,13.39,3.24,2.66.4,9.35-.61,10.74,2.35,3.97,8.47-16.46,4.37-20.02,4.2-6.89-.31-13.81.11-20.67-.64l-.86-.75c1.61-5.72-.72-11.7-.05-17.42.09-.78-.03-1.5.92-1.82.41-.14,7.54.37,8.64.48,6.33.63,13.8,1.43,15,8.72Z"/>
      <path d="M184.5,82.95c1.6,1.01,1.67,17.97.32,20.07-2.41,3.75-11.73.63-13.97-2.86-3.11-4.84-1.77-8.22-1.51-13.21.11-2.13-2.02-4.73,1.88-5.2l13.29,1.21Z"/>
      <path d="M185.12,49.35c-.13.44-.79.75-1.31.79-1.01.07-11.98-1.74-13.13-2.17-1.92-.72-1.76-1.07-1.95-2.95-.4-3.99-.48-14.23,2.79-16.9,2.78-2.27,10.58-.52,13.6,1.06v20.17Z"/>
    </g>
  </g>
</svg>