<?xml version="1.0" encoding="UTF-8"?>
<svg id="Capa_2" data-name="Capa 2" xmlns="http://www.w3.org/2000/svg" viewBox="0 0 253.68 107.76">
  <g id="Capa_1_Imagen" data-name="Capa 1 Imagen">
    <g>
      <path d="M101.82,58.47c-.62-.62-5.78-2.17-6.72-1.28-1.54,1.24.2,6.44.3,8.52.31,6.4-.02,12.75-.02,19.06,0,6.96-.09,13.95.2,20.88-.62,1.87-5.26,1.26-6.86.68l-.71-1.05c-.66-25.73.04-51.49-.22-77.22-.04-4.21-.87-8.57-.59-13.09.08-1.3.52-6.46,1.46-6.75.78-.24,14.35,2.34,16.12,2.84,8.17,2.35,13.9,8.98,14.63,17.54.45,5.25.69,18.75-2.2,22.92-1.96,2.84-5.22,3.63-7.06,5.94l11.72,48.3c-.84,1.72-7.41,1.72-8.36-.39-2.83-8.52-3.75-17.75-5.84-26.33-.41-1.67-1.37-3.26-1.76-4.78-.62-2.48-3.13-14.84-4.1-15.8ZM95.41,49.07c4.85.05,11.43,2.64,14.72-2.45,1.51-2.34,1.97-13.81,1.66-16.93-.58-5.9-8.35-12.87-14.36-11.04-1.12.34-2.02,3.03-2.02,3.98v26.44Z"/>
      <path d="M134.53,16.5c9.73-.42,19.39,6.62,20.29,16.5,1.76,19.31-1.18,41.33-.13,60.92-5.21,19.04-29.95,18.85-31.47-3.14-.84-12.06,1.25-24.03,1.14-35.98-.08-8.53-2.32-20.21-1.62-28.29.55-6.26,5.76-9.75,11.79-10.01ZM136.72,24.11c-9.16.91-5.43,10.66-5.32,17.04.14,7.99-.35,16.06-.05,24.04.11,2.95,1.15,6.22,1.15,9.25,0,7.09-5.78,21.69,3.25,25.06,7.16,2.67,10.52-2.37,11.35-8.78,1.34-10.4-.06-22.2-.49-32.62-.35-8.54,2-20.3-.11-28.24-.89-3.34-6.55-6.06-9.8-5.74Z"/>
      <path d="M43.46,40.47c1.49-.14,4.93.43,5.04,2.35l.39,47.59c.67,2.77,3.7,6.47,6.56,7.07,1.36.28,2.76-.04,4.11.25,2.31.49,4.58,1.95,7.09,1.41,2.08-.45,7.09-6.17,7.46-8.38.95-5.68-.04-16.06,0-22.35.02-3.09,0-6.15,0-9.22s-.49-9.33.16-11.88c.84-3.33,5.82-4.43,7.95-1.68.12,7.24.14,14.5.11,21.74-.01,2.74-.71,5.6-.59,8.72.27,7.2,2.31,13-.96,20.26-7.35,16.28-38.68,13.62-40.47-7.17-1.11-12.86.08-28.78.05-42.03,0-2.63-1.61-6.23,3.1-6.67Z"/>
      <path d="M34.35,45.26v61.07c-2.39.91-4.57.5-6.95-.13-.13-.09-.68-1.15-.68-1.24v-27.26c0-.49,1.01-1.98.54-3-.56-.02-.75.53-.96.94-1.61,3.07-3.68,10.52-4.87,14.22-1.51,4.69-2.66,9.55-3.98,14.29l-1.9-.55-7.91-14.71.46,17.37c-.43.69-7.23,1.27-8.1-.19v-29.17c2.46-.38,5.76-4.11,8.16-3.01s4.72,10.93,6.83,13.37c1.77-2.64,2.73-6.29,3.7-9.38,3.05-9.73,5.92-19.73,7.57-29.78l8.09-2.82Z"/>
      <path d="M0,16.09c.13-.47,2.01-1.93,2.6-2.3,2.4-1.52,20.25-10.28,22.19-10.52,7.17-.89,9.68,3.68,10.13,10.07.74,10.76.45,18.44-9.12,24.74-3.94,2.6-13.58,5.68-16.22,8.32-2.89,2.9-.83,8.33-.86,11.68-.01,1.46-.49,5.38-.81,6.82-.86,3.87-4.59,4.66-7.91,5.99V16.09ZM8.18,37.62c5.72-2.81,15.71-5.18,17.75-11.97.93-3.11,2.45-11.81-1.79-13.02-3.95-1.13-12.04,6.31-15.96,7.54v17.45Z"/>
      <path d="M207.71,77.7c-1.13,3.98-15.27.55-18.27.28-6.48-.59-13.1-.76-19.61-1.11-2.01-.38-2.34-2.37-2.49-4.05-.29-3.23-.42-11.7.06-14.72.27-1.71,1.68-3.11,3.07-4.03l33.57,4.95c1.03-.03,3.67,2.13,3.67,2.87,0,3.3.66,13.5,0,15.81Z"/>
      <path d="M240.97,89.43c.71,2.6-3.94,3.16-4.64,4.36-.52.88.02,2.18-.8,3.02-1.5,1.54-8.59,1.84-10.92,1.89.51,3.55-.62,5.53-4.25,5.88-1.69.17-2.72-.45-4.18-.45-8.37-.02-16.74.06-25.11.03-.48,0-.78-.19-1.09-.55-1.25-1.47-1.19-17.88-.16-19.8.2-.38.27-.77.78-.86,5.82.04,11.61,1.18,17.38,1.56,4.02.27,11.67-.83,14.95.86.91.47,1.02,1.31,2.53,1.83,2.26.79,14.87,1.55,15.5,2.22Z"/>
      <path d="M40.34,0l8.11,1.16c1.14,7.54-2.39,20.37,2.8,26.37,2.24,2.59,9.39,6.37,12.82,6.31,16.7-.27,8.16-17.01,11.42-27.32.81-1.3,6.69.21,6.86.92-.96,8.83,3.67,23.01-3.36,29.84-11.35,11.04-38.65-.14-38.65-15.75V0Z"/>
      <path d="M189.17,31.35c.05-.29.56-.84.62-1.29,1.15-.7,7.16,1.47,9,1.53,2.96.1,6.54-1.28,9.69.64.6.36,4.84,3.22,5.18,3.52,1.77,1.55,3.27,4.79,5.76,6.78s4.55,1.14,5.13,5.23c.23,1.62.4,6.75-1.03,7.59s-15.41-1.04-18.18-1.46c-2.15-.32-14.55-2.49-15.35-3.18-.15-.39-.82-1.12-.82-1.36,0-4.95-.75-13.59,0-17.99Z"/>
      <path d="M236.61,69.25c-.29.28-6.59-.17-7.09,1.63,4.38-.5,9.21,2.52,12.94,3.15,2.19.37,10.14-.27,10.95,2.13.59,1.74.25,4.55-1.68,5.22l-39.11-1.22c1.06-6.59-1.19-13.49-.04-19.93.38-.27,7.88.2,9.03.31,6.33.64,13.8,1.43,15,8.72Z"/>
      <path d="M184.27,49.62c-.58.87-14.13-1.36-16.12-2.14-.24-5.17-2.25-20.73,5.96-20.72,1.54,0,10.16,1.43,10.16,2.96v19.9Z"/>
      <path d="M169.39,81.89c.55-.16,8.91.38,10.17.52s3.32.37,4.12,1.33c.86,1.18.82,14.53.61,16.89-.48,5.29-5.72,4.56-9.74,3.14-7.94-2.79-6.49-10.82-6.15-17.29.06-1.25-1.61-3.82.98-4.6Z"/>
    </g>
  </g>
</svg>