<?xml version="1.0" encoding="UTF-8"?>
<svg id="Capa_2" data-name="Capa 2" xmlns="http://www.w3.org/2000/svg" viewBox="0 0 251.26 107.62">
  <g id="Capa_1_Imagen" data-name="Capa 1 Imagen">
    <g>
      <path d="M118.89,56.8l10.78,49.49-6.48.35-.78-.85c-1.66-6.46-3.07-12.97-4.51-19.48-1.71-7.73-2.96-18.15-5.57-25.51-1.24-3.5-3.14-3.15-6.35-4.04l-1.34,1.36c2.09,15.84.71,31.92,1.14,47.88-3.57,1.67-6.76,1.89-7.13-2.61-1.92-22.98.29-50.61.05-74.2-.02-1.56-.58-2.89-.59-4.31-.06-5.59.09-11.1.57-16.65,10.01,1.48,22.92,2.46,27.37,13.25,1.96,4.75,2.22,20.36,1.39,25.61-.72,4.55-4.39,8.14-8.54,9.73ZM105.76,49.11c6.41.93,13.65,2.22,14.66-6.33.35-2.97.6-12.9-.22-15.48-1.65-5.19-7.44-9.34-12.98-8.75-.21.05-1.46,2.33-1.46,2.48v28.08Z"/>
      <path d="M47.98,45.29v61.07c-2.5.74-7.04.75-9.45-.09-1.08-.37-1.37-3.87-1.47-5.07-.6-7.52.28-17.57,1.06-25.16.08-.83.42-1.51-.76-1.31l-12.89,29.37-2.54-.05c-3.26-4.95-7-9.53-10.35-14.43-.33-.49.08-1.01-1.21-.71l1,17.35c-.4.08-1.08.64-1.28.64H1.36c-.18,0-.83-.72-1.36-.55v-28.63c2.17-1.67,8.9-4.66,11.47-3.86,3.12.98,6.51,10.12,9,12.83.45.49.55.74,1.33.56,5.72-12.76,11.57-25.63,15.4-39.13l10.78-2.85Z"/>
      <path d="M0,16.12c.96-1.23,2.31-1.73,3.67-2.32,7.09-3.06,17.47-6.56,24.94-8.87,5.68-1.76,12.36-3.25,17.37,1.19,3.73,3.3,3.73,14.51,2.95,19.14-1.98,11.82-21.39,15.46-30.54,19.08-2.07.82-6.49,2.09-6.94,4.51-.94,5.03,2.76,16.03-2.98,19.38-.77.45-6.57,2.57-7.24,2.61-.47.03-1.25-.41-1.25-.74V16.12ZM11.99,37.66c4.09-1.82,9.17-2.51,13.2-3.98,1.63-.59,6.88-2.96,8.03-3.96,1.02-.89,3.22-3.86,3.59-5.13.26-.88,1.27-7.22,1.19-7.86-.13-1.1-2.23-3.32-3.25-3.73-5.65-2.31-17.48,6.17-23.31,7.22-.31.73.55,1.62.55,1.91v15.54Z"/>
      <path d="M141.61,16.53c9.45-.38,17.81,7.26,18.66,16.5,1.74,19.02-1.22,40.61-.06,59.9-1.91,18.3-26.88,20.81-28.82.06-1.45-15.46,1.02-32.71.57-48.54-.28-9.84-5.9-27.3,9.65-27.92ZM143.81,24.14c-9.64.81-5.07,15.5-4.77,21.95.28,5.91-.88,11.63-.59,17.49.15,2.93,1.05,6.26,1.14,9.22.22,7-3.04,15.13-1.14,21.86,2.06,7.32,11.43,7.38,13.92.24.69-1.98,1.09-5.85,1.16-7.99.32-9.85-.55-19.51-.91-29.33-.29-8,2.08-20.49-.11-27.7-.95-3.11-5.42-6.02-8.7-5.75Z"/>
      <path d="M57.63,40.49c1.23-.18,4.96.74,5.07,2.35-.03,8,.03,16.01.02,24.01,0,3.62-.04,7.23,0,10.86.06,5.49-1.42,12.44,2.16,16.93,2.94,3.68,4.26,2.32,7.78,3.13,2.26.52,4.03,1.95,6.55,1.4,2.17-.47,6.73-6.46,6.89-8.94l.18-42.89c1.29-3.59,5.32-4.66,7.38-1.11.17,6.69.16,13.39.14,20.08,0,1.16-.56,2.24-.56,3.25-.05,13.57,4.93,33.32-13.5,36.66-12.67,2.3-23.61-3.38-24.68-17.02-1.04-13.19.23-28.53.05-42.03-.03-2.22-1.46-6.11,2.54-6.69Z"/>
      <path d="M174.83,54.1l32.32,5.65c1.14.85,1.5,1.88,1.66,3.25.23,1.98.21,14.45-.5,15.33-2.45,3.07-13.12.03-16.69-.32-6.05-.6-12.21-.7-18.26-1.37-.9-.69-1.42-1.65-1.6-2.76-.46-2.79-.39-12.31-.04-15.25.25-2.09,1.41-3.4,3.12-4.53Z"/>
      <path d="M224.19,87.15c1.44.89,10.94,1.24,13.95,2.16.79.24,1.37-.22,1.2.97-.29,2.02-2.96,2.02-3.86,3.23-.76,1.03-.45,2.94-1.43,3.62-1.84,1.27-7.1,1.48-9.44,1.6.34,3.34-1.15,5.82-4.68,5.96-1.03.04-2.08-.54-3.21-.54-6.56.03-16.28.84-22.4.05-.87-.11-1.73-.21-2.16-1.11-.31-.65-.86-6.74-.85-7.92s.54-2.21.58-3.27c.08-2.06-.69-7.84,1.09-8.72,1.57-.78,13.73,1.18,16.61,1.39,3.4.24,10.71-.78,13.37.81.83.5.89,1.55,1.23,1.76Z"/>
      <path d="M55.06.03c1.51-.18,6.6.34,7.37,1.63,1.67,8-2.68,20.77,3.59,26.94,2.39,2.35,8.29,5.48,11.65,5.23,12.85-.93,8.22-14.38,8.99-23.19.17-1.92.16-4.64,2.44-4.64,2.83,0,4.42.79,4.69,3.54.38,3.81.53,19.47-.29,22.67-.33,1.31-2.52,4.75-3.54,5.73-10.71,10.36-34.91-1.58-34.91-15.83V.03Z"/>
      <path d="M224.07,54.29c-.05.3-.54.85-.64,1.28-.76.45-11.35-.81-13.2-1.07-4.6-.66-11.67-1.75-15.98-3.11-1-.32-1.73-.52-2.36-1.46v-19.08c0-2.13,7.42.74,8.53.79,2.87.13,5.51-1.35,8.78.44,1.07.59,1.26,1.62,2.12,2.24,4.35,3.14,3.53,3.54,6.73,6.9,1.37,1.44,6.01,3.64,6.01,4.89,0,2.36.35,6.07,0,8.18Z"/>
      <path d="M228.97,70.91c4.11-.46,8.92,2.74,12.3,3.24,2.5.38,8.27-.58,9.65,2.35,1.11,2.34-.71,5.1-3.12,5.35l-34.11-1.92-.55-1.09c1.42-2.89-1.3-17.29.53-18.59,7.84.64,18.71-.7,21.84,8.2-.41,1.47-5.83.56-6.54,2.46Z"/>
      <path d="M177.58,26.87c1.97-.19,9.02.94,9.72,3.12.61,1.88.54,14.73.25,17.22-.1.89-.44,2.67-1.42,2.89-2.16-.85-13.2-1.27-13.78-2.97-.44-1.29-.19-12.64.17-14.41.49-2.41,2.36-5.59,5.06-5.85Z"/>
      <path d="M173.76,81.91c.41-.12,7.52.36,8.59.47,1.36.13,3.18.42,4.38,1.07,1.19,1.52,1.21,17.5.2,19.31-1.98,3.52-8.32,1.58-10.85-.47-5.12-4.14-3.68-10.18-3.37-15.82.07-1.33-1.46-3.83,1.05-4.55Z"/>
    </g>
  </g>
</svg>