<?xml version="1.0" encoding="UTF-8"?>
<svg id="Capa_2" data-name="Capa 2" xmlns="http://www.w3.org/2000/svg" viewBox="0 0 261.74 107.55">
  <g id="Capa_1_Imagen" data-name="Capa 1 Imagen">
    <g>
      <path d="M108.47,106.3c-2.24.47-8.01,1.46-9.49-.55-1.11-1.51-4.47-14.69-5.28-17.62-1.5-5.44-2.78-10.32-4.43-15.74-.82-2.7-2.86-13.33-4.78-14.31-.36-.18-5.34-1.35-5.78-1.36-4.1-.05-1.5,3.96-1.33,5.75,1.02,11.35.8,23.96.61,35.42-.04,2.64-.4,5.29,0,8.09-.31,1.13-8.75,1.66-9.06-1.27-.64-25.73.02-51.48-.22-77.21-.04-3.85-.83-7.82-.59-12,.08-1.43.52-6.98,1.47-7.28,12.12,1.23,33.92,3.05,35.63,18.75.41,3.73.56,17.24-.13,20.6s-4.1,6.06-6.94,7.78c-1.19.72-3.15.57-3.32,2.15l13.62,48.78ZM77.96,49.07c7.68.64,17.37,3.07,18.47-7.43.3-2.86.62-8.05.62-10.84-.01-6.94-9.19-12.57-15.55-12.32-1.06.04-3.53,1-3.53,1.96v28.63Z"/>
      <path d="M123.11,16.48c9.87-.4,22.52,5.73,23.53,16.51,1.81,19.27-1.22,41.37-.12,60.93-2.85,13.62-21.76,17.74-31.75,9.12-6.22-5.36-4.82-20.83-4.67-28.63.22-11.08,1.07-22,.56-33.24-.24-5.38-2.77-14.72.31-19.34,2.17-3.25,8.42-5.2,12.14-5.35ZM125.83,24.12c-10.39.72-6.54,9.84-6.42,17.03.14,7.78-.39,15.74-.04,23.49.17,3.91,1.42,7.11,1.13,11.45-.48,7.24-5.65,20.07,3.8,23.42,7.87,2.79,12.57-1.82,13.53-9.35,1.3-10.15-.02-21.37-.47-31.51-.33-7.5,1.07-15.09.59-22.4-.1-1.47-.44-5.08-.81-6.28-1.1-3.58-7.84-6.08-11.31-5.84Z"/>
      <path d="M22.77,41.57c.73,1.03.62,2.22.7,3.39.93,13.74-1.75,28.5-.59,42.03.39,4.48,2.95,9.19,7.64,10.36,1.66.42,3.11.04,4.59.32,2.95.57,6.8,2.08,9.62,1.31,2.09-.57,7.74-6.1,8.13-8.22.91-4.97-.04-15.07,0-20.72,0-1.29.58-2.48.59-3.77.03-5.02-1.62-14.61-.32-18.86,1.02-3.35,6.71-4.64,8.93-1.79.13,7.61.13,15.22.11,22.83,0,1.57-.62,3.1-.61,4.89.02,5.66,1.89,11.24,1.09,17.39-2.84,21.63-46.96,22.03-49.04-2.12-1.1-12.84.22-28.27.05-41.48-.03-2.06-1.43-3.56.55-5.4,2.33-2.17,5.88-1.04,8.56-.17Z"/>
      <path d="M165.05,54.06c11.61,1.42,23.18,3.22,34.76,4.82,3.2.44,7.66-.63,8.41,4.12.25,1.58.2,14.24-.23,14.97-6.61,3.55-14.28.55-21.28,0-7.87-.63-15.84-.69-23.71-1.37-.51-.38-.98-.92-1.22-1.51-.68-1.62-.74-14.76-.38-17,.3-1.91,1.89-3.41,3.64-4.04Z"/>
      <path d="M246.96,91.05c-.18.26-4.38,1.88-4.91,2.46-.7.77-.47,1.94-1.05,2.76-1.5,2.12-10.39,2.34-13.12,2.42.09,2.68.49,4.01-2.18,5.18-3.07,1.34-4.17.26-6.79.25-10-.04-20,.09-29.99.01-3.31-.63-2.66-10.56-2.49-13.37.14-2.29.13-7.53,2.5-7.88,6.7.28,13.44,1.29,20.12,1.66,4.37.24,13.6-.84,17.18.81.71.33,1.02,1.41,2.05,1.77,3.08,1.08,8.89.77,12.35,1.28,1.08.16,7.43,1.07,6.33,2.65Z"/>
      <path d="M13.63,0l9.19,1.17c.96,6.81-1.54,16.87,1.23,23.03,2.54,5.64,13.24,10.16,19.23,9.55,17.04-1.74,6.68-16.5,11.49-27.22,1.34-1.36,6.21-.07,7.66,1.1.28.41.24.88.29,1.34.42,3.51.47,19.68-.29,22.67-.18.72-1.21,2.55-1.69,3.22-10.23,14.56-47.12,4.13-47.12-13.87V0Z"/>
      <path d="M186.99,30.81c.65-2.09,9.15.81,11.2.84,3.5.04,6.59-1.37,10.46.4.57.26,6.36,3.46,6.66,3.7,1.42,1.14,2.7,3.93,4.43,5.38,5.02,4.21,9.11,1.66,8.17,10.98-.41,4.07-2.82,3.64-6.3,3.5-7.32-.3-16.54-1.64-23.83-2.88-3.46-.59-8.24-.84-10.79-2.84v-19.08Z"/>
      <path d="M238.97,65.25c.99,1.06,4.2,1.77,2.85,3.49-1,1.27-6.94.14-7.94,2.14,5.01-.46,10.64,2.66,15.04,3.23,3.38.44,13.13-1.09,12.82,4.14-.28,4.64-8.43,3.68-11.8,3.57-10.91-.38-22.51-1.15-33.39-2.05-1.14-.09-2.18.9-2.81-.49l.47-19.05c.83-.58,16.95,1.07,19.24,1.55,1.06.22,3.45.7,4.22,1.23,1.09.75.83,1.77,1.28,2.26Z"/>
      <path d="M181,48.8c-.19.6-1.6,1.16-2.34,1.19-1.84.08-13.06-1.45-14.8-2.05-.69-.24-1.3-.28-1.68-1.04-.42-5.96-2.14-20.13,7.03-20.13,1.64,0,11.79,1.4,11.79,2.95v19.08Z"/>
      <path d="M180.32,103.47c-3.08,3.08-13.54.07-16.22-3.42-3.35-4.35-1.82-8.37-1.59-13.08.08-1.63-1.42-3.34.18-4.68,1.69-1.31,3.81,0,5.51.04,4.01.1,8.17-.4,12,1.09,1.21,1.37,1.24,18.95.14,20.06Z"/>
      <path d="M10.36,106.87c-.63.22-2.18-.24-2.18-.82v-28.08l-1.63,10.09-1.1,16.08c-.77.13-.79-.96-.93-1.51-.74-2.98-.76-6.42-1.43-9.49-.14-.63-.07-2.17-.91-2.08-.97,4.06,1.2,10.91.54,14.44-.11.61-.26,1.03-.82,1.36-.54.28-1.9-.36-1.9-.81v-28.9c0-.29,1.9-3.74,2.72-3,.64,3.27.68,6.64,1.26,9.92.12.68.1,2.64.92,2.62.75-9.55,1.83-19.09,2.73-28.63.36-3.81-.89-9.81,2.73-12.26v61.07Z"/>
      <path d="M0,70.34V15.54c0-.64,5.76-9.95,6.54-10.9.64-.78,1.57-2.05,2.45-.82.71.8,1.25,3.49,1.36,4.64.6,6.1.54,19.98-1,25.7-1.64,6.07-7.21,10.72-7.21,16.82,0,1.42.63,2.76.61,4.33-.04,4.35.66,12.28-2.75,15.02ZM2.73,19.9c-.94,4.61.7,12.21,0,17.18,1.57-1.32,2.94-3.38,3.73-5.26.54-1.28,1.72-4.75,1.72-5.92v-11.45c0-.21-.71-.82-.55-1.36-1.18-.83-4.72,5.95-4.9,6.81Z"/>
    </g>
  </g>
</svg>