<?xml version="1.0" encoding="UTF-8"?>
<svg id="Capa_2" data-name="Capa 2" xmlns="http://www.w3.org/2000/svg" viewBox="0 0 260.61 107.53">
  <g id="Capa_1_Imagen" data-name="Capa 1 Imagen">
    <g>
      <path d="M95.4,56.75l13.95,49.07c-.97,1.6-8.07,1.62-9.28-.03-1.99-5.91-3.89-11.91-5.5-17.94-1.47-5.51-2.53-9.86-4.21-15.42-.81-2.68-2.82-13.31-4.78-14.31-.43-.22-5.82-1.42-6.24-1.38-3.39.34-.99,3.35-.86,4.66.25,2.42.47,5.67.59,8.13.59,11.98-.51,24.44,0,36.46-.32,1.37-7,1.12-8.21.1l-.54-97.88c11.48,1.62,28.99,1.86,34.57,14.23,1.88,4.18,2.06,19.81,1.17,24.51-1.02,5.39-5.75,8.34-10.66,9.8ZM79.05,49.1c9.67.7,17.39,3.32,18.47-9.07.74-8.49.82-17.22-8.8-20.5-2.24-.76-9.66-2.18-9.66,1.48v28.08Z"/>
      <path d="M124.18,16.54c10.19-.26,22.02,6.02,23.01,17.03,1.7,19.01-1.14,40.57-.12,59.84-2.53,16.25-28.7,18.83-34.49,5.86-2.25-5.03-2.21-18.53-1.9-24.26.55-10.13,1.44-20.38,1.13-30.54-.18-6.12-2.39-14.55-1.02-20.61,1.03-4.58,9.26-7.22,13.39-7.33ZM126.37,24.16c-8.11.71-7.57,6.4-6.98,13.22.65,7.53,1.06,13.54,1.12,21.28.04,5.61,1.08,11.4,1.01,16.39-.07,5.27-2.68,10.76-2.14,16.87.91,10.39,15.55,10.86,18.29,2.44,1.68-5.17.78-13.26.79-18.84,0-5.93-.3-10.46-.55-16.31-.38-9.02,1.81-20.33-.09-28.81-.88-3.94-7.77-6.57-11.44-6.24Z"/>
      <path d="M27.45,94.17c3.53,4.01,5.69,2.76,9.84,3.52,2.38.43,5.34,1.77,7.68,1.61,3.47-.24,9.15-6.13,9.56-9.56.74-6.12-.08-14.83-.03-21.3.01-1.43.6-2.78.61-4.33.02-4.34-2.86-18.2,2.52-19.8,2.2-.65,5.87-.42,6.19,2.31.66,5.61.04,14.27,0,20.23-.02,3.02-.78,5.93-.59,9.27.46,8.37,3.08,15.1-2.7,22.88-9.48,12.74-44.16,10.16-44.72-9.79l-.26-46.64c1.36-2.76,8.75-2.28,9.45-.18l.09,46.26c.2,1.85,1.15,4.14,2.37,5.54Z"/>
      <path d="M162.59,76.24c-1.07-1.07-1.4-13.27-1.21-15.4.27-3.12.71-5.33,3.67-6.74,11.6,1.46,23.19,3.16,34.76,4.82,2.38.34,6.75-.43,7.79,3.12.37,1.26.39,13.61.1,15.14-.08.43-.17.83-.47,1.16-6.5,3.09-13.74.22-20.51-.32s-14.82-.37-21.81-1.1c-.81-.08-1.64-.17-2.31-.67Z"/>
      <path d="M240.3,96.4c-1.98,2.02-10.04,2.25-12.97,2.31.09,2.68.49,4.01-2.18,5.18-3.07,1.34-4.17.26-6.79.25-10.16-.04-20.32.14-30.48-.04-1.93-.66-1.61-12.58-1.46-14.95.09-1.32.49-5.84,1.46-6.17,6.85-.02,13.78,1.19,20.62,1.58,4.77.27,12.54-.84,16.8.65,1.06.37,1.37,1.56,2.43,1.93,2.14.75,18.65,1.39,18.67,3.13-1.07,1.81-4.31,2.15-5.47,3.29-.81.8.13,2.06-.64,2.85Z"/>
      <path d="M15.81.03c1.77-.14,8.14.18,9,1.63,1.52,6.98-1.95,18.74,2.21,24.51,3.06,4.25,12.75,8.14,17.9,7.61,16.93-1.74,6.77-16.59,11.45-27.26,1.56-1.29,5.21.22,7.07.55.75.52.85,3.15.92,4.12.3,4.64.56,18.14-1,21.95-.84,2.04-2.93,3.88-4.73,5.08-10.26,6.8-26.93,3.12-35.98-4.39-2.58-2.14-6.83-7.8-6.83-11.17V.03Z"/>
      <path d="M186.99,30.84c.67-2.15,8.76.81,10.66.83,1.55.02,3.09-.62,4.89-.6,3.25.02,9.65,2.75,12.25,4.69,1.32.98,2.86,3.96,4.25,5.17,3.45,3.02,7.6,2.32,8.25,7.41.79,6.22-.12,7.56-6.22,7.3-7.16-.29-25.73-2.23-32.13-4.39-.56-.19-1.95-.8-1.95-1.32v-19.08Z"/>
      <path d="M233.33,70.91c2.79.41,6.16.64,8.86,1.23,1.87.41,4.17,1.74,6.18,2,4,.52,13.95-1.3,11.98,5.55-.84,2.93-9.35,2.23-12.02,2.13-10.83-.43-21.95-1.03-32.73-2.05-.85-.08-1.75.93-2.42-.45l.48-19.07c.81-.57,17,1.05,19.24,1.55,4.2.93,6,3.39,8.6,6.66-.34,1.59-7.39.48-8.17,2.46Z"/>
      <path d="M181,48.83c-.19.6-1.6,1.16-2.34,1.19-1.84.08-13.06-1.45-14.8-2.05-.69-.24-1.3-.28-1.68-1.04-.68-5.76-1.58-20.13,7.09-20.18,1.62-.01,11.73,1.45,11.73,3v19.08Z"/>
      <path d="M12.54,45.83v61.07l-2.73-.82v-28.63l-1.56,7.44-1.98,18.74-.82.54-2.73-13.63v16.36l-2.22-.24L.03,77.76c-.24-.97,2.46-4.29,3.24-3.57.62,3.7.98,7.48,1.66,11.17.16.9-.35.94,1.07.82.69-10.3,2.19-20.55,3.27-30.81.37-3.55-1.19-7.85,3.28-9.54Z"/>
      <path d="M180.32,103.5c-2.01,2.01-8.89.87-11.43-.04-8.81-3.15-6.61-13.66-6.32-20.97,2.07-1.49,4.2-.19,6.16-.14,3.83.11,7.8-.37,11.45,1.09,1.21,1.37,1.24,18.95.14,20.06Z"/>
      <path d="M0,15.57c.2-.89,8.35-12.02,9.08-12.22,2.66-.72,3.36,6.1,3.48,7.83.59,8.5.67,20.54-3.74,27.94-4.56,7.66-6.07,4.97-6.13,15.73-.02,3.82.64,8.04,0,11.95-.14.88-1.41,3.92-2.7,3.57V15.57ZM2.73,21.02c-.88,4.34.65,11.42,0,16.09,1.79-.54,4.54-4.17,5.31-5.87,1.53-3.41,2.09-11.29,1.71-15.06-.32-3.11-.98-4.66-3.44-1.39-.43.57-3.51,5.88-3.58,6.23Z"/>
    </g>
  </g>
</svg>