<?xml version="1.0" encoding="UTF-8"?>
<svg id="Capa_2" data-name="Capa 2" xmlns="http://www.w3.org/2000/svg" viewBox="0 0 255.36 107.61">
  <g id="Capa_1_Imagen" data-name="Capa 1 Imagen">
    <g>
      <path d="M115.39,52.74c-1.31,1.48-6.29,3.58-6.32,4.77l11.92,48.8c-1.85.76-7.23,1.24-8.38-.51-1.45-5.63-3.02-11.23-4.39-16.88-1.19-4.91-2.26-9.64-3.5-14.49-.77-2.99-3-15.17-4.97-16.3-.46-.26-4.72-1.37-5.19-1.35-3.26.18-.96,3.69-.83,5.18,1.29,14.61.16,29.42.61,44.03-.31,1.29-6.86,1.52-7.93-.73-.7-25.65,0-51.47-.25-77.18-.01-1.56-.58-2.89-.59-4.31-.06-5.06.07-10.05.81-15.05.59-.89,4.63,0,5.88.17,9.8,1.42,20.9,3.47,24.82,13.89,1.68,4.47,1.85,18.85,1.17,23.81-.24,1.73-1.71,4.83-2.87,6.13ZM93.77,49.11c4.93.44,14.5,2.56,16.12-4.32.68-2.89,1.23-13.76.66-16.54-.63-3.07-5.22-7.75-8.16-8.74-2.46-.83-7.19-2.22-7.92,1.12-1.41,6.41.28,18.76-.12,26.06-.05.92-.15,1.6-.58,2.42Z"/>
      <path d="M133.99,16.55c4.19-.13,10.43,1.91,13.77,4.47,5.43,4.17,6.64,8.67,7.07,15.29.99,15.25,1.13,38.82.03,54-.81,11.17-8.27,18.65-19.87,17.11-10.52-1.4-12.32-10.45-12.85-19.32s.86-16.24,1.11-24.56c.3-9.69-.73-19.2-1.14-28.85-.12-2.79-.34-7.77.06-10.35.75-4.83,7.5-7.66,11.84-7.79ZM136.18,24.15c-2.54.25-5.92,1.39-5.89,4.51.4,21.5,1.58,43.01-.02,64.38,2.31,10.35,14.3,9.66,16.32-1.19.69-3.68.61-11.12.63-15.18.04-6.92-.86-13.02-1.11-19.66-.3-8.04,1.41-15.76.47-23.92-.62-5.38-4.85-9.49-10.41-8.95Z"/>
      <path d="M40.73,40.49c1.21-.18,5.5.61,5.61,2.35.01,8.37-.02,16.73.02,25.1.01,2.19-.02,4.29,0,6.5.07,7.09-2.17,18.33,5.04,22.22,2.51,1.35,3.63.63,5.97,1.12,3.25.68,6.25,2.72,9.42.42.27-.19,4.11-4.59,4.33-4.94,2.47-4.07.76-8.58.81-12.81.02-1.55.58-2.89.6-4.32.16-9.74-.37-19.5.22-29.22.5-3.09,6.47-3.63,7.67-1.61.65,1.11.3,18.6.29,21.57s-.69,5.99-.59,9.27c.26,8.43,2.74,15.66-2.8,23.33-8.1,11.21-32.83,9.39-38-4.34-3.42-9.07-1.76-36.8-1.68-47.94.02-2.38-.94-6.1,3.08-6.69Z"/>
      <path d="M32.71,45.3v60.8c-1.63,1.65-5.36.72-7.09-.55v-28.35c0-.35,1.51-2.82,0-2.99l-8.73,29.99-1.9-.55-7.91-15.26,1.01,17.91c-.43.69-7.23,1.27-8.1-.19v-28.35c1.96-1.45,6-5.09,8.39-3.49,1.43.95,4.45,9.64,5.51,11.96.22.49.16,1.51.83.81,4.39-12.64,8.29-25.65,10.46-38.88l7.53-2.83Z"/>
      <path d="M0,16.67c.36-1.7,3.59-3.29,5.09-4.18,2.51-1.5,16.19-8.83,18.12-9.14,6.54-1.05,9.61,2.87,10.08,8.94.86,11.16,1.02,19.46-8.9,26.05-3.5,2.32-13.92,6.25-15.66,8.87-2.45,3.69.97,13.82-1.58,19.69-.87,2-4.32,2.49-6.03,3.8l-1.11-.58V16.67ZM8.18,20.49v17.18c4.73-2.38,9.69-4.14,13.99-7.27,3.35-3.28,6.37-18.49-.58-17.81-3.67.36-9.91,6.16-13.41,7.91Z"/>
      <path d="M208.26,78.56c-6.53,2.54-12.38.03-18.81-.54s-13.09-.8-19.61-1.11c-2.01-.38-2.34-2.37-2.49-4.05-.29-3.23-.42-11.7.06-14.72.27-1.71,1.69-3.12,3.09-4.04l34.1,4.95c1.22-.05,3.67,1.83,3.67,2.87v16.63Z"/>
      <path d="M237.79,93.37c-.31.51.05,1.74-.36,2.63-1.07,2.31-9.26,2.76-11.73,2.72.78,3.53-1.21,5.76-4.7,5.98-1.29.08-2.45-.54-3.73-.55-8.54-.05-17.09.1-25.63,0-2.14-.25-2.31-3.87-2.46-5.72-.39-4.74.44-10.15,1.03-14.76l1.45-.77c5.62.31,11.27,1.27,16.87,1.64,4.26.28,10.89-.75,14.68.59,1.54.55,1.76,1.53,2.9,2,2.59,1.07,7.76.8,10.71,1.29,11.73,1.94,1.78,3.61.97,4.95Z"/>
      <path d="M38.16.04c1.78-.18,7.48.2,8.09,2,.94,6.28-1.01,15.1.21,21.05.94,4.54,7.36,8.35,11.33,9.94,4.23,1.69,12.43.42,14.45-4.09,2.2-4.91-.63-19.72,1.63-22.36,1.07-1.26,6.2-.25,6.72,1.47.76,2.53.12,12.83.08,16.27,0,.95.48,1.87.46,2.7-.05,2.74-.44,5.95-2.07,8.18-8.78,11.95-30.97,6.06-38.07-4.99-.74-1.16-2.81-5.36-2.81-6.46V.04Z"/>
      <path d="M189.72,30.85c.63-2.04,7.88.72,9.62.78,2.98.1,6.13-1.28,9.43.34.3.15,5,3.37,5.51,3.76,1.89,1.47,3.09,4.67,5.15,6.3,4.64,3.67,7.08,1.51,6.29,10.12-.37,4.04-1.5,3.66-5.2,3.51-7.78-.31-19.47-2.16-27.11-3.96-1.43-.34-2.81-.43-3.7-1.76v-19.08Z"/>
      <path d="M231.16,69.84c-.16,1.41,0,.87.79,1.1,2.19.64,4.81.68,6.96,1.22,1.5.38,3.27,1.65,4.64,1.9,2.23.41,10.69-.26,11.5,2.13,1.05,3.09-.62,5.86-3.97,5.66l-37.38-1.9-.56-1.12c1.6-6.06-1.3-12.55.53-18.58.86-.6,15.01,1.02,17.06,1.55,3.92,1.01,5.29,3.52,7.51,6.66-.22,1.03-5.92,1.38-7.08,1.37Z"/>
      <path d="M173.76,26.88c1.88-.16,9.87,1.08,10.65,2.73.7,1.46.68,17.87,0,19.37-.21.47-.52,1.02-1.04,1.16l-14.53-2.22c-2.51-1.13-1.43-12.52-.67-15.19s2.51-5.59,5.6-5.85Z"/>
      <path d="M183.64,83c1.58.98,1.66,17.82.56,19.76-1.69,3.01-6.37,1.9-9.1,1.04-9.61-3.01-6.87-13.09-6.94-20.88l2.19-1.14,13.28,1.22Z"/>
    </g>
  </g>
</svg>