<?xml version="1.0" encoding="UTF-8"?>
<svg id="Capa_2" data-name="Capa 2" xmlns="http://www.w3.org/2000/svg" viewBox="0 0 255.95 107.53">
  <g id="Capa_1_Imagen" data-name="Capa 1 Imagen">
    <g>
      <path d="M103.11,56.8l12.42,49.48c-1.6.75-7.57,1.07-8.55-.08-.57-.67-4.11-14.65-4.67-16.87-1.46-5.79-2.75-11.19-4.34-16.93-.71-2.55-2.53-13.35-4.35-14.23-.53-.26-5.17-1.45-5.62-1.42-3.22.18-.98,4.06-.84,5.74,1.03,12.79.37,25.4.06,38.11-.04,1.58,1.46,4,.01,5.47-1.19,1.21-6.5,1.21-7.38-.28-.69-24.38,0-48.93-.24-73.37-.01-1.56-.58-2.89-.59-4.31-.08-6.65-.14-13.33.57-19.93,10.76,1.74,26.19,1.93,31.56,13.42,2.16,4.62,2.38,19.69,1.56,24.89s-5.06,8.56-9.61,10.31ZM87.23,49.07c8.58.93,16.59,2.84,17.46-8.43.2-2.6.5-10.27-.17-12.4-1.99-6.35-8.74-10.34-15.27-9.71-.39.11-1.24,1.64-1.33,2.05-1.31,5.99.09,18.61-.12,25.52-.03,1.05-.43,1.96-.57,2.97Z"/>
      <path d="M129.08,16.5c9.26-.33,20.4,6.08,21.38,15.94,1.92,19.31-1.31,41.83-.14,61.47-2.15,14.98-24.9,18.48-31.39,6.05-2.36-4.52-2.62-19.56-2.27-25,.67-10.56,1.46-20.86,1.12-31.64-.18-5.85-2.98-16.57.29-21.48,2.32-3.49,6.95-5.2,11.02-5.34ZM131.27,24.11c-7.65.75-6.91,7.02-6.42,13.24.57,7.3,1.08,13.21,1.11,20.75.03,8.41.25,15-.53,23.46-.56,6.14-2.59,14.81,4.49,17.79,8.66,3.64,12.87-4.23,12.94-11.86.11-11.81-1.36-24.46-1.13-35.98.13-6.46,1.39-11.63.5-18.45-.73-5.61-5.08-9.53-10.95-8.95Z"/>
      <path d="M62.51,94.69c1.06-1.38,2.17-3.25,2.38-4.98.81-6.56.54-18.59.58-25.64.03-4.8-1.45-11.48-.57-16.33.73-3.99,7.05-5.01,8.41-1.92.88,1.98.31,17.47.31,21,0,3-.59,6.46-.59,9.81,0,4.29,1.01,9.04.59,13.63-2.05,22.45-42.7,22.4-44.75-1.64-1.09-12.87.22-28.25.05-41.48-.02-1.14-.6-2.25-.55-3.22.26-4.55,8.72-4,9.25-1.12l-.02,45.28c-.05,3.39,3.36,8.34,6.54,9.27,1.63.48,3.14,0,4.6.3,3.69.76,6.79,2.9,10.33.41.37-.26,3.17-3.03,3.44-3.38Z"/>
      <path d="M164.77,76.21c-.49-.49-.6-1.61-.67-2.32-.34-3.32-.75-9.29-.54-12.54s.57-5.88,3.66-7.28c10.54,1.44,21.05,3.12,31.56,4.76,2.37.37,6.56-.39,7.6,2.76.47,1.42.48,15.39-.03,16.4-5.67,3.61-12.88.54-19.09,0-6.56-.57-13.68-.42-20.17-1.1-.7-.07-1.83-.19-2.32-.67Z"/>
      <path d="M242.06,89.43c.55,2.74-3.27,2.5-4.4,4.05-.74,1.02-.27,2.21-1.6,3.3-2.23,1.82-8.51,1.67-11.45,1.91.51,3.55-.62,5.53-4.25,5.88-1.69.17-2.72-.45-4.18-.45-9.1-.02-18.19.06-27.29.03-.48,0-.78-.19-1.09-.55-1.17-1.37-1.03-13.59-.8-16.08.1-1.11.45-4.24,1.42-4.57,6.35.03,12.68,1.2,18.99,1.59,4.07.25,12.18-.84,15.54.82.76.37,1.06,1.41,2.06,1.76,2.49.88,16.31,1.52,17.05,2.31Z"/>
      <path d="M19.08,75.79l-6.81,28.36-1.26-.39-5.56-13.79.46,16.01-.43.65c-.39.27-.92.21-1.37.26-1.3.17-3.31.24-4.12-.84v-28.9c0-.32,4.64-3.74,5.45-3.31,2,1.04,3.74,10.95,4.91,13.4l.81-.54c2.85-12.51,5.88-25.05,7.46-37.8l4.81-3.38,1.08.55v59.98c-1.17,1.29-4.28,1.29-5.45,0v-30.26Z"/>
      <path d="M28.89,0l8.67,1.14c.71.83-.57,18.32.31,21.77,1.54,6.05,12.04,11.44,17.95,10.83,16.04-1.67,6.48-17.48,10.76-27.67,2.46-.25,6.7-.01,7.05,2.9.43,3.55.48,20.2-.29,23.22-.48,1.88-2.82,4.81-4.38,5.98-12.47,9.32-40.07-.91-40.07-17.17V0Z"/>
      <path d="M0,15.54L16.92,3.57c3.66-1.43,6.92,2.24,7.48,5.56.78,4.67.55,18.23-1.24,22.49-3.42,8.12-10.11,8.98-15.5,13.94-3.97,3.65-1.42,9.77-1.65,14.71-.11,2.36-.89,5.06-1.13,7.45l-4.89,3.16V15.54ZM6,20.45v17.18c5.26-3.38,10.81-5.19,12.4-11.86.88-3.71,1.33-9.15-.5-12.58-3.07-1.88-9.53,5.55-11.9,7.27Z"/>
      <path d="M186.99,31.35c.05-.3.54-.85.63-1.28,1.39-.83,7.52,1.45,9.54,1.51,3.31.11,6.14-1.24,9.86.45.33.15,5.83,3.47,6.11,3.7,1.61,1.31,2.97,4.62,5.53,6.47,3.11,2.25,5.54,1.34,5.98,6.02.15,1.57.27,6.31-1.11,7.12-1.94,1.15-22.59-1.94-26.29-2.62-1.92-.35-10.25-1.29-10.25-3.38,0-4.95-.75-13.58,0-17.99Z"/>
      <path d="M237.61,67.14l-.46,1.85c-1.38.93-6.01-.11-7.1,1.89,2.64.29,5.74.64,8.3,1.24,1.79.42,3.66,1.73,5.64,1.99,2.52.33,10.11-.46,11.4,2.23,4.18,8.67-17.14,4.5-20.69,4.34-7.13-.31-13.1-.17-20.35-.92-1.16-.12-2.09.91-2.82-.45l.48-19.09c.39-.27,8.38.2,9.57.31,2.43.23,10.04,1.24,11.72,2.45,1.41,1.01,2.07,3.75,4.29,4.16Z"/>
      <path d="M181.41,49.49c-.82.85-7.68-.23-9.33-.49-3.47-.55-7.54-.11-7.99-4-.64-5.51-.57-18.24,7.3-18.22,1.58,0,9.36,1.35,10.11,2.44.98,1.43.96,19.17-.09,20.27Z"/>
      <path d="M164.64,82.33c.65-1.02,14.01.44,16.28.62,1.49.93,1.41,14.7,1.2,17.12-.64,7.11-10.7,4.83-14.22,1.63-.82-.74-3.25-4.6-3.25-5.48v-13.9Z"/>
    </g>
  </g>
</svg>