<?xml version="1.0" encoding="UTF-8"?>
<svg id="Capa_2" data-name="Capa 2" xmlns="http://www.w3.org/2000/svg" viewBox="0 0 253.04 107.57">
  <g id="Capa_1_Imagen" data-name="Capa 1 Imagen">
    <g>
      <path d="M112.3,56.72l11.92,48.68c-.55,2.27-6.34,1.72-7.97.8-1.72-6.61-3.33-13.26-4.9-19.91-1.05-4.47-2.02-8.75-3.14-13.21-.68-2.71-2.41-13.92-4.22-14.9-.65-.35-4.46-1.46-5.07-1.42-3.27.18-.96,3.69-.83,5.18,1.09,12.84.46,25.84.04,38.67-.05,1.62,1.85,5.33-.93,6.16-1.3.39-5.15.29-5.9-.97-.71-24.74.02-49.66-.24-74.46-.02-1.56-.58-2.89-.59-4.31-.08-6.3-.05-12.58.57-18.84,10.41,1.65,23.98,2.11,29,13.26,2,4.44,2.2,20.55,1.4,25.6-.74,4.68-4.67,8.48-9.14,9.69ZM98.13,49.07c5.46.48,13.98,2.66,15.57-4.87.47-2.22.99-13.24.55-15.33-.79-3.76-4.68-8.48-8.36-9.63-2.28-.71-6.61-1.79-7.08,1.33l-.66,28.5Z"/>
      <path d="M136.72,16.51c10.4-.32,18.88,7.28,19.74,17.58,1.57,18.76-1.03,39.74-.14,58.73-1.13,11.18-12.8,18.14-23.12,13.06-6.19-3.05-7.37-9.33-7.8-15.64-.8-11.6,1.12-23.79,1.12-35.44,0-8.38-1.75-18-1.67-26.17.07-7.32,4.52-11.89,11.87-12.12ZM138.35,24.1c-7.24.87-5.47,8.27-5.35,13.82.25,11.8,1.7,25.58,1.45,37.14-.15,6.83-6.05,25.53,6.43,25.21,10.2-.26,7.81-14.88,7.93-21.51.07-3.74.72-7.37.56-11.42-.13-3.18-1-7.16-1.11-10.34-.25-7.71,2.11-20.79-.23-27.58-1.1-3.2-6.42-5.72-9.69-5.32Z"/>
      <path d="M38.71,45.26v61.07c-2.77,1.08-5.29.26-8.08-.09l-.38-.96.28-30.57c-.95.14-.93,1.11-1.24,1.75-4.12,8.55-6.81,18.6-9.71,27.64-.61.1-1.5.23-2.02-.06-1.44-.81-6.8-13.41-9.37-15.15l1.01,17.37c-.45.72-8.21,1.28-9.19-.19v-29.17c2.81-.43,6.28-4.05,9.11-2.87,2.52,1.05,5.27,9.66,7.12,12.53.34.53-.06.98,1.21.7,4.39-12.9,9.61-25.71,12.09-39.17l9.18-2.82Z"/>
      <path d="M0,70.88V15.54c1.32-1.13,2.99-1.79,4.54-2.55C8.65,10.98,23.97,3.69,27.51,3.26c8.02-.97,11.25,3.17,11.76,10.62.83,12.15-.27,18.61-11.3,24.73-3.92,2.18-15.41,5.64-17.63,8-2.64,2.79-1.14,4.86-1.08,7.65.18,8.66.9,14.63-9.26,16.62ZM9.27,20.17v17.45c5.76-2.76,17.88-5.15,19.92-11.98.31-1.03,1.41-8.17,1.34-8.99-.06-.73-1.8-3.23-2.4-3.6-4.19-2.56-14.52,5.9-18.85,7.12Z"/>
      <path d="M52.21,41.56c.72,1.03.61,2.22.69,3.4.94,13.73-1.75,28.5-.59,42.03.32,3.71,1.86,8.12,5.44,9.83.96.46,8.84,2.24,10.17,2.39.88.1,1.68.11,2.55-.08,1.84-.41,6.59-6.35,6.9-8.37.81-5.26-.04-13.9.01-19.62.01-1.42.58-2.76.59-4.31.04-5.1-2.06-18.32,1.04-21.71,1.3-1.43,5.85-1.36,6.48.51.69,10.17-.46,20.33-.48,30.47-.01,4.95,1.2,10.57.53,15.74-2.63,20.03-38.91,20.6-40.86-2.12-1.13-13.12.34-28.55.04-42.03-.05-2.21-1.44-3.66.21-5.75,1.91-2.4,4.81-1.25,7.28-.38Z"/>
      <path d="M207.71,78.52c-6.15,2.6-11.67.04-17.72-.54-6.46-.62-13.03-.76-19.51-1.21-.67-.22-1.16-.68-1.36-1.37-.96-3.27-1.11-15.73.02-18.84.25-.68,1.8-2.35,2.43-2.49,9.81,1.5,19.62,3.08,29.4,4.75,1.19.2,2.45-.09,3.64.18.75.17,3.11,1.9,3.11,2.34v17.18Z"/>
      <path d="M224.18,87.13c1.18.69,12.05,1.45,14.98,2.22.8.21,1.45-.36,1.27.9-.15,2.14-3.91,2.4-4.62,3.52-.21.34.21,1.32-.14,2.04-1.31,2.73-8.3,2.7-11.07,2.89.08,2.11.23,3.84-1.79,5.03-2.82,1.67-4.12.42-6.64.4-7.18-.04-17.3.9-24.04.05-.64-.08-1.15.05-1.62-.56-1.33-1.76-1.07-19.56.25-20.49,6.05-.3,12.22,1.02,18.28,1.42,3.47.23,11.25-.78,13.91.81.84.5.93,1.61,1.21,1.77Z"/>
      <path d="M44.7,0l7.56,1.16c1.2,8.61-2.98,21.37,4.31,27.74,1.1.96,7.41,4.53,8.7,4.77,4.95.92,12.19-1.53,12.71-7.2.61-6.65-1.18-13.92,1.13-20.4,1.52-.27,5.53.21,6.21,1.56.52,1.04.51,20.13.29,22.66-.24,2.71-1.57,5.49-3.57,7.34-11.16,10.31-37.34-.67-37.34-14.99V0Z"/>
      <path d="M190.27,29.99c.77-.76,7.49,1.55,9.08,1.6,2.85.09,5.71-1.22,8.88.34.32.16,5.45,3.78,5.76,4.05,1.77,1.57,2.98,4.57,5.44,6.55,2.85,2.28,4.33.92,5.03,5.87.37,2.62.3,4.81-1.04,7.13-11.17-.23-22.31-2.26-33.16-4.81v-20.72Z"/>
      <path d="M232.63,62.86c.63.47,2.99,4.59,3.97,5.56-.34,1.53-6.37.56-7.08,2.46,4.17-.43,8.82,2.55,12.4,3.15s12.04-.95,11.05,4.74c-.14.8-1.5,2.45-2.2,2.74-3.27,1.36-13.58-.63-17.68-.83-6.65-.32-13.32.19-19.94-.77l-.56-1.13c1.24-6.03-1.14-12.54.54-18.57,1.01-.72,17.85,1.42,19.51,2.65Z"/>
      <path d="M174.32,26.81c1.45-.23,9.66,1.2,10.4,2.45.91,1.54.94,15.41.65,17.91-.11.94-.44,2.65-1.46,2.93s-14.08-2.07-14.64-3.2c-.67-1.33-.34-11.12-.02-13.12.44-2.75,1.95-6.48,5.07-6.97Z"/>
      <path d="M184.19,82.96c1.47.91,1.46,15.26,1.18,17.65-.77,6.56-10.69,4.08-13.65.54-3.6-4.28-2.37-8.83-2.13-13.63.13-2.51-1.91-5.39,1.86-5.78l12.74,1.22Z"/>
    </g>
  </g>
</svg>