<?xml version="1.0" encoding="UTF-8"?>
<svg id="Capa_2" data-name="Capa 2" xmlns="http://www.w3.org/2000/svg" viewBox="0 0 252.66 107.61">
  <g id="Capa_1_Imagen" data-name="Capa 1 Imagen">
    <g>
      <path d="M114.54,56.79l11.33,49.47c-.44.7-7.31,1.34-7.81-.5-1.43-6.14-3.1-12.24-4.52-18.38-1.06-4.59-2.04-9.17-3.15-13.75-.86-3.55-1.9-11.91-3.36-14.59-.68-1.25-6.01-2.81-6.99-1.79-1.54,1.6.13,3.06.24,4.7.76,11.87.78,24.01.61,35.96-.04,2.62-.4,5.27,0,8.07-.32,1.33-5.53.97-6.7.36l-.87-97.25.43-.67c.41-.31.85-.22,1.32-.2,3.04.12,14.25,2.52,17.09,3.68,3.13,1.28,7.75,5.72,9.27,8.72,2.38,4.7,3,22.28,1.66,27.52-1.06,4.15-4.85,7.04-8.54,8.66ZM100.86,20.45v27.81c0,.11-.82.63-.55.81,8.2.93,14.82,2.58,15.8-7.91.62-6.65.84-17.05-5.8-20.9-2.17-1.26-8.75-3.22-9.46.19Z"/>
      <path d="M138.35,16.51c9.46-.24,18.33,7.04,19.2,16.49,1.76,19.31-1.18,41.33-.13,60.92-1.24,12.08-17.07,18.29-25.77,9.7-5.25-5.18-5.04-20.93-4.63-28.12.58-10.37,1.34-20.59,1.06-31-.18-6.56-2.02-13.61-1-20.2.74-4.8,6.91-7.68,11.29-7.79ZM139.98,24.1c-2.33.28-5.42,1.73-5.34,4.52.42,21.68,1.58,43.35,0,64.91,1.77,8.9,13.22,8.91,15.24-.05.81-3.59.53-9.18.61-13.02.26-11.51-.6-22.89-.59-34.4,0-5.12.8-9.68-.11-15.11-.7-4.22-5.65-7.34-9.81-6.84Z"/>
      <path d="M40.89,45.26v61.07c-1.86.83-7.71.73-8.62-.92l-.37-30.71-11.14,29.21c-.58.48-1.09.24-1.67-.03-.97-.45-7.82-11.94-9-13.92-.41-.69.11-1.38-1.35-1.08l1.01,17.37c-.63,1.01-8.18.78-9.74.08v-28.63c7.41-5.35,11.79-5.86,14.62,3.92l3.64,5.62c1.89-.85,12.55-34.56,13.49-39.12l9.14-2.86Z"/>
      <path d="M0,16.63c.27-1.26,2.09-2.26,3.16-2.84,3.61-1.96,22.72-10.03,26.05-10.47,4.78-.63,10.5.88,11.85,6.05.75,2.88.76,15.54-.05,18.29-3.03,10.23-18.41,13.08-26.48,17.13-5.13,2.58-4.89,3.29-4.74,8.94.09,3.49.72,6.59,0,10.3-1.03,5.22-4.47,4.58-8.52,6.77l-1.26-.74V16.63ZM9.84,20.22c.78,4.93-.85,11.23-.03,16.04.12.69.41,1.47,1.27,1.29,5.6-3.28,16.17-4.58,19.36-10.65.97-1.84,2.09-8.84,1.72-10.8-.17-.87-2.03-2.96-2.73-3.28-4.16-1.92-15.1,6.28-19.59,7.4Z"/>
      <path d="M58.53,95.23c2.88,2.98,4.14,1.72,7.12,2.42,2.15.5,4.31,1.83,6.53,1.58,3.22-.37,7.67-6.25,7.99-9.5.93-9.66-.04-20.86-.05-30.54,0-3.16-.46-8.65.05-11.45.76-4.16,7.19-5.07,7.64-1.15.73,6.4-.03,15.63,0,22.41,0,1.43-.62,2.78-.61,4.34.06,9.69,4.03,18.31-3.24,27.25-7.38,9.09-27.46,7.91-33.48-2.47-3.4-5.86-2.88-20.18-3.05-27.48-.22-9.12.3-18.29-.13-27.39,1.32-3.35,6.32-3.63,8.22-.88l.09,46.8c.23,1.89,1.63,4.7,2.94,6.06Z"/>
      <path d="M172.65,54.07l33.63,5.43c1.08.69,1.74,1.69,1.94,2.97.27,1.69.23,14.59-.23,15.52-1.81,3.61-14.06.33-17.46,0-6.41-.62-12.94-.7-19.35-1.36-1.11-.55-1.51-3.65-1.62-4.92-.25-2.76-.4-13.22.61-15.19.29-.57,1.92-2.3,2.49-2.43Z"/>
      <path d="M224.61,98.69c.54,3.46-.66,5.61-4.25,5.89-1.38.11-2.38-.46-3.63-.46-8.43,0-16.88.11-25.3-.04-1.47-4.07-1.42-8.99-1.18-13.31.06-1.1.59-7.07.81-7.37.44-.62,1.5-.57,2.21-.56,4.76.05,10.44,1.34,15.27,1.68,3.94.28,11.15-.82,14.4.86.76.4,1.07,1.32,2.09,1.73,3.61,1.48,11.23.58,14.48,2.42.53.3,1.07.53.92,1.25-.18.76-4.07,2.03-4.62,3.02-.42.76-.15,1.68-.4,2.33-.83,2.19-8.53,2.49-10.79,2.56Z"/>
      <path d="M47.98,0c1.65-.03,6.6.1,7.37,1.63,1.35,6.4-1.01,15.79.52,21.83.18.72,1.21,2.55,1.69,3.22,2.44,3.49,9.81,7.49,14.08,7.06,15.25-1.54,6.05-17.96,10.11-27.51,1.69-.66,5.84.1,6.34,1.89.79,2.83.58,18.01.26,21.61-.95,10.59-14.01,13.87-22.68,11.19-6.44-2-17.69-9.67-17.69-17.21V0Z"/>
      <path d="M190.81,30.81c.64-2.05,7.31.72,9.05.76,3,.07,5.89-1.34,9.16.67.59.36,4.84,3.15,5.08,3.35,1.48,1.25,2.75,4.95,5.33,6.93s4.56,1.21,5.13,5.23c.32,2.21.43,5.85-1.03,7.59-1.47.86-15.4-1.09-18.11-1.53-3.16-.52-9.98-1.58-12.68-2.58-.83-.31-1.4-.6-1.92-1.35v-19.08Z"/>
      <path d="M236.06,69.25c-.25.24-6.07-.2-6.55,1.63,4.1-.47,8.93,2.74,12.3,3.24,2.53.38,9.03-.63,10.31,2.23,3.93,8.77-15.16,4.51-19.05,4.33-6.52-.31-13.08.05-19.59-.63l-.84-.74c.72-2.59.63-5.48.54-8.18-.07-1.94-1.71-10.43.33-11.1.41-.13,7.49.44,8.57.56,6.19.69,12.74,1.64,13.98,8.65Z"/>
      <path d="M185.9,48.8c-.13.45-1.13,1.21-1.78,1.22-3.6.1-9.19-2.14-13.09-2.04-1.36-.51-1.16-11.86-.9-13.86.41-3.12,2.49-7.37,6.15-7.37,1.47,0,9.62,1.44,9.62,2.96v19.08Z"/>
      <path d="M171.58,81.89c.58-.18,8.37.38,9.62.52s3.45.4,4.12,1.33c.4.66.5,1.38.59,2.14.27,2.34.27,15.55-.41,17.05-1.57,3.44-9.61,1.14-11.89-.94-4.75-4.34-3.24-10.08-2.95-15.54.07-1.33-1.68-3.78.91-4.56Z"/>
    </g>
  </g>
</svg>