<?xml version="1.0" encoding="UTF-8"?>
<svg id="Capa_2" data-name="Capa 2" xmlns="http://www.w3.org/2000/svg" viewBox="0 0 254.28 107.57">
  <g id="Capa_1_Imagen" data-name="Capa 1 Imagen">
    <g>
      <path d="M123.14,106.28c-.53.84-7.32.94-8-.05-1.5-6.67-3.28-13.28-4.88-19.93-.96-4-1.83-7.9-2.83-11.89s-1.96-11.21-3.45-14.54c-1.13-2.53-4.73-2.73-7.14-3.19-1.71.34.13,8.08.19,9.59.23,5.59.28,11.43-.02,16.88l.28,22.19-.61,1.05c-2.05.88-4.26.56-6.33-.04l-.59-.66c-.87-25.97-.1-52.12-.34-78.15-.03-3.66-.8-7.45-.59-11.45.08-1.49.48-7.53,1.47-7.84,1.19-.37,16.99,2.99,18.94,3.84,12.85,5.58,11.38,16.85,11.21,28.59-.01.95.48,1.88.46,2.7-.13,4.39-1.36,8.09-4.84,10.86-1.22.97-4.22,2.01-4.33,3.31l11.4,48.74ZM97.04,49.1c5.32.63,14.69,2.42,15.76-5.23.42-2.98,1-12.94.34-15.51s-4.28-7.23-6.8-8.47-9.3-2.73-9.3,1.67v27.54Z"/>
      <path d="M136.17,16.53c8.99-.28,18.82,6.63,19.74,15.94,1.91,19.32-1.3,41.82-.14,61.47-1.49,13.36-20.37,18.67-28.21,7.77-3.56-4.95-3.64-20.45-3.27-26.71.6-9.96,1.41-20,1.13-29.99-.31-10.94-6.26-27.96,10.74-28.49ZM137.82,24.13c-9.58.94-5.08,13.62-4.77,19.76.46,9.29.17,18.51.55,27.8.28,6.77-2.14,13.16-1.68,19.68.78,11.02,14.05,12.59,16.31.46.69-3.68.61-11.12.63-15.18.05-8.5-1.28-16.89-1.14-25.13.11-6.31,1.26-11.85.5-18.45-.63-5.48-4.66-9.51-10.4-8.95Z"/>
      <path d="M45.09,40.48c1.21-.18,5.5.61,5.61,2.35-.04,7.82.05,15.65.02,23.47-.01,4.59-.13,8.98,0,13.58.15,5.41-1.57,10.82,2.71,15.29,2.89,3.02,4.52,1.9,7.76,2.6,2.38.51,4.68,1.84,7.09,1.38s7.09-5.96,7.46-8.37c.81-5.26-.04-13.9.01-19.62.01-1.29.58-2.48.59-3.77.04-4.96-1.77-17.83.52-21.29,1.64-2.47,5.09-2.78,7-.46.11,7.24.16,14.5.11,21.74-.02,2.59-.72,5.2-.59,8.18.31,7.05,2.16,11.39-.13,18.91-5.55,18.25-38.97,16.04-40.76-4.74-1.13-13.12.34-28.55.04-42.03-.05-2.44-1.82-6.59,2.54-7.24Z"/>
      <path d="M35.98,44.74v61.61c-1.63-.33-6.96.85-7.54-.91-.79-2.37-.7-7.14-.66-9.75.02-1.29.57-2.48.59-3.77.08-5.92-.43-11.9.52-17.74-3.2,3.12-9.43,28.83-10.88,29.73-1,.63-1.38-.25-1.89-.87-3.1-3.76-5.17-10.75-8.48-14.69l1.09,18H0v-29.45c3.98-.92,7.53-5.85,10.58-1.04.46.73,4.76,12.15,5.77,11.4,4.37-12.76,8.78-25.63,11.56-38.88l8.07-3.65Z"/>
      <path d="M0,16.11c.06-.37.59-1.12.94-1.39,1.56-1.19,6.53-3.19,8.68-4.26,3.5-1.74,15.39-7.74,18.47-7.71,6.68.05,8.64,6.24,9.01,11.7.68,9.97-.08,17.05-8.8,22.88-4.12,2.75-16.27,6.78-18.5,9.3-2.12,2.39-.71,12.07-1.08,15.82-.65,6.51-3.27,6.38-8.72,8.46V16.11ZM8.72,37.65c5.9-3.05,17.02-5.15,18.85-12.5.31-1.26,1.16-7.43,1.06-8.52-.08-.91-1.4-3.1-2.15-3.56-4.23-2.57-13.53,5.79-17.76,7.12v17.45Z"/>
      <path d="M208.26,78.54c-6.15,2.55-12.09.03-18.27-.54s-12.73-.82-19.06-1.11c-2.01-.38-2.34-2.37-2.49-4.05-.29-3.23-.42-11.7.06-14.72.27-1.71,1.68-3.11,3.07-4.03,9.83,1.36,19.6,3.2,29.4,4.75,2.19.35,4-.53,5.94,1.15.31.27,1.35,1.71,1.35,1.92v16.63Z"/>
      <path d="M225.15,98.71c.07,2.21.42,3.87-1.68,5.13-2.63,1.58-3.8.32-6.2.3-8.79-.11-17.6.19-26.39-.05-2.17-6.75-.99-14-.13-20.87.67-.93,15.78,1.17,18.3,1.34,3.39.23,12.55-.72,15,.81.55.35.56,1.37,1.49,1.78,3.48,1.54,11.61.44,15.05,2.4.53.3,1.07.53.92,1.25-.18.76-4.07,2.03-4.62,3.02-.42.76-.15,1.68-.4,2.33-.85,2.22-8.99,2.57-11.34,2.56Z"/>
      <path d="M42.52.03c2.66-.1,5.65.02,7.91,1.63,1.48,2.47-.89,17.9.78,22.66s10.77,9.84,15.55,9.52c4.35-.3,9.14-2.61,9.58-7.33.61-6.65-1.18-13.92,1.13-20.4l6.37,1.13c.91,1.22.88,18.19.67,20.9-.28,3.54-1.4,7.07-4.11,9.52-11.29,10.21-37.89-.61-37.89-14.99V.03Z"/>
      <path d="M190.27,30.83c.64-2.06,7.35.73,9.08.78,2.98.1,6.13-1.28,9.43.34.32.16,5.45,3.78,5.76,4.05,1.78,1.58,2.96,4.6,5.44,6.55,2,1.57,4.65,1.49,5.15,4.67.32,2.06.53,6.78-1.06,8.15-1.64.8-15.36-1-18.19-1.44-3.63-.56-8.36-1.42-11.92-2.26-1.43-.34-2.81-.43-3.7-1.76v-19.08Z"/>
      <path d="M237.15,69.27c-1.85.03-3.9.23-5.72.57-.89.17-.95-.37-.83,1.07,4.23-.3,8.72,2.55,12.4,3.14,2.61.42,9.55-.37,10.76,2.32,3.93,8.79-15.62,4.51-19.59,4.33-6.74-.31-13.49.21-20.2-.72l-.77-.69c1.09-5.74-.76-11.59-.07-17.41.09-.76-.01-1.52.92-1.83.41-.13,7.46.44,8.57.56,6.23.65,13.33,1.49,14.52,8.65Z"/>
      <path d="M185.36,48.83c-.13.45-1.12,1.21-1.78,1.22-1.22.03-13.45-1.91-14.04-2.31-2.15-1.43-2.43-20.97,5.65-20.96,1.83,0,10.16,1.32,10.16,3.5v18.54Z"/>
      <path d="M184.67,103.49c-2.74,2.92-10.78.36-13.17-2.63-4.37-5.46-1.63-12.13-2.42-18.42,2.01-1.29,3.78-.16,5.65-.08,3.27.14,6.7-.25,9.82,1.09,1.22,1.38,1.25,18.84.12,20.04Z"/>
    </g>
  </g>
</svg>