<?xml version="1.0" encoding="UTF-8"?>
<svg id="Capa_2" data-name="Capa 2" xmlns="http://www.w3.org/2000/svg" viewBox="0 0 256.4 107.63">
  <g id="Capa_1_Imagen" data-name="Capa 1 Imagen">
    <g>
      <path d="M101.44,56.76l12.43,49.49c-.55.87-7.85.95-8.54-.04-1.48-5.98-3.21-11.9-4.75-17.87-1.41-5.46-2.69-10.53-4.24-15.94-.88-3.06-2.41-13-4.79-14.29-1.24-.67-5.74-1.8-6.78-.87-1.62,1.46.1,2.46.26,3.58,1.15,8.31.56,16.77.54,25.04-.01,6.48-.14,13.01.28,19.47l-.61,1.05c-2.2.88-4.64.59-6.87-.04l-.71-97.63c.39-.6.98-.52,1.59-.49,4.08.21,15.51,2.26,19.26,3.69,6.07,2.3,11.99,8.45,12.71,15.09.43,3.98.55,16.9-.13,20.59-.74,4.03-5.83,7.99-9.64,9.18ZM85.59,49.07c7.02.72,16.24,2.77,17.39-6.88.34-2.87.6-8.49.6-11.39,0-6.45-9.83-14.28-15.99-12.18-.93.32-2,3.74-2,4.54v25.9Z"/>
      <path d="M127.99,16.5c11.57-.41,21.05,7.04,21.92,18.67,1.35,17.96-1.01,37.5.03,55.63-.26,14.26-17.53,21.66-28.64,13.34-4.48-3.36-5.34-8.6-5.72-13.91-.85-12.05,1.35-24.46,1.1-36.55-.16-8.02-2.28-19.67-1.58-27.17.62-6.62,6.71-9.79,12.89-10.01ZM130.18,24.11c-9.69.95-5.98,10.46-5.86,17.04.14,7.63-.35,15.33-.04,22.95.16,4.06,1.43,7.57,1.14,12-.49,7.43-5.64,19.89,3.81,23.41,8.85,3.29,12.27-4.53,12.58-11.98.56-13.62-.66-27.67-.62-41.46.01-4.93.77-9.32-.11-14.57-.78-4.69-6.45-7.81-10.89-7.38Z"/>
      <path d="M29.29,40.46c1.8-.23,5.86.58,6.14,2.9,1.16,14.36-1.84,30-.55,44.17.37,4.1,2.58,8.32,6.71,9.65,1.21.39,9.76,2.01,11.06,2.07,3.53.16,9.51-5.7,10.03-9.05.92-5.94-.04-15.87.01-22.34.02-2.74,0-5.41,0-8.13,0-3.57-.92-12.64,1.69-14.71,1.45-1.15,5.85-1.36,6.79.23.64,1.09.31,19.13.29,22.11-.02,2.78-.76,5.57-.59,8.72.4,7.32,2.55,12.8-.97,20.25-7.57,16.06-41.88,14.1-43.73-7.71-1.09-12.87.22-28.26.05-41.48-.03-2.65-1.55-6.09,3.09-6.68Z"/>
      <path d="M206.62,78.52c-6.68,2.54-13.2.02-19.9-.54-7.29-.61-14.67-.63-21.95-1.46-.31-.1-.54-.27-.71-.55-.66-1.05-1.17-11.6-1.07-13.57.16-3.33.33-7.45,4.13-8.41,10.54,1.7,21.12,3.18,31.67,4.83,1.68.26,7.84.03,7.84,3.07v16.63Z"/>
      <path d="M242.6,89.43c.55,2.74-3.27,2.5-4.4,4.05-.74,1.01-.28,2.27-1.6,3.31-2.09,1.64-8.69,1.74-11.45,1.9.45,3.36-.81,5.41-4.23,5.89-1.97.27-3.06-.44-4.74-.45-9.36-.07-18.81.32-28.1-.24-2.99-1.49-1.05-16.11-.98-19.53l1.37-1.36c6.34-.03,12.66,1.17,18.95,1.55,4.18.25,12.66-.86,16.08.82.86.42.98,1.31,2.51,1.85,2.47.87,15.83,1.41,16.59,2.22Z"/>
      <path d="M26.17,0l8.65,1.16c.78,1.22-.53,17.78.19,21.34.56,2.77,3.76,6.05,6.13,7.5,3.77,2.31,8.02,4.23,12.5,3.74,16.38-1.81,6.02-17.69,11.05-27.77l6.73,1.52c.96,2.04.78,16.38.58,19.52-.31,4.81-1.38,8.48-5.51,11.39-12.29,8.67-40.31-1.11-40.31-16.87V0Z"/>
      <path d="M186.99,30.81l.91-.74c2-.64,6.79,1.46,9.27,1.52,3.05.07,6.69-1.16,9.98.33.75.34,1.54,1.75,2.54,2.36,1.18.71,2.57.72,3.75,1.7,1.43,1.19,2.55,3.89,4.36,5.45,1.56,1.34,5.48,2.73,6.12,3.41,1.35,1.44,2.03,8.78-.1,10.27-1.08.76-2.62.57-3.88.53-6.78-.23-15.94-1.69-22.72-2.91-1.68-.3-10.25-1.52-10.25-2.84v-19.08Z"/>
      <path d="M21.81,106.87l-3.86-.23c-.18-.13-1.05-3.07-1.05-3.31v-23.45c0-.52,1.59-3.62,0-4.09l-6.01,28.89-1.11-1.34-4.87-13.38.46,16.01c-.47,1.4-4.55,1.3-5.37.07v-28.9c0-.31,4.17-3.85,5.19-3.05,1.85,1.45,3.1,10.47,4.08,13.14l.82-.54c2.58-12.7,5.47-25.44,6.8-38.34l4.92-3.11v61.61Z"/>
      <path d="M0,70.88V15.54L14.95,3.78c2.28-1.53,4.87.27,6,2.26,2.2,3.89,1.84,19.46.56,23.93-2.78,9.68-8.91,9.79-14.44,15.55s3.41,21.68-7.07,25.37ZM5.45,20.45v17.18c4.61-2.95,10.28-5.85,11.32-11.85.29-1.66.76-6.4.72-8.05s-.71-3.07-1.21-4.57c-2.74-1.76-8.99,5.52-10.84,7.29Z"/>
      <path d="M238.16,67.14l-.46,1.85c-1.38.93-6.01-.11-7.1,1.89,4.62-.48,9.96,2.68,13.94,3.24,2.21.31,10.77-.4,11.6,2.03.59,1.74.26,4.55-1.68,5.22l-42.38-1.22c1.14-6.52-1.01-13.16-.23-19.69.78-.55,8.19-.08,9.76.06,2.57.23,10.47,1.16,12.27,2.45,1.41,1.01,2.07,3.75,4.29,4.16Z"/>
      <path d="M181.54,48.8c-.13.45-1.12,1.21-1.78,1.22-4.14.1-10.39-1.89-14.73-2.16-1.39-.57-1.39-2.14-1.51-3.4-.5-5.51-.58-17.71,7.32-17.69,1.5,0,10.7,1.5,10.7,2.95v19.08Z"/>
      <path d="M164.21,82.47c1.9-1.44,3.81-.19,5.62-.14,2.14.06,9.56-.21,10.91,1.08.55.53.72,1.7.81,2.46.28,2.44.35,14.87-.25,16.67-1.04,3.15-7.08,2.04-9.6,1.35-10.02-2.75-7.89-13.43-7.49-21.43Z"/>
    </g>
  </g>
</svg>