<?xml version="1.0" encoding="UTF-8"?>
<svg id="Capa_2" data-name="Capa 2" xmlns="http://www.w3.org/2000/svg" viewBox="0 0 250.87 107.5">
  <g id="Capa_1_Imagen" data-name="Capa 1 Imagen">
    <g>
      <path d="M52.88,45.26v61.07c-2.14.56-7.8,1.18-9.5-.04-.4-.19-.54-.54-.73-.9-1.24-2.38-.78-16.91-.69-20.62.07-3.01,2.16-8.27-1.06-10.06l-14.17,29.19c-.41.29-.86.34-1.35.28-2.77-.3-10.96-14.03-14.19-15.84-1.33.26.23,4.62.26,5.72s-.65,2.34-.57,3.8c.13,2.46,2.03,5.46,1.06,8.41-3.82.88-8.13.96-11.93.06v-28.63c2.49-1.63,9.83-4.54,12.55-3.84,4.47,1.15,6.86,11.01,11.16,13.38,2.09-.5,16.18-34.49,17.3-39.13,3.94-.95,7.79-2.87,11.87-2.85Z"/>
      <path d="M132.41,106.26c-1.82.72-6.32,1.36-7.28-.49-1.19-5.79-2.71-11.53-3.95-17.31-1.07-4.98-2.01-9.87-3.15-14.84-.9-3.91-1.64-11.05-3.12-14.32-.76-1.66-5.52-3.13-6.68-2.06-1.62,1.49.13,2.79.25,4.14,1.28,14.79.19,29.76.59,44.59-.27,1.18-6.67,1.62-6.87-.68-.64-25.91.02-51.85-.22-77.77-.04-3.85-.83-7.82-.59-12,.08-1.38.53-7,1.46-7.29,12.82,1.7,26.17,4.47,27.47,19.84.48,5.71.77,19.41-2.29,23.92-1.56,2.3-5.92,4.18-5.94,6.06l10.33,48.22ZM109.03,49.07c3.93-.05,6.68,1.8,10.51-.12,4.86-2.44,3.59-9.83,3.64-14.35.06-5.47,1.08-6.85-2.8-11.88-2.36-3.06-10.51-6.95-11.32-1.69l-.04,28.05Z"/>
      <path d="M0,16.63c.36-2.08,9.85-4.95,12.24-5.75,7.92-2.65,24.47-8.57,32.15-7.56,2.94.39,7,2.53,8.37,5.26,1.86,3.69,1.82,15.75.02,19.41-5.12,10.4-25.07,13.38-35.07,17.26-2.3.89-5.38,1.36-5.74,4.07-.61,4.6,2.15,15.24-2.2,18.52-.78.59-7.65,2.97-8.53,2.95-.68-.01-.85-.22-1.24-.73V16.63ZM12.54,37.62l15.39-3.96c4.17-2.79,11.77-2.96,13.75-8.6.3-.84,1.48-7.63,1.43-8.44-.24-4.01-5.36-4.3-8.43-4.01-4.38.42-15.85,4.99-20.34,6.91-.75.32-1.51.66-2.13,1.2-.45.72.32,1.17.32,1.36v15.54Z"/>
      <path d="M144.29,16.57c8.27-.1,17.05,6.86,17.62,15.34-1.6,19.65,2.19,42.86-.05,62.09-1.12,9.62-10.5,16.32-19.85,12.34-7.18-3.05-8-10.3-8.43-17.19-.74-11.84,1.34-24.06,1.11-36.01-.16-8.33-2.29-21-1.08-28.84.7-4.55,6.41-7.68,10.69-7.73ZM145.99,24.1c-2.51.18-5.32,1.65-5.35,4.51.37,21.49,1.62,43.01-.02,64.38,3.4,11.76,13.91,8.55,14.74-3.31.95-13.6-.62-28.28-.56-42,.03-5.75,1.12-11.3-.1-17.3-.69-3.41-5.35-6.53-8.71-6.28Z"/>
      <path d="M66.39,41.56c.61.85.61,1.86.69,2.85.53,6.24.08,14.33,0,20.77-.08,7.01-2.28,22.37,1.15,28.25,3.1,5.32,7.9,3.61,12.8,5.78,2.96.84,6.76-3.96,7.79-6.3,2.55-5.82-.52-11.44,1.17-17.37,1.09-8.04-1.58-20.8.09-28.26.73-3.27,4.81-4.38,6.88-1.66.13,7.24.13,14.5.11,21.74,0,2.54-.68,5.24-.59,8.18.22,7.35,2.24,13.5-.8,20.97-6.56,16.12-34.48,13.28-36.27-7.34-1.13-13,.23-28.65.05-42.03-.03-2.06-1.27-3.07.26-5.15,1.82-2.48,4.28-1.37,6.67-.43Z"/>
      <path d="M209.35,78.52c-5.87,2.54-10.87.05-16.63-.54-6.05-.62-12.21-.69-18.26-1.36-.81-.73-.98-1.7-1.09-2.72-.39-3.45-.35-11.26-.02-14.76.19-1.98.98-4.95,3.46-4.98l29.44,4.85c1,.02,3.11,2.17,3.11,2.88v16.63Z"/>
      <path d="M239.33,89.42c.63,2.76-3.34,2.82-4.09,4.36-.45.92-.03,2.21-.81,3.01-1.36,1.41-7.71,1.88-9.83,1.89.37,2.97-.13,4.98-3.25,5.79l-27.46-.31c-.91-.21-1.49-8.05-1.48-9.58,0-1.14.52-2.2.57-3.26.06-1.49-.44-8.16.91-8.48,5.25.22,10.51,1.26,15.73,1.66,3.22.25,11.52-.64,13.88.84.55.35.56,1.37,1.49,1.78,2.01.89,13.63,1.56,14.34,2.3Z"/>
      <path d="M59.42,0l7.02,1.16c1.17,8.95-3.12,22.17,5.01,28.52,4.6,3.59,9.08,5.57,14.69,2.77,8.55-4.27,1.48-19.34,5.23-26.49l5.69,1.49c-.88,9.48,4.01,24.12-4.38,31-11.6,9.51-33.26-2.75-33.26-16.91V0Z"/>
      <path d="M192.99,30.81c.67-2.16,6.88.73,8.5.77,1.18.03,2.37-.57,3.76-.55,2.89.05,7.38,2.81,9.5,4.72,1.23,1.11,1.89,3.23,3.03,4.61,1.68,2.04,6.01,4.14,6.58,5.96.5,1.6.67,8.14-.84,9.03s-14.28-1.17-16.92-1.63c-3.16-.55-8.9-1.44-11.69-2.48-.83-.31-1.4-.6-1.92-1.35v-19.08Z"/>
      <path d="M232.09,62.86c.66.57,4.14,5.68,3.43,6.38-1.65.11-3.55.27-5.17.57-.89.17-.95-.37-.83,1.07,3.86-.34,8.07,2.58,11.31,3.15,2.66.46,9.33-.55,9.96,3.16,1.31,7.73-13.32,3.74-17.73,3.52-6.38-.32-12.82.37-19.1-1.06l.26-19.44c.99-.71,16.45,1.41,17.88,2.65Z"/>
      <path d="M188.63,48.8c-.13.45-1.13,1.21-1.78,1.23-1.03.03-11.88-1.95-12.39-2.32-2.18-4.45-1.68-18.41,3.41-20.58,1.68-.72,10.76.66,10.76,3.14v18.54Z"/>
      <path d="M174.81,81.86c.41-.14,7.56.37,8.64.49,3.53.37,4.8.27,5.19,4.08.25,2.45.32,14.91-.4,16.5-1.58,3.47-9.12,1.12-11.31-.97-4.75-4.51-2.34-12.99-3.02-18.8.04-.64.27-1.09.91-1.31Z"/>
    </g>
  </g>
</svg>