<?xml version="1.0" encoding="UTF-8"?>
<svg id="Capa_2" data-name="Capa 2" xmlns="http://www.w3.org/2000/svg" viewBox="0 0 256.77 107.57">
  <g id="Capa_1_Imagen" data-name="Capa 1 Imagen">
    <g>
      <path d="M99.76,56.72l13.02,49.54c-1.7.79-7.69,1.19-8.69-.31-1.81-6.16-3.65-12.36-5.28-18.58-1.22-4.66-2.27-9.22-3.56-13.88-.74-2.66-3.07-14.52-4.76-15.41-.28-.15-5.45-1.35-5.75-1.33-3.24.17-.94,6.72-.79,8.96.7,10.33.28,20.21-.02,30.5-.05,1.7.65,8.76.52,9.2-.64,2.1-6.04,1.57-7.72.92l-.71-97.63c.39-.6.98-.52,1.59-.49,4.37.22,15.12,2.23,19.26,3.69s9.65,5.66,11.57,9.7c2.21,4.64,2.37,20.1,1.45,25.32s-5.43,8.37-10.12,9.8ZM83.96,49.07c5.19.59,15.86,2.55,17.32-4.76.51-2.56,1.1-13.85.54-16.1-.25-1-3.34-5.34-4.21-6.15-2.37-2.21-11.61-5.74-12.86-1.92l-.79,28.92Z"/>
      <path d="M126.9,16.5c9.18-.32,20.93,6.09,21.92,15.94,1.95,19.28-1.34,41.86-.12,61.48-2.1,10.08-11.44,14.9-21.27,13.36-17.29-2.71-12.59-23.94-12.4-36.13.15-9.9.43-19.6.03-29.46-.22-5.34-2.59-14.98.06-19.53,2.04-3.49,7.93-5.52,11.79-5.66ZM138.84,27.98c-3.14-3.68-13.02-5.86-15.56-.92-1.06,2.05-.71,7.7-.64,10.31.31,11.75,1.23,23.68,1.68,35.39.27,6.87-2.61,13.68-1.61,20.7,1.14,8.04,14.65,9.47,17.25.45,2.43-8.44.44-26.01.12-35.27s1.65-19.42-.1-28.26c-.12-.63-.72-1.91-1.14-2.41Z"/>
      <path d="M27.1,40.46c1.79-.23,5.87.58,6.14,2.9,1.15,14.37-1.83,29.99-.55,44.17.31,3.48,1.6,6.05,4.37,8.17,3.4,2.6,4.29,1.36,7.78,2.04s6.27,2.81,9.96.41c3.48-2.26,6.14-6.53,6.21-10.7.18-11.31-.58-22.97-.54-34.29,0-1.09.55-5.36.83-6.3.97-3.17,6.95-3.86,8.2-1.05.88,1.98.31,17.47.31,21,0,2.83-.59,6.11-.59,9.27,0,4.79,1.18,10.18.53,15.2-2.77,21.13-43.77,21.07-45.77-2.12-1.12-12.94.33-28.19.04-41.48-.06-2.94-1.92-6.57,3.09-7.23Z"/>
      <path d="M166.12,54.08l37.64,5.22c1.08.78,2.59,1.79,2.85,3.14.28,1.47.16,14.69-.25,15.53-5.79,3.54-13.28.68-19.64,0l-22.62-1.37c-.67-.38-.94-.92-1.07-1.65-.68-3.65-.88-10.45-.55-14.15.2-2.28.86-6.33,3.65-6.72Z"/>
      <path d="M225.15,98.69c.75,3.63-1.15,5.67-4.7,5.98-1.59.14-2.8-.54-4.27-.55-9.43-.07-18.87.16-28.3-.05-.48-.1-.59-.48-.8-.83-1.04-1.69-.98-17.59.02-19.43.6-1.11,1.15-.98,2.34-.97,5.47.04,11.9,1.34,17.45,1.68,4.25.26,13.19-.83,16.6.85.86.42.98,1.31,2.51,1.85,4.07,1.44,13.17.45,16.6,2.48.99.59-.3,1.49-.83,1.92-3.13,2.47-2.15.39-4.39,4.34-1.48,2.61-9.37,2.59-12.24,2.75Z"/>
      <path d="M23.99,0l8.65,1.17c1,6.46-1.45,16.99.89,22.82,2.18,5.43,12.29,10.33,17.93,9.76,14.53-1.47,9.12-14.11,10.14-24.2.55-5.4,4.3-3.89,7.91-1.92.28.41.24.88.29,1.34.45,3.75.54,19.41-.15,22.81-.17.82-1.29,2.9-1.82,3.63-10.05,13.96-43.85,2.65-43.85-13.32V0Z"/>
      <path d="M186.45,31.35c.05-.3.54-.85.63-1.28,1.38-.83,7.9,1.54,10.03,1.57,3.35.05,6.14-1.32,9.91.4.36.16,6.14,3.69,6.43,3.93,1.55,1.29,2.59,4,4.67,5.69,3.25,2.64,6.37,1.76,6.99,6.64.72,5.66.16,7.55-5.68,7.3-8.51-.35-20.39-2.1-28.75-3.96-1.23-.27-4.24-.7-4.24-2.3,0-4.95-.75-13.58,0-17.99Z"/>
      <path d="M238.24,69.25c-.36.36-7.1-.18-7.64,1.63,4.8-.39,10.24,2.67,14.49,3.23,3.79.5,12.15-1.22,11.64,4.63-.34,3.97-7.56,3.16-10.62,3.07-10.64-.33-21.53-1.76-32.15-2.1-.56-.02-1.74.61-1.9.44l-.57-18.29c0-.77.05-1.52.92-1.81.44-.15,8,.38,9.18.48,3.72.33,7.54,1.07,11.18,1.9,1.36.71,6.6,5.69,5.46,6.81Z"/>
      <path d="M15.26,76.34l-5.46,27.81-1.14-.77-4.31-12.87v16.36H0v-29.72c0-.28,3.56-3.78,4.37-3.3l4.34,13.38c2.47-12.68,4.92-25.45,6.1-38.34l3.72-3.38,1.09.55v59.98c-1.06,1.27-3.39,1.22-4.36,0v-29.72Z"/>
      <path d="M0,70.88V15.54C2.64,13.39,11.8,3.65,14.49,3.26c3.82-.54,4.94,5.01,5.16,7.89.59,7.93.92,19.5-4.1,25.94-3.39,4.34-10.58,7.36-11.19,12.8-.57,4.98.68,10.13-.14,15.67-.47,3.17-1.8,3.59-4.22,5.32ZM4.36,20.99v15.81l1.09.55c6.64-4.86,9.51-7.7,9.84-16.34.14-3.6.56-10.52-4.66-6.84-.85.6-6.1,6.23-6.27,6.81Z"/>
      <path d="M181,49.62c-.62.07-1.15.34-1.79.35-2.07.03-12.98-1.43-14.7-2.13-.52-.21-.97-.4-1.24-.94-.49-5.89-1.94-20.15,7.03-20.13,1.5,0,10.7,1.5,10.7,2.95v19.9Z"/>
      <path d="M164.46,81.87c.51-.18,9.45.35,10.8.47,3.69.31,5.41.09,5.76,4.06.31,3.49.44,11.99,0,15.32-.74,5.56-12.75,2.35-15.53-1.42-3.24-4.39-2.18-7.97-1.9-12.77.09-1.61-1.27-4.9.86-5.65Z"/>
    </g>
  </g>
</svg>