<?xml version="1.0" encoding="UTF-8"?>
<svg id="Capa_2" data-name="Capa 2" xmlns="http://www.w3.org/2000/svg" viewBox="0 0 252.22 107.52">
  <g id="Capa_1_Imagen" data-name="Capa 1 Imagen">
    <g>
      <path d="M122,53.79c-1.48,1.45-4.77,2.18-4.69,4.2l10.82,48.27c-1.44.77-6.49,1.05-7.44-.07-1.26-4.98-2.68-10-3.79-15.02-1.33-6.03-2.49-11.89-3.93-17.88-.73-3.02-2.35-13.89-4.43-15.2-1.05-.66-4.82-1.77-5.7-.86-1.55,1.6.13,3.06.24,4.7.81,12.99.46,25.71.04,38.67-.05,1.62,1.85,5.32-.93,6.16-3.04.91-6.49-.42-6.19-3.95,1.09-28.49-1.12-57.24-.55-85.66.06-2.77.82-5.65.81-8.45.41-.6.97-.52,1.58-.49,3.1.14,13.26,2.34,16.16,3.52,7.81,3.18,11.38,9.86,11.99,18,.51,6.76,1.02,19.13-4,24.06ZM103.11,49.07c4.04-.25,7.29,1.82,11.21.04,5.24-2.39,3.89-8.79,4.03-13.41.17-5.64,1.13-9.55-3.85-14.1-2.4-2.2-10.07-5.44-10.81-.56-1.3,8.51,1.32,19.39-.58,28.04Z"/>
      <path d="M140.05,16.5c9.85-.43,18.39,7.33,19.2,17.04,1.59,19.13-1.05,40.48-.13,59.83-2.2,16.27-23.81,19.19-28.37,5.21-3.36-10.29-.44-23.13-.35-33.45.08-9.99-.83-19.93-1.14-29.94-.09-3-.37-8.12.06-10.89.69-4.49,6.57-7.62,10.74-7.8ZM142.25,24.11c-9.63.95-5.09,14.93-4.77,21.4.3,6.1-.88,12.16-.59,18.04.38,7.65.79,10.09.08,18.03-.54,6-2.54,15.64,4.71,18.08,7.23,2.43,10.23-4.39,10.5-10.51.59-13.89-.57-28.01-.56-42,0-5.49.88-10.5,0-16.3-.59-3.83-5.59-7.1-9.35-6.73Z"/>
      <path d="M44.78,45.26v61.07c-3.07,1.09-6.27.34-9.33-.31-1.52-3.13-.47-5.8-.46-8.66.03-7.55-.17-15.13.25-22.65-5.14,9.33-8.92,19.33-12.3,29.41-2.28,1.92-6.63-6.77-7.7-8.32-1.62-2.35-3.48-4.75-5.35-6.92l1,17.36c-.39.08-1.08.64-1.28.64H1.44l-.73-.9c-.88-9.46-.85-19.04-.36-28.55,2.27-1.15,8.42-4.56,10.62-3.53,3.46,1.6,5.66,10.75,9.01,13.34,5.97-12.34,11.2-25.81,14.55-39.14l10.25-2.84Z"/>
      <path d="M.07,16.63c.29-1.34,1.84-2,2.9-2.55C6.96,12,28.21,3.69,31.97,3.27c7.4-.83,12.79,1.61,13.38,9.52.82,10.93.82,18.05-9.27,24.03-6.29,3.73-18.9,6.03-23.48,9.78-3.56,2.91-1.04,7.98-1.13,11.95-.06,2.62-.96,8.32-3.36,9.73-.62.36-5.66,2.26-6.37,2.39-.67.12-1.66.02-1.66-.6V16.63ZM10.98,37.62c6.29-2.6,20.61-5,23.03-12.14,1.04-3.09,2.33-9.92-.68-12.11-4.7-3.43-17.15,5.59-22.34,6.8v17.45Z"/>
      <path d="M78.41,97.97c1.51-1.27,4.74-5.8,5.04-7.77l.15-42.93c.22-3.18,6.11-4.36,7.16-1.9s.39,17.56.38,21.44c0,4.53-.07,9.03,0,13.59.17,11.6-.16,23.27-14.06,25.78-15.14,2.74-24.73-4.45-25.78-19.74-.84-12.22-.11-26.86.05-39.31.01-1.13-.48-2.28-.41-3.18.36-4.68,8.04-3.99,8.56-1.16l-.56,43.64c.37,3.34.87,6.23,3.27,8.73,3,3.13,3.66,1.73,6.8,2.47s6.43,2.84,9.41.33Z"/>
      <path d="M173.82,54.07l33.09,5.43c1.08.69,1.74,1.69,1.94,2.97.27,1.69.23,14.59-.23,15.52-1.79,3.57-14.03.33-17.46,0-6.24-.61-12.57-.75-18.81-1.36l-1.07-1.65c.23-3.87-2.38-19.76,2.54-20.89Z"/>
      <path d="M224.68,98.69c.08,2.21.42,3.87-1.68,5.13-2.63,1.58-3.8.32-6.2.3-7.98-.1-15.96.19-23.93-.05-.48-.1-.59-.48-.8-.83-1.06-1.72-1.01-18.27.17-19.82l1.64-.59c5.07.45,10.21,1.31,15.28,1.68,3.3.24,12.04-.66,14.42.84.55.35.56,1.37,1.49,1.78,3.3,1.46,12.12.61,14.88,2.56.92.65.24.81-.27,1.38-.91,1.04-3.45,2.07-3.82,2.72-.42.75-.15,1.68-.39,2.33-.83,2.19-8.53,2.49-10.79,2.56Z"/>
      <path d="M51.87,0l7.02,1.16c.93,6.87-1.43,16.88,1.05,23.21,1.88,4.79,9.97,9.88,15.04,9.37,14.77-1.48,6.5-17.79,9.86-27.21,2.91-1.07,5.96-.47,6.31,2.97.46,4.55.56,17.97-.16,22.26-.15.91-.61,1.95-1.05,2.77-8.23,15.59-38.07,2.88-38.07-10.82V0Z"/>
      <path d="M191.43,31.35c.05-.29.56-.85.62-1.29,1.16-.7,6.61,1.47,8.45,1.53,2.86.09,6.1-1.37,9.13.64.75.5.98,1.52,1.76,2.06.82.57,1.95.54,2.97,1.39,1.57,1.3,2.91,4.73,4.6,6.3,2,1.85,5.19,2.01,5.69,5.22.26,1.66.5,7.39-1.05,8.15-1.65.8-14.79-1.07-17.56-1.52-1.99-.32-12.58-2.28-13.48-2.87-.31-.2-1.12-1.39-1.12-1.6,0-4.95-.75-13.59,0-17.99Z"/>
      <path d="M236.14,69.25c-.25.24-6.07-.2-6.55,1.63,4.11-.46,8.92,2.73,12.3,3.24,2.02.3,9.16-.31,9.96,2.03,3.1,9.11-14.1,4.75-18.69,4.52-6.37-.31-12.76.15-19.11-.72l-.79-.67c1.35-5.76-.74-11.61-.05-17.42.09-.76-.01-1.52.92-1.83.38-.13,6.96.45,8.03.56,6.23.67,12.7,1.62,13.97,8.65Z"/>
      <path d="M176.58,26.81c1.81-.29,9.57,1.05,10.25,3.14.61,1.88.54,14.73.25,17.22-.1.89-.44,2.67-1.42,2.89-2.67-1.05-13.51-.97-14.29-3.55-.43-1.42-.27-8.39-.13-10.27.26-3.3,1.48-8.81,5.34-9.43Z"/>
      <path d="M172.72,81.87c2.38.5,12.44.13,13.55,1.55,1,3.14,1.65,18.81-.3,20.44-2.79,2.34-10.42-.33-12.44-3.34-2.88-4.29-1.95-8.39-1.68-12.99.12-2.08-1.35-4.35.87-5.66Z"/>
    </g>
  </g>
</svg>