<?xml version="1.0" encoding="UTF-8"?>
<svg id="Capa_2" data-name="Capa 2" xmlns="http://www.w3.org/2000/svg" viewBox="0 0 255.28 107.52">
  <g id="Capa_1_Imagen" data-name="Capa 1 Imagen">
    <g>
      <path d="M108.07,106.2c-1.66-5.59-3.25-11.21-4.66-16.88s-2.83-11.48-4.47-17.34c-.7-2.51-2.33-12.56-3.91-13.67-.61-.43-5.15-1.67-5.88-1.6-3.34.33-1.02,3.61-.87,5.22,1.29,14.61.16,29.42.61,44.03-.3,1.26-7.61,1.53-7.95-.68l-.24-97.1c14.88,1.88,31.88,2.89,33.28,21.52.46,6.16,1.02,18.77-3.54,23.22-1.44,1.4-6.23,3.35-6.26,4.56l12.39,47.97c-.41,2.21-6.89,1.67-8.48.76ZM88.86,49.08c4.76.71,15.27,2.26,16.33-4.66.57-3.74.96-11.02.6-14.72-.59-6-7.47-11.31-13.4-11.2-1.08.02-3.53,1.02-3.53,1.96v28.63Z"/>
      <path d="M129.65,16.49c9.33-.37,20.37,6.06,21.35,15.96,1.91,19.32-1.3,41.82-.14,61.47-1.97,12.59-17.99,17.66-27.68,9.97-6.62-5.26-5.91-21.01-5.46-28.93.58-10.18,1.29-20.12.9-30.42-.42-11.19-6-27.37,11.01-28.05ZM131.81,24.12c-7.8.92-6.03,7.08-5.9,13.25.26,12.07,1.44,24.47,1.68,36.48.16,7.74-7.05,26.45,6.79,26.47,6.22,0,8.58-5.96,8.93-11.24.9-13.87-.5-28.91-.5-43.03,0-4.94.77-9.32-.1-14.57-.78-4.68-6.46-7.89-10.89-7.36Z"/>
      <path d="M33.65,40.46c1.27-.17,5.46.58,5.61,2.34l-.02,45.28c.06,3.53,2.85,7.86,6.17,9.09,1.95.73,3.56.19,5.43.57,2.56.51,4.98,1.99,7.65,1.38,1.76-.4,7.11-5.99,7.45-7.82.76-4.15-.12-11.69,0-16.35.14-5.42.63-10.84.59-16.36-.03-3.31-2-13.45,2.99-14.41,1.21-.23,4.23-.05,4.9,1.07s.3,19.6.29,22.66c0,2.23-.68,4.46-.59,7.09.24,6.66,2.27,11.59.19,18.69-5.58,19.04-41.74,17.65-43.78-5.09-1.15-12.79.19-28.28.02-41.45-.03-2.66-1.56-6.07,3.09-6.68Z"/>
      <path d="M206.62,78.52c-6.71,2.59-12.77.03-19.36-.54-7.01-.61-14.13-.78-21.17-1.19-.76-.26-1.18-1.21-1.33-1.94-.35-1.64-.64-6.15-.69-8.03-.09-3.17-.53-12.13,3.68-12.74,10.36,1.47,20.7,3.1,31.03,4.74,1.68.27,7.84.02,7.84,3.07v16.63Z"/>
      <path d="M224.61,98.69c.78,3.53-1.21,5.76-4.7,5.98-1.29.08-2.45-.54-3.73-.55-9.34-.05-18.69.15-28.03-.05-2.18-6.7-1.14-14.05-.13-20.88.65-.9,16.78,1.18,19.39,1.34,4.08.25,12.16-.84,15.54.82.86.42.98,1.31,2.51,1.85,3.98,1.4,12.78.54,16.05,2.48.9.53.33.61,0,1.11-1.07,1.59-4.14,2.12-4.64,2.99-.41.71-.14,1.68-.39,2.34-.81,2.15-9.56,2.54-11.88,2.56Z"/>
      <path d="M25.62,45.26v60.8c0,1.4-5.25.53-5.47-.08l-.25-30.74-7.12,28.32-1.32.58-6-15.26.46,17.1-.43.66c-.4.28-.92.21-1.37.26-1.3.17-3.31.24-4.12-.84v-28.9c0-.35,4.98-4.23,6.01-3.3l5.43,13.39c2.45-9.14,4.41-18.44,6.38-27.7.6-2.82,1.07-9.15,1.92-11.16.42-.99,4.65-3.08,5.88-3.12Z"/>
      <path d="M0,15.54L16.71,3.9c7.58-2.95,9.1,4.07,9.48,9.98.52,7.95.28,17.25-5.76,23.19-3.09,3.04-11.49,6.57-13.36,9.14-2.22,3.04-.53,14.06-1.33,18.7-.65,3.77-2.69,4.19-5.75,5.98V15.54ZM6,20.45v17.18c5.17-3.27,12.26-5.55,13.5-12.4.35-1.94.9-7.81.54-9.56-.16-.78-1.14-2.83-1.87-3.07-2.92-.94-9.66,6.16-12.17,7.85Z"/>
      <path d="M39.2,1.15c.72.84-.61,18.44.48,22.15,1.72,5.85,11.96,11.06,17.78,10.45,4.89-.51,9.02-3.23,9.6-8.39.53-4.72-1.47-14.97.63-18.45,1.2-1.98,5.01-.33,6.88.32.43,1.09.6,2.23.69,3.4.38,4.84.57,18.89-1.17,22.86-1.39,3.16-5,5.97-8.24,7.03-10.7,3.48-24.18-.66-31.23-9.41s-2.4-20.94-3.54-31.09l8.13,1.15Z"/>
      <path d="M187.54,30.81c.63-2.04,7.88.72,9.62.78,3.04.1,6.66-1.18,9.99.32.74.33,1.56,1.75,2.55,2.36,1.06.66,2.44.66,3.44,1.47,1.63,1.32,3.24,4.98,5.75,6.79,3.2,2.3,5.25,1.01,5.75,6.24.14,1.5.23,5.79-1.11,6.58-1.49.88-16.4-1.03-19.28-1.45-3.87-.56-10.86-1.48-14.35-2.55-1-.31-1.73-.52-2.36-1.46v-19.08Z"/>
      <path d="M237.15,69.25c-.29.28-6.59-.17-7.09,1.63,4.44-.53,9.63,2.68,13.39,3.24,2.69.4,10.61-.75,11.58,2.61,1.79,6.2-6.68,5.23-10.55,5.08-9.69-.37-20.5-1.05-30.12-2.06-.89-.09-2.56.83-2.82-.45-.07-.36.49-1.44.51-2.16.06-1.98.1-4.04.03-6.02s-1.71-10.4.33-11.09c.41-.14,7.5.38,8.64.48,2.46.22,11.13,1.25,12.58,2.69.66.66.67,1.63,1.11,2.16,1.06,1.27,3.01,1.27,2.41,3.87Z"/>
      <path d="M182.09,49.62c-.62.07-1.15.34-1.79.35-1.95.02-12.52-1.46-14.15-2.13-.52-.21-.97-.4-1.24-.94-.71-5.15-1.41-20.15,6.47-20.14,1.6,0,10.71,1.33,10.71,2.96v19.9Z"/>
      <path d="M166.1,81.88c.48-.17,8.97.35,10.26.47,3.64.32,5.41.07,5.76,4.06.31,3.49.44,11.99,0,15.32-.74,5.58-12.19,2.36-14.98-1.42-3.16-4.29-2.11-8.08-1.9-12.77.08-1.67-1.25-4.91.86-5.65Z"/>
    </g>
  </g>
</svg>