<?xml version="1.0" encoding="UTF-8"?>
<svg id="Capa_2" data-name="Capa 2" xmlns="http://www.w3.org/2000/svg" viewBox="0 0 258.52 107.51">
  <g id="Capa_1_Imagen" data-name="Capa 1 Imagen">
    <g>
      <path d="M97.58,56.72l13.56,48.73c-.45,1.96-7.51,1.8-9.07.74-1.69-6.29-3.73-12.52-5.44-18.82-1.22-4.47-2.31-8.89-3.56-13.34-1.07-3.8-2.12-11.13-3.79-14.2-1.18-2.16-7.26-4.07-8.65-2.35-1.05,1.49.4,3.3.55,5,1.22,14.45.23,29.05.63,43.5-2.38,1.3-5.29,1.07-7.8.34l-.71-97.64c.48-.71,1.4-.52,2.13-.47,11.25.77,30.84,4.34,32.54,18.21.46,3.78.51,17.59-.14,21.15-.81,4.4-6.12,8.02-10.23,9.14ZM81.78,49.07c5.42.58,16.31,2.56,17.4-5.23.51-3.66.96-10.55.62-14.15-.6-6.4-8.3-11.3-14.48-11.2-1.08.02-3.53,1.02-3.53,1.96v28.63Z"/>
      <path d="M125.29,16.48c9.25-.36,21.43,5.94,22.44,15.97,1.95,19.27-1.33,41.86-.14,61.47-2.31,14.66-24.68,18.34-32.57,6.69-2.98-4.41-3.04-20.01-2.72-25.63.6-10.39,1.43-20.65,1.11-31.11-.18-5.87-2.3-14.27-1-20.04.98-4.32,8.91-7.19,12.87-7.35ZM127.45,24.12c-8.06.84-6.61,6.87-6.44,13.26.31,11.75,1.23,23.68,1.68,35.39.26,6.6-2.33,12.9-1.68,19.68.92,9.64,15.39,10.65,17.88.94.91-3.55.62-9.11.7-12.93.26-11.5-.64-22.89-.59-34.4.02-4.97.86-9.28-.11-14.57-.9-4.93-6.81-7.85-11.44-7.36Z"/>
      <path d="M28.77,41.57c.73,1.03.62,2.22.7,3.39.93,13.74-1.75,28.5-.59,42.03.35,4.09,2.65,8.67,6.71,10.19.55.21,10.65,2.03,11.58,2.09,3.69.22,9.79-5.16,10.49-8.6,1.07-5.24.06-16.28.1-22.25.02-3.09.01-6.13,0-9.22-.01-2.7-.47-9.87.13-11.91.99-3.33,7.48-4.43,8.89-1.48.73,1.54.36,17.4.29,20.47-.05,2.18-1.04,4.85-1.06,7.01-.07,7.19,2.66,13.73-.04,21.33-6.36,17.89-43.62,15.76-45.81-4.37-1.38-12.74.32-29.26.03-42.56-.05-2.42-1.75-4.32.79-6.25,2.18-1.66,5.38-.68,7.79.13Z"/>
      <path d="M206.62,78.52c-7,2.59-13.51.03-20.45-.54s-14.54-.84-21.79-1.11c-2.01-.38-2.34-2.37-2.49-4.05-.26-2.92-.42-12.65.14-15.18.3-1.34,2.18-3.36,3.54-3.56,10.91,1.41,21.78,3.15,32.67,4.74,1.76.26,8.38-.12,8.38,3.07v16.63Z"/>
      <path d="M225.7,98.69c.75,3.63-1.15,5.67-4.7,5.98-1.59.14-2.8-.54-4.27-.55-9.6-.07-19.21.19-28.81-.09-2.54-.76-2.16-10.29-2.04-12.73.07-1.38.41-6.02.68-6.96.38-1.34,1.67-1.51,2.88-1.52,5.31-.05,12.01,1.36,17.46,1.68,4.32.26,13.71-.84,17.14.85.76.37,1.06,1.41,2.06,1.76,4.29,1.51,14.09.49,17.6,2.57.99.59-.3,1.49-.83,1.92-3.12,2.46-2.16.38-4.39,4.34-1.4,2.48-10.01,2.73-12.79,2.75Z"/>
      <path d="M20.17,0l8.65,1.17c1.28,8.65-3.25,21.67,4.8,27.64,1.26.94,8.5,4.63,9.84,4.88,4.77.89,13.94-.96,14.83-6.72.74-4.81-1.2-16.22.88-19.84,1.23-2.15,7.57-1.07,7.91,1.85.45,3.83.46,19.79-.4,23.1-.66,2.53-3.54,5.45-5.79,6.75-11.05,6.36-29.52,1.69-37.19-8.27-1.19-1.55-3.53-6.12-3.53-7.92V0Z"/>
      <path d="M186.45,30.81c.68-2.16,8.68.81,10.66.83,1.56.02,3.06-.63,4.88-.6,2.78.05,9.54,2.99,11.69,4.7,1.56,1.24,2.76,4.17,4.98,5.92,1.61,1.27,5.23,2.45,5.98,3.29,1.4,1.57,1.71,9.38-.02,10.4s-21.24-1.54-24.65-2.07c-4-.63-7.97-1.72-12.01-2.17-.44-.1-1.51-.98-1.51-1.22v-19.08Z"/>
      <path d="M231.7,70.88c4.8-.39,10.24,2.67,14.49,3.23,3.24.42,13.9-1.02,12.13,5.1-1,3.47-8.71,2.68-11.62,2.57-10.65-.41-21.58-1.07-32.18-2.05-.86-.08-1.75.93-2.42-.45l.48-19.07c.81-.57,16.48,1.07,18.69,1.55,3.84.82,4.5,2.15,7.16,4.83,3.78,3.82-5.63,2.02-6.74,4.28Z"/>
      <path d="M16.36,106.87c-1.77.52-3.82-.54-3.82-2.45v-25.63l-4.37,25.35c-.91-.15-.98-1.06-1.24-1.75-1.22-3.22-1.55-7.4-2.74-10.9-.2-.57-.12-1.65-.92-1.52l.46,16.01c-.45,1.36-2.57.83-3.74.89v-29.72c0-.26,2.49-3.7,3.85-2.76,1.03.72,2.26,9.54,2.7,11.48.19.85-.36.95,1.08.82l5-38.35,3.72-3.09v61.61Z"/>
      <path d="M0,70.88V15.54C1.7,13.61,10.22,3.8,11.84,3.35c3.49-.98,4.36,4.91,4.54,7.26.61,8.27.93,19.91-3.61,26.97-2.2,3.42-7.89,6.77-8.69,9.85-1.17,4.5.21,12.07-.33,17.12-.32,3-1.1,4.74-3.75,6.34ZM3.82,20.45v17.18c4.39-3.55,7.85-6.38,8.66-12.33.23-1.68.68-6.54.63-8.1-.04-1.41-.86-2.71-1.17-4.05-1.85-1.39-7.93,6.6-8.13,7.31Z"/>
      <path d="M180.32,49.49c-.74.78-8.26-.23-9.88-.49s-7.08-.85-7.71-2.11c-.69-5.91-2.19-20.15,7.03-20.13,1.36,0,9.82,1.44,10.41,2.14,1.25,1.48,1.28,19.4.16,20.57Z"/>
      <path d="M163.94,81.9c.66-.2,9.39.32,10.78.45,1.26.12,4.57.52,5.23,1.31,1.36,1.6,1.49,16.12.8,18.34-1.39,4.48-10.6,2.32-13.57.43-6.14-3.91-4.54-9.97-4.23-15.94.07-1.26-1.61-3.8.98-4.59Z"/>
    </g>
  </g>
</svg>