<?xml version="1.0" encoding="UTF-8"?>
<svg id="Capa_2" data-name="Capa 2" xmlns="http://www.w3.org/2000/svg" viewBox="0 0 259.68 107.58">
  <g id="Capa_1_Imagen" data-name="Capa 1 Imagen">
    <g>
      <path d="M96.49,56.72l13.59,49.55c-.58.83-8.21.96-9.09-.08-1.66-6.15-3.64-12.24-5.32-18.39-1.44-5.25-2.64-10.15-4.22-15.41-.91-3.03-2.62-13.32-5.17-14.46-1.29-.58-5.98-1.58-6.96-.69-1.55,1.65.08,2.64.26,4.13.88,7.47.5,14.96.55,22.3s-.19,14.46.28,21.65l-.61,1.05c-1.95.82-7.07,1.01-8.09-1.14-.72-25.47,0-51.11-.25-76.64-.04-4.25-.85-8.56-.6-13.09.06-1,.62-6.54.81-6.82.48-.71,1.4-.52,2.13-.47,6.28.44,18.94,2.66,24.18,5.85,10.61,6.46,10.31,18,9.46,29.3-.56,7.41-3.95,11.05-10.93,13.35ZM80.14,49.07c5.43.47,16.78,2.64,17.96-5.21.47-3.1,1.11-13.46.28-16.02-1.99-6.1-10.07-10.12-16.24-9.21-.59.19-1.99,2.73-1.99,2.91v27.54Z"/>
      <path d="M124.73,16.51c12.12-.33,22.13,6.84,23.01,19.21,1.29,18.28-.84,38.12-.13,56.56-1.34,14.59-21.14,19.95-31.19,10.76-6.24-5.71-4.84-20.56-4.67-28.63.24-10.89,1.05-21.65.59-32.72-.22-5.39-2.71-15.38.28-19.85,2.2-3.3,8.35-5.23,12.12-5.33ZM126.91,24.12c-8.53.9-6.59,6.85-6.44,13.8.19,9.16.19,18.61.54,27.81.1,2.73,1.13,5.95,1.16,8.69.07,7-5.96,21.13,2.94,24.84,7.95,3.31,13.21-1.75,13.85-9.63,1.09-13.48-.56-28.3-.5-41.94.02-5.69,1.11-10.78-.1-16.75-.91-4.46-7.29-7.25-11.44-6.82Z"/>
      <path d="M26.59,41.57c.73,1.03.62,2.22.7,3.39.93,13.74-1.75,28.5-.59,42.03.35,4.05,2.92,9.14,7.08,10.36,1.78.52,3.48,0,5.15.3,4.83.9,7.23,3.19,11.79-.32,2.34-1.79,5.02-4.76,5.3-7.79l.28-42.25c.96-3.81,7.57-4.21,8.86-1.5.78,1.64.31,17.25.29,20.47,0,1.16-.56,2.24-.56,3.25-.08,15.75,5.03,33.26-16.23,36.66-14.21,2.27-29.94-2.17-31.23-18.65-.99-12.73.27-27.37.05-40.39-.04-2.54-1.64-3.31,1.04-5.45,2.45-1.95,5.36-1.04,8.07-.12Z"/>
      <path d="M207.17,78.52c-6.88,2.34-13.53.37-20.45-.54l-22.78-1.21c-3.1-.89-1.94-7.75-2-10.54-.03-1.32-.62-2.52-.61-3.79,0-3.4.77-7.68,4.65-8.38,10.93,1.6,21.88,3.17,32.81,4.76,1.31.19,8.38.14,8.38,2.52v17.18Z"/>
      <path d="M226.79,98.69c.63,3.87-1.5,5.81-5.25,5.97-1.33.06-2.44-.54-3.72-.54-9.98.02-19.96.1-29.93-.05-.48-.1-.59-.48-.8-.83-1.06-1.72-.96-18.24.16-19.84.52-.73,1.94-.59,2.76-.56,5.65.19,11.78,1.33,17.44,1.67,4.88.29,13.01-.83,17.31.68,1.06.37,1.37,1.56,2.43,1.93,4.49,1.57,13.12.41,17.2,2.42,3.23,1.59-3.19,3.1-3.97,3.97-.67.74-.45,1.73-.84,2.43-1.4,2.48-10.01,2.73-12.79,2.75Z"/>
      <path d="M17.99,0l8.65,1.17c1.38,9.28-3.72,22.49,5.78,28.3,6.56,4.01,12.63,6.01,19.94,2.45,8.55-4.16,1.68-18.52,5.51-25.84.95-.61,6.67.51,7.29,1.55.28.41.24.88.29,1.34.45,3.77.54,19.4-.16,22.81-.19.93-.94,2.07-1.51,2.85-9.72,13.24-37.34,6.48-44.26-6.98-.36-.7-1.53-3.41-1.53-3.92V0Z"/>
      <path d="M225.56,44.85c1.59,1.67,2.36,10.19-1.23,10.76-12.45-.55-24.82-2.28-36.99-4.85-1.66-1.18-.9-17.8-.33-20.74.72-.7,8.89,1.61,10.64,1.63,3.43.03,6.19-1.11,10.08.23.38.13,6.43,3.8,6.81,4.1,1.81,1.43,3.41,4.6,5.74,6.25,1.26.89,4.65,1.96,5.28,2.62Z"/>
      <path d="M232.79,70.88c4.8-.39,10.25,2.68,14.49,3.23,3.73.48,14.25-1.27,12.11,5.67-.84,2.74-9.12,2.1-11.61,2.01-10.85-.43-21.89-1.71-32.72-2.07-.56-.02-1.75.61-1.9.44,1.27-3.11-1.73-18.75-.04-19.93,3.19-.03,6.97.03,10.12.31,2.74.24,10.82,1.16,12.79,2.47.42.28,2.74,2.84,3.49,3.6,3.78,3.82-5.63,2.02-6.74,4.28Z"/>
      <path d="M14.18,106.87l-2.48-.51c-2.01-9.72.27-19.65-.25-29.47l-4.36,27.26-3.81-13.63v16.36c-1.36.02-3.11.4-3.27-1.36v-27.8c.4-.79,2.65-4.87,3.55-3.56l2.99,12.54c1.91-12.69,3.74-25.49,4.36-38.33l3.28-3.11v61.61Z"/>
      <path d="M0,70.34V15.54L9.43,3.99c3.98-3.31,5.03,5.6,5.22,7.81.71,8.19.51,19.87-4.05,26.89-5.14,7.89-7.28,4.39-7.35,16.14-.02,3.69.56,7.59-.01,11.39-.21,1.41-1.53,4.19-3.24,4.12ZM3.27,37.08c2.14-.76,5.47-4.39,6.41-6.4,1.13-2.4,1.8-9.57,1.81-12.41,0-1.52-.27-5.68-2.41-5.11-.83.23-5.81,7.34-5.81,7.83v16.09Z"/>
      <path d="M181,48.8c-.15.48-1.66,1.31-2.34,1.19-3.73-1.29-12.82-.66-15.84-2.51-1.28-.78-1.05-7.87-.93-9.61.34-4.83,2-11.11,7.87-11.09,1.65,0,11.24,1.4,11.24,2.94v19.08Z"/>
      <path d="M180.32,103.47c-2.37,2.38-10.48.64-13.14-1.05-6.17-3.93-4.61-9.95-4.28-16,.07-1.27-1.27-2.89.33-4.14s3.82,0,5.51.05c3.83.1,7.8-.37,11.45,1.09,1.21,1.37,1.24,18.95.14,20.06Z"/>
    </g>
  </g>
</svg>