<?xml version="1.0" encoding="UTF-8"?>
<svg id="Capa_2" data-name="Capa 2" xmlns="http://www.w3.org/2000/svg" viewBox="0 0 255.28 107.46">
  <g id="Capa_1_Imagen" data-name="Capa 1 Imagen">
    <g>
      <path d="M113.75,52.69c-1.67,1.82-6.41,3.3-6.33,5.3l11.91,48.26-7.57.35-.79-.85c-1.2-4.87-2.78-9.71-3.95-14.58-1.43-5.95-2.71-11.68-4.25-17.56-.95-3.61-2.16-11.57-3.66-14.34-.87-1.6-6.09-3.04-7.28-2.09-1.54,1.24.19,6.44.3,8.52.66,12.33-.12,24.23-.02,36.55,0,1.03.7,2.48.51,3.16-.51,1.87-5.89,1.83-7.26.86l-.86-98.11c10.26,1.78,22.96,1.65,29.35,11.27,3.65,5.5,3.44,19.44,2.84,26.1-.24,2.61-1.17,5.21-2.94,7.14ZM92.13,49.07c4.94.51,14.49,2.55,16.12-4.32.42-1.78.74-6.93.8-9.01.19-6.12-.01-10.88-5.45-14.77-1.87-1.33-8.46-3.54-10.12-1.9-2.75,2.7-.55,25.13-1.35,30Z"/>
      <path d="M122.86,20.37c9.26-9.5,29.39-.92,30.36,13.14,1.33,19.4-1,40.38-.08,59.94-1.98,16.94-27.51,18.92-31.41,3.72-1.44-5.59-1.59-16.33-1.24-22.2.6-9.96,1.41-20,1.13-29.99-.19-6.58-3.51-19.75,1.24-24.62ZM134.54,24.11c-9.17.92-5.43,10.65-5.32,17.04.14,7.99-.35,16.06-.05,24.04.11,2.95,1.15,6.22,1.15,9.25,0,7.07-5.83,21.68,3.25,25.06,7.08,2.64,11.33-2.69,11.91-9.32,1.17-13.41-.61-28.36-.5-41.94.05-5.96,1.2-11.63-.1-17.85-.8-3.83-6.66-6.65-10.35-6.28Z"/>
      <path d="M47.08,95.23c3.13,3.11,4.31,1.76,7.65,2.43,2.24.45,4.89,1.76,7.08,1.55,3.8-.36,8.19-6.38,8.55-10.03.86-8.8-.13-18.99-.05-27.81.04-3.8-.56-10.28.05-13.63.79-4.32,7.73-5.05,8.18-1.15.71,6.17.01,15.33,0,21.86,0,1.89-.65,3.74-.59,6,.17,6.96,2.33,11.72.19,19.22-5.42,19.01-40.82,17.44-42.71-4.51-1.12-13.02.22-28.64.05-42.03-.02-1.81-1.15-3.03.03-4.83,1.7-2.59,6.79-2.12,8.58.03l-.45,44.61c.33,3.01,1.26,6.09,3.46,8.27Z"/>
      <path d="M30.53,45.26v61.07c-2.14.78-4.51.66-6.56-.36l-.25-31.27-8.46,29.45-1.54-.9-7.17-14.36.8,16.93c-.71,1.65-5.24,1.15-6.84.82l-.4-29.64c1.92-.59,5.11-3.96,6.95-3.13s4.58,9.77,5.73,12.3c.22.49.16,1.51.83.81,4.12-12.61,7.23-25.61,9.91-38.62.39-.78,5.78-3.32,6.99-3.1Z"/>
      <path d="M0,16.09c.32-1.46,3.22-2.83,4.54-3.64,2.79-1.7,15.26-8.95,17.53-9.19,7.33-.78,8.63,5.29,9.03,11.17.6,8.78.04,16.99-7.16,22.88-3.57,2.92-13.77,6.84-15.68,9.39-2.48,3.31-.56,8.23-.59,11.92-.01,1.74-.76,7.5-1.51,8.85-.56,1.01-4.72,3.1-6.17,3.42V16.09ZM7.63,21.54c-.32,5.31.23,10.77,0,16.09,1.79-.76,3.35-1.93,5.07-2.83,2.32-1.21,6.12-2.58,8.02-4.67.89-.98,2.36-4.1,2.59-5.44.36-2.07.85-7.97.16-9.73-1.64-4.17-4.86-2.02-7.62-.46-1.17.66-8.27,5.6-8.49,6.23-.2.36.28.7.27.82Z"/>
      <path d="M207.71,77.7c-1.04,3.66-15.84.88-18.81.28l-20.15-1.11c-2.01-.39-2.34-2.37-2.49-4.05-.29-3.23-.42-11.7.06-14.72.27-1.71,1.69-3.12,3.09-4.04,10.19,1.38,20.32,3.15,30.47,4.76,2.19.35,4.28-.38,6.34,1.14.23.17,1.49,1.8,1.49,1.92,0,3.3.66,13.5,0,15.81Z"/>
      <path d="M225.15,98.69c.12,2.34.38,4.22-2.05,5.3-2.78,1.24-3.99.13-6.37.13-8.89-.02-17.78.13-26.66-.05-.48-.1-.59-.48-.8-.83-1.06-1.71-.96-18.25.16-19.84.47-.67,1.48-.58,2.2-.57,5.13.05,11.16,1.34,16.36,1.68,4.08.27,12.17-.79,15.51.85,5.93,2.91,6.55,2.05,12.77,3.04,1.1.18,6.16.83,5.79,2.38-.92,1.16-3.54,1.74-4.35,2.75-.67.84-.47,1.73-.86,2.41-1.43,2.5-8.93,2.69-11.7,2.75Z"/>
      <path d="M35.44,0l8.11,1.16c1.2,9.11-3.34,22.47,5.55,28.53.76.52,7.35,3.85,8,3.99,3.51.74,10.64-.82,12.61-4.05,2.77-4.55-.32-21.59,2.23-23.4,1.16-.82,6.41.2,6.88,1.89.75,2.71.61,18.2.24,21.59-.32,3.02-2.08,6.19-4.41,8.13-11.81,9.9-39.21-.55-39.21-16.32V0Z"/>
      <path d="M188.63,31.35c.05-.3.54-.85.63-1.28,1.41-.85,6.97,1.45,8.99,1.51,3.41.11,6.46-1.33,10.21.65,5.6,2.95,6.64,6.85,10.43,9.75,4.74,3.62,7.06,1.67,6.29,10.12-.37,4.04-1.5,3.66-5.2,3.51-7.94-.32-19.29-2.17-27.11-3.96-1.23-.28-4.24-.7-4.24-2.31,0-4.95-.75-13.58,0-17.99Z"/>
      <path d="M230.61,69.8c-.27,1.66.43.87,1.33,1.1,3.21.83,8.82,2.69,11.61,3.13,3.58.56,14.13-.96,11.22,6-.99,2.37-6.95,1.85-9.2,1.79-3.24-.09-7.11-.97-10.34-1.11-7.37-.32-14.75.17-22.08-.79l-.56-1.12c1.51-6.05-1.28-12.56.53-18.59.79-.56,14.97,1.06,17.06,1.55,4.36,1.03,3.1,1.25,5.32,3.95.72.87,2.67,1.03,2.19,2.71-.31,1.11-5.82,1.49-7.08,1.37Z"/>
      <path d="M183.72,48.8c-.13.45-1.12,1.21-1.78,1.22-1.29.03-13.97-1.9-14.58-2.31-2.16-1.44-2.5-20.63,5.71-20.9,1.5-.05,10.65,1.38,10.65,2.9v19.08Z"/>
      <path d="M168.3,81.89c.52-.16,8.43.34,9.69.45,1.47.13,3.58.46,4.92,1.07,1.12,1.27,1.06,14.71.83,17.21-.49,5.41-5.64,4.42-9.73,3.14-8.61-2.7-7.14-10.24-6.76-17.34.07-1.31-1.47-3.79,1.04-4.54Z"/>
    </g>
  </g>
</svg>