<?xml version="1.0" encoding="UTF-8"?>
<svg id="Capa_2" data-name="Capa 2" xmlns="http://www.w3.org/2000/svg" viewBox="0 0 253.74 107.65">
  <g id="Capa_1_Imagen" data-name="Capa 1 Imagen">
    <g>
      <path d="M111.23,56.77l11.94,49.53c-1.53.74-7.03,1.07-8-.08-1.75-6.26-3.29-12.6-4.79-18.92-1.94-8.14-3.46-18.69-6.21-26.5-1.22-3.45-4.46-3.89-7.69-3.83-1.08.78.52,9.06.6,10.92.52,12.65-.46,25.44,0,38.1-.31,1.33-5.54.97-6.7.37l-.87-97.25.43-.67c.41-.31.85-.22,1.32-.2,3.28.13,14.6,2.43,17.64,3.68,3.65,1.5,8.46,5.95,10.08,9.55,2.01,4.45,2.19,20.54,1.4,25.6-.7,4.48-4.79,8.56-9.13,9.71ZM97.04,49.1c6.56.76,14.68,2.66,15.75-6.33.35-2.99.65-8.91.65-11.93,0-6.31-7.59-13.27-13.92-12.28-.9.14-2.48,1.79-2.48,2.47v28.08Z"/>
      <path d="M128.85,103.43c-3.63-3.46-4.24-9.41-4.55-14.26-.75-11.64,1.32-23.66,1.11-35.46-.16-8.81-2.14-20.46-1.13-28.88s13.38-9.1,19.79-6.68c8.17,3.08,11.3,9.24,11.87,17.58,1.23,18.03-.96,37.45-.03,55.63-.02,13.76-17,21.66-27.06,12.08ZM137.81,24.13c-7.62.75-6.04,7.27-5.91,13.26.28,12.07,1.44,24.47,1.68,36.48.15,7.28-5.86,22.22,3.26,25.64,7.71,2.88,10.98-3.69,11.42-10.35.91-13.71-.62-27.72-.56-41.46.03-5.75,1.12-11.3-.1-17.3-.77-3.81-6.2-6.63-9.8-6.28Z"/>
      <path d="M53.62,95.25c2.93,2.94,4.02,1.74,7.11,2.43,2.1.47,5.12,1.79,7.09,1.56,3.22-.37,7.67-6.25,7.99-9.5.94-9.77.15-22.26-.05-32.17-.06-2.8-.66-11.76,2.33-13.02,2.11-.88,5.58-.74,5.9,2.06,1.06,9.3-1.05,20.26-.6,29.5.32,6.56,1.95,11.44-.13,18.36-5.58,18.62-40.3,15.54-40.76-5.28l-.25-46.63c1.34-2.92,6.57-2.34,8.35-.19l.11,25.01c.01,2.89-.03,5.76,0,8.68.07,5.97-1.5,14.77,2.9,19.18Z"/>
      <path d="M35.98,45.28v60.8l-.9.73c-1.5.28-6.07.06-6.63-1.37l-.37-30.17c-2.39,3.19-8.78,27.85-10.06,28.65-.41.26-1.33.43-1.63.23-.4-.27-3.59-7.28-4.3-8.52-1.25-2.19-2.85-4.79-4.45-6.72l1.01,17.37c-.44.7-7.72,1.28-8.65-.19v-29.17c3.81-.85,7.17-5.55,10.27-1.28.59.81,5.17,12.31,6.07,11.64,4.32-12.88,8.93-25.79,11.56-39.14l8.07-2.84Z"/>
      <path d="M0,15.57c.29-.95,15.64-7.98,17.8-8.92,2.47-1.08,6.18-3.16,8.62-3.37,8.78-.79,10.25,4.9,10.69,12.27.66,11.03-1.02,17.33-10.76,23.09-3.9,2.3-14.14,5.46-16.53,8-2.61,2.77-.72,10.57-1.06,14.75-.59,7.19-2.36,7.29-8.74,9.52V15.57ZM8.72,37.65c6.32-3.06,17.05-5.1,18.96-12.94.47-1.94.97-7.66.42-9.45-.25-.81-1.51-2.35-2.33-2.59-4.26-1.26-12.88,6.12-17.05,7.53v17.45Z"/>
      <path d="M207.71,78.54c-6.16,2.55-12.08.03-18.27-.54s-13.03-.77-19.51-1.21c-.64-.19-1.18-.72-1.36-1.36-.29-1.01-.63-6.53-.68-8.04-.11-3.23-.61-12.67,3.68-13.28,9.63,1.44,19.24,3.15,28.85,4.74,1.38.23,2.81-.13,4.18.18.75.17,3.11,1.91,3.11,2.34v17.18Z"/>
      <path d="M240.97,89.45c.66,2.61-3.79,2.87-4.63,4.37-.5.91-.02,2.19-.81,3.01-1.49,1.54-8.6,1.84-10.92,1.89.07,2.21.42,3.87-1.68,5.13-2.65,1.6-3.82.3-6.2.3-8.37-.03-16.73.08-25.1.03-1.08-.09-1.58-1.08-1.79-2.03-.57-2.64-.43-12.71-.12-15.69.1-1,.42-3.13,1.44-3.48,5.8.12,11.6,1.18,17.37,1.57,3.37.23,12.57-.67,14.97.84.55.35.56,1.37,1.49,1.78,2.26,1,15.21,1.49,15.97,2.3Z"/>
      <path d="M42.52.03c2.66-.1,5.65.02,7.91,1.63,1.3,2.17-.59,17.49.52,21.84,1.32,5.19,10.73,10.69,15.82,10.34,4.35-.3,9.14-2.61,9.58-7.33.61-6.65-1.18-13.92,1.13-20.4l6.39,1.11c.86,1.28.85,17.71.65,20.38-.3,3.98-1.3,7.59-4.41,10.31-11.43,9.98-37.59-1.06-37.59-15.78V.03Z"/>
      <path d="M189.72,31.38c.05-.29.56-.84.62-1.29,1.15-.69,7.12,1.46,8.97,1.51,2.8.07,5.75-1.19,8.91.35.3.15,5,3.36,5.51,3.76,2,1.55,3.18,4.91,5.7,6.84,2.02,1.55,4.66,1.52,5.15,4.67.32,2.06.53,6.78-1.06,8.15-1.64.8-15.36-1-18.19-1.44-1.95-.3-13.75-2.47-14.49-2.96-.31-.2-1.12-1.39-1.12-1.6,0-4.95-.75-13.59,0-17.99Z"/>
      <path d="M236.61,69.27c-1.85.03-3.9.23-5.72.57-.89.17-.95-.37-.83,1.07,4.23-.3,8.72,2.55,12.4,3.14,2.61.42,9.55-.37,10.76,2.32,3.93,8.79-15.62,4.51-19.59,4.33-6.71-.31-13.44.08-20.13-.64l-.85-.77c1.33-5.75-.75-11.6-.06-17.41.09-.76-.01-1.52.92-1.83.38-.13,7.01.4,8.09.5,6.42.61,13.72,1.36,15,8.72Z"/>
      <path d="M184.81,49.64c-.62.06-1.16.35-1.79.35-1.88.01-10.93-1.36-12.64-2-1.92-.72-1.76-1.07-1.95-2.95-.48-4.72-.67-16.35,5.05-17.96,1.64-.46,11.34.91,11.34,2.66v19.9Z"/>
      <path d="M169.92,81.89c2.92.66,12.83-.18,14.32,1.87.4.66.5,1.38.59,2.14.24,2.04.22,16.12-.28,17.19-1.61,3.4-10.5.74-12.76-1.42-4.03-3.84-3.01-9.37-2.73-14.11.12-2.08-1.35-4.35.87-5.66Z"/>
    </g>
  </g>
</svg>