<svg xmlns="http://www.w3.org/2000/svg" xmlns:xlink="http://www.w3.org/1999/xlink" xmlns:inkscape="http://www.inkscape.org/namespaces/inkscape" version="1.1" width="580.583" height="722.315" viewBox="0 0 580.583 722.315">
<defs>
<clipPath id="clip_1">
<path transform="matrix(1,0,0,-1,0,722.315)" d="M21 12.4961H568.087V709.819H21Z"/>
</clipPath>
<clipPath id="clip_2">
<path transform="matrix(1,0,0,-1,0,722.315)" d="M21 12.4961H568.087V709.819H21Z"/>
</clipPath>
<clipPath id="clip_3">
<path transform="matrix(1,0,0,-1,0,722.315)" d="M21 12.4961H568.087V709.819H21Z"/>
</clipPath>
<clipPath id="clip_4">
<path transform="matrix(1,0,0,-1,0,722.315)" d="M21 174.071H559.582V514.229H21Z"/>
</clipPath>
<clipPath id="clip_5">
<path transform="matrix(1,0,0,-1,0,722.315)" d="M0 0H580.583V722.315H0Z"/>
</clipPath>
</defs>
<g clip-path="url(#clip_1)">
<path transform="matrix(1,0,0,-1,461.0627,638.6692)" d="M0 0H21.209C21.748 0 22.185 .434 22.185 .969V9.551C22.185 10.225 21.634 10.772 20.955 10.772H0C-.539 10.772-.976 10.338-.976 9.803V.969C-.976 .434-.539 0 0 0" fill="#f0782f"/>
</g>
<text fill="#231f20" xml:space="preserve" transform="matrix(1 0 -0 1 0 722.315)" font-size="8" font-family="Montserrat"><tspan y="-86.3899" x="466.9113 469.8953">17</tspan></text>
<g clip-path="url(#clip_2)">
<path transform="matrix(1,0,0,-1,-108.7859,627.1812)" d="M0 0H259.572C266.169 0 271.518-.065 271.518-.146V-1.44C271.518-1.541 264.776-1.624 256.46-1.624H0C-6.597-1.624-11.946-1.558-11.946-1.478V-.146C-11.946-.065-6.597 0 0 0" fill="#9c4b2b"/>
</g>
<g clip-path="url(#clip_3)">
<path transform="matrix(1,0,0,-1,484.305,637.5452)" d="M0 0C-1.046-1.646-3.262-2.499-4.961-1.799-7.277-.845-7.866 1.533-5.652 3.554-2.24 6.67 2.328 3.663 0 0" fill="#f0782f"/>
<path transform="matrix(1,0,0,-1,487.9631,643.7535)" d="M0 0C-.676-.593-1.896-.698-2.475-.201-3.836 .966-1.945 3.396-.046 2.481 .843 2.053 .82 .719 0 0" fill="#dc7839"/>
</g>
<text fill="#231f20" xml:space="preserve" transform="matrix(1 0 -0 1 0 722.315)" font-size="24" font-family="Montserrat"><tspan y="-593.0439" x="174.7795 192.3955 208.95549 226.97949 242.5555 250.6915 271.3795 291.2995 298.4035 314.9635 334.8835 341.98753 361.90754 378.46754 397.47554 415.09153 430.01954 437.79554 455.24354">VERSION EN NEGATIVO</tspan></text>
<g clip-path="url(#clip_4)">
<path transform="matrix(1,0,0,-1,311.5644,338.7147)" d="M0 0H-142.923C-148.392 0-152.825 4.433-152.825 9.902V82.595C-152.825 88.064-148.392 92.498-142.923 92.498H0C5.469 92.498 9.902 88.064 9.902 82.595V9.902C9.902 4.433 5.469 0 0 0" fill="#1e1e20"/>
<path transform="matrix(1,0,0,-1,313.7066,442.699)" d="M0 0H-145.725C-150.42 0-154.226 3.806-154.226 8.501V83.997C-154.226 88.692-150.42 92.498-145.725 92.498H0C4.695 92.498 8.501 88.692 8.501 83.997V8.501C8.501 3.806 4.695 0 0 0" fill="#1e1e20"/>
<path transform="matrix(1,0,0,-1,341.0918,268.34)" d="M0 0C0 4.138 3.65 7.492 8.153 7.492L60.87-2.572C65.373-2.572 69.023-5.927 69.023-10.065V-50.056C69.023-54.194 65.373-57.549 60.87-57.549H8.153C3.65-57.549 0-54.194 0-50.056" fill="#0a0203"/>
<path transform="matrix(1,0,0,-1,205.545,73.40808)" d="M0 0C.063-3.028 .644-5.774 2.335-8.272 4.028-10.773 6.273-12.865 9.067-14.546 10.664-15.508 12.355-16.283 14.133-16.885 16.518-17.964 19.196-18.56 21.322-18.44 21.483-18.431 21.787-18.386 22.142-18.327 24.057-18.369 25.856-18.17 27.535-17.723 30.299-16.989 32.489-15.64 34.128-13.694 36.222-11.208 36.59-9.229 36.541-6.173L36.521 8.692C36.499 9.713 36.281 11.093 35.387 11.286L32.202 12.06C31.142 12.27 30.557 11.944 30.19 11.126 30.102 10.93 30.144 10.371 30.06 10.17 29.28 8.297 29.568 5.041 29.575 4.445L29.61-4.622C29.639-5.869 29.317-6.979 28.767-7.916 28.254-8.672 27.551-9.362 26.48-10.023 24.938-10.975 23.122-11.29 21.408-11.48 19.501-11.692 18.826-11.855 17.135-10.984 17.026-10.928 16.885-11.139 16.774-11.084 16.343-10.874 15.899-10.261 15.468-9.99 15.22-9.835 15.124-10.084 15.007-10.026 14.25-9.651 13.921-9.01 12.905-8.756 12.717-8.709 12.504-8.634 12.308-8.652 10.981-7.787 9.639-6.671 8.845-5.555 7.875-4.19 6.974-2.471 6.937-.763 6.913 .355 6.951 15.046 6.951 15.046 6.892 15.832 6.788 16.265 5.861 16.429L1.153 17.247C.268 17.389-.002 17.339 .014 16.548 .035 15.511-.022 1.06 0 0" fill="#002631"/>
<path transform="matrix(1,0,0,-1,242.0548,128.15332)" d="M0 0C.07 1.109 .04 2.262-.254 3.786-.727 6.232-.958 11.955-.296 14.168L-.299 32.939C-.315 33.061-.951 33.718-1.059 33.788-1.97 34.388-4.155 34.538-5.183 34.065-6.005 33.686-6.389 33.036-6.768 32.296-6.822 32.19-7.071 32.194-7.1 32.056-7.294 31.155-7.396 28.883-7.441 27.863-7.613 23.98-6.93 20.03-7.095 16.368-7.366 10.365-7.621 4.977-7.432-1.061-7.31-1.903-7.459-3.682-7.531-5.402-8.104-7.281-9.04-8.22-10.144-9.276-12.028-11.078-12.805-13.806-18.34-11.635-20.7-10.71-22.794-11.571-24.202-10.785-25.735-9.93-29.544-7.907-29.606-1.975-29.606-1.975-29.631-1.693-29.676-1.187-29.658-1.173-29.646-1.167-29.647-1.176-29.435 1.513-29.65 4.602-29.639 7.298-29.628 9.953-29.92 13.233-29.33 15.597L-29.333 35.651C-29.347 35.781-29.915 36.483-30.01 36.558-30.823 37.198-32.655 37.234-33.689 37.394-34.989 37.596-38.427 35.699-36.734 32.737-36.673 32.63-36.077 36.357-36.104 36.21-36.15 35.951-36.138 35.476-36.099 34.902-36.638 33.891-36.665 32.25-36.666 31.722-36.669 30.632-36.633-2.732-36.633-2.732-36.633-7.669-34.21-15.454-24.772-17.949-21.401-18.84-14.798-19.671-7.913-16.81-7.307-16.559 .009-12.722 .009-2.413 .009-2.413 .063-1.519 .05-.427 .048-.275 .029-.134 0 0" fill="#d35930"/>
<path transform="matrix(1,0,0,-1,194.6331,76.13043)" d="M0 0C.007-2.104-.951-3.412-1.738-4.648-2.102-5.221-2.341-6.018-4.171-7.037-4.171-7.037-5.731-7.382-6.237-8.302-6.743-9.221-7.936-8.918-8.736-9.362-9.535-9.807-10.634-10.268-10.634-10.268L-14.423-12.225-14.424-.36C-14.424 .184-14.343 1.688-14.624 2.319L-14.365 2.525-6.388 7.712C-3.889 9.108-1.935 9.381-1.125 8.755-.357 8.16 .609 6.339 .609 5.6ZM-3.26 16.391-19.52 7.888C-21.283 6.871-21.369 6.263-21.354 3.731L-21.285-38.832C-21.316-40.138-21.432-40.792-19.834-39.964L-16.026-37.971C-15.718-37.805-15.551-37.368-15.478-36.767-15.041-36.153-14.853-35.327-14.781-34.411-14.675-33.06-14.281-30.895-14.308-29.443-14.334-28.004-14.736-26.12-14.731-24.777-14.727-23.879-14.758-22.908-14.777-21.926-14.316-20.734-13.749-19.72-13.067-19.267-10.808-17.766-5.322-15.3-5.322-15.3-2.846-13.847 1.242-12.292 4.449-7.882 5.847-5.645 6.975-3.202 6.975-.776V7.725C6.975 11.149 6.278 13.435 5.189 14.758 3.419 16.908 .28 18.179-3.26 16.391" fill="#002631"/>
<path transform="matrix(1,0,0,-1,200.2829,94.56183)" d="M0 0-3.039-1.601C-3.333-1.666-3.631-1.772-3.929-1.934-5.119-2.579-5.621-1.783-5.735-3.508-5.75-3.736-5.763-3.977-5.776-4.225-5.872-4.539-5.958-4.866-6.055-5.195-6.3-6.259-6.42-7.693-6.863-9.633-6.878-9.66-6.889-9.69-6.904-9.716-6.929-9.756-6.932-9.821-6.926-9.895-7.068-10.494-7.237-11.133-7.454-11.83-8.155-14.079-8.856-16.801-9.693-20.014L-11.48-25.939C-11.484-25.981-11.569-26.599-11.635-27.177-13.021-31.871-14.634-36.383-14.652-36.343L-16.484-32.042C-16.484-32.042-17.184-30.944-17.636-29.428L-18.087-27.913-18.994-25.95C-19.95-24.488-20.936-23.986-21.684-24.36L-26.194-26.793C-26.507-26.998-26.956-27.289-26.956-27.951L-26.907-51.798C-26.907-52.134-26.635-52.405-26.299-52.405H-21.165C-20.567-52.405-20.081-51.919-20.082-51.321-20.082-51.321-20.237-51.088-20.184-49.917-20.131-48.747-20.574-46.778-20.699-45.596-20.823-44.414-20.601-42.448-20.61-41.296-20.618-40.143-21.082-36.096-21.082-36.096-21.082-36.082-19.797-39.247-18.917-40.962-18.694-41.397-18.533-41.369-18.288-41.847-17.955-42.495-17.643-43.083-17.301-43.751-17.086-44.168-16.764-45.161-16.557-45.565-15.446-47.728-14.497-49.57-14.365-49.797-13.912-50.703-13.059-50.617-12.761-49.795L-10.482-41.496-9.777-38.8-5.941-27.146C-5.94-27.145-5.938-27.145-5.937-27.144-5.892-27.077-5.855-26.951-5.823-26.788L-5.005-24.303C-5.015-26.236-5.115-28.016-5.352-29.148L-5.468-48.433C-5.454-48.591-5.169-51.563-5.071-51.655-4.525-52.168-3.479-52.422-2.56-52.364-2.523-52.389-2.492-52.405-2.472-52.405H.031C.443-52.405 .777-52.071 .777-51.66L.781-34.939 .791-.9C.791 .027 .353 .169 0 0" fill="#002631"/>
<path transform="matrix(1,0,0,-1,297.6626,134.43152)" d="M0 0C-.035-1.357-.514-3.028-1.637-4.404-5.074-8.615-10.451-6.863-12.246-4.615-13.773-2.703-13.848-1.568-13.883-.212-13.883-.212-13.881 1.653-13.879 4.671-13.602 5.727-13.454 7.334-13.433 9.302-13.432 9.42-13.156 9.41-13.131 9.55-12.967 10.465-12.547 12.707-12.521 13.74-12.424 17.675-13.478 21.725-13.384 25.437-13.229 31.519-13.089 37.618-13.358 43.73-13.442 44.297-13.618 44.785-13.856 45.199-13.856 49.013-13.858 51.524-13.863 51.723-13.919 53.902-13.857 55.414-12.374 56.39-10.884 57.37-8.723 57.682-6.499 57.417-5.518 57.137-5.369 57.192-4.636 56.824-3.364 56.185-1.854 55.197-1.092 54.09-.334 52.986-.019 51.571 .001 50.137 .001 50.137 .197 47.428 .435 43.281-.05 38.007-.287 32.73 .027 27.401 .285 23.017 .902 21.529 .216 8.334 .132 6.705-.111 6.556 .555 4.761 .556 4.758 .558 4.755 .56 4.751 .27 1.81 0 0 0 0M7.005 18.424H6.923L6.932 46.495C6.927 52.824 6.133 54.447 4.731 56.501 3.35 58.524 1.434 60.206-.778 61.488-2.988 62.768-5.41 63.559-8.043 63.861-10.683 64.164-12.765 63.935-14.885 63.164-16.998 62.398-18.353 61.319-19.637 59.642-20.724 58.221-20.89 56.166-20.89 53.263L-19.912 40.028C-20.033 38.73-20.13 37.437-20.115 36.068-20.087 33.552-19.217 34.773-20.045 26.902L-19.757 18.951-20.536 15.174C-20.464 12.776-21.156-2.741-18.853-6.872-17.573-8.8-15.985-10.578-13.792-11.653-7.625-14.678-2.191-12.705-.091-11.441 2.003-10.181 3.69-8.588 4.97-6.66 7.273-2.529 7.006 1.592 7.004 3.974Z" fill="#002631"/>
<path transform="matrix(1,0,0,-1,257.8553,98.49512)" d="M0 0-4.061 .641-4.893 .485C-4.663 1.201-4.457 1.916-4.48 2.644-4.615 6.989-4.599 11.281-4.677 15.604L-4.451 24.247C-4.226 25.14-3.752 25.955-2.801 26.648L1.337 25.906C4.631 25.154 6.258 23.091 7.133 21.932 8.537 20.072 9.518 18.091 9.552 16.489 9.576 15.437 9.051 9.978 9.068 7.798 9.057 5.949 9.024 4.073 8.257 2.908 7.11 1.169 4.664-.711 0 0M7.906-6.113C11.66-4.457 13.201-3.207 14.898-.432 15.499 .55 16.03 3.205 16.039 5.301L15.964 17.621C15.891 20.4 15 23.248 13.979 24.875 12.824 26.716 11.355 28.453 9.251 29.928 6.111 32.13 4.769 32.595-.382 33.498L-10.231 35.253C-10.998 35.383-11.424 35.025-11.408 33.736L-11.407 32.191C-12.198 28.511-11.616 20.149-11.616 20.149-11.528 18.963-11.458 17.773-11.396 16.582L-11.378-11.858C-11.379-12.064-11.379-12.27-11.377-12.478L-11.368-25.909C-11.38-25.959-11.386-26.014-11.399-26.064L-11.367-28.109-11.355-46.411C-11.354-47.549-10.431-48.472-9.292-48.472H-5.79C-5.042-48.472-4.436-47.87-4.436-47.122-4.436-46.919-4.582-45.408-4.774-43.477-4.668-42.389-4.624-40.682-4.603-39.829-4.505-35.894-4.566-31.905-4.472-28.194-4.317-22.111-4.808-16.012-5.077-9.9-5.194-9.111-5.482-8.468-5.883-7.978-5.476-5.574-4.027-6.143-3.827-6.18L-.598-6.896C-.465-6.921 .673-7.072 1.199-8.475 1.726-9.878 2.433-13.347 4.103-20.204 4.519-21.912 5.539-23.579 5.998-25.45 6.566-27.763 6.581-30.312 7.184-32.722 8.481-37.914 9.818-43.136 11.024-47.552 11.173-48.098 11.669-48.472 12.235-48.472H17.044C17.826-48.472 18.399-47.736 18.208-46.978Z" fill="#002631"/>
<path transform="matrix(1,0,0,-1,365.0187,130.33362)" d="M0 0C-.074 .014-.129 .068-.156 .139-.393 .783-.79 1.314-1.281 1.634-1.315 1.656-1.353 1.668-1.393 1.671L-1.989 1.712C-2.078 1.738-2.161 1.771-2.266 1.785-4.083 2.041-3.444 2.151-8.027 2.131-12.611 2.111-27.023 3.449-27.023 3.449-27.029 3.449-27.034 3.45-27.04 3.451-27.584 3.537-28.168 3.608-28.69 3.564L-29.094 3.592C-29.858 3.639-30.391 3.203-30.48 2.032-31.43-10.489-30.48-12.878-30.48-12.878-30.48-13.786-29.858-14.523-29.094-14.523L-3.419-14.676C-2.126-14.677 .106-14.006 .087-11.502V-8.713C.087-8.596 .176-9.76 .293-9.755 2.662-9.641 9.727-9.676 10.141-6.914 10.259-6.131 9.977-6.352 9.998-5.872 10.032-5.116 15.107-3.658 14.183-2.304 13.51-1.316 2.023-.384 0 0" fill="#d35930"/>
<path transform="matrix(1,0,0,-1,335.8198,99.83038)" d="M0 0C0 0 5.292-.824 6.838-1.232 11.774-2.538 26.319-3.751 26.319-3.751L26.867-3.829C28.161-4.013 29.201-2.801 29.201-1.123V-.3C29.164 .703 29.153 1.56 29.114 2.297 28.995 4.506 28.616 5.631 26.511 6.352 23.639 7.336 21.189 10.991 20.282 12.537 19.461 13.936 17.872 13.711 16.491 14.765 15.464 15.548 16.041 16.414 12.869 16.846 9.696 17.279 6.873 16.713 6.873 16.713L0 18.122C-.764 18.277-1.387 17.666-1.387 16.758V1.843C-1.387 .934-.764 .109 0 0" fill="#d35930"/>
<path transform="matrix(1,0,0,-1,315.6615,95.11243)" d="M0 0C0-1.003 .727-1.92 1.619-2.047L13.004-3.677C13.829-3.795 14.494-3.114 14.494-2.156V12.771C14.494 13.728 13.829 14.64 13.004 14.807L6.44 15.911C.562 16.934-.168 8.183 0 7.187Z" fill="#d35930"/>
<path transform="matrix(1,0,0,-1,362.5548,127.53558)" d="M0 0C0 0-.055 .034-.091 .056-.072 .044-.045 .028 0 0" fill="#d35930"/>
<path transform="matrix(1,0,0,-1,328.7747,126.55823)" d="M0 0-11.376 .684C-12.268 .738-12.994-.031-12.994-1.033L-12.486-2.982-12.994-6.869V-8.215C-12.994-10.398-12.49-18.482-3.182-18.477H-1.262C.846-18.516 1.49-16.44 1.49-15.483V-3.715C1.49-2.758 .824-.049 0 0" fill="#d35930"/>
<path transform="matrix(1,0,0,-1,316.3567,121.095218)" d="M0 0C.116-.126 .218-.229 .254-.255 1.049-.811 2.856-.945 3.855-.555L20.437-1.798C20.439-1.798 23.035-2.143 25.497-2.846 27.96-3.55 30.793-2.574 30.793-2.574 32.394-2.694 33.914-1.976 33.914-1.131L33.837 11.861C33.961 12.729 32.063 15.308 28.925 14.7L5.686 18.291V18.333L5.541 18.313 2.078 18.848C1.235 18.958-.778 16.869-.778 15.922L-.772 14.592C-.916 14.062-1.039 13.422-1.122 12.629L-.705 1.073-.614 .896C-.497 .533-.281 .22 0 0" fill="#d35930"/>
<path transform="matrix(1,0,0,-1,355.2161,124.145389)" d="M0 0C.154 .084 .46 .151 .847 .203 .466 .114 0 0 0 0M34.837 2.78C34.405 3.993 33.32 4.267 31.985 4.459 29.453 4.825 30.303 4.779 27.751 4.942 26.795 5.003 25.751 5.024 24.703 5.068 23.67 5.661 22.322 5.928 21.406 6.418 21.389 6.427 21.372 6.432 21.354 6.436L14.286 7.802C14.044 7.849 14.05 8.197 14.293 8.236L20.041 9.152C20.102 9.162 20.16 9.198 20.195 9.25 21.434 11.09 17.757 11.708 17.973 13.031 17.878 13.517 17.15 14.079 17.007 14.286 16.543 14.957 12.189 15.671 11.151 15.839 8.679 16.24 6.135 16.287 3.688 16.463 3.044 16.509 1.749 16.835 .668 16.847L.617 16.854C.503 16.869 .395 16.858 .29 16.836-.317 16.793-.812 16.615-1.004 16.168-1.017 16.137-1.023 16.103-1.023 16.069-.977 12.096-.762 9.332-.449 5.409-.427 5.132-.406 4.803-.379 4.449-.396 3.746-.357 3.011-.464 2.489-.723 1.23-1.504-1.065 1.03 .15 1.359-.055 1.716-.194 2.096-.22L7.159-.577C9.173-1.162 11.485-.755 13.725-.468 18.405-.909 24.717-1.594 28.871-1.555 28.875-1.555 28.879-1.553 28.884-1.553 29.761-1.609 30.711-1.655 31.784-1.689 34.412-1.504 35.609 .61 34.837 2.78" fill="#d35930"/>
<path transform="matrix(1,0,0,-1,297.448,159.83283)" d="M0 0 .251-.024C.518-.05 .756-.203 .891-.434L6.375-10.317C6.695-10.867 8.119-11.501 8.443-10.952L14.749-.263C14.801-.176 14.861-.089 14.946-.034 15.154 .099 15.422 .116 15.699 .106 16.149 .091 16.501-.288 16.501-.738V-15.904C16.501-16.348 16.151-16.709 15.708-16.736 15.641-16.74 15.575-16.743 15.51-16.744 15.053-16.752 14.684-16.368 14.684-15.911L14.38-7.773C14.387-5.591 13.659-5.406 13.214-7.058 12.983-7.95 8.394-14.292 8.394-14.292 7.648-15.053 7.329-14.411 6.899-13.83 5.107-11.41 4.21-10.904 2.161-7.199 1.972-6.858 1.073-3.757 .753-3.546L1.004-9.007C1.031-9.598 1.03-10.189 1.001-10.78L.753-15.887C.753-16.347 .38-16.72-.08-16.72-.54-16.72-.913-16.347-.913-15.887V-.829C-.913-.338-.489 .047 0 0" fill="#002631"/>
<path transform="matrix(1,0,0,-1,200.2312,159.95148)" d="M0 0C0 .113 .093 .199 .206 .2 .795 .204 1.436 .37 1.823-.166 5.668-4.328 10.083-11.522 11.918-12.926 12.032-13.014 11.91-13.21 12.265-13.119V.005C12.265 .116 12.355 .207 12.467 .207H13.881C13.992 .207 14.082 .116 14.082 .005 14.693-3.431 14.336-6.932 14.002-10.365L14.082-16.28C14.082-16.34 14.059-16.401 14.012-16.439 13.646-16.731 13.023-16.611 12.547-16.575 12.493-16.548 12.447-16.525 12.393-16.499L5.948-9.253 2.98-5.831C2.861-5.682 1.817-3.513 1.817-3.704L2.089-12.114C2.106-12.636 2.092-13.159 2.048-13.68L1.817-16.4C1.817-16.511 1.727-16.601 1.616-16.601H.201C.09-16.601 0-16.511 0-16.4Z" fill="#002631"/>
<path transform="matrix(1,0,0,-1,255.6516,168.44818)" d="M0 0C0-.629 .51-1.139 1.139-1.139H5.83C6.797-1.139 8.455-.118 9 .688 10 2.169 9.711 4.376 8.252 5.498 7.687 5.932 7.009 7.189 5.311 7.189H.37C.169 7.189 .009 7.02 .021 6.82L.187 3.844C.217 3.298 .211 2.752 .169 2.207ZM6.284 8.703C12.203 8.002 13.321 .14 8.123-2.119 7.919-2.208 7.837-2.454 7.962-2.639L11.257-7.51C11.42-7.751 11.234-8.075 10.944-8.055L10.384-8.017C9.884-7.983 9.417-7.755 9.082-7.383L6.638-4.664C6.495-4.67 5.422-2.805 5.375-2.805H.35C.157-2.805 0-2.961 0-3.154V-7.743C0-7.935-.154-8.086-.345-8.092-.808-8.108-1.324-8.211-1.685-7.984-1.775-7.927-1.817-7.815-1.817-7.708V8.361C-1.817 8.551-1.669 8.705-1.479 8.709 .949 8.761 3.898 8.986 6.284 8.703" fill="#002631"/>
<path transform="matrix(1,0,0,-1,341.3563,168.4107)" d="M0 0C0-.65 .527-1.177 1.177-1.177H5.83C6.195-1.177 7.521-.743 7.828-.449 10.167 1.791 10.087 5.614 7.069 6.725 5.883 7.152 5.375 7.152 5.375 7.152H1.698C.935 7.152 .306 6.552 .271 5.789ZM6.284 8.666C11.827 8.009 13.366 .873 8.582-1.96 8.311-2.12 7.656-2.12 7.718-2.465 7.718-2.465 10.093-5.563 10.765-6.853 11.438-8.142 10.726-8.077 10.095-8.035L9.605-8.001 5.978-2.842 5.687-2.692C5.543-2.698 5.375-2.842 5.375-2.842H0V-8.142C-1.004-8.142-1.817-7.328-1.817-6.325V8.666C3.022 9.35 3.786 8.962 6.284 8.666" fill="#002631"/>
<path transform="matrix(1,0,0,-1,178.0819,169.75098)" d="M0 0 4.206 .164C4.444 .164 5.765 .603 6.05 .742 8.813 2.088 8.475 5.611 5.901 7.915 5.5 8.273 4.555 8.492 3.903 8.492H-1.23L-1.472 2.276C-1.472 1.433-.838 .093 0 0M-1.204-2.664-1.472-6.802H-3.29V9.062C-3.29 9.583-2.867 10.006-2.345 10.006H4.812C5.809 10.006 8.001 8.758 8.669 7.958 11.792 4.218 8.816-1.502 4.054-1.502L-.006-1.466C-.668-1.466-1.204-2.002-1.204-2.664" fill="#002631"/>
<path transform="matrix(1,0,0,-1,366.8092,169.49463)" d="M0 0-.824 1.284C-1.347 2.1-1.757 2.984-2.041 3.911L-2.78 6.324C-3.028 6.889-3.827 6.894-4.083 6.333L-6.341 1.902C-6.557 1.429-6.842-1.001-6.323-1.001H-.654C-.138-1.001 .207-.472 0 0M-2.264 9.289 4.672-6.038C4.887-6.513 4.536-7.051 4.014-7.046L3.65-7.042C3.368-7.04 3.114-6.871 3.002-6.612L1.333-2.758 .828-2.507-5.301-2.53C-5.578-2.531-8.014-2.7-8.131-2.952L-9.835-6.631C-9.951-6.881-10.201-7.042-10.477-7.045L-10.859-7.048C-11.38-7.052-11.73-6.515-11.516-6.04L-8.846 .513C-8.624 1.058-8.383 1.594-8.123 2.122L-4.603 9.252C-4.492 9.499-4.249 9.662-3.978 9.671L-2.939 9.708C-2.65 9.718-2.383 9.553-2.264 9.289" fill="#002631"/>
<path transform="matrix(1,0,0,-1,280.5797,168.05213)" d="M0 0-2.262 4.951C-2.507 5.489-3.273 5.483-3.511 4.942L-4.756 1.454-6.336-1.484C-6.534-1.936-6.203-2.444-5.709-2.444H-1.57C-.313-2.444 .522-1.143 0 0M-1.303 6.882 .145 4.337C1.358 2.204 2.4-.021 3.262-2.318L5.217-7.524C5.423-7.98 5.087-8.495 4.588-8.491L4.14-8.487C3.876-8.485 3.636-8.33 3.525-8.09L1.937-4.661C1.745-4.247 1.33-3.981 .874-3.979L-6.38-4.361C-6.423-4.363-6.466-4.362-6.508-4.356L-7.137-4.27C-7.441-4.229-7.735-4.395-7.857-4.677L-9.327-8.072C-9.435-8.32-9.678-8.482-9.948-8.485L-10.379-8.489C-10.879-8.494-11.215-7.979-11.009-7.523L-4.071 7.826C-3.964 8.063-3.732 8.219-3.472 8.228-2.543 8.261-1.686 7.729-1.303 6.882" fill="#002631"/>
<path transform="matrix(1,0,0,-1,320.9583,160.17719)" d="M0 0C.43-.168 .713-.583 .713-1.045L.869-2.5C1.103-4.675 1.096-6.869 .849-9.042L.713-10.243C.511-14.435 8.079-16.535 10.18-12.593 10.348-12.277 10.858-9.999 10.858-9.41V-.336L11.754 .043C12.191 .227 12.675-.094 12.675-.568V-10.849C12.675-11.629 11.813-13.529 11.309-14.176 8.895-17.274 2.648-17.335 .285-14.154-.22-13.474-1.004-11.942-1.104-10.697-1.204-9.452-1.104 .432-1.104 .432Z" fill="#002631"/>
<path transform="matrix(1,0,0,-1,235.9668,159.74488)" d="M0 0 .307-4.336C.377-5.324 .369-6.316 .282-7.303L0-10.524C-.051-11.326 .431-12.358 .625-12.776 2.161-16.097 8.013-16.133 9.567-12.974 9.888-12.32 9.781-10.283 9.781-9.583L10.181-2.764C10.067-.167 10.905 0 11.668 0H11.962V-11.432C11.962-12.902 11.344-13.414 11.079-13.88 8.081-19.156-1.817-17.302-1.817-10.978V0Z" fill="#002631"/>
<path transform="matrix(1,0,0,-1,231.2727,159.74488)" d="M0 0V-1.08C0-1.328-.185-1.537-.431-1.568L-4.773-2.109C-5.217-2.165-5.554-2.537-5.565-2.985L-5.905-16.808H-6.714C-7.271-16.808-7.723-16.356-7.723-15.799V-2.745C-7.723-2.065-8.344-2.272-8.953-1.514H-13.628V-1.227C-13.628-.55-13.078 0-12.4 0Z" fill="#002631"/>
<path transform="matrix(1,0,0,-1,377.0918,160.5777)" d="M0 0 .122-.985C.274-2.205 .596-5.611 .556-6.838L0-13.477C0-13.936 .373-14.309 .833-14.309H6.117C6.577-14.309 9.388-14.682 9.388-15.142 9.388-15.602 9.015-15.975 8.555-15.975H-.984C-1.444-15.975-1.817-15.602-1.817-15.142V-.72C-1.817 .058-1.444 .833-.984 .833H-.833C-.373 .833 0 .46 0 0" fill="#002631"/>
<path transform="matrix(1,0,0,-1,194.1743,159.9339)" d="M0 0 .073-.26C.273-.966 .365-1.698 .346-2.432L.009-15.908C.004-16.126-.29-16.579-.505-16.619H-1.817L-2.044-12.778C-2.005-11.221-1.829-9.364-1.761-7.539L-1.817-.635C-1.817-.18-1.448 .189-.993 .189H-.189C-.085 .189 0 .104 0 0" fill="#002631"/>
<path transform="matrix(1,0,0,-1,389.1325,416.8322)" d="M0 0C-.065 .012-.113 .059-.135 .121-.342 .681-.687 1.143-1.115 1.422-1.144 1.441-1.178 1.451-1.212 1.453L-1.731 1.489C-1.808 1.513-1.881 1.54-1.972 1.553-3.553 1.776-2.996 1.872-6.984 1.854-10.973 1.836-23.512 3.001-23.512 3.001-23.517 3.001-23.522 3.002-23.527 3.002-24 3.078-24.508 3.139-24.962 3.101L-25.314 3.126C-25.978 3.166-26.442 2.786-26.52 1.768-27.347-9.127-26.52-11.204-26.52-11.204-26.52-11.995-25.978-12.636-25.314-12.636L-2.975-12.769C-1.85-12.77 .092-12.186 .076-10.008V-7.581C.076-7.479 .154-8.492 .255-8.487 2.316-8.388 8.463-8.419 8.824-6.016 8.926-5.335 8.681-5.527 8.699-5.109 8.728-4.451 13.144-3.183 12.341-2.004 11.755-1.145 1.76-.335 0 0" fill="#d35930"/>
<path transform="matrix(1,0,0,-1,363.7273,390.2921)" d="M0 0C0 0 4.605-.717 5.95-1.072 10.245-2.208 22.9-3.264 22.9-3.264L23.376-3.332C24.502-3.492 25.407-2.437 25.407-.977V-.261C25.375 .612 25.365 1.358 25.331 1.998 25.227 3.921 24.898 4.899 23.067 5.527 20.568 6.383 18.436 9.563 17.647 10.908 16.933 12.125 15.55 11.93 14.349 12.847 13.455 13.528 13.957 14.281 11.197 14.657 8.436 15.034 5.98 14.541 5.98 14.541L0 15.767C-.665 15.902-1.207 15.371-1.207 14.581V1.603C-1.207 .813-.665 .095 0 0" fill="#d35930"/>
<path transform="matrix(1,0,0,-1,346.1881,386.18733)" d="M0 0C0-.873 .632-1.67 1.409-1.781L11.314-3.199C12.032-3.302 12.611-2.71 12.611-1.876V11.112C12.611 11.945 12.032 12.738 11.314 12.883L5.604 13.844C.489 14.734-.146 7.12 0 6.253Z" fill="#d35930"/>
<path transform="matrix(1,0,0,-1,386.9887,414.3978)" d="M0 0C0 0-.048 .029-.08 .049-.063 .038-.039 .024 0 0" fill="#d35930"/>
<path transform="matrix(1,0,0,-1,357.5975,413.5474)" d="M0 0-9.898 .595C-10.674 .642-11.306-.027-11.306-.899L-10.864-2.594-11.306-5.977V-7.148C-11.306-9.047-10.867-16.081-2.768-16.077H-1.098C.736-16.111 1.296-14.304 1.296-13.471V-3.232C1.296-2.4 .717-.043 0 0" fill="#d35930"/>
<path transform="matrix(1,0,0,-1,346.7929,408.7941)" d="M0 0C.101-.11 .189-.2 .221-.222 .913-.705 2.485-.823 3.354-.483L17.782-1.565C17.783-1.565 20.043-1.864 22.184-2.476 24.327-3.088 26.792-2.24 26.792-2.24 28.185-2.344 29.508-1.719 29.508-.984L29.44 10.32C29.548 11.075 27.897 13.319 25.167 12.79L4.947 15.914C4.947 15.926 4.947 15.939 4.948 15.951L4.821 15.934 1.808 16.399C1.075 16.495-.677 14.678-.677 13.853L-.672 12.696C-.797 12.235-.904 11.678-.977 10.988L-.613 .933-.534 .779C-.432 .464-.244 .191 0 0" fill="#d35930"/>
<path transform="matrix(1,0,0,-1,380.6035,411.4481)" d="M0 0C.134 .073 .4 .131 .737 .176 .405 .1 0 0 0 0M30.31 2.419C29.935 3.474 28.991 3.712 27.83 3.88 25.626 4.198 26.366 4.158 24.145 4.3 23.314 4.353 22.405 4.372 21.493 4.409 20.595 4.926 19.422 5.158 18.624 5.584 18.61 5.592 18.596 5.597 18.579 5.6L12.43 6.788C12.22 6.829 12.225 7.132 12.436 7.166L17.437 7.963C17.49 7.971 17.541 8.003 17.571 8.048 18.649 9.649 15.45 10.187 15.637 11.338 15.555 11.761 14.922 12.249 14.797 12.43 14.394 13.013 10.605 13.635 9.702 13.781 7.552 14.13 5.338 14.171 3.209 14.324 2.648 14.364 1.521 14.647 .581 14.658L.537 14.664C.438 14.677 .344 14.668 .253 14.648-.276 14.611-.707 14.456-.874 14.067-.885 14.04-.89 14.01-.89 13.981-.85 10.524-.663 8.119-.391 4.706-.372 4.465-.353 4.179-.33 3.871-.345 3.26-.311 2.62-.404 2.166-.629 1.07-1.309-.927 .896 .131 1.182-.048 1.493-.169 1.824-.192L6.229-.502C7.981-1.011 9.993-.657 11.942-.407 16.014-.791 21.506-1.387 25.12-1.353 25.124-1.353 25.127-1.351 25.131-1.351 25.895-1.4 26.721-1.44 27.654-1.469 29.941-1.308 30.982 .531 30.31 2.419" fill="#d35930"/>
<path transform="matrix(1,0,0,-1,385.2642,307.93733)" d="M0 0C-.057 .011-.099 .052-.119 .106-.3 .596-.602 1.002-.976 1.245-1.002 1.262-1.031 1.271-1.062 1.273L-1.516 1.305C-1.584 1.325-1.647 1.349-1.727 1.36-3.112 1.556-2.625 1.639-6.118 1.624-9.611 1.609-20.595 2.628-20.595 2.628-20.599 2.629-20.603 2.629-20.608 2.63-21.022 2.696-21.468 2.75-21.865 2.717L-22.173 2.738C-22.755 2.773-23.161 2.441-23.229 1.549-23.954-7.994-23.229-9.814-23.229-9.814-23.229-10.507-22.755-11.068-22.173-11.068L-2.606-11.185C-1.62-11.186 .081-10.674 .067-8.766V-6.64C.067-6.551 .134-7.439 .224-7.434 2.029-7.348 7.413-7.374 7.729-5.269 7.818-4.673 7.604-4.841 7.62-4.475 7.645-3.899 11.513-2.788 10.809-1.756 10.296-1.003 1.542-.293 0 0" fill="#ffffff"/>
<path transform="matrix(1,0,0,-1,363.0112,284.69023)" d="M0 0C0 0 4.033-.628 5.212-.939 8.973-1.934 20.059-2.859 20.059-2.859L20.476-2.918C21.462-3.059 22.254-2.135 22.254-.856V-.228C22.227 .536 22.218 1.189 22.188 1.75 22.097 3.434 21.809 4.291 20.205 4.841 18.016 5.591 16.148 8.376 15.457 9.554 14.832 10.621 13.621 10.45 12.568 11.253 11.786 11.85 12.225 12.509 9.807 12.839 7.39 13.168 5.238 12.737 5.238 12.737L0 13.811C-.583 13.929-1.057 13.464-1.057 12.772V1.404C-1.057 .712-.583 .083 0 0" fill="#ffffff"/>
<path transform="matrix(1,0,0,-1,347.6482,281.0947)" d="M0 0C0-.764 .554-1.463 1.234-1.56L9.91-2.802C10.539-2.892 11.046-2.373 11.046-1.644V9.733C11.046 10.463 10.539 11.157 9.91 11.285L4.908 12.126C.428 12.906-.128 6.237 0 5.477Z" fill="#ffffff"/>
<path transform="matrix(1,0,0,-1,383.3864,305.8051)" d="M0 0C0 0-.042 .026-.07 .043-.055 .034-.035 .021 0 0" fill="#ffffff"/>
<path transform="matrix(1,0,0,-1,357.6419,305.0601)" d="M0 0-8.67 .521C-9.35 .562-9.903-.024-9.903-.787L-9.516-2.272-9.903-5.235V-6.261C-9.903-7.925-9.519-14.086-2.425-14.082H-.962C.645-14.112 1.135-12.529 1.135-11.8V-2.831C1.135-2.102 .628-.038 0 0" fill="#ffffff"/>
<path transform="matrix(1,0,0,-1,348.1779,300.8965)" d="M0 0C.088-.096 .166-.175 .194-.194 .799-.618 2.177-.721 2.938-.423L15.576-1.37C15.577-1.371 17.556-1.633 19.432-2.169 21.309-2.705 23.468-1.962 23.468-1.962 24.688-2.053 25.846-1.506 25.846-.862L25.788 9.039C25.882 9.701 24.436 11.666 22.044 11.203L4.333 13.94C4.333 13.95 4.334 13.961 4.334 13.972L4.223 13.957 1.584 14.364C.941 14.448-.593 12.857-.593 12.134L-.589 11.121C-.698 10.717-.792 10.229-.855 9.625L-.537 .818-.468 .683C-.379 .406-.214 .167 0 0" fill="#ffffff"/>
<path transform="matrix(1,0,0,-1,377.7934,303.2213)" d="M0 0C.117 .064 .35 .115 .646 .154 .355 .087 0 0 0 0M26.55 2.118C26.221 3.043 25.394 3.252 24.377 3.398 22.447 3.677 23.094 3.643 21.15 3.766 20.421 3.813 19.625 3.829 18.827 3.862 18.04 4.315 17.012 4.518 16.314 4.891 16.301 4.898 16.288 4.902 16.274 4.905L10.888 5.946C10.703 5.982 10.708 6.247 10.893 6.277L15.274 6.975C15.32 6.982 15.365 7.01 15.391 7.049 16.335 8.452 13.533 8.923 13.697 9.931 13.625 10.302 13.07 10.73 12.961 10.888 12.608 11.399 9.289 11.943 8.499 12.071 6.615 12.377 4.676 12.413 2.81 12.547 2.32 12.582 1.333 12.83 .509 12.84L.47 12.845C.383 12.856 .301 12.848 .221 12.831-.242 12.798-.619 12.662-.765 12.322-.775 12.298-.78 12.272-.779 12.247-.745 9.218-.581 7.112-.343 4.122-.326 3.911-.309 3.66-.289 3.391-.302 2.855-.272 2.295-.354 1.897-.551 .937-1.146-.812 .785 .114 1.036-.042 1.308-.148 1.598-.168L5.456-.44C6.991-.885 8.753-.575 10.46-.357 14.027-.693 18.838-1.215 22.003-1.185 22.007-1.185 22.009-1.183 22.013-1.183 22.682-1.226 23.406-1.261 24.223-1.287 26.226-1.146 27.138 .465 26.55 2.118" fill="#ffffff"/>
<path transform="matrix(1,0,0,-1,197.1745,266.2521)" d="M0 0C.038-1.828 .389-3.485 1.409-4.992 2.431-6.501 3.786-7.764 5.472-8.779 6.436-9.359 7.456-9.827 8.53-10.19 9.969-10.841 11.585-11.201 12.868-11.129 12.965-11.123 13.148-11.096 13.363-11.06 14.518-11.086 15.604-10.966 16.617-10.696 18.286-10.253 19.607-9.439 20.596-8.265 21.861-6.764 22.082-5.57 22.053-3.725L22.041 5.246C22.028 5.862 21.896 6.694 21.356 6.811L19.434 7.278C18.794 7.405 18.441 7.208 18.22 6.715 18.167 6.596 18.192 6.259 18.141 6.137 17.671 5.007 17.845 3.042 17.849 2.683L17.87-2.789C17.887-3.542 17.693-4.212 17.361-4.778 17.052-5.234 16.627-5.65 15.981-6.049 15.05-6.623 13.954-6.814 12.92-6.928 11.769-7.056 11.362-7.154 10.341-6.629 10.276-6.595 10.19-6.722 10.123-6.69 9.863-6.562 9.595-6.193 9.335-6.029 9.185-5.935 9.127-6.086 9.057-6.051 8.6-5.825 8.401-5.438 7.789-5.285 7.675-5.256 7.547-5.211 7.428-5.222 6.627-4.699 5.817-4.026 5.338-3.352 4.753-2.529 4.209-1.491 4.187-.46 4.172 .214 4.195 9.08 4.195 9.08 4.16 9.555 4.097 9.816 3.537 9.915L.696 10.409C.162 10.495-.001 10.464 .008 9.987 .021 9.361-.013 .64 0 0" fill="#ffffff"/>
<path transform="matrix(1,0,0,-1,219.2085,299.2913)" d="M0 0C.042 .669 .024 1.365-.153 2.285-.438 3.761-.578 7.215-.179 8.551L-.18 19.879C-.19 19.953-.574 20.349-.639 20.392-1.189 20.753-2.508 20.844-3.128 20.559-3.624 20.33-3.856 19.938-4.085 19.491-4.117 19.427-4.267 19.429-4.285 19.346-4.402 18.803-4.463 17.431-4.491 16.816-4.595 14.472-4.182 12.089-4.282 9.878-4.445 6.256-4.599 3.004-4.486-.64-4.412-1.149-4.501-2.222-4.545-3.26-4.891-4.394-5.456-4.961-6.122-5.598-7.259-6.686-7.728-8.332-11.068-7.022-12.492-6.463-13.756-6.983-14.606-6.509-15.531-5.993-17.83-4.772-17.867-1.192-17.867-1.192-17.882-1.022-17.91-.716-17.899-.708-17.892-.705-17.892-.71-17.764 .913-17.894 2.777-17.887 4.405-17.881 6.007-18.057 7.986-17.701 9.413L-17.703 21.516C-17.711 21.594-18.054 22.018-18.112 22.063-18.602 22.45-19.708 22.471-20.332 22.568-21.116 22.689-23.191 21.545-22.17 19.757-22.133 19.693-21.773 21.942-21.789 21.853-21.817 21.697-21.81 21.41-21.786 21.064-22.111 20.454-22.128 19.463-22.129 19.145-22.13 18.486-22.108-1.649-22.108-1.649-22.108-4.628-20.646-9.326-14.95-10.832-12.916-11.37-8.931-11.872-4.775-10.145-4.41-9.993 .005-7.678 .005-1.457 .005-1.457 .038-.917 .03-.258 .029-.166 .017-.081 0 0" fill="#ffffff"/>
<path transform="matrix(1,0,0,-1,190.5891,267.895)" d="M0 0C.004-1.27-.574-2.059-1.049-2.805-1.269-3.151-1.413-3.632-2.517-4.247-2.517-4.247-3.458-4.455-3.764-5.01-4.07-5.565-4.79-5.382-5.272-5.65-5.755-5.918-6.418-6.197-6.418-6.197L-8.704-7.378-8.705-.217C-8.705 .111-8.656 1.019-8.826 1.399L-8.669 1.524-3.855 4.654C-2.347 5.496-1.168 5.662-.679 5.284-.216 4.925 .367 3.825 .367 3.379ZM-1.967 9.892-11.781 4.76C-12.844 4.147-12.897 3.78-12.887 2.252L-12.846-23.435C-12.864-24.223-12.934-24.618-11.97-24.119L-9.672-22.916C-9.486-22.816-9.385-22.552-9.341-22.189-9.077-21.819-8.964-21.32-8.92-20.767-8.856-19.952-8.619-18.646-8.635-17.769-8.651-16.901-8.893-15.763-8.89-14.953-8.888-14.411-8.906-13.825-8.918-13.233-8.64-12.513-8.298-11.901-7.886-11.628-6.523-10.722-3.212-9.234-3.212-9.234-1.718-8.357 .75-7.418 2.685-4.757 3.529-3.407 4.21-1.932 4.21-.468V4.662C4.21 6.729 3.789 8.108 3.132 8.907 2.063 10.204 .169 10.971-1.967 9.892" fill="#ffffff"/>
<path transform="matrix(1,0,0,-1,193.9988,279.01863)" d="M0 0-1.834-.967C-2.012-1.005-2.192-1.07-2.371-1.167-3.089-1.556-3.392-1.076-3.461-2.117-3.47-2.255-3.478-2.4-3.486-2.55-3.544-2.739-3.596-2.936-3.655-3.135-3.802-3.777-3.875-4.643-4.142-5.814-4.151-5.83-4.158-5.848-4.167-5.864-4.182-5.888-4.183-5.927-4.18-5.972-4.266-6.333-4.368-6.719-4.499-7.14-4.922-8.497-5.345-10.14-5.85-12.079L-6.928-15.654C-6.931-15.68-6.982-16.053-7.022-16.402-7.858-19.234-8.832-21.957-8.842-21.933L-9.948-19.337C-9.948-19.337-10.371-18.675-10.643-17.76L-10.916-16.846-11.463-15.661C-12.04-14.779-12.635-14.476-13.086-14.702L-15.809-16.17C-15.997-16.294-16.268-16.469-16.268-16.868L-16.239-31.261C-16.238-31.463-16.074-31.627-15.872-31.627H-12.773C-12.412-31.627-12.119-31.334-12.12-30.973-12.12-30.973-12.213-30.832-12.181-30.126-12.149-29.419-12.417-28.231-12.492-27.518-12.567-26.804-12.433-25.618-12.438-24.922-12.443-24.227-12.723-21.784-12.723-21.784-12.723-21.776-11.948-23.686-11.417-24.721-11.282-24.983-11.185-24.967-11.037-25.255-10.836-25.646-10.648-26.001-10.441-26.404-10.312-26.656-10.117-27.255-9.992-27.499-9.322-28.804-8.749-29.916-8.669-30.053-8.396-30.6-7.881-30.548-7.702-30.052L-6.326-25.043-5.9-23.416-3.585-16.383C-3.585-16.382-3.583-16.382-3.583-16.382-3.556-16.341-3.534-16.265-3.514-16.167L-3.02-14.667C-3.027-15.834-3.087-16.908-3.23-17.591L-3.3-29.23C-3.292-29.325-3.12-31.119-3.061-31.174-2.731-31.484-2.1-31.637-1.545-31.602-1.523-31.617-1.504-31.627-1.492-31.627H.019C.267-31.627 .469-31.426 .469-31.177L.472-21.086 .477-.543C.477 .016 .213 .102 0 0" fill="#ffffff"/>
<path transform="matrix(1,0,0,-1,252.7683,303.0803)" d="M0 0C-.021-.819-.31-1.827-.988-2.658-3.062-5.199-6.307-4.142-7.39-2.785-8.312-1.631-8.357-.947-8.378-.128-8.378-.128-8.377 .998-8.376 2.819-8.209 3.457-8.12 4.426-8.107 5.614-8.106 5.685-7.94 5.679-7.925 5.763-7.826 6.316-7.572 7.669-7.557 8.292-7.498 10.667-8.134 13.111-8.077 15.351-7.984 19.022-7.9 22.703-8.062 26.391-8.112 26.734-8.218 27.028-8.362 27.278-8.362 29.58-8.364 31.095-8.367 31.216-8.4 32.53-8.363 33.443-7.468 34.032-6.569 34.623-5.264 34.812-3.922 34.652-3.33 34.483-3.241 34.516-2.798 34.294-2.03 33.908-1.119 33.312-.659 32.644-.201 31.977-.012 31.124 .001 30.258 .001 30.258 .119 28.623 .263 26.12-.03 22.938-.173 19.753 .016 16.537 .172 13.891 .544 12.993 .131 5.03 .079 4.047-.067 3.956 .335 2.874 .336 2.871 .337 2.869 .338 2.867 .163 1.092 0 0 0 0M4.228 11.119H4.178L4.183 28.06C4.18 31.88 3.701 32.86 2.855 34.099 2.022 35.32 .866 36.335-.469 37.108-1.803 37.881-3.265 38.358-4.854 38.541-6.447 38.723-7.704 38.586-8.983 38.12-10.259 37.658-11.076 37.007-11.851 35.995-12.507 35.137-12.607 33.897-12.607 32.145L-12.017 24.157C-12.09 23.374-12.149 22.593-12.14 21.768-12.123 20.249-11.598 20.986-12.097 16.236L-11.924 11.437-12.394 9.158C-12.35 7.71-12.768-1.654-11.378-4.147-10.605-5.311-9.647-6.384-8.323-7.033-4.602-8.858-1.322-7.668-.055-6.905 1.209-6.145 2.227-5.183 2.999-4.02 4.39-1.526 4.228 .961 4.227 2.398Z" fill="#ffffff"/>
<path transform="matrix(1,0,0,-1,228.7442,281.3922)" d="M0 0-2.451 .387-2.953 .293C-2.814 .725-2.69 1.156-2.704 1.596-2.785 4.218-2.775 6.808-2.823 9.417L-2.686 14.634C-2.55 15.172-2.264 15.664-1.69 16.083L.807 15.634C2.795 15.181 3.777 13.935 4.305 13.236 5.152 12.114 5.744 10.918 5.765 9.951 5.779 9.316 5.462 6.022 5.472 4.706 5.466 3.591 5.446 2.458 4.983 1.755 4.291 .706 2.815-.429 0 0M4.772-3.689C7.037-2.69 7.967-1.935 8.991-.261 9.354 .332 9.674 1.934 9.68 3.199L9.634 10.634C9.591 12.312 9.053 14.03 8.436 15.012 7.739 16.123 6.853 17.172 5.583 18.062 3.688 19.391 2.878 19.671-.231 20.216L-6.174 21.275C-6.637 21.354-6.894 21.138-6.885 20.36L-6.884 19.428C-7.361 17.207-7.01 12.16-7.01 12.16-6.957 11.444-6.915 10.726-6.878 10.008L-6.866-7.157C-6.867-7.281-6.867-7.405-6.866-7.53L-6.861-15.636C-6.868-15.666-6.872-15.7-6.879-15.73L-6.86-16.964-6.853-28.009C-6.852-28.697-6.295-29.253-5.608-29.253H-3.495C-3.043-29.253-2.677-28.89-2.677-28.439-2.677-28.316-2.765-27.404-2.881-26.239-2.817-25.582-2.79-24.552-2.778-24.037-2.719-21.663-2.756-19.255-2.699-17.015-2.605-13.344-2.902-9.663-3.064-5.975-3.134-5.498-3.308-5.11-3.551-4.815-3.305-3.364-2.43-3.707-2.309-3.729L-.361-4.162C-.281-4.177 .406-4.268 .724-5.115 1.041-5.962 1.468-8.055 2.476-12.194 2.727-13.224 3.343-14.23 3.62-15.359 3.962-16.755 3.972-18.293 4.335-19.748 5.118-22.882 5.925-26.033 6.653-28.698 6.743-29.027 7.042-29.253 7.384-29.253H10.286C10.758-29.253 11.104-28.809 10.989-28.352Z" fill="#ffffff"/>
<path transform="matrix(1,0,0,-1,293.4184,300.60713)" d="M0 0C-.045 .009-.078 .041-.094 .084-.237 .472-.477 .793-.773 .986-.793 .999-.817 1.007-.841 1.008L-1.2 1.033C-1.254 1.049-1.305 1.069-1.368 1.077-2.464 1.232-2.078 1.298-4.845 1.286-7.611 1.274-16.309 2.081-16.309 2.081-16.312 2.082-16.316 2.082-16.319 2.083-16.647 2.135-17 2.178-17.315 2.151L-17.558 2.168C-18.019 2.196-18.341 1.933-18.395 1.227-18.969-6.33-18.395-7.772-18.395-7.772-18.395-8.32-18.019-8.765-17.558-8.765L-2.064-8.857C-1.283-8.858 .064-8.453 .053-6.942V-5.258C.053-5.188 .106-5.89 .177-5.887 1.607-5.818 5.87-5.84 6.12-4.173 6.191-3.7 6.021-3.833 6.034-3.544 6.054-3.087 9.117-2.208 8.56-1.39 8.154-.794 1.221-.232 0 0" fill="#ffffff"/>
<path transform="matrix(1,0,0,-1,275.7966,282.1981)" d="M0 0C0 0 3.194-.497 4.127-.744 7.106-1.531 15.884-2.264 15.884-2.264L16.214-2.311C16.995-2.422 17.623-1.691 17.623-.678V-.181C17.601 .424 17.594 .942 17.57 1.386 17.498 2.72 17.27 3.398 16 3.834 14.267 4.427 12.788 6.633 12.24 7.566 11.745 8.41 10.786 8.275 9.953 8.911 9.333 9.384 9.681 9.906 7.766 10.167 5.852 10.428 4.148 10.086 4.148 10.086L0 10.937C-.461 11.03-.837 10.662-.837 10.114V1.112C-.837 .564-.461 .066 0 0" fill="#ffffff"/>
<path transform="matrix(1,0,0,-1,263.6309,279.3508)" d="M0 0C0-.605 .439-1.159 .977-1.236L7.848-2.219C8.346-2.29 8.747-1.879 8.747-1.301V7.707C8.747 8.285 8.346 8.835 7.848 8.936L3.887 9.603C.339 10.22-.101 4.939 0 4.337Z" fill="#ffffff"/>
<path transform="matrix(1,0,0,-1,291.9314,298.9185)" d="M0 0C0 0-.033 .02-.055 .034-.043 .027-.027 .017 0 0" fill="#ffffff"/>
<path transform="matrix(1,0,0,-1,271.5448,298.3286)" d="M0 0-6.866 .413C-7.404 .445-7.842-.019-7.842-.624L-7.536-1.8-7.842-4.146V-4.958C-7.842-6.275-7.538-11.154-1.92-11.151H-.762C.511-11.175 .899-9.922 .899-9.344V-2.242C.899-1.665 .498-.03 0 0" fill="#ffffff"/>
<path transform="matrix(1,0,0,-1,264.0504,295.03163)" d="M0 0C.07-.076 .131-.138 .153-.154 .633-.489 1.724-.571 2.326-.335L12.334-1.085C12.335-1.085 13.902-1.293 15.388-1.718 16.874-2.142 18.584-1.554 18.584-1.554 19.55-1.626 20.467-1.193 20.467-.683L20.421 7.158C20.496 7.682 19.35 9.238 17.456 8.872L3.431 11.039C3.431 11.047 3.432 11.055 3.432 11.064L3.344 11.052 1.254 11.375C.745 11.441-.47 10.181-.47 9.609L-.466 8.806C-.553 8.486-.627 8.1-.677 7.622L-.425 .647-.371 .541C-.3 .322-.169 .132 0 0" fill="#ffffff"/>
<path transform="matrix(1,0,0,-1,287.5024,296.8726)" d="M0 0C.093 .051 .277 .091 .511 .122 .281 .069 0 0 0 0M21.024 1.678C20.764 2.41 20.109 2.575 19.303 2.691 17.775 2.912 18.288 2.884 16.748 2.982 16.171 3.019 15.541 3.032 14.908 3.058 14.285 3.417 13.471 3.578 12.918 3.873 12.908 3.878 12.898 3.882 12.887 3.884L8.622 4.709C8.476 4.737 8.479 4.947 8.626 4.97L12.095 5.523C12.132 5.529 12.167 5.551 12.188 5.582 12.936 6.693 10.716 7.066 10.847 7.864 10.79 8.158 10.35 8.497 10.264 8.622 9.984 9.026 7.356 9.458 6.73 9.559 5.238 9.801 3.703 9.829 2.226 9.935 1.837 9.963 1.055 10.16 .403 10.167L.372 10.172C.304 10.181 .238 10.174 .175 10.161-.191 10.135-.49 10.027-.606 9.757-.614 9.739-.617 9.718-.617 9.698-.59 7.3-.46 5.632-.271 3.264-.258 3.097-.245 2.899-.229 2.685-.239 2.261-.215 1.817-.28 1.502-.436 .742-.908-.643 .621 .091 .82-.033 1.035-.117 1.265-.133L4.321-.348C5.536-.701 6.931-.455 8.283-.282 11.108-.549 14.917-.962 17.424-.939 17.427-.939 17.429-.937 17.432-.937 17.961-.971 18.535-.999 19.182-1.019 20.768-.908 21.49 .368 21.024 1.678" fill="#ffffff"/>
<path transform="matrix(1,0,0,-1,252.6389,318.41023)" d="M0 0 .151-.015C.312-.03 .456-.122 .538-.262L3.847-6.226C4.04-6.558 4.9-6.941 5.095-6.61L8.901-.159C8.932-.106 8.969-.054 9.02-.021 9.145 .06 9.307 .07 9.474 .064 9.746 .055 9.958-.174 9.958-.445V-9.598C9.958-9.866 9.747-10.084 9.48-10.1 9.44-10.103 9.4-10.105 9.36-10.105 9.084-10.11 8.862-9.878 8.862-9.602L8.678-4.691C8.683-3.374 8.243-3.262 7.975-4.259 7.835-4.798 5.066-8.625 5.066-8.625 4.616-9.084 4.423-8.697 4.164-8.346 3.082-6.886 2.541-6.581 1.304-4.344 1.19-4.139 .648-2.267 .454-2.14L.606-5.436C.622-5.792 .622-6.149 .604-6.506L.454-9.588C.454-9.866 .229-10.091-.048-10.091-.326-10.091-.551-9.866-.551-9.588V-.5C-.551-.204-.295 .028 0 0" fill="#ffffff"/>
<path transform="matrix(1,0,0,-1,193.9676,318.4818)" d="M0 0C0 .068 .056 .12 .124 .121 .48 .123 .867 .223 1.1-.1 3.42-2.612 6.085-6.954 7.193-7.801 7.262-7.854 7.188-7.972 7.402-7.917V.003C7.402 .07 7.457 .125 7.524 .125H8.377C8.444 .125 8.499 .07 8.499 .003 8.868-2.071 8.652-4.183 8.451-6.256L8.499-9.825C8.499-9.861 8.485-9.898 8.457-9.921 8.236-10.097 7.859-10.025 7.572-10.003 7.54-9.987 7.512-9.973 7.479-9.957L3.59-5.584 1.798-3.519C1.727-3.429 1.097-2.12 1.097-2.235L1.261-7.311C1.271-7.626 1.263-7.942 1.236-8.256L1.097-9.898C1.097-9.965 1.042-10.019 .975-10.019H.122C.054-10.019 0-9.965 0-9.898Z" fill="#ffffff"/>
<path transform="matrix(1,0,0,-1,227.4143,323.6097)" d="M0 0C0-.38 .308-.687 .687-.687H3.518C4.102-.687 5.103-.071 5.431 .415 6.035 1.309 5.861 2.641 4.98 3.318 4.639 3.58 4.23 4.339 3.205 4.339H.223C.102 4.339 .006 4.237 .012 4.116L.113 2.32C.131 1.991 .127 1.661 .102 1.332ZM3.792 5.253C7.364 4.829 8.04 .084 4.903-1.279 4.779-1.333 4.73-1.481 4.805-1.592L6.794-4.533C6.892-4.678 6.78-4.873 6.605-4.861L6.267-4.838C5.965-4.818 5.683-4.68 5.481-4.455L4.006-2.815C3.92-2.818 3.272-1.693 3.244-1.693H.211C.094-1.693 0-1.787 0-1.904V-4.673C0-4.789-.093-4.88-.208-4.884-.487-4.894-.799-4.955-1.017-4.818-1.071-4.784-1.097-4.716-1.097-4.652V5.046C-1.097 5.161-1.007 5.254-.893 5.256 .573 5.287 2.352 5.423 3.792 5.253" fill="#ffffff"/>
<path transform="matrix(1,0,0,-1,279.1379,323.5872)" d="M0 0C0-.392 .318-.71 .71-.71H3.518C3.739-.71 4.539-.448 4.724-.271 6.136 1.081 6.088 3.388 4.266 4.059 3.55 4.316 3.244 4.316 3.244 4.316H1.025C.564 4.316 .185 3.954 .163 3.494ZM3.792 5.23C7.138 4.833 8.067 .527 5.179-1.183 5.016-1.28 4.621-1.279 4.658-1.488 4.658-1.488 6.091-3.358 6.497-4.136 6.903-4.914 6.473-4.875 6.093-4.849L5.796-4.829 3.608-1.715 3.432-1.624C3.345-1.628 3.244-1.715 3.244-1.715H0V-4.914C-.606-4.914-1.097-4.423-1.097-3.817V5.23C1.824 5.643 2.285 5.409 3.792 5.23" fill="#ffffff"/>
<path transform="matrix(1,0,0,-1,180.6003,324.3959)" d="M0 0 2.538 .099C2.682 .099 3.479 .364 3.651 .448 5.319 1.26 5.115 3.386 3.561 4.777 3.32 4.993 2.749 5.125 2.355 5.125H-.742L-.889 1.374C-.889 .865-.506 .056 0 0M-.727-1.608-.889-4.105H-1.985V5.469C-1.985 5.784-1.73 6.039-1.415 6.039H2.904C3.506 6.039 4.829 5.285 5.232 4.803 7.117 2.545 5.32-.906 2.447-.906L-.004-.885C-.403-.885-.727-1.208-.727-1.608" fill="#ffffff"/>
<path transform="matrix(1,0,0,-1,294.499,324.2411)" d="M0 0-.497 .775C-.813 1.268-1.06 1.801-1.232 2.361L-1.678 3.817C-1.827 4.157-2.31 4.161-2.464 3.822L-3.827 1.148C-3.957 .863-4.129-.604-3.816-.604H-.395C-.083-.604 .125-.285 0 0M-1.366 5.606 2.82-3.644C2.949-3.931 2.738-4.256 2.423-4.252L2.203-4.25C2.033-4.248 1.879-4.147 1.812-3.99L.805-1.664 .499-1.513-3.199-1.527C-3.366-1.527-4.837-1.63-4.907-1.782L-5.935-4.002C-6.005-4.153-6.156-4.25-6.323-4.251L-6.553-4.253C-6.868-4.256-7.079-3.932-6.95-3.645L-5.339 .31C-5.205 .638-5.059 .962-4.902 1.28L-2.778 5.584C-2.711 5.733-2.564 5.831-2.401 5.837L-1.774 5.859C-1.599 5.865-1.438 5.765-1.366 5.606" fill="#ffffff"/>
<path transform="matrix(1,0,0,-1,242.4587,323.3706)" d="M0 0-1.365 2.988C-1.513 3.313-1.975 3.309-2.119 2.983L-2.87 .877-3.824-.896C-3.944-1.169-3.744-1.475-3.446-1.475H-.948C-.189-1.475 .315-.69 0 0M-.786 4.154 .087 2.617C.819 1.33 1.448-.013 1.969-1.399L3.148-4.541C3.273-4.816 3.07-5.127 2.769-5.124L2.499-5.122C2.339-5.121 2.195-5.027 2.128-4.883L1.169-2.813C1.053-2.563 .803-2.403 .527-2.402L-3.85-2.632C-3.876-2.633-3.902-2.632-3.928-2.629L-4.307-2.577C-4.491-2.552-4.668-2.652-4.742-2.822L-5.629-4.872C-5.694-5.021-5.841-5.119-6.004-5.121L-6.264-5.123C-6.565-5.126-6.769-4.815-6.644-4.54L-2.457 4.723C-2.392 4.866-2.252 4.96-2.095 4.966-1.535 4.986-1.017 4.665-.786 4.154" fill="#ffffff"/>
<path transform="matrix(1,0,0,-1,266.8275,318.618)" d="M0 0C.26-.102 .43-.352 .43-.631L.525-1.509C.665-2.821 .661-4.145 .513-5.457L.43-6.182C.308-8.712 4.876-9.979 6.144-7.6 6.245-7.409 6.553-6.034 6.553-5.679V-.203L7.094 .026C7.358 .137 7.65-.056 7.65-.343V-6.547C7.65-7.018 7.129-8.165 6.825-8.556 5.369-10.425 1.598-10.462 .172-8.542-.133-8.132-.606-7.207-.666-6.456-.727-5.705-.666 .261-.666 .261Z" fill="#ffffff"/>
<path transform="matrix(1,0,0,-1,215.5343,318.3572)" d="M0 0 .185-2.617C.227-3.213 .222-3.812 .17-4.407L0-6.351C-.03-6.835 .26-7.458 .377-7.711 1.304-9.715 4.836-9.737 5.774-7.83 5.967-7.435 5.903-6.206 5.903-5.783L6.144-1.668C6.075-.101 6.581 0 7.042 0H7.219V-6.9C7.219-7.787 6.846-8.095 6.686-8.377 4.877-11.561-1.097-10.442-1.097-6.625V0Z" fill="#ffffff"/>
<path transform="matrix(1,0,0,-1,212.7014,318.3572)" d="M0 0V-.652C0-.801-.112-.928-.26-.946L-2.88-1.273C-3.149-1.306-3.352-1.531-3.359-1.801L-3.564-10.144H-4.052C-4.388-10.144-4.661-9.871-4.661-9.535V-1.657C-4.661-1.246-5.036-1.371-5.403-.914H-8.225V-.741C-8.225-.332-7.893 0-7.484 0Z" fill="#ffffff"/>
<path transform="matrix(1,0,0,-1,300.7047,318.8599)" d="M0 0 .074-.595C.165-1.33 .36-3.386 .335-4.127L0-8.133C0-8.411 .225-8.636 .503-8.636H3.692C3.97-8.636 5.666-8.861 5.666-9.138 5.666-9.416 5.441-9.641 5.163-9.641H-.594C-.872-9.641-1.097-9.416-1.097-9.138V-.434C-1.097 .035-.872 .503-.594 .503H-.503C-.225 .503 0 .278 0 0" fill="#ffffff"/>
<path transform="matrix(1,0,0,-1,190.3122,318.4713)" d="M0 0 .044-.157C.165-.583 .22-1.025 .209-1.468L.006-9.6C.002-9.732-.175-10.006-.305-10.03H-1.097L-1.234-7.712C-1.21-6.772-1.104-5.651-1.063-4.55L-1.097-.383C-1.097-.109-.874 .114-.599 .114H-.114C-.051 .114 0 .063 0 0" fill="#ffffff"/>
<path transform="matrix(1,0,0,-1,196.545,369.9788)" d="M0 0C.038-1.828 .389-3.485 1.409-4.992 2.431-6.501 3.786-7.764 5.472-8.779 6.436-9.359 7.456-9.827 8.53-10.19 9.969-10.841 11.585-11.201 12.868-11.129 12.965-11.124 13.148-11.096 13.363-11.06 14.518-11.086 15.604-10.966 16.617-10.696 18.286-10.253 19.607-9.439 20.596-8.265 21.861-6.764 22.082-5.57 22.053-3.725L22.041 5.246C22.028 5.862 21.896 6.694 21.356 6.811L19.434 7.278C18.794 7.405 18.441 7.208 18.22 6.715 18.167 6.596 18.192 6.259 18.141 6.137 17.671 5.007 17.845 3.042 17.849 2.683L17.87-2.789C17.887-3.542 17.693-4.212 17.361-4.778 17.052-5.234 16.627-5.65 15.981-6.049 15.05-6.623 13.954-6.814 12.92-6.928 11.769-7.056 11.362-7.154 10.341-6.629 10.276-6.595 10.19-6.722 10.123-6.69 9.863-6.562 9.595-6.193 9.335-6.029 9.185-5.935 9.127-6.086 9.057-6.051 8.6-5.825 8.401-5.438 7.789-5.285 7.675-5.256 7.547-5.211 7.428-5.222 6.627-4.699 5.817-4.026 5.338-3.352 4.753-2.529 4.209-1.491 4.187-.46 4.172 .214 4.195 9.08 4.195 9.08 4.16 9.555 4.097 9.816 3.537 9.915L.696 10.408C.162 10.495-.001 10.464 .008 9.987 .021 9.361-.013 .64 0 0" fill="#ffffff"/>
<path transform="matrix(1,0,0,-1,218.579,403.018)" d="M0 0C.042 .669 .024 1.365-.153 2.285-.438 3.761-.578 7.215-.179 8.551L-.18 19.879C-.19 19.953-.574 20.349-.639 20.392-1.189 20.753-2.508 20.844-3.128 20.558-3.624 20.33-3.856 19.938-4.085 19.491-4.117 19.427-4.267 19.429-4.285 19.346-4.402 18.803-4.463 17.431-4.491 16.816-4.595 14.472-4.182 12.088-4.282 9.878-4.445 6.256-4.599 3.004-4.486-.64-4.412-1.149-4.501-2.222-4.545-3.26-4.891-4.394-5.456-4.961-6.122-5.598-7.259-6.686-7.728-8.332-11.068-7.022-12.492-6.463-13.756-6.983-14.606-6.509-15.531-5.993-17.83-4.772-17.867-1.192-17.867-1.192-17.882-1.022-17.91-.716-17.899-.708-17.892-.705-17.892-.71-17.764 .913-17.894 2.777-17.887 4.405-17.881 6.007-18.057 7.986-17.701 9.413L-17.703 21.516C-17.711 21.594-18.054 22.018-18.112 22.063-18.602 22.45-19.708 22.471-20.332 22.568-21.116 22.689-23.191 21.545-22.17 19.757-22.133 19.693-21.773 21.942-21.789 21.853-21.817 21.697-21.81 21.41-21.786 21.064-22.111 20.454-22.128 19.463-22.129 19.145-22.13 18.486-22.108-1.649-22.108-1.649-22.108-4.628-20.646-9.326-14.95-10.832-12.916-11.37-8.931-11.872-4.775-10.145-4.41-9.993 .005-7.678 .005-1.457 .005-1.457 .038-.917 .03-.258 .029-.166 .017-.081 0 0" fill="#d35930"/>
<path transform="matrix(1,0,0,-1,189.9595,371.6217)" d="M0 0C.004-1.27-.574-2.059-1.049-2.805-1.269-3.151-1.413-3.632-2.517-4.247-2.517-4.247-3.458-4.455-3.764-5.01-4.07-5.565-4.79-5.382-5.272-5.65-5.755-5.918-6.418-6.197-6.418-6.197L-8.704-7.378-8.705-.217C-8.705 .111-8.656 1.019-8.826 1.399L-8.669 1.524-3.855 4.654C-2.347 5.496-1.168 5.662-.679 5.283-.216 4.925 .367 3.825 .367 3.379ZM-1.967 9.892-11.781 4.76C-12.844 4.147-12.897 3.78-12.887 2.252L-12.846-23.435C-12.864-24.223-12.934-24.618-11.97-24.119L-9.672-22.916C-9.486-22.816-9.385-22.552-9.341-22.189-9.077-21.819-8.964-21.32-8.92-20.767-8.856-19.952-8.619-18.646-8.635-17.769-8.651-16.901-8.893-15.763-8.89-14.953-8.888-14.411-8.906-13.825-8.918-13.233-8.64-12.513-8.298-11.901-7.886-11.628-6.523-10.722-3.212-9.234-3.212-9.234-1.718-8.357 .75-7.418 2.685-4.757 3.529-3.407 4.21-1.932 4.21-.468V4.662C4.21 6.729 3.789 8.108 3.132 8.907 2.063 10.204 .169 10.971-1.967 9.892" fill="#ffffff"/>
<path transform="matrix(1,0,0,-1,193.3692,382.7454)" d="M0 0-1.834-.967C-2.012-1.005-2.192-1.07-2.371-1.167-3.089-1.556-3.392-1.076-3.461-2.117-3.47-2.255-3.478-2.4-3.486-2.55-3.544-2.739-3.596-2.936-3.655-3.135-3.802-3.777-3.875-4.643-4.142-5.814-4.151-5.83-4.158-5.848-4.167-5.864-4.182-5.888-4.183-5.927-4.18-5.972-4.266-6.333-4.368-6.719-4.499-7.14-4.922-8.497-5.345-10.14-5.85-12.079L-6.928-15.654C-6.931-15.68-6.982-16.053-7.022-16.402-7.858-19.234-8.832-21.957-8.842-21.933L-9.948-19.337C-9.948-19.337-10.371-18.675-10.643-17.76L-10.916-16.846-11.463-15.661C-12.04-14.779-12.635-14.476-13.086-14.702L-15.809-16.17C-15.997-16.294-16.268-16.469-16.268-16.868L-16.239-31.261C-16.238-31.463-16.074-31.627-15.872-31.627H-12.773C-12.412-31.627-12.119-31.334-12.12-30.973-12.12-30.973-12.213-30.832-12.181-30.126-12.149-29.419-12.417-28.231-12.492-27.518-12.567-26.804-12.433-25.618-12.438-24.922-12.443-24.227-12.723-21.784-12.723-21.784-12.723-21.776-11.948-23.686-11.417-24.721-11.282-24.983-11.185-24.967-11.037-25.255-10.836-25.646-10.648-26.001-10.441-26.404-10.312-26.656-10.117-27.255-9.992-27.499-9.322-28.804-8.749-29.916-8.669-30.053-8.396-30.6-7.881-30.548-7.702-30.052L-6.326-25.043-5.9-23.416-3.585-16.383C-3.585-16.382-3.583-16.382-3.583-16.382-3.556-16.341-3.534-16.265-3.514-16.167L-3.02-14.667C-3.027-15.834-3.087-16.908-3.23-17.591L-3.3-29.23C-3.292-29.325-3.12-31.119-3.061-31.174-2.731-31.484-2.1-31.637-1.545-31.602-1.523-31.617-1.504-31.627-1.492-31.627H.019C.267-31.627 .469-31.426 .469-31.177L.472-21.086 .477-.543C.477 .016 .213 .102 0 0" fill="#ffffff"/>
<path transform="matrix(1,0,0,-1,252.1388,406.80693)" d="M0 0C-.021-.819-.31-1.827-.988-2.658-3.062-5.199-6.307-4.142-7.39-2.785-8.312-1.631-8.357-.947-8.378-.128-8.378-.128-8.377 .998-8.376 2.819-8.209 3.457-8.12 4.426-8.107 5.614-8.106 5.685-7.94 5.679-7.925 5.763-7.826 6.316-7.572 7.669-7.557 8.292-7.498 10.667-8.134 13.111-8.077 15.351-7.984 19.022-7.9 22.703-8.062 26.391-8.112 26.734-8.218 27.028-8.362 27.278-8.362 29.58-8.364 31.095-8.367 31.216-8.4 32.53-8.363 33.443-7.468 34.032-6.569 34.623-5.264 34.812-3.922 34.652-3.33 34.483-3.241 34.516-2.798 34.294-2.03 33.908-1.119 33.312-.659 32.644-.201 31.977-.012 31.124 .001 30.258 .001 30.258 .119 28.623 .263 26.12-.03 22.938-.173 19.753 .016 16.537 .172 13.891 .544 12.993 .131 5.03 .079 4.047-.067 3.956 .335 2.874 .336 2.871 .337 2.869 .338 2.867 .163 1.092 0 0 0 0M4.228 11.119H4.178L4.183 28.06C4.18 31.88 3.701 32.86 2.855 34.099 2.022 35.32 .866 36.335-.469 37.108-1.803 37.881-3.265 38.358-4.854 38.541-6.447 38.723-7.704 38.586-8.983 38.12-10.259 37.658-11.076 37.007-11.851 35.995-12.507 35.137-12.607 33.897-12.607 32.145L-12.017 24.157C-12.09 23.374-12.149 22.593-12.14 21.768-12.123 20.249-11.598 20.986-12.097 16.236L-11.924 11.437-12.394 9.158C-12.35 7.71-12.768-1.654-11.378-4.147-10.605-5.311-9.647-6.384-8.323-7.033-4.602-8.858-1.322-7.668-.055-6.905 1.209-6.145 2.227-5.183 2.999-4.02 4.39-1.526 4.228 .961 4.227 2.398Z" fill="#ffffff"/>
<path transform="matrix(1,0,0,-1,228.1147,385.119)" d="M0 0-2.451 .387-2.953 .293C-2.814 .725-2.69 1.156-2.704 1.596-2.785 4.218-2.775 6.808-2.823 9.417L-2.686 14.634C-2.55 15.172-2.264 15.664-1.69 16.083L.807 15.634C2.795 15.181 3.777 13.935 4.305 13.236 5.152 12.114 5.744 10.918 5.765 9.951 5.779 9.316 5.462 6.022 5.472 4.706 5.466 3.591 5.446 2.458 4.983 1.755 4.291 .706 2.815-.429 0 0M4.772-3.689C7.037-2.69 7.967-1.935 8.991-.261 9.354 .332 9.674 1.934 9.68 3.199L9.634 10.634C9.591 12.312 9.053 14.03 8.436 15.012 7.739 16.123 6.853 17.172 5.583 18.062 3.688 19.391 2.878 19.671-.231 20.216L-6.174 21.275C-6.637 21.354-6.894 21.138-6.885 20.36L-6.884 19.428C-7.361 17.207-7.01 12.16-7.01 12.16-6.957 11.444-6.915 10.726-6.878 10.008L-6.866-7.157C-6.867-7.281-6.867-7.405-6.866-7.531L-6.861-15.636C-6.868-15.666-6.872-15.7-6.879-15.73L-6.86-16.964-6.853-28.009C-6.852-28.697-6.295-29.253-5.608-29.253H-3.495C-3.043-29.253-2.677-28.89-2.677-28.439-2.677-28.316-2.765-27.404-2.881-26.239-2.817-25.582-2.79-24.552-2.778-24.037-2.719-21.663-2.756-19.255-2.699-17.015-2.605-13.344-2.902-9.663-3.064-5.975-3.134-5.498-3.308-5.11-3.551-4.815-3.305-3.364-2.43-3.707-2.309-3.729L-.361-4.162C-.281-4.177 .406-4.268 .724-5.115 1.041-5.962 1.468-8.055 2.476-12.194 2.727-13.224 3.343-14.23 3.62-15.359 3.962-16.755 3.972-18.293 4.335-19.748 5.118-22.882 5.925-26.033 6.653-28.698 6.743-29.027 7.042-29.253 7.384-29.253H10.286C10.758-29.253 11.104-28.809 10.989-28.352Z" fill="#ffffff"/>
<path transform="matrix(1,0,0,-1,292.7889,404.3339)" d="M0 0C-.045 .009-.078 .041-.094 .084-.237 .472-.477 .793-.773 .986-.793 .999-.817 1.007-.841 1.008L-1.2 1.033C-1.254 1.049-1.305 1.069-1.368 1.077-2.464 1.232-2.078 1.298-4.845 1.286-7.611 1.274-16.309 2.081-16.309 2.081-16.312 2.082-16.316 2.082-16.319 2.083-16.647 2.135-17 2.178-17.315 2.151L-17.558 2.168C-18.019 2.196-18.341 1.933-18.395 1.227-18.969-6.33-18.395-7.772-18.395-7.772-18.395-8.32-18.019-8.765-17.558-8.765L-2.064-8.857C-1.283-8.858 .064-8.453 .053-6.942V-5.258C.053-5.188 .106-5.89 .177-5.887 1.607-5.818 5.87-5.84 6.12-4.173 6.191-3.7 6.021-3.833 6.034-3.544 6.054-3.087 9.117-2.208 8.56-1.39 8.154-.794 1.221-.232 0 0" fill="#d35930"/>
<path transform="matrix(1,0,0,-1,275.1671,385.9248)" d="M0 0C0 0 3.194-.497 4.127-.744 7.106-1.531 15.884-2.264 15.884-2.264L16.214-2.311C16.995-2.422 17.623-1.691 17.623-.678V-.181C17.601 .424 17.594 .942 17.57 1.386 17.498 2.72 17.27 3.398 16 3.833 14.267 4.427 12.788 6.633 12.24 7.566 11.745 8.41 10.786 8.275 9.953 8.911 9.333 9.384 9.681 9.906 7.766 10.167 5.852 10.428 4.148 10.086 4.148 10.086L0 10.937C-.461 11.03-.837 10.662-.837 10.114V1.112C-.837 .564-.461 .066 0 0" fill="#d35930"/>
<path transform="matrix(1,0,0,-1,263.0014,383.0776)" d="M0 0C0-.605 .439-1.159 .977-1.236L7.848-2.219C8.346-2.29 8.747-1.879 8.747-1.301V7.707C8.747 8.285 8.346 8.835 7.848 8.936L3.887 9.603C.339 10.22-.101 4.939 0 4.337Z" fill="#d35930"/>
<path transform="matrix(1,0,0,-1,291.3019,402.6453)" d="M0 0C0 0-.033 .02-.055 .034-.043 .027-.027 .017 0 0" fill="#ffffff"/>
<path transform="matrix(1,0,0,-1,270.9153,402.0554)" d="M0 0-6.866 .413C-7.404 .445-7.842-.019-7.842-.624L-7.536-1.8-7.842-4.146V-4.958C-7.842-6.275-7.538-11.154-1.92-11.151H-.762C.511-11.175 .899-9.922 .899-9.344V-2.242C.899-1.665 .498-.03 0 0" fill="#d35930"/>
<path transform="matrix(1,0,0,-1,263.4209,398.7584)" d="M0 0C.07-.076 .131-.138 .153-.154 .633-.489 1.724-.571 2.326-.335L12.334-1.085C12.335-1.085 13.902-1.293 15.388-1.718 16.874-2.142 18.584-1.554 18.584-1.554 19.55-1.626 20.467-1.193 20.467-.683L20.421 7.158C20.496 7.682 19.35 9.238 17.456 8.872L3.431 11.039C3.431 11.047 3.432 11.055 3.432 11.064L3.344 11.052 1.254 11.375C.745 11.441-.47 10.181-.47 9.609L-.466 8.806C-.553 8.486-.627 8.1-.677 7.622L-.425 .647-.371 .541C-.3 .322-.169 .132 0 0" fill="#d35930"/>
<path transform="matrix(1,0,0,-1,286.8729,400.5992)" d="M0 0C.093 .051 .277 .091 .511 .122 .281 .069 0 0 0 0M21.024 1.678C20.764 2.41 20.109 2.575 19.303 2.691 17.775 2.912 18.288 2.884 16.748 2.982 16.171 3.019 15.541 3.032 14.908 3.058 14.285 3.417 13.471 3.578 12.918 3.873 12.908 3.878 12.898 3.882 12.887 3.884L8.622 4.709C8.476 4.737 8.479 4.947 8.626 4.97L12.095 5.523C12.132 5.529 12.167 5.551 12.188 5.582 12.936 6.693 10.716 7.066 10.847 7.864 10.79 8.158 10.35 8.497 10.264 8.622 9.984 9.026 7.356 9.458 6.73 9.559 5.238 9.801 3.703 9.829 2.226 9.936 1.837 9.963 1.055 10.16 .403 10.167L.372 10.172C.304 10.181 .238 10.174 .175 10.161-.191 10.135-.49 10.027-.606 9.757-.614 9.739-.617 9.718-.617 9.698-.59 7.3-.46 5.632-.271 3.264-.258 3.097-.245 2.899-.229 2.685-.239 2.261-.215 1.817-.28 1.502-.436 .742-.908-.643 .621 .091 .82-.033 1.035-.117 1.265-.133L4.321-.348C5.536-.701 6.931-.455 8.283-.282 11.108-.549 14.917-.962 17.424-.939 17.427-.939 17.429-.937 17.431-.937 17.961-.971 18.535-.999 19.182-1.019 20.768-.908 21.49 .368 21.024 1.678" fill="#d35930"/>
<path transform="matrix(1,0,0,-1,252.0094,422.1369)" d="M0 0 .151-.015C.312-.03 .456-.122 .538-.262L3.847-6.226C4.04-6.558 4.9-6.941 5.095-6.61L8.901-.159C8.932-.106 8.969-.054 9.02-.021 9.145 .06 9.307 .07 9.474 .064 9.746 .055 9.958-.174 9.958-.445V-9.598C9.958-9.866 9.747-10.084 9.48-10.1 9.44-10.103 9.4-10.105 9.36-10.105 9.084-10.11 8.862-9.878 8.862-9.602L8.678-4.691C8.683-3.374 8.243-3.262 7.975-4.259 7.836-4.798 5.066-8.625 5.066-8.625 4.616-9.084 4.423-8.697 4.164-8.346 3.082-6.886 2.541-6.581 1.304-4.344 1.19-4.139 .648-2.267 .454-2.14L.606-5.436C.622-5.792 .622-6.149 .604-6.506L.454-9.588C.454-9.866 .229-10.091-.048-10.091-.326-10.091-.551-9.866-.551-9.588V-.5C-.551-.204-.295 .028 0 0" fill="#ffffff"/>
<path transform="matrix(1,0,0,-1,193.3381,422.2086)" d="M0 0C0 .068 .056 .12 .124 .121 .48 .123 .867 .223 1.1-.1 3.42-2.612 6.085-6.954 7.193-7.801 7.262-7.854 7.188-7.972 7.402-7.917V.003C7.402 .07 7.457 .125 7.524 .125H8.377C8.444 .125 8.499 .07 8.499 .003 8.868-2.071 8.652-4.183 8.451-6.256L8.499-9.825C8.499-9.861 8.485-9.898 8.457-9.921 8.236-10.097 7.859-10.025 7.572-10.003 7.54-9.987 7.512-9.973 7.479-9.957L3.59-5.584 1.798-3.519C1.727-3.429 1.097-2.12 1.097-2.235L1.261-7.311C1.271-7.626 1.263-7.942 1.236-8.256L1.097-9.898C1.097-9.965 1.042-10.019 .975-10.019H.122C.054-10.019 0-9.965 0-9.898Z" fill="#ffffff"/>
<path transform="matrix(1,0,0,-1,226.7848,427.3364)" d="M0 0C0-.38 .308-.687 .687-.687H3.518C4.102-.687 5.103-.071 5.431 .415 6.035 1.309 5.861 2.641 4.98 3.318 4.639 3.58 4.23 4.339 3.205 4.339H.223C.102 4.339 .006 4.237 .012 4.116L.113 2.32C.131 1.991 .127 1.661 .102 1.332ZM3.792 5.253C7.364 4.829 8.04 .084 4.903-1.279 4.779-1.333 4.73-1.481 4.805-1.592L6.794-4.533C6.892-4.678 6.78-4.873 6.605-4.861L6.267-4.838C5.965-4.818 5.683-4.68 5.481-4.455L4.006-2.815C3.92-2.818 3.272-1.693 3.244-1.693H.211C.094-1.693 0-1.787 0-1.904V-4.673C0-4.789-.093-4.88-.208-4.884-.487-4.894-.799-4.955-1.017-4.818-1.071-4.784-1.097-4.716-1.097-4.652V5.046C-1.097 5.161-1.007 5.254-.893 5.256 .573 5.287 2.352 5.423 3.792 5.253" fill="#ffffff"/>
<path transform="matrix(1,0,0,-1,278.5084,427.3138)" d="M0 0C0-.392 .318-.71 .71-.71H3.518C3.739-.71 4.539-.448 4.724-.271 6.136 1.081 6.088 3.388 4.266 4.059 3.55 4.316 3.244 4.316 3.244 4.316H1.025C.564 4.316 .185 3.954 .163 3.494ZM3.792 5.23C7.138 4.833 8.067 .527 5.179-1.183 5.016-1.28 4.621-1.279 4.658-1.488 4.658-1.488 6.091-3.358 6.497-4.136 6.903-4.914 6.473-4.875 6.093-4.849L5.796-4.829 3.608-1.715 3.432-1.624C3.345-1.628 3.244-1.715 3.244-1.715H0V-4.914C-.606-4.914-1.097-4.423-1.097-3.817V5.23C1.824 5.643 2.285 5.409 3.792 5.23" fill="#ffffff"/>
<path transform="matrix(1,0,0,-1,179.9707,428.1226)" d="M0 0 2.538 .099C2.682 .099 3.479 .364 3.651 .448 5.319 1.26 5.115 3.386 3.561 4.777 3.32 4.993 2.749 5.125 2.355 5.125H-.742L-.889 1.374C-.889 .865-.506 .056 0 0M-.727-1.608-.889-4.105H-1.985V5.469C-1.985 5.784-1.73 6.039-1.415 6.039H2.904C3.506 6.039 4.829 5.285 5.232 4.803 7.117 2.545 5.32-.906 2.447-.906L-.004-.885C-.403-.885-.727-1.208-.727-1.608" fill="#ffffff"/>
<path transform="matrix(1,0,0,-1,293.8695,427.96803)" d="M0 0-.497 .775C-.813 1.268-1.06 1.801-1.232 2.361L-1.678 3.817C-1.827 4.157-2.31 4.161-2.464 3.822L-3.827 1.148C-3.957 .863-4.129-.604-3.816-.604H-.395C-.083-.604 .125-.285 0 0M-1.366 5.606 2.82-3.644C2.949-3.931 2.738-4.256 2.423-4.252L2.203-4.25C2.033-4.248 1.879-4.147 1.812-3.99L.805-1.664 .499-1.513-3.199-1.527C-3.366-1.527-4.837-1.63-4.907-1.782L-5.935-4.002C-6.005-4.153-6.156-4.25-6.323-4.251L-6.553-4.253C-6.868-4.256-7.079-3.932-6.95-3.645L-5.339 .31C-5.205 .638-5.059 .962-4.902 1.28L-2.778 5.584C-2.711 5.733-2.564 5.831-2.401 5.837L-1.774 5.859C-1.599 5.865-1.438 5.765-1.366 5.606" fill="#ffffff"/>
<path transform="matrix(1,0,0,-1,241.8291,427.0973)" d="M0 0-1.365 2.988C-1.513 3.313-1.975 3.309-2.119 2.983L-2.87 .877-3.824-.896C-3.944-1.169-3.744-1.475-3.446-1.475H-.948C-.189-1.475 .315-.69 0 0M-.786 4.154 .087 2.617C.819 1.33 1.448-.013 1.969-1.399L3.148-4.541C3.273-4.816 3.07-5.127 2.769-5.124L2.499-5.122C2.339-5.121 2.195-5.027 2.128-4.883L1.169-2.813C1.053-2.563 .803-2.403 .527-2.402L-3.85-2.632C-3.876-2.633-3.902-2.632-3.928-2.629L-4.307-2.577C-4.491-2.552-4.668-2.652-4.742-2.822L-5.629-4.872C-5.694-5.021-5.841-5.119-6.004-5.121L-6.264-5.123C-6.565-5.126-6.769-4.815-6.644-4.54L-2.457 4.723C-2.392 4.866-2.252 4.96-2.095 4.966-1.535 4.986-1.017 4.665-.786 4.154" fill="#ffffff"/>
<path transform="matrix(1,0,0,-1,266.198,422.3447)" d="M0 0C.26-.102 .43-.352 .43-.631L.525-1.509C.665-2.821 .661-4.145 .513-5.457L.43-6.182C.308-8.712 4.876-9.979 6.144-7.6 6.245-7.409 6.553-6.034 6.553-5.679V-.203L7.094 .026C7.358 .137 7.65-.056 7.65-.343V-6.547C7.65-7.018 7.129-8.165 6.825-8.556 5.369-10.425 1.598-10.462 .172-8.542-.133-8.132-.606-7.207-.666-6.456-.727-5.705-.666 .261-.666 .261Z" fill="#ffffff"/>
<path transform="matrix(1,0,0,-1,214.9048,422.0839)" d="M0 0 .185-2.617C.227-3.213 .223-3.812 .17-4.407L0-6.351C-.03-6.835 .26-7.458 .377-7.71 1.304-9.715 4.836-9.737 5.774-7.83 5.967-7.435 5.903-6.206 5.903-5.783L6.144-1.668C6.075-.101 6.581 0 7.042 0H7.219V-6.9C7.219-7.787 6.846-8.095 6.686-8.377 4.877-11.561-1.097-10.442-1.097-6.625V0Z" fill="#ffffff"/>
<path transform="matrix(1,0,0,-1,212.0719,422.0839)" d="M0 0V-.652C0-.801-.112-.928-.26-.946L-2.88-1.273C-3.149-1.306-3.352-1.531-3.359-1.801L-3.564-10.144H-4.052C-4.388-10.144-4.661-9.871-4.661-9.535V-1.657C-4.661-1.246-5.036-1.371-5.403-.914H-8.225V-.741C-8.225-.332-7.893 0-7.484 0Z" fill="#ffffff"/>
<path transform="matrix(1,0,0,-1,300.0751,422.58653)" d="M0 0 .074-.595C.165-1.33 .36-3.386 .335-4.127L0-8.133C0-8.411 .225-8.636 .503-8.636H3.692C3.97-8.636 5.666-8.861 5.666-9.138 5.666-9.416 5.441-9.641 5.163-9.641H-.594C-.872-9.641-1.097-9.416-1.097-9.138V-.434C-1.097 .035-.872 .503-.594 .503H-.503C-.225 .503 0 .278 0 0" fill="#ffffff"/>
<path transform="matrix(1,0,0,-1,189.6827,422.1981)" d="M0 0 .044-.157C.165-.583 .22-1.025 .209-1.468L.006-9.6C.002-9.732-.175-10.006-.305-10.03H-1.097L-1.234-7.712C-1.21-6.772-1.104-5.651-1.063-4.55L-1.097-.383C-1.097-.109-.874 .114-.599 .114H-.114C-.051 .114 0 .063 0 0" fill="#ffffff"/>
</g>
<text fill="#9c4b2b" xml:space="preserve" transform="matrix(1 0 -0 1 0 722.315)" font-size="9" font-family="TTHazelnuts-Medium"><tspan y="-85.404" x="135.5974 143.8324 149.0074 152.7424 157.7374">Marca</tspan></text>
<g clip-path="url(#clip_5)">
<path transform="matrix(1,0,0,-1,15,21.000123)" stroke-width="1.25" stroke-linecap="butt" stroke-miterlimit="10" stroke-linejoin="miter" fill="none" stroke="#ffffff" d="M0 0H-15M550.583 0H565.583M0-680.315H-15M550.583-680.315H565.583M6 6V21M6-686.315V-701.315M544.583 6V21M544.583-686.315V-701.315"/>
<path transform="matrix(1,0,0,-1,15,21.000123)" stroke-width=".25" stroke-linecap="butt" stroke-miterlimit="10" stroke-linejoin="miter" fill="none" stroke="#000000" d="M0 0H-15M550.583 0H565.583M0-680.315H-15M550.583-680.315H565.583M6 6V21M6-686.315V-701.315M544.583 6V21M544.583-686.315V-701.315"/>
</g>
</svg>
