<svg xmlns="http://www.w3.org/2000/svg" xmlns:xlink="http://www.w3.org/1999/xlink" xmlns:inkscape="http://www.inkscape.org/namespaces/inkscape" version="1.1" width="580.583" height="722.315" viewBox="0 0 580.583 722.315">
<defs>
<clipPath id="clip_1">
<path transform="matrix(1,0,0,-1,0,722.315)" d="M21 12.4961H568.087V709.819H21Z"/>
</clipPath>
<clipPath id="clip_2">
<path transform="matrix(1,0,0,-1,0,722.315)" d="M21 12.4961H568.087V709.819H21Z"/>
</clipPath>
<clipPath id="clip_3">
<path transform="matrix(1,0,0,-1,0,722.315)" d="M21 12.4961H568.087V709.819H21Z"/>
</clipPath>
<clipPath id="clip_4">
<path transform="matrix(1,0,0,-1,0,722.315)" d="M21 12.496H568.087V709.819H21Z"/>
</clipPath>
<clipPath id="clip_5">
<path transform="matrix(1,0,0,-1,0,722.315)" d="M21 12.496H568.087V709.819H21Z"/>
</clipPath>
<clipPath id="clip_6">
<path transform="matrix(1,0,0,-1,0,722.315)" d="M0 0H580.583V722.315H0Z"/>
</clipPath>
</defs>
<g clip-path="url(#clip_1)">
<path transform="matrix(1,0,0,-1,461.0627,638.6692)" d="M0 0H21.209C21.748 0 22.185 .434 22.185 .969V9.551C22.185 10.225 21.634 10.772 20.955 10.772H0C-.539 10.772-.976 10.338-.976 9.803V.969C-.976 .434-.539 0 0 0" fill="#f0782f"/>
</g>
<text fill="#231f20" xml:space="preserve" transform="matrix(1 0 -0 1 0 722.315)" font-size="8" font-family="Montserrat"><tspan y="-86.3899" x="468.7353 471.7193">11</tspan></text>
<g clip-path="url(#clip_2)">
<path transform="matrix(1,0,0,-1,-108.7859,627.1812)" d="M0 0H259.572C266.169 0 271.518-.065 271.518-.146V-1.44C271.518-1.541 264.776-1.624 256.46-1.624H0C-6.597-1.624-11.946-1.558-11.946-1.478V-.146C-11.946-.065-6.597 0 0 0" fill="#9c4b2b"/>
</g>
<g clip-path="url(#clip_3)">
<path transform="matrix(1,0,0,-1,484.305,637.5452)" d="M0 0C-1.046-1.646-3.262-2.499-4.961-1.799-7.277-.845-7.866 1.533-5.652 3.554-2.24 6.67 2.328 3.663 0 0" fill="#f0782f"/>
<path transform="matrix(1,0,0,-1,487.9631,643.7535)" d="M0 0C-.676-.593-1.896-.698-2.475-.201-3.836 .966-1.945 3.396-.046 2.481 .843 2.053 .82 .719 0 0" fill="#dc7839"/>
</g>
<g clip-path="url(#clip_4)">
<path transform="matrix(1,0,0,-1,283.9025,178.26142)" stroke-width=".581" stroke-linecap="butt" stroke-miterlimit="10" stroke-linejoin="miter" fill="none" stroke="#231f20" d="M0 0C-.028 2.188 .624 3.033 2.828 2.685L12.046 1.096C13.899 .698 14.351 .457 14.396-1.645L14.432-34.82C14.533-41.108 13.77-45.178 9.427-50.293 6.03-54.295 1.489-57.071-4.24-58.582-9.956-60.095-16.333-60.248-23.361-59.046-30.331-57.854-36.713-55.523-42.519-52.055-48.309-48.596-52.962-44.293-56.47-39.149-59.974-34.011-61.179-28.363-61.308-22.134-61.353-19.953-61.283 10.036-61.273 12.169-61.265 13.799-60.746 13.9-58.912 13.607L-49.152 11.927C-47.232 11.589-47.016 10.699-46.894 9.081-46.894 9.081-46.977-21.401-46.928-23.701-46.853-27.214-44.985-30.751-42.977-33.558-40.961-36.37-37.237-39.197-33.959-41.054-30.683-42.916-26.208-44.352-22.379-44.799-13.902-45.787-10.943-45.58-6.921-43.404-2.896-41.228 .192-37.051 .066-31.632L0 0Z"/>
<path transform="matrix(1,0,0,-1,298.2787,249.19492)" stroke-width=".581" stroke-linecap="butt" stroke-miterlimit="10" stroke-linejoin="miter" fill="none" stroke="#1e1e20" d="M0 0C-.021 1.734-.843 2.912-2.649 3.252L-11.864 4.926C-12.833 5.108-14.26 5.248-14.208 3.17L-14.369-64.081C-14.208-77.406-17.644-81.189-20.97-84.154-24.997-87.743-31.038-89.502-36.899-89.601-42.114-89.689-46.994-88.936-49.891-87.299-53.043-85.518-60.88-81.303-61.007-68.946-61.007-68.946-61.076 11.098-61.076 11.71-61.076 13.336-62.11 13.775-63.063 13.957L-72.505 15.573C-74.289 15.915-75.527 16.129-75.531 14.397-75.537 12.125-75.461-70.523-75.461-70.523-75.461-80.807-70.478-97.025-51.064-102.222-44.129-104.079-30.546-105.811-16.381-99.851-15.135-99.327-.086-91.334-.086-69.859-.086-69.859 .027-2.273 0 0Z"/>
<path transform="matrix(1,0,0,-1,214.971,190.10749)" d="M0 0C0 7.044-1.433 11.747-3.674 14.468-7.316 18.891-13.773 21.505-21.054 17.828L-54.482 .138C-58.107-1.954-58.308-3.006-58.276-8.216L-58.136-95.773C-58.198-98.46-58.436-99.806-55.15-98.103L-47.316-94.002C-44.263-92.363-43.985-90.858-44.064-87.295L-43.824-57.226-25.296-47.366C-20.203-44.376-11.794-41.177-5.196-32.105-2.321-27.503 0-22.477 0-17.488ZM-14.349-15.891C-14.335-20.22-16.305-22.91-17.924-25.453-18.673-26.631-20.72-28.788-24.485-30.885L-43.924-41.26-43.9-10.696-26.405-1.172C-21.265 1.698-18.328 3.407-16.663 2.118-15.084 .896-14.394-2.852-14.394-4.372Z" fill="#0a0203"/>
<path transform="matrix(1,0,0,-1,170.936,351.7193)" d="M0 0-.041 28.686C-.041 28.776 11.058 6.57 11.758 5.365 12.69 3.502 14.446 3.679 15.057 5.369L28.443 48.8 28.648 0H42.907L42.917 35.931 42.935 105.952C42.935 107.86 42.034 108.152 41.309 107.805L31.812 102.8C29.912 101.663 29.1 100.588 28.428 98.308 25.697 86.426 11.523 34.322 11.407 34.579L.937 57.018C.473 57.907-.265 59.182-1.804 58.412L-12.577 52.689C-13.22 52.265-14.227 51.281-14.227 49.919V.022Z" fill="#0a0203"/>
<path transform="matrix(1,0,0,-1,426.8281,230.28479)" d="M0 0C-.01 13.018-1.643 16.359-4.527 20.583-7.368 24.744-11.309 28.206-15.86 30.841-20.407 33.475-25.39 35.102-30.806 35.723-36.237 36.346-40.519 35.877-44.881 34.291-49.228 32.714-52.015 30.495-54.655 27.045-56.892 24.121-57.233 19.894-57.233 13.922L-57.227-87.907C-57.079-92.842-57.781-101.285-53.042-109.784-50.409-113.75-47.143-117.407-42.631-119.62-29.946-125.842-18.767-121.783-14.447-119.184-10.14-116.591-6.669-113.314-4.036-109.348 .703-100.849 .153-92.372 .149-87.472ZM-17.627-104.706C-24.697-113.369-35.758-109.765-39.451-105.141-42.593-101.207-42.747-98.873-42.818-96.082-42.818-96.082-42.73 8.845-42.779 10.755-42.893 15.236-42.766 18.348-39.714 20.354-36.65 22.37-32.204 23.013-27.63 22.468-25.609 22.065-25.306 22.006-23.796 21.247-21.181 19.933-18.073 17.9-16.507 15.624-14.947 13.352-14.3 10.443-14.258 7.491-14.258 7.491-14.252-28.366-14.242-57.746H-14.288C-14.275-78.39-14.26-95.647-14.26-95.647-14.331-98.438-15.318-101.875-17.627-104.706" fill="#0a0203"/>
</g>
<path transform="matrix(1,0,0,-1,126.1569,316.4842)" d="M0 0 272.419 145.676Z" fill="#0a0203"/>
<path transform="matrix(1,0,0,-1,126.1569,316.4842)" stroke-width=".25" stroke-linecap="butt" stroke-miterlimit="10" stroke-linejoin="miter" fill="none" stroke="#231f20" d="M0 0 272.419 145.676 0 0Z"/>
<path transform="matrix(1,0,0,-1,126.0369,306.3466)" d="M0 0 272.419 145.676Z" fill="#0a0203"/>
<path transform="matrix(1,0,0,-1,126.0369,306.3466)" stroke-width=".25" stroke-linecap="butt" stroke-miterlimit="10" stroke-linejoin="miter" fill="none" stroke="#231f20" d="M0 0 272.419 145.676 0 0Z"/>
<path transform="matrix(1,0,0,-1,126.0369,290.07463)" d="M0 0 272.419 145.676Z" fill="#0a0203"/>
<path transform="matrix(1,0,0,-1,126.0369,290.07463)" stroke-width=".25" stroke-linecap="butt" stroke-miterlimit="10" stroke-linejoin="miter" fill="none" stroke="#231f20" d="M0 0 272.419 145.676 0 0Z"/>
<path transform="matrix(1,0,0,-1,126.0369,271.4778)" d="M0 0 272.419 145.676Z" fill="#0a0203"/>
<path transform="matrix(1,0,0,-1,126.0369,271.4778)" stroke-width=".25" stroke-linecap="butt" stroke-miterlimit="10" stroke-linejoin="miter" fill="none" stroke="#231f20" d="M0 0 272.419 145.676 0 0Z"/>
<path transform="matrix(1,0,0,-1,126.0858,255.3522)" d="M0 0 272.419 145.676Z" fill="#0a0203"/>
<path transform="matrix(1,0,0,-1,126.0858,255.3522)" stroke-width=".25" stroke-linecap="butt" stroke-miterlimit="10" stroke-linejoin="miter" fill="none" stroke="#231f20" d="M0 0 272.419 145.676 0 0Z"/>
<path transform="matrix(1,0,0,-1,126.0858,224.8393)" stroke-width=".25" stroke-linecap="butt" stroke-miterlimit="10" stroke-linejoin="miter" fill="none" stroke="#231f20" d="M0 0 221.278 118.328"/>
<path transform="matrix(1,0,0,-1,126.0858,208.5672)" stroke-width=".25" stroke-linecap="butt" stroke-miterlimit="10" stroke-linejoin="miter" fill="none" stroke="#231f20" d="M0 0 190.825 102.044"/>
<path transform="matrix(1,0,0,-1,127.638,351.72203)" d="M0 0H307.601Z" fill="#0a0203"/>
<path transform="matrix(1,0,0,-1,435.2389,351.7221)" stroke-width=".25" stroke-linecap="butt" stroke-miterlimit="10" stroke-linejoin="miter" fill="none" stroke="#231f20" d="M0 0H-307.601 0Z"/>
<path transform="matrix(1,0,0,-1,163.3065,222.25131)" d="M0 0 300.132-54.05Z" fill="#0a0203"/>
<path transform="matrix(1,0,0,-1,163.3065,222.25131)" stroke-width=".25" stroke-linecap="butt" stroke-miterlimit="10" stroke-linejoin="miter" fill="none" stroke="#231f20" d="M0 0 300.132-54.05 0 0Z"/>
<path transform="matrix(1,0,0,-1,163.601,219.63849)" d="M0 0 300.132-54.05Z" fill="#0a0203"/>
<path transform="matrix(1,0,0,-1,163.601,219.63849)" stroke-width=".25" stroke-linecap="butt" stroke-miterlimit="10" stroke-linejoin="miter" fill="none" stroke="#231f20" d="M0 0 300.132-54.05 0 0Z"/>
<path transform="matrix(1,0,0,-1,163.7086,153.3117)" d="M0 0 300.132-54.05Z" fill="#0a0203"/>
<path transform="matrix(1,0,0,-1,163.7183,235.8714)" d="M0 0 300.132-54.05Z" fill="#0a0203"/>
<path transform="matrix(1,0,0,-1,163.7183,235.8714)" stroke-width=".25" stroke-linecap="butt" stroke-miterlimit="10" stroke-linejoin="miter" fill="none" stroke="#231f20" d="M0 0 300.132-54.05 0 0Z"/>
<path transform="matrix(1,0,0,-1,222.6006,374.609)" d="M0 0V268.312Z" fill="#0a0203"/>
<path transform="matrix(1,0,0,-1,222.6003,106.29663)" stroke-width=".25" stroke-linecap="butt" stroke-miterlimit="10" stroke-linejoin="miter" fill="none" stroke="#231f20" d="M0 0V-268.313 0Z"/>
<path transform="matrix(1,0,0,-1,321.6141,374.438)" d="M0 0V268.313Z" fill="#0a0203"/>
<path transform="matrix(1,0,0,-1,321.6144,106.12512)" stroke-width=".25" stroke-linecap="butt" stroke-miterlimit="10" stroke-linejoin="miter" fill="none" stroke="#231f20" d="M0 0V-268.313 0Z"/>
<path transform="matrix(1,0,0,-1,307.3239,374.438)" d="M0 0V268.313Z" fill="#0a0203"/>
<path transform="matrix(1,0,0,-1,307.3239,106.12512)" stroke-width=".25" stroke-linecap="butt" stroke-miterlimit="10" stroke-linejoin="miter" fill="none" stroke="#231f20" d="M0 0V-268.313 0Z"/>
<path transform="matrix(1,0,0,-1,383.9067,374.438)" d="M0 0V268.313Z" fill="#0a0203"/>
<path transform="matrix(1,0,0,-1,383.9071,106.12512)" stroke-width=".25" stroke-linecap="butt" stroke-miterlimit="10" stroke-linejoin="miter" fill="none" stroke="#231f20" d="M0 0V-268.313 0Z"/>
<path transform="matrix(1,0,0,-1,369.6165,374.438)" d="M0 0V268.313Z" fill="#0a0203"/>
<path transform="matrix(1,0,0,-1,369.6166,106.12512)" stroke-width=".25" stroke-linecap="butt" stroke-miterlimit="10" stroke-linejoin="miter" fill="none" stroke="#231f20" d="M0 0V-268.313 0Z"/>
<path transform="matrix(1,0,0,-1,426.9429,374.438)" d="M0 0V268.313Z" fill="#0a0203"/>
<path transform="matrix(1,0,0,-1,426.9434,106.12512)" stroke-width=".25" stroke-linecap="butt" stroke-miterlimit="10" stroke-linejoin="miter" fill="none" stroke="#231f20" d="M0 0V-268.313 0Z"/>
<path transform="matrix(1,0,0,-1,412.6527,374.438)" d="M0 0V268.313Z" fill="#0a0203"/>
<path transform="matrix(1,0,0,-1,412.6528,106.12512)" stroke-width=".25" stroke-linecap="butt" stroke-miterlimit="10" stroke-linejoin="miter" fill="none" stroke="#231f20" d="M0 0V-268.313 0Z"/>
<path transform="matrix(1,0,0,-1,298.3689,374.438)" d="M0 0V268.313Z" fill="#0a0203"/>
<path transform="matrix(1,0,0,-1,298.3685,106.12512)" stroke-width=".25" stroke-linecap="butt" stroke-miterlimit="10" stroke-linejoin="miter" fill="none" stroke="#231f20" d="M0 0V-268.313 0Z"/>
<path transform="matrix(1,0,0,-1,284.0778,374.438)" d="M0 0V268.313Z" fill="#0a0203"/>
<path transform="matrix(1,0,0,-1,284.0779,106.12512)" stroke-width=".25" stroke-linecap="butt" stroke-miterlimit="10" stroke-linejoin="miter" fill="none" stroke="#231f20" d="M0 0V-268.313 0Z"/>
<path transform="matrix(1,0,0,-1,213.9111,374.3516)" d="M0 0V268.312Z" fill="#0a0203"/>
<path transform="matrix(1,0,0,-1,213.9114,106.03943)" stroke-width=".25" stroke-linecap="butt" stroke-miterlimit="10" stroke-linejoin="miter" fill="none" stroke="#231f20" d="M0 0V-268.313 0Z"/>
<path transform="matrix(1,0,0,-1,199.6209,106.03943)" stroke-width=".25" stroke-linecap="butt" stroke-miterlimit="10" stroke-linejoin="miter" fill="none" stroke="#231f20" d="M0 0V-82.822"/>
<path transform="matrix(1,0,0,-1,199.6209,214.9047)" stroke-width=".25" stroke-linecap="butt" stroke-miterlimit="10" stroke-linejoin="miter" fill="none" stroke="#231f20" d="M0 0V-159.447"/>
<path transform="matrix(1,0,0,-1,236.9142,374.3516)" d="M0 0V268.312Z" fill="#0a0203"/>
<path transform="matrix(1,0,0,-1,236.9141,106.03943)" stroke-width=".25" stroke-linecap="butt" stroke-miterlimit="10" stroke-linejoin="miter" fill="none" stroke="#231f20" d="M0 0V-268.313 0Z"/>
<path transform="matrix(1,0,0,-1,236.9502,374.609)" d="M0 0V268.312Z" fill="#0a0203"/>
<path transform="matrix(1,0,0,-1,236.9503,106.29663)" stroke-width=".25" stroke-linecap="butt" stroke-miterlimit="10" stroke-linejoin="miter" fill="none" stroke="#231f20" d="M0 0V-268.313 0Z"/>
<path transform="matrix(1,0,0,-1,156.663,374.3516)" d="M0 0V268.312Z" fill="#0a0203"/>
<path transform="matrix(1,0,0,-1,156.6635,106.03943)" stroke-width=".25" stroke-linecap="butt" stroke-miterlimit="10" stroke-linejoin="miter" fill="none" stroke="#231f20" d="M0 0V-268.313 0Z"/>
<path transform="matrix(1,0,0,-1,170.9901,374.609)" d="M0 0V268.312Z" fill="#0a0203"/>
<path transform="matrix(1,0,0,-1,170.9902,106.29663)" stroke-width=".25" stroke-linecap="butt" stroke-miterlimit="10" stroke-linejoin="miter" fill="none" stroke="#231f20" d="M0 0V-268.313 0Z"/>
<g clip-path="url(#clip_5)">
<path transform="matrix(1,0,0,-1,321.554,351.7193)" stroke-width=".581" stroke-linecap="butt" stroke-miterlimit="10" stroke-linejoin="miter" fill="none" stroke="#231f20" d="M0 0C-.01 27.616-.03 82.149-.03 85.496-.03 87.216 .784 87.208 1.253 87.122L10.024 85.516C10.299 85.465 10.883 84.81 11.048 84.326 12.195 81.19 23.987 30.203 32.322 0H47.356L25.39 87.138C33.111 90.545 36.282 93.117 39.772 98.824 41.008 100.845 42.101 106.306 42.12 110.619L41.965 135.962C41.816 141.679 39.982 147.538 37.881 150.886 35.506 154.672 32.483 158.246 28.155 161.28 21.696 165.809 18.935 166.766 8.339 168.624L-11.921 172.234C-13.498 172.501-14.375 171.764-14.342 169.113L-14.23 0H0ZM.115 155.116 11.875 153.006C18.652 151.458 21.998 147.214 23.798 144.831 26.688 141.004 27.408 136.93 27.478 133.633 27.526 131.47 27.745 120.24 27.779 115.755 27.756 111.953 27.689 108.093 26.111 105.696 23.751 102.118 18.72 98.251 9.125 99.714L.004 101.358 .115 155.116Z"/>
<path transform="matrix(1,0,0,-1,307.287,296.3092)" d="M0 0 .036-55.41H14.267C14.261-40.652 14.253-18.212 14.247 0Z" fill="#0a0203"/>
<path transform="matrix(1,0,0,-1,354.9417,296.3092)" d="M0 0H-15.154C-10.891-17.481-5.491-39.375-1.066-55.41H13.968Z" fill="#0a0203"/>
<path transform="matrix(1,0,0,-1,283.95,296.3808)" d="M0 0-.04-16.895C.12-30.22-3.315-34.003-6.641-36.968-10.668-40.557-16.709-42.316-22.57-42.415-27.785-42.503-32.665-41.75-35.562-40.113-38.714-38.332-46.551-34.117-46.678-21.76-46.678-21.76-46.748 58.284-46.748 58.896-46.748 60.522-47.781 60.961-48.735 61.143L-58.176 62.759C-59.96 63.101-61.198 63.315-61.203 61.583-61.208 59.311-61.133-23.337-61.133-23.337-61.133-33.621-56.149-49.839-36.735-55.036-29.8-56.893-16.217-58.625-2.052-52.665-.806-52.141 14.243-44.148 14.243-22.673 14.243-22.673 14.26-12.541 14.279 0Z" fill="#0a0203"/>
<path transform="matrix(1,0,0,-1,259.4985,222.7107)" d="M0 0C-3.314 .637-6.839 1.852-9.555 3.396-12.833 5.253-16.557 8.079-18.572 10.892-20.581 13.698-22.449 17.235-22.524 20.748-22.573 23.049-22.49 53.531-22.49 53.531-22.612 55.148-22.828 56.038-24.748 56.376L-34.508 58.056C-36.342 58.35-36.861 58.248-36.869 56.618-36.879 54.485-36.949 24.496-36.904 22.315-36.775 16.086-35.57 10.438-32.066 5.3-28.558 .156-23.905-4.147-18.115-7.606-12.604-10.897-6.558-13.13 0-14.371Z" fill="#0a0203"/>
</g>
<path transform="matrix(1,0,0,-1,0,722.315)" d="M426.836 333.694H412.65299V347.877H426.836Z" fill="#0a0203"/>
<path transform="matrix(1,0,0,-1,0,722.315)" stroke-width=".25" stroke-linecap="butt" stroke-miterlimit="10" stroke-linejoin="miter" fill="none" stroke="#231f20" d="M426.836 333.694H412.65299V347.877H426.836Z"/>
<path transform="matrix(1,0,0,-1,416.152,401.819)" d="M0 0 3.088 4.174V3.561L.184 7.531H1.098L3.54 4.217 3.185 4.207 5.627 7.531H6.487L3.615 3.615V4.174L6.691 0H5.767L3.163 3.54H3.497L.915 0Z" fill="#0a0203"/>
<text fill="#0a0203" xml:space="preserve" transform="matrix(1 0 -0 1 0 722.315)" font-size="18" font-family="KJEFID+Belanosima-Regular"><tspan y="-162.4784" x="160.6063 172.19829 184.4383 195.4903 208.9003 223.4803 235.7203 246.77231 260.1823 265.0423 272.3503 277.2103 288.5683 298.6123 308.27833 320.5003 333.7843 347.1943 355.9603 360.5863 375.1663">PUROMURO - BELANOSIMA</tspan></text>
<text fill="#0a0203" xml:space="preserve" transform="matrix(1 0 -0 1 0 722.315)" font-size="17" font-family="Montserrat"><tspan y="-136.6387" x="160.6063 173.06729 186.87129 199.50229 214.10529 230.68029 244.48429 257.1153 271.7183 276.5123 283.3463 288.14033 304.71534 319.31834 333.47935 344.27436 355.98738 368.61839 381.2494 393.18339">PUROMURO - MONSERRAT</tspan></text>
<text fill="#9c4b2b" xml:space="preserve" transform="matrix(1 0 -0 1 0 722.315)" font-size="9" font-family="TTHazelnuts-Medium"><tspan y="-85.404" x="135.5974 143.8324 149.0074 152.7424 157.7374">Marca</tspan></text>
<text fill="#231f20" xml:space="preserve" transform="matrix(1 0 -0 1 0 722.315)" font-size="10.5" font-family="TTHazelnuts-Medium"><tspan y="-282.6064" x="162.7323 169.9248 174.2823 180.3723 186.4098 192.3423 195.4923 201.8973 208.5123 212.9328 219.4953 225.5853 230.0058 236.6208 243.23581 249.27332 253.69382 258.3138 261.4638 268.0263 274.4313 280.3113 284.5638 290.60133 294.69633 297.8463 303.88383 308.30433 314.70933 319.27684 322.42683 328.30683 331.45683 338.0718 344.1093 347.20683 351.62733 357.2448 361.6653 367.6503 372.95176 378.88426 381.98176 388.59675 393.84675 396.99674 402.40425 408.44175 412.86225 422.25975 428.34974 434.91224 438.06224 444.09974 450.71473 455.12474 461.21473 465.63523 468.73274 474.56025">Creaci&#x00f3;n de una tipograf&#x00ed;a original y exclusiva mediante la </tspan></text>
<text fill="#231f20" xml:space="preserve" transform="matrix(1 0 -0 1 0 722.315)" font-size="10.5" font-family="TTHazelnuts-Medium"><tspan y="-268.1064" x="162.7323 169.2948 175.3848 179.3748 185.7798 190.34729 199.7448 205.7823 211.7148 214.86479 221.26979 227.8848 230.4048 236.9673 243.0573 245.5773 252.1398 258.5448 263.7948 266.3148 270.4098 277.02479 283.11479 289.72978 294.1408 300.2308 305.4808 308.0008 311.9383 318.8683 324.95829 328.0558 334.0933 340.70829 347.11329 352.36329 355.51329 364.91078 370.94828 373.46827 379.08576 381.60575 391.21327 397.61827 404.23326 408.64326 413.89326 419.98326 424.55076 428.80326 434.73576 439.35575 443.29325 445.60325">deformaci&#x00f3;n de dos fuentes (Belanosima y Montserrat). </tspan></text>
<text fill="#231f20" xml:space="preserve" transform="matrix(1 0 -0 1 0 722.315)" font-size="10.5" font-family="TTHazelnuts-Medium"><tspan y="-253.6064" x="162.7323 168.8223 171.9198 175.4268 179.78536 185.87535 191.12535 197.74036 200.83786 205.24785 211.28536 217.84786 224.25286 227.75986 233.84986 239.09986 242.60686 249.22187 255.83687 261.87437 265.38136 268.53135 275.09385 281.18385 287.79884 292.41883 295.56883 302.13133 308.16883 314.73133 318.2383 324.8008 329.1583 335.5633 342.1258 345.2758 351.3133 354.82029 361.38279 367.47279 370.97978 374.96977 381.37477 385.94227 395.33976 401.37727 404.88426 411.44676 417.85176 420.94926 424.09925 429.97926 436.38426 442.99925 449.03675 452.13426 455.64125 462.04624 468.66123 474.54124">El resultado es una identidad propia de forma poligonal que </tspan></text>
<text fill="#231f20" xml:space="preserve" transform="matrix(1 0 -0 1 0 722.315)" font-size="10.5" font-family="TTHazelnuts-Medium"><tspan y="-239.1064" x="162.7323 169.2948 173.6523 180.0573 185.4648 191.5548 197.48729 201.89728 207.93479 210.5073 213.6048 219.6423 222.21482 225.3648 234.76232 240.79982 246.67983 252.76982 259.38484 261.9573 268.5198 274.6098 277.18229 283.79728 290.41227 292.98475 302.38224 308.99723 313.3547 319.7597 322.2797 324.85218 330.31217 336.71717 343.27967 349.68467 352.25715 358.34715 361.44465 364.01713 369.8446 376.2496 382.8646 385.9621 392.5771 399.19209 403.60209 410.00709 412.57957 418.66957 423.91957 428.32957 434.36708 436.93955 443.02955 448.27955 452.89955 457.36204 463.97703">proyecta la imagen de un muro. Todo el conjunto est&#x00e1; estruc</tspan></text>
<text fill="#231f20" xml:space="preserve" transform="matrix(1 0 -0 1 0 722.315)" font-size="10.5" font-family="TTHazelnuts-Medium"><tspan y="-239.1064" x="469.9235">-</tspan></text>
<text fill="#231f20" xml:space="preserve" transform="matrix(1 0 -0 1 0 722.315)" font-size="10.5" font-family="TTHazelnuts-Medium"><tspan y="-224.6064" x="162.7323 167.3523 173.9673 178.21979 184.2573 190.8198 197.2248 199.7448 206.1498 212.1873 215.2848 221.6898 224.20981 230.82482 237.43982 239.95983 245.20983 248.35982 253.60982 258.01985 264.10984 273.50733 279.54484 282.06483 288.62733 294.71733 297.2373 302.6448 308.6823 311.77983 318.1848 322.5423 328.6323 333.8823 336.40229 342.96479 349.05479 351.57478 358.34727 360.86726 366.48475 369.00474 378.40223 384.49223 391.05473 394.2047 400.7672 406.80473 412.05473 414.5747 423.9722 427.1222 433.73719 436.88719 446.28468 452.32218 457.57218">turado bajo un sistema de valores de X y medidas m&#x00ed;nimas.</tspan></text>
<g clip-path="url(#clip_6)">
<path transform="matrix(1,0,0,-1,15,21.000123)" stroke-width="1.25" stroke-linecap="butt" stroke-miterlimit="10" stroke-linejoin="miter" fill="none" stroke="#ffffff" d="M0 0H-15M550.583 0H565.583M0-680.315H-15M550.583-680.315H565.583M6 6V21M6-686.315V-701.315M544.583 6V21M544.583-686.315V-701.315"/>
<path transform="matrix(1,0,0,-1,15,21.000123)" stroke-width=".25" stroke-linecap="butt" stroke-miterlimit="10" stroke-linejoin="miter" fill="none" stroke="#000000" d="M0 0H-15M550.583 0H565.583M0-680.315H-15M550.583-680.315H565.583M6 6V21M6-686.315V-701.315M544.583 6V21M544.583-686.315V-701.315"/>
</g>
</svg>
