<?xml version="1.0" encoding="UTF-8"?><svg id="Capa_2" xmlns="http://www.w3.org/2000/svg" width="88.87mm" height="75.26mm" viewBox="0 0 251.92 213.34"><defs><style>.cls-1{fill:none;}</style></defs><g id="Capa_1-2"><path d="M200.18,60.69c1.33,1.28,2.42,4.44,2.58,6.29,1.28,14.35,0,32.71,0,47.53,0,9.98-.42,20.14-.02,30.2.05,1.22.86,2.59.71,3.68-.12.86-1.06.89-1.2,1.22-.42.94-.43,2.01-.85,2.89-1.14,2.36-8.34,4.54-10.82,5.96-3.5,2-16.18,11.68-19.16,11.77-13.23-.14-26.37-4.19-39.43-5.12-5.69-.41-11.55-.01-17.25-.49-16.65-1.4-33.69-5.14-50.37-6.71-10.54-.99-21.03-.53-31.54-2.51-3.26-.83-.96-2.97-.95-4.35,0-2.28-1.55-7.27-1.79-10.17-1.39-16.59-1.91-34.18-2.38-50.87-.03-1.14-.51-2.19-.52-3.32-.07-6.3.94-12.53.06-18.77,1.05-2.95,4.33-2.99,6.69-4.27,9.5-5.16,18.68-11.02,28.51-15.62l38.39,1.94c29.94,1.76,61.85,9.25,91.61,10.07,2.76.08,5.7-1.32,7.74.65ZM60.78,58.61l-11.68,4.86-7.5,4.24,19.18,1.93c.77-3.82.28-7.22,0-11.03ZM72.29,58.61v11.75l1.2.72c8.08.41,16.03,1.89,24.04,2.82,23.43,2.71,47,4.92,70.47,6.75,1.03.08,1.68.93,2.29.9,1.1-.05,9.5-4.38,11.02-5.28,3.05-1.79,6.42-4.24,8.97-6.62-9.06-1.56-18.39-1.44-27.57-2.41-13.27-1.4-26.51-4.01-39.81-5.27-10.69-1.01-21.44-1.16-32.13-1.92-6.17-.44-12.33-.74-18.46-1.44ZM36.33,147.84c10.08-4.32,18.12-12.01,26.76-18.56.35-9.58-.25-19.14-.87-28.69-.22-3.38-1.23-7.16-1.43-10.56-.26-4.34.71-11.01,0-14.86-.1-.54-.19-.98-.78-1.17l-26.07-1.47c.03,3.93-.61,7.83-.69,11.75-.35,16.91,1.43,34.92,2.6,51.82.27,3.89-.03,7.87.49,11.75ZM166.23,86.5l-93.66-12c-.78.18-1.13,4.85-1.14,5.94-.15,10.56,1.61,26.6,2.79,37.41.31,2.81,1.2,5.56,1.45,8.38,4.58.07,9.11,1.08,13.65,1.46,12.92,1.08,25.94,1.1,38.84,2.41,13.04,1.32,25.99,4.49,39.09,4.8l-1.03-48.39ZM193.58,138.19l-3.54-60.87-18.96,9.44v49.09c7.85-.17,14.6,4.79,22.5,2.35ZM166.24,147.89c-21.58-2.85-43.25-5.17-64.87-7.79-6.22-.76-12.61-2.13-18.78-2.8-4.55-.5-9.51.69-13.91-1.79-6.16,6-14.21,9.42-21.34,14.02l118.94,13.68c1.31-5.04-.48-10.18-.05-15.3ZM192.67,151.2l-21.1-2.88.96,15.83,20.14-12.95Z"/><path d="M136.56,166.55c0,.87-2.06.51-2.63.47-1.34-.09-3.28-.4-4.66-.61-.57-.09-2.33-.12-2.3-.81l9.59.96Z"/><rect class="cls-1" width="251.92" height="213.34"/></g></svg>