<?xml version="1.0" encoding="UTF-8"?><svg id="Capa_2" xmlns="http://www.w3.org/2000/svg" width="88.87mm" height="75.26mm" viewBox="0 0 251.92 213.34"><defs><style>.cls-1{fill:none;}</style></defs><g id="Capa_1-2"><path d="M210.82,58.21c.14,10.28.09,20.59.1,30.88.02,12.25.63,24.61.48,36.94-.04,2.97-.84,6.49-.71,9.57.21,5.08,2.32,7.43-.04,12.71-2.74,6.13-3.9.73-5.73.45-3.34-.52-10.21-.04-13.94.02-33.58.58-67.18,2.23-100.68,2.92-12.47.26-27.31-1.19-39.36-.03-1.16.11-1.84.68-2.89.99-1.96-1.05-2.47-2.42-2.63-4.56-.39-5.41.26-11.31.01-16.8-1.03-22.53-2.46-45.09-.97-67.66.08-1.22.53-2.36.5-3.58,1.95.55,3.49-.69,5.6-.77,48.49-1.93,97.6-1.29,146.22-2.08,4.65-.08,9.6-1.72,14.05,1.02ZM202.26,65.81c-5.76,1.33-11.6.58-17.5.48-2.59-.04-5.22.39-8.12-.04-1.78-.26-3.92-1.39-5.81-1.42-3.34-.05-7.16,2.87-10.76.97l.48,73.4,39.81-2.87c.83-7.55,1.77-14.67,1.46-22.33-.51-12.51-.82-24.87.96-37.38l-.5-10.81ZM148.05,68.7c-4.12-1.48-7.56-.29-11.75-.48-7.27-.33-15.08-1.81-22.5-1.96-3.65-.07-6.76.99-10.34.97l1.47,74.33c3.79.71,7.62-1.41,11.25-1.45,2.01-.03,4.44,1.05,6.2.97s4.56-1.59,6.81-1.83c5.42-.56,11.81,0,17.21-.54.72-.07,2.53-.38,2.9-.94l-1.24-69.08ZM97.71,67.72c-4.1,1.48-8.61-.25-12.71-.47-3.86-.21-9.24-.57-12.94-.52-2.77.03-5.31,1.6-7.72,1.92-3.04.4-6.28-.49-9.26.57l1.67,71.39c1.29.51,2.6.99,3.94,1.34,6.55,1.7,9.12-.74,15.2-.85,3.41-.06,6.59,1.81,9.15,1.92,3.77.17,9.1-2.25,13.15-1.9l-.48-73.39Z"/><rect class="cls-1" width="251.92" height="213.34"/></g></svg>