<?xml version="1.0" encoding="UTF-8"?><svg id="Capa_2" xmlns="http://www.w3.org/2000/svg" width="88.87mm" height="75.26mm" viewBox="0 0 251.92 213.34"><defs><style>.cls-1{fill:none;}</style></defs><g id="Capa_1-2"><path d="M185.64,162.51c-.19-.12-.11-.74-.37-.72-.8.06-2.13.83-3.39.91-10.85.69-22.17.42-33.07.51-26.16.21-52.14-1.2-78.22-.96-12.49-1.64-25.08-1.47-37.65-1.68-.5-.33-1.42-4.04-1.42-4.82,0-25.28-2.57-50.89-.98-76.3.13-2,.39-6.21.78-7.96.47-2.09,8.85-13.11,10.75-15.04,2.52-2.55,2.42-.76,5.03-.68,37.17,1.09,74.6-3.7,111.75-.98,12.11-1.48,24.15-.86,36.2.7,4.17,1.74,3.19,14.46,3.35,18.24.9,21.87.56,43.82,1.95,65.69.09,1.44.86,3.22.69,4.64-.45,3.81-9.29,11.87-11.57,15.68-1.45,2.43-.3,5.06-3.84,2.76ZM187.88,64.85c-7.36-1.73-14.81-1.41-22.32-1.46-22.29-.16-44.73-1.04-67.15-.96-12.27.05-24.64.16-36.92.02-3.97-.05-7.8.18-11.75.48l.48,5.76c7.87.99,15.85.13,23.76.46,14.63.6,27.91,1.57,42.65,1.44,22.1-.2,43.13-.34,65.26.49.59.02,1.12.27,1.65.49l4.33-6.71ZM41.59,68.2l-.47-3.36-1.44,3.35h1.91ZM192.52,133.8c.8-1.73-1.24-25.66-1.31-29.83-.13-8.04.76-16.01.52-24.03-.09-3.08-.75-6.64-.74-9.82l-4.46,6.59c.53,16.98,1.14,34.18,2.29,51.23.14,2.05-.07,4.15-.03,6.2,2.14.05,1.07,2.13,2.91,2.18-.73-1.86.72-2.33.81-2.52ZM41.09,74.94l-5.25-.98c-.15,5.19.19,10.42.02,15.61-.33,10.01-.6,18.73-.48,28.74.11,9.37-.57,20.61.44,29.78.08.7.1,1.22.74,1.66.67-2.18,3.72-4.19,4.34-6.21.84-2.72.76-12.35.71-15.64-.23-14.39-1.38-28.69-1-43.18.04-1.51,1.11-9.14.48-9.79ZM181.65,78.27l-27.08-2.42c-26.63-.05-53.07,2-79.62-.96l-24.72-.46c-.36,1.39.51,2.89.5,4.1s-.86,2.04-.99,3.33c-1.09,10.75,1.35,21.46,1.47,31.7.05,3.72-.88,8.63-1,12.43s.12,7.54.02,11.29c4.71-1.61,8.79.51,13.19.95,7.85.8,21.16,1.91,28.76,1.44,27.03-1.66,54.38-3.1,81.49-1l10.14-1.37v-1.48s-2.66-1.18-2.66-1.18l2.41-.52c.35-6.4-1.17-12.79-1.47-19.13-.37-7.94.9-15.99.52-24.03-.19-4.1-1.64-8.38-.98-12.7ZM184.04,147.84c-17.83-.92-35.63-1.11-53.49-1.42-26.45-.46-53.15-1.16-79.62-.95-3.08.02-2.91-1.2-5.48,1.67-1.65,1.85-1.53,3.06-2.47,4.72-.61,1.08-2.05,1.61-2.31,2.88.42,2.6,9.7.36,11.71.28,20.95-.92,41.94,1.84,62.83,2.44s40.97-2.91,61.43-1.96c1.95.09,4.52.56,6.45.98l.96-8.63Z"/><polygon points="90.03 136.81 86.44 137.28 81.41 136.33 90.03 136.81"/><path d="M109.22,134.89c.11.84-1.09.45-1.67.47-1.2.05-2.41-.03-3.6,0-.11-.84,1.09-.45,1.67-.47,1.2-.05,2.41.03,3.6,0Z"/><rect class="cls-1" width="251.92" height="213.34"/></g></svg>