<?xml version="1.0" encoding="UTF-8"?><svg id="Capa_2" xmlns="http://www.w3.org/2000/svg" width="88.87mm" height="75.26mm" viewBox="0 0 251.92 213.34"><defs><style>.cls-1{fill:none;}</style></defs><g id="Capa_1-2"><path d="M38.83,165.47c-1.84-3.8-.8-8.06-1.05-12.14-1.48-24.05-3.46-49.73-1.96-73.88.09-1.39.43-5.34,1.27-5.95,1.78-1.29,12,.24,14.8-1,49.6-1.57,99.03-1.36,148.72-2.36,5.12-.1,10.35-2.83,10.33,5.02-.05,24.61-.64,49.71.46,74.34.11,2.44-.42,5.96,0,8.15s3.19,3.02-.62,5.17c-2.76.23-6.03.76-8.73.86-4.77.19-9.35-.55-13.95-.52-30.28.21-60.37,2.04-90.61,2.92-9.19.27-22.22-1.25-30.74-.04-1.16.16-1.82.98-2.86,1.04-1.38.08-2.05-.86-3.33-1.04-3.46-.49-20.32.87-21.73-.57ZM204.66,76.36l-16.79.96c-.89,10.84.27,21.53.02,32.4-.29,13.1-.86,24.51.46,37.88.12,1.25.56,6.81,1.28,6.98,2.04.05,4.11-.13,6.15-.01,1.21.07,2.55.83,3.45.83,1.02,0,3.23-2,4.94-1.32-.31-17.39.95-34.67.94-52.07,0-4.7-.28-8.69-.48-13.39-.17-4.07.17-8.19.02-12.25ZM183.08,77.31l-112.71,2.88c.19,2.2.84,4.81.95,6.96,1.12,21.57.1,43.28.98,64.74.09,2.3-1.39,5.99,1.2,6.48,2.42.46,6.86-.06,9.6,0,2.99.06,5.63.03,8.59,0,27.7-.3,55.87-1.41,83.48-3.33,2.45-.17,5.05.45,7.36-.55l.55-77.17ZM63.18,80.19l-17.95-.89c-.69.17-.82,1.26-1,1.85-2.66,8.24-.47,19.32-.21,28.05.41,13.67-.1,27.23.94,40.79.24,3.1.89,6.24.95,9.36l17.27-.97c-.35-.72-.49-1.31-.51-2.13-.2-7.99.06-16.04,0-24.04-.09-12.55-.78-25.42-.48-37.9.05-1.95,1.48-13.63.98-14.13Z"/><rect class="cls-1" width="251.92" height="213.34"/></g></svg>