<?xml version="1.0" encoding="UTF-8"?><svg id="Capa_2" xmlns="http://www.w3.org/2000/svg" width="88.87mm" height="75.26mm" viewBox="0 0 251.92 213.34"><defs><style>.cls-1{fill:none;}</style></defs><g id="Capa_1-2"><path d="M208.91,60.11c.65,2.13-.72,3.98-.89,5.92-.4,4.5.39,9,.5,13.42.47,18.5.9,37.17-.04,55.65-.23,4.53.53,7.76-1.19,12.24-.87,2.27-1.15,3.4-3.83,3.41-10.95.05-26.42-2-36.95-.54-2.17.3-6.08,4.85-7.66,2.9-.88-1.1.09-2.62-2.37-2.91-8.26-.98-18.08.34-26.39.53-9.93.22-19.92.33-29.74.44-4.48.05-9.6-.35-13.95,0-1.02.08-1.73.95-2.29.9-4.14-.36-8.24-.87-12.53-.89-9.55-.05-19.51.74-28.84-.91l-2.33,1.91c-6.1-2.82-3.24-10.79-3.12-16.07.51-21.24-1.03-42.62-1.48-63.8-.03-1.63-.23-12.43.3-12.79l172.79.6ZM80.45,143.04c-.15-13.23-1.31-26.35-.98-39.6.16-6.66,1.1-13.43,1-20.15l-1.19-16.56c-8.88-3.01-18.21-.2-27.36-.46-3.34-.09-6.36-1.53-9.85.23-.77.58-.53,7.15-.49,8.67.29,10.18,1.2,20.48,1.48,30.66.32,11.83-.82,23.76.91,35.48l1.47.28-1.92,2.87c4.4.48,8.91-.58,13.21-.49,2.23.05,5.51,1.01,7.65.97,4.89-.07,10.82-2.88,16.07-1.91ZM158.09,67.29c-.3-.36-8.08-1.02-9.28-1.03-6.69-.05-13.61,1.06-20.67,1-11.27-.1-22.76.26-34.05,0-1.16-.03-2.27-.57-3.35-.55-.43,0-2.65,2.53-4.55,1.49v73.88c4.97-2.06,9.81,2,14.13,2.42,5.23.52,10.3-.87,15.35-1.01s9.73,1.13,14.91,1c2.76-.07,6.32-.88,9.1-.97,5.98-.21,12.05.49,17.95-.51l.45-75.72ZM202.27,69.16l-35.97-.48c.08,8.19.81,16.46.96,24.7.06,3.52.43,6.74.5,10.06.27,12.74-.7,25.43-.5,38.16l35.02-.96c.51-10.95.35-21.89.46-32.88.07-7.2-.42-14.33-.44-21.55-.02-5.68-.03-11.37-.02-17.05Z"/><rect class="cls-1" width="251.92" height="213.34"/></g></svg>