<?xml version="1.0" encoding="UTF-8"?><svg id="Capa_2" xmlns="http://www.w3.org/2000/svg" width="88.87mm" height="75.26mm" viewBox="0 0 251.92 213.34"><defs><style>.cls-1{fill:none;}</style></defs><g id="Capa_1-2"><path d="M198.93,158.4c-1.08,1.15-3.29.78-4.37,1.16-.69.25-.62,1.24-1.12,1.37-.42.11-7.17.84-8.09.89-.24.01-.18-.83-.78-1.06-4.06-1.61-7.15,1.13-9.74,1.17-1.39.02-1.69-1.29-3.33-1.52-2.98-.41-8.31.69-11.63.8-4.2.15-7.81-.23-12.28.29-10.81,1.26-22.93-.76-34.2-.13-2.44.14-4.07.37-5.84,1.45-2.11,1.28-2.14-.45-3.37-.84-3.89-1.24-6.68-.12-9.93-.07-14.25.22-28.53-.24-42.71-.54-4.96-.1-9.75.48-14.66.03l-.88-90.14c.81-1.29,9.36-.92,11.19-1.05,15.5-1.08,31.12-2.06,46.55-2.88,33.02,3.56,68.38-1.49,101.26.94,1.4.1,2.75.24,4.07.73l.48.96c.63,20.44.69,40.98.49,61.45-.03,3.53-.02,7.01,0,10.52.02,2.34-.18,15.47-1.11,16.45ZM90.63,73.59c-12.72-.75-25.41-1.07-38.17-.5-4.18.19-8.44.89-12.7.5l2.88,83.98c4.06-.1,8.18-.22,12.23-.49,7.39-.49,13.15-1.05,20.62-.93,5.08.08,10.08-.04,15.14.46v-83.02ZM164.51,75.03h-12.47l1.98.76c.94,2.46.02,5.12-.67,7.5-.97,3.3-4.18,9.28-4.57,12.25-.16,1.22.9,2.63.91,4.2,0,1.48-.81,4-1.24,5.52-3.57,12.67-9.41,23.86-10.94,37.13-.11.97-1.28,1.91-1.27,2.94.01.82.83,1.47.87,2.37.14,2.8-2.1,4.6.6,8.12,1.9,2.47,2.68.13,4.56-.02,1.34-.1,3.47.79,5.2.83,1.31.03,7.16-.62,7.94-1.22,1.3-.99-.52-8.19,1.44-9.6,1.34-.96,6.71-1.11,6.71.95v7.92l.48-1.44c5.41,2.49,11.4.63,16.98,1.47.63-2.23,4.48.45,6.21-.08l2.25-5.04-1.24-1.14.27-1.93c1.21.44.51,3.13,2.39,2.87.37-1.43.85-2.53.98-4.06,1.19-13.91-1.33-29.22.48-43.19-.72-4,.5-20.99-.96-23.46-.32-.54-1.16-.16-1.36-.38-.44-.46.45-2.73-2.02-2.34l.48-1.43h-6.24s0,1.92,0,1.92c-3.69-.56-7.45-1.37-11.22-.91-3.16.38-5.4,3.48-7.97,1.14l1.44-1.68ZM124.69,155.16c-1.43-3.36-3.37-6.66-3.78-10.37-.45-4.17.22-8.28.44-12.39.04-.64.34-3-.5-3.14-.61,4.19-2.4,8.58-2.83,12.77-.48,4.77.55,9.19-2.46,13.61l9.11-.48Z"/><path d="M157.79,145.09c-2.12-.55-2.35-2.38-.71-3.83,1.62,1.11,1.24,2.2.71,3.83Z"/><rect class="cls-1" width="251.92" height="213.34"/><rect class="cls-1" width="251.92" height="213.34"/><rect class="cls-1" width="251.92" height="213.34"/></g></svg>