<?xml version="1.0" encoding="UTF-8"?><svg id="Capa_2" xmlns="http://www.w3.org/2000/svg" width="88.87mm" height="75.26mm" viewBox="0 0 251.92 213.34"><defs><style>.cls-1{fill:none;}</style></defs><g id="Capa_1-2"><path d="M38.72,66.29l1.91.96c.01-.63.23-1.06.81-1.35,5.07-2.49,18.31-5.38,24.51-7.15,27.93-7.99,56.12-15.11,84.3-22.22,2.38-.35,3.85,1.53,5.96,2.19,3.5,1.1,8.32,1.04,12.1,1.8,6.26,1.27,13.27,2.92,19.48,4.5,2.52.64,14.96,3.77,15.95,5.15,1.39,6.83.84,14.15,1.41,21.14,1.71,21.14,6.47,46.44,2.14,67.15-.12.58.42,1.44.05,2.67-.33,1.09-1.99,3.2-3.14,3.59-32.53,7.91-64.71,14.89-96.31,26-1.27.44-3.13.51-4.23,1.05-1.22.59-1.25,1.82-2.36,1.99-16.46-3.62-32.4-9.21-48.57-13.8-1.61-.46-3.18-.38-4.54-.74-1.49-.39-6.03-1.51-7.07-2.04-1.4-.72-1.81-6.01-1.92-7.68-.37-5.6-.4-11.66-.5-17.25s.53-10.3.48-15.83c-.14-16.68-.8-33.41-.46-50.15ZM189.79,51.9l-37.4-9.12.48,20.14,36.92-11.03ZM149.99,43.26l-103.11,24.94,7.67,1.44-.72-1.91c1.43.36,1.06,1.83,2,2.31,3.51,1.79,13.05,2.68,17.35,3.76,2.26.57,3.72,1.72,5.45,2.23,1.9.55,15.17,4.28,15.73,3.7v-1.63s1.2-.29,1.2-.29c.88.43,0,2.68,3.62,2.19,5.82-.79,17.66-6.07,24.07-8.07,9.01-2.81,18.15-5.28,27.16-8.09-.16-6.86-1.47-13.72-.42-20.56ZM201.3,135.84c-2.1-11.39-.74-23.25-1.44-34.77-.36-5.92-2.07-11.82-2.41-17.73-.49-8.38.41-17.25.02-25.69l-6.45,2.9-37.2,10.76.72,51.58c2.97,2.97,7.62,2.18,11.3,3.09,10.21,2.52,20.25,6.91,30.57,9.24,1.66.37,3.13.86,4.89.62ZM150.47,72.52c-16.27,7.15-33.99,9.38-50.79,14.92l.91,49.36,49.86-13.45c.19-5.02-.17-10.09,0-15.11.34-10.1.47-17.66,0-27.78-.12-2.63.13-5.3.02-7.93ZM90.93,87.45l-45.5-12.53c.22.56.47,1.02.49,1.66.41,12.63.41,25.27.45,37.93l2.9,36.2,42.66-11.54-1-51.72ZM187.88,139.2c-.06-.67-.69-.77-1.18-.98-7.96-3.37-17.7-5.61-26.06-8-3.01-.86-5.57-2.77-8.99-2.31-.54.07-1.25.9-2,1.12-16.03,4.65-32.28,8.78-48.53,12.61l.92,22.5c5.98-.98,11.24-4.03,16.88-5.89,4.82-1.59,9.92-2.43,14.76-3.94,17.89-5.59,35.59-12.11,54.2-15.12ZM91.95,144l-34.53,10.07,35.48,9.6c-1-6.51-1.07-13.08-.96-19.67Z"/><rect class="cls-1" width="251.92" height="213.34"/></g></svg>