<?xml version="1.0" encoding="UTF-8"?><svg id="Capa_2" xmlns="http://www.w3.org/2000/svg" width="88.87mm" height="75.26mm" viewBox="0 0 251.92 213.34"><defs><style>.cls-1{fill:none;}</style></defs><g id="Capa_1-2"><path d="M201.17,64.53c.08.08.7,1.64,1.13,1.96-.04,8.17.12,16.36.42,24.51.7,18.54.47,36.99.48,55.65,0,2.33,1,2.96-.46,5.63-.95,1.74-2.9,1.97-4.1,2.72-5.69,3.59-11.33,7.3-17.16,10.66-3.87,2.23-8.1,4.05-11.57,6.57-25.61-3.23-51.18-6.89-76.82-9.95-18.07-2.15-38.15-2.61-55.74-6.62-1.43-.33-2.9-1.38-3.8-1.53-2.05-.33-2.97,1.25-4.39-2.28-.64-1.59-.93-6.5-1.03-8.57-1.02-20.89-.43-42.9.04-63.8.1-4.29.19-8.71-.47-12.92,1.52-1.02,3.23-1.35,4.91-2.31,9.49-5.42,18.69-13.42,28.76-18.24,5.93-1.75,8.37.95,13.08,2,3.4.76,8.38.51,11.96.99,35.9,4.83,73.27,8.28,108.81,13.97,1.71.27,4.72.42,5.93,1.54ZM192.19,68.69c-3.64-.04-7.2-1.07-10.8-1.44-1.58-.16-3.21.15-4.78-.01-19.98-2.03-39.49-6.06-59.42-7.73-5.39-.45-10.29-2.66-15.54-3.65s-10.07-.61-15.16-1.15c-5.91-.62-9.99-2.34-16.4-2.33-1.97,0-3.97-.19-5.96,0l.96,17.27,105.78,11.93,21.32-12.88ZM59.82,68.68v-15.83l-22.06,13.91,22.06,1.92ZM59.32,75.42l-24.43-3.86c-.07,11.28-.08,22.58.96,33.81,1.24,13.41,4.48,26.57,4.8,40.06,4.61-2.78,9.81-5.44,14.06-8.72,1.97-1.51,3.22-3.74,5.63-4.53v-31.63c-.91-8.35-1.05-16.75-1.01-25.14ZM196.51,73.48l-18.19,9.86c-1.16.86-5.84,5.67-6.16,6.79-.56,1.95.09,5.73-.11,8.04-.49,5.73-.48,8.68-.45,14.38.04,7.06-.83,14.07-.52,21.15.16,3.63.98,7.58.98,11.26l25.42,2.4-.96-73.88ZM163.9,144l-.95-54.94c-10.89-2.72-22.14-2.99-33.2-4.69-16.58-2.55-32.96-6.9-50.01-6.58l-14.63-2.39c.28,12.54-.38,25.14-.02,37.68.03,1.13.48,2.18.52,3.32.08,2.18-.08,15.17.92,15.87,6.83.39,13.27,3.33,19.93,4.05s13.47.12,19.78,2.28l57.67,5.4ZM163.42,149.75c-12.16-.72-24.18-3.14-36.29-4.28-3.82-.36-7.87.02-12.26-.65-10.26-1.54-20.42-2.96-30.76-4.25-4.51-.56-17.95-3.55-21.28-2.44-1.92.64-7.14,3.54-9.25,4.66-3.58,1.91-6.9,4.44-10.55,6.25,8.75,2.96,18.04.58,27.1,1.68s17.81,3.49,26.45,4.72c14.98,2.14,30.08,3.68,45.01,5.83,6.92.99,13.84,2.49,20.87,2.4l.96-13.92ZM172.53,151.19v11.99c5.51-2.56,10.27-6.67,14.87-10.55l-14.87-1.44Z"/><rect class="cls-1" width="251.92" height="213.34"/></g></svg>