<?xml version="1.0" encoding="UTF-8"?><svg id="Capa_2" xmlns="http://www.w3.org/2000/svg" width="88.87mm" height="75.26mm" viewBox="0 0 251.92 213.34"><defs><style>.cls-1{fill:none;}</style></defs><g id="Capa_1-2"><path d="M172.84,47.86c.21-.09.27-1.25,1.6-.76.9,3.38.28,6.89.47,10.33,1.26,23.66,3.1,49.34,2.32,72.9-.07,2.01-1.26,5.38-2.58,6.92-4.58,5.36-10.8,9.04-16.04,13.7-7.75,6.89-15.09,14.37-22.53,21.6-4.44,3.27-12.38.59-17.52.24-16.09-1.11-32.35-1.3-48.3-3.97-1.83-.31-4.55-1.58-6.01-1.72-1.14-.11-1.57.9-2.27.89-.42,0-2.27-1.1-3.38-.9-.22-.82-2.53-3.96-2.57-4.2-.07-.43.83-1.3.94-2.31,1.42-13.11-.97-28.58-1.49-41.74-.54-13.74,1.06-27.27,1.56-40.94,13.56-11.59,26.21-24.5,40.65-34.93,6.17-.14,12.34,1,18.46,1.27,16.01.72,38.3-.25,53.52,3.08,1.34.29.81,1.56,3.17.54ZM163.42,52.85l-40.52-2.41c-6.23-.27-13.79-4.74-19.35-.67l.9,18.21c-.67,3.77-1.31,7.38-.98,11.25l29.76,2.61c8.24-7.39,15.87-15.46,23.95-23.01,1.61-1.5,3.95-3.04,5.51-4.56.47-.46.91-.63.73-1.43ZM97.71,51.41c-6.27,2.72-10.18,9.01-14.85,13.68-4.26,4.25-9.16,7.96-12.96,12.7l27.82.97v-27.34ZM169.17,57.65c-.83-.22-.96.35-1.44.71-7.78,5.97-14.88,14.16-22.87,20.06-.55,3.78-5.02,5.71-6.24,8.88-2.17,5.65-.42,13.28-.15,19.05.37,8.07.46,16.16.96,24.22,10.74.66,21.33,1.92,32.14,1.43l-2.4-74.35ZM98.02,129.92c.64-.73,1.03-1.46,1.15-2.45.63-5.14-.38-10.73-.52-15.83-.23-8.25-.29-16.51-.67-24.76l-.99-.45c-9.13-.18-18.25-2.05-27.34-2.39-1.85-.07-4.13-.3-5.8.43-1.03.81-1.12,8.57-.65,10.34-.56,11.45.73,22.67.96,34.06.18,9.06-.21,18.11.46,27.12.93-.45,1.98-.63,2.85-1.22,3.85-2.6,8.54-8.13,12.26-11.24,5.82-4.87,12.19-9.11,18.28-13.62ZM128.89,90.27c-8.47.45-16.56-2.07-24.94-2.87.57,7.88.47,15.85.96,23.74.35,5.51,2.06,11.06.95,16.55l22.54,1.44.48-38.86ZM128.89,136.8c-1.65-.11-3.39.16-5.03,0-7.18-.75-13.12-4.52-20.42-3.14-11.6,8.72-23.09,17.58-34.03,27.13,19.91.85,39.72,2.4,59.47,4.8v-28.78ZM164.86,137.77l-25.42-.97v23.03s25.42-22.06,25.42-22.06Z"/><rect class="cls-1" width="251.92" height="213.34"/></g></svg>