<?xml version="1.0" encoding="UTF-8"?><svg id="Capa_2" xmlns="http://www.w3.org/2000/svg" width="88.87mm" height="75.26mm" viewBox="0 0 251.92 213.34"><defs><style>.cls-1{fill:none;}</style></defs><g id="Capa_1-2"><path d="M34.46,63.46l2.8-.57.32-1.94c13.99-5.48,27.87-11.54,42.14-16.26,1.67-.55,5.19-2.05,6.73-1.95,1.23.08,2.33,1.22,3.7,1.62,26.52,7.83,53.43,14.69,79.89,22.75,8.93,2.72,17.66,6.3,26.68,8.81l.68.76c-.48,2.02.95,2.71,1.41,3.86,1.72,4.25.43,24.4.57,30.61.12,5.22.39,10.54.48,15.83.17,9.9,1.62,22.91.5,32.6-.78,6.73-8.36,7.81-13.61,10.37-4.79,2.34-9.49,5.06-14.36,7.22-8.57,3.8-17.43,6.75-26.07,10.38-6.6-1.22-12.91-3.55-19.33-5.91-27.83-10.23-55.71-20.72-83.2-31.92-2.6-1.06-4.28-1.02-6.51-3.57-1.53-1.75-1.76-5.79-1.91-8.17-.55-8.58-.37-17.78-.5-26.36-.24-16.05.56-32.19-.41-48.18ZM85.72,57.17l-12.45,2.17-16.32,8.38,30.21,9.6c.46-.52.67-11.27.49-12.72-.3-2.44-2.59-4.62-1.93-7.42ZM96.27,59.09v21.59c15.77,4.44,31.22,10.18,46.97,14.66,1.54.44,2.35-.21,3.6,1.22l31.92-13.01c-.05-.57-.66-.82-1.1-1.05-13.23-6.98-28.87-9.55-43.02-13.58-4.72-1.34-9.72-3.71-14.39-4.8-3.49-.81-6.7-.58-10.17-1.34-4.43-.96-9.27-2.82-13.81-3.7ZM87.59,119.49c.07-9.18.06-18.37.07-27.56,0-.99-.52-1.94-.47-2.83.06-1.25,1.32-2.4.71-3.62-.48-.77-9.56-5.33-10.79-5.56-2.33-.44-3.19.74-4.5.63-5.45-.45-11.91-5.45-17.08-6.37-3.36-.6-7.18-.05-10.57-1.17l.96,62.84c1.26,1.26,17.18-6.84,19.68-7.9,2.65-1.12,5.51-1.53,8-2.56,4.44-1.83,8.8-5.51,14-5.9ZM189.31,87.87c-7.32,2.63-14.62,5.11-21.75,8.22-2.17.95-4.06,2.41-6.22,3.37-3.12,1.39-7.53,3.52-10.85,2.82.41,1.4-1.37,1.81-1.47,2.24-1.92,7.6-.34,15.54.03,23.39.09,1.83-.49,8.84.45,9.62l40.77,12.22c-.37-2.21.49-4.35.51-6.46.13-15.12-.76-29.56-1.49-44.61-.17-3.58.17-7.23.02-10.81ZM140.61,103.98c-1.38-2-3.02-2.35-5.23-3.17-10.26-3.78-20.04-5.69-30.6-7.77-1.29-.26-7.43-2.88-8.02-2.29l2.45,32.09c2.86.54,5.64,1.68,8.47,2.33,9.23,2.09,18.25,4.65,27.46,7.07,2.29.6,4.32,1.95,6.71,2.16.72-4.03-.77-8-.97-11.73-.32-5.94.3-11.87.53-17.79.13-.68-.63-.69-.78-.9ZM141.81,145.94c-8.72-1.36-15.76-7.18-24.18-9.63-5.66-1.65-12.61-2.02-18.12-3.95-2.17-.76-6.1-3.65-8.38-3.61-12.48,7.37-26.67,9.33-40.29,13.66-.61.15-1.17,1.34-1.12,1.78.11,1.04,8.69,4.92,10.12,5.31,2.79.77,5.75.72,8.52,1.55,6.67,2,14.44,6.29,21.3,8.43,2.81.88,6.03,1.19,8.89,2.14,13.96,4.64,27.73,10.21,42.07,13.57,1.65-9.67,1.24-19.46,1.18-29.25ZM152.52,148.66c-1.97-3.61-3.94-1.51-3.99,1.84-.11,6.97.37,14.65.56,21.59.03,1.25,1.56,2.55,1.4,4.03,6.64-1.18,12.45-5.2,18.51-8.06,5.4-2.55,10.97-4.95,16.47-7.27l-32.95-12.13Z"/><rect class="cls-1" width="251.92" height="213.34"/></g></svg>