<?xml version="1.0" encoding="UTF-8"?><svg id="Capa_2" xmlns="http://www.w3.org/2000/svg" width="88.87mm" height="75.26mm" viewBox="0 0 251.92 213.34"><defs><style>.cls-1{fill:none;}</style></defs><g id="Capa_1-2"><path d="M205.03,136.69c-4.91,1.31-9.24,4.52-14.17,5.77-13.21,3.36-26.56,8.46-39.55,13.17-15.76,5.72-31.75,12.43-47.96,16.8-6.06,1.63-7.82,1.23-13.8-.36-13.18-3.51-27.22-7.53-40.28-11.52-2.17-.66-9.68-2.82-10.78-4.09-1.94-2.24-1.05-6.48-1.22-9.34-.96-16.07-.5-32.39-1.93-48.44l.09-28.75.39-.55c9.67-1.02,18.29-6.05,27.47-8.99,21.23-6.78,42.32-13.89,63.45-20.97,3.97-1.33,7.75-3.45,11.72-4.59.86-.25,7.52-1.9,7.93-1.92,1.66-.1,4.2,1.61,5.9,2.05,3.34.87,6.52,1.76,9.8,2.67,12.66,3.52,27.94,5.69,39.7,11.14,5.15,2.38,1.04,5.34.93,9.1-.08,2.74.83,6.33.99,9.13,1.11,19.66,1.08,39.31,1.42,59.02.04,2.04,1.41,9.39-.1,10.66ZM145.18,39.92c-2.15-.18-4.26.54-6.32,1.08-21,5.53-40.79,14.41-61.31,21.19-8.31,2.75-17.42,4.57-25.66,7.44-.83.29-5.36,2.1-4.06,3.37l48.56,13.35c5.72-3.67,12.54-6.1,18.95-8.43,9.79-3.57,19.91-6.49,29.81-9.76l.03-28.24ZM188.36,52.86l-12.47-3.12c-4.52-2.87-10.79-3.1-15.49-5.14-.93-.4-8.61-5.13-8.97-4.7l1.44,25.9c9.14-3.48,19.41-5.64,28.43-9.22,2.15-.85,5.33-2.36,7.06-3.73ZM197.47,129.13c-.03-12.23.05-24.48-.02-36.72-.04-7.07-.14-14-.45-21.09-.2-4.55.09-9.13-.49-13.67-13.66,6.29-28.59,9.03-42.69,14.14l-1.45,23.49c.36,5.19-.75,11.01.84,15.99.62,1.96,2,3.26,2.15,5.28,4.11,1.34,8.59,2.45,12.64,3.91,4.4,1.59,9.39,4.14,13.74,5.44,4.95,1.48,10.71,1.79,15.73,3.21ZM145.19,74.44l-45.8,17.28c-1.33,1.36-.61,10.22-.7,12.73-.04,1.14-.49,2.18-.52,3.32-.21,8.28.26,16.5.5,24.73,16.22-4.54,31.3-12.75,47.93-15.85l-1.42-42.19ZM91.89,93.21c-9.69-3.98-20.52-4.42-30.14-8.47-2.39-1-5.17-3.11-7.2-3.83-3.25-1.15-7.04-.18-10.06-2.16-.83,18.06-1.53,36.32-.98,54.47.03,1.02.46,1.94.49,2.86.2,5.03.23,10.08.49,15.1,4.14-1.23,7.86-3.61,11.86-5.16,11.77-4.57,24.27-7.19,36.03-11.69l-.48-41.12ZM188.36,136.33c-6.04-.56-11.68-2.81-17.26-5.05-5.56-2.24-13.53-7.14-18.85-8.5-6.47-1.65-29.04,7.78-36.42,10.32-5.41,1.86-10.94,3.37-16.39,5.09l.68,29.32,88.24-31.18ZM92.43,141.12l-41.72,14.38c3.66,1.63,7.79,1.26,11.53,2.14,4,.94,8.38,3.25,12.53,4.26,5.63,1.37,11.58,1.65,17.18,3.2l.48-23.98Z"/><rect class="cls-1" width="251.92" height="213.34"/></g></svg>