<?xml version="1.0" encoding="UTF-8"?><svg id="Capa_2" xmlns="http://www.w3.org/2000/svg" width="88.87mm" height="75.26mm" viewBox="0 0 251.92 213.34"><defs><style>.cls-1{fill:none;}</style></defs><g id="Capa_1-2"><path d="M203.14,58.21l1.51,91.05c-1.72.2-3.24.85-5.01.99-10.2.84-23.03.28-33.57.48-22.27.42-44.43.62-66.71.92-15.7.21-32.24,1.63-47.96.52-.86-.06-2.05.02-2.78-.46-.45-.29-.66-1.32-1.07-1.94-.2-.3-.91-.38-1.05-.61-1.12-1.92-.01-6.29-.07-8.29-.74-25.8-2.97-52.45-1.5-78.21.06-1.01.24-4.36.97-4.79,51.17-1.43,102.5-.38,153.75-.74l3.49,1.07ZM106.35,62.92h-56.12c.14,3.09-.19,6.26.01,9.35.32,4.97.9,9.18.97,14.42.14,9.11,2.39,18.51,2.88,27.79.38,7.37-.4,14.77-.52,22.06-.06,3.66.51,7.17.08,10.76.92,1.46,15.01-.73,17.45-.9,9.69-.66,19.16-.67,28.78-1.44,1.98-.16,4.01.1,5.99,0-.9-4.5.71-8.76.98-13.17,1.13-18.36.15-40.06-.52-58.53-.12-3.43.13-6.91.02-10.34ZM138.96,63.4h-22.78l-1.22,3.58.5,77.5c1.54-.42,3.32.42,4.61.43,5.08.02,12.04-.5,17.21-.92.48-.04,2.55-.34,2.67-.77.34-4.28-.84-8.68-1.01-12.88-.52-13.21.18-26.23.52-39.34.24-9.22-.71-18.39-.5-27.6ZM196.03,142.08l.27-75.83c-.97-1.34-16.97-1.22-19.69-1.41-3.8-.27-7.69-1.25-11.5-1.45-6.96-.38-13.95.41-20.89.5.01,5.03.26,10.08.49,15.11.86,19.06-.96,38.43.96,57.57.13,1.25.62,5.82,1.19,6.49l49.17-.96Z"/><rect class="cls-1" width="251.92" height="213.34"/></g></svg>