<?xml version="1.0" encoding="UTF-8"?><svg id="Capa_2" xmlns="http://www.w3.org/2000/svg" width="88.87mm" height="75.26mm" viewBox="0 0 251.92 213.34"><defs><style>.cls-1{fill:none;}</style></defs><g id="Capa_1-2"><path d="M194.31,67.07c3.56,8.98,3.18,10.29,3.14,20.07-.07,20.55-1.19,41.02-.96,61.44.03,3.15,2.55,10.8-1.42,12.45-1.94.81-9.5.14-12.24.23-43.51,1.5-87.27,2.89-130.93,2.4-.98-.01-1.86.47-2.81.46-1.11-.02-5.84-.6-6.66-1.02-2.4-1.23-5.7-10.47-6.98-13.17-1.16-2.45-3.21-3.97-3.46-7.13-.7-8.91,1.11-18.03.98-26.84-.22-14.79-2.51-29.73-1.94-44.63.06-1.66.56-9.8.95-10.44s2.07-.75,1.47-2.73c.72-.02.74,1.15,1.05,1.34.82.49,16.21-2.49,18.86-2.77,18.33-1.97,36.72-2.01,55.17-1.94,17.72.06,36.75-2.75,54.2,0,1,.16,2.31.08,3.36.04,6.82-.25,13.77-1.16,20.6-1.5l1.2.27c2.57,4.19,4.59,8.89,6.42,13.5ZM183.56,67.72l-.07-3.05-1.13-.79c-14.06.32-28.18-.42-42.23-.02-3.07.09-12.56,1.57-14.75.88s-.33-.91-3.94-.87c-13.77.17-27.54,1.6-41.22,1.94-10.58.27-21.32-.32-31.7.43-3.11.23-6.2.66-9.33.51l2.42,5.27c1.54-.45,3.4-.88,5-.97,27.75-1.6,55.8.2,83.45-2.88l53.5-.46ZM183.56,72.04c-13.98.57-27.97.16-41.98.46-8.98.19-18.34.03-27.34.48-8.45.42-17.31,1.99-25.88,2.41-11.78.59-24.3-.23-35.99.46-2.9.17-5.87,1.28-8.86.98-.08,21.78-.31,43.66,1.92,65.25,14.17-.85,28.27-2.45,42.44-3.4,20.96,3.29,41.36,2.09,62.35.51,10.77-.81,21.55-2.53,32.38-2.4l.96-64.76ZM192.67,72.04l-1.44.29c.43,15.54.17,30.95.03,46.51-.05,5.05-.77,10.19-.52,15.35.11,2.26.34,6.51.59,8.51.1.81,1.25,2.32,1.59,3.22l-.24-73.89ZM40.63,130.56c-.06-4.87-.29-9.75-.48-14.62-.5-13.12.39-26.88-.45-39.84-.04-.69-.05-2.52-.98-2.62.27,17.34.54,34.71.96,52.04l.95,5.04ZM45.98,157.37c.79.97,14.01,2.04,16.03,2,3.23-.06,7.26-.89,10.51-1,18.99-.64,38.06-.29,57.07-.48,18.87-.19,39.9.42,58.55-.92.91-.07,4.87-.5,5.02-1.23-.83-1.93-3.69-8.5-5.53-8.85l-93.5,2.89-48.7.46.54,7.13Z"/><rect class="cls-1" width="251.92" height="213.34"/></g></svg>