<?xml version="1.0" encoding="UTF-8"?><svg id="Capa_2" xmlns="http://www.w3.org/2000/svg" width="88.87mm" height="75.26mm" viewBox="0 0 251.92 213.34"><defs><style>.cls-1{fill:none;}</style></defs><g id="Capa_1-2"><path d="M206.29,57.94c.38.42,1.26.49,1.26,1.37l.49,27.34c-1.41,18.94,1.79,40.42,0,59.05-.14,1.47-.47,2.67-1.46,3.82-6.94.34-13.94.35-20.89.26-11.62-.16-23.85-1.4-35.5-.54-1.21.09-2.42.96-2.75.91-10.16-1.69-27.47-2.37-38-1.37-1.16.11-2.18.98-2.86.96-.63-.02-1.29-.85-2.37-.97-12.64-1.38-26.27.92-38.85.97-4.96.02-9.95.14-14.91.04-.88-.02-1.93-.55-2.34-.52-.52.03-.42,1.68-1.47,1.45l-1.93-2.43c.25-4.52.38-9.11.27-13.66-.56-23.53.45-47.64-.98-70.98-.1-1.6-.47-6.02.95-6.72,7.25-.44,14.57-.08,21.85-.22,1.26-.02,2.43-.5,3.79-.52,44.76-.7,89.75.28,134.45.37.61.28.84.92,1.25,1.38ZM100.54,63.94l-51.75-1.97c.76,6.94.14,13.94.46,20.89.36,7.78,1.9,15.66,1.45,23.48-.53,9.27-1.34,18.99-.97,28.33.12,3.16,1.22,6.58.98,9.81,4.92-1.22,10.2-.9,15.1-1.44,5.59-.62,11.17-2.07,16.8-2.39,6.79-.39,13.62.63,20.38-.48l-2.45-76.23ZM198.91,64.36c-1.86-.38-3.77.64-5.51.52-1.2-.08-2.06-.85-3.35-1.01-6.88-.84-13.82,1.1-20.62,1.47-6.21.34-12.73-.29-18.97-.02l.46,69.34,1,5.48c8.93.54,17.7-2,26.58-2.4,3.77-.17,7.62.56,11.03.52,2.92-.04,6.8-1.22,9.8-1.51.06-1.64.14-3.33.05-4.98-.96-17.73-2.08-38.33-.98-56.15.17-2.72,1.45-3.67,1.48-3.89.16-1.3-1.9-5.27-.98-7.37ZM203.7,63.89h-.96s.48,2.87.48,2.87h.47s0-2.87,0-2.87ZM143.69,65.87l-34.44-1.48c-1.39,6.26.23,12.63.48,18.9.56,14.56.72,29.17,1.41,43.68.2,4.16-.24,8.84.49,12.95.1.55.19.98.79,1.16l34.22-.93c-.17-4.7.24-9.47.02-14.17-.6-13.2-.93-26.58-1.45-39.8-.27-6.78-.05-13.66-1.51-20.32Z"/><rect class="cls-1" width="251.92" height="213.34"/></g></svg>