<?xml version="1.0" encoding="UTF-8"?><svg id="Capa_2" xmlns="http://www.w3.org/2000/svg" width="88.87mm" height="75.26mm" viewBox="0 0 251.92 213.34"><defs><style>.cls-1{fill:none;}</style></defs><g id="Capa_1-2"><path d="M85.62,61.15c17.25-1.52,36.39,3.05,53.58,4.65,15.96,1.48,32.01,2.05,47.95,3.85,2.44.27,10.13,1,11.54,2.37,3.01,2.92,2.02,23.97,2.11,29.07.3,15.93.87,31.96,1.44,47.97.13,3.53,1.89,9.94-.66,12.73-1.21,1.32-2.84.83-4.53,1.22-14.69,3.42-34.17,4.27-49.68,5.49-4.55.36-6.1-.15-10.58-.5-21.41-1.68-42.8-2.81-64.26-3.85-7.87-.38-16.95-.11-24.46-.96-4.48-.5-10.13-.84-10.81-6.46-.57-4.73.21-10.89.03-15.86-.36-9.69-1.6-19.55-1.96-29.22-.48-13.05.33-26.22.1-39.28.09-.27,2.78-2.48,3.15-2.6,5.48-1.91,16.04-2.43,22.28-3.62,7.94-1.52,16.82-4.28,24.76-4.98ZM172.53,75.4c-5.81-.43-11.7-.41-17.5-.97-10.07-.96-20.25-2.27-30.27-3.31-8.99-.94-17.45-2.63-26.35-2.9-.99-.03-1.88-.4-2.85-.51l-.76,5.95c.14.95,10.58,1.1,12.26,1.26,18.14,1.77,36.45,3.69,54.67,1.91l10.79-1.43ZM86.2,69.64l-21.58,2.64c.54.8,1.31.69,2.13.75,6.44.46,13.08.06,19.45.93v-4.32ZM86.68,76.83c-6.43-.58-13.11.81-19.45.5-5.46-.26-11.7-1.65-17.26-1.22-2.43.19-5.66,2.25-8.34,2.19-1.29,9.62.85,19.38,1.4,28.99.83,14.71,1.89,30.55,1.97,45.04,0,.81.61,1.77.44,2.69l43.64-7.67-1.46-17.01-.94-53.51ZM143.76,81.63l-48.87-3.79,3.81,69.97,46.5,2.9-1.43-69.08ZM194.12,78.27c-11.08-.35-21.93,1.71-32.86,2.88-2.69.29-10.96.02-12.67,1.24-.51.36-.82,1.13-1.21,1.64l2.67,66.62,45.02,6.3.5-40.55c-1.31-10.51-1.21-21.24-1.46-31.65-.05-2.16.03-4.32,0-6.47ZM144.72,159.35c-13.66-.53-27.39-3.31-41.03-3.38-4.15-.02-3.74-.07-7.71-.89-5.89-1.21-5.87.28-11.04.85-1.87.2-3.77-.12-5.63.12-6.19.83-12.35,2.22-18.53,3.06,27.96,1.74,55.91,4.5,83.94,5.04v-4.8ZM169.17,161.75c-6.04-.78-12.26-.91-18.22-1.92.14,1.86-.06,3.63-.96,5.27l19.18-3.35Z"/><rect class="cls-1" width="251.92" height="213.34"/></g></svg>