<?xml version="1.0" encoding="UTF-8"?><svg id="Capa_2" xmlns="http://www.w3.org/2000/svg" width="88.87mm" height="75.26mm" viewBox="0 0 251.92 213.34"><defs><style>.cls-1{fill:none;}</style></defs><g id="Capa_1-2"><path d="M52.97,81.95c.71-.97-.4-1.48,2.29-1.76,20.28-2.09,40.25-1.55,60.46-2.38,4.92-.2,9.94-1.2,14.83-1.48,7.37-.42,15.91.53,23.54.52,8.03,0,18.62-1.24,26.38-.53,4.51.42,2.88,1.58,3.07,4.08,1.9,24.14,1.94,46.91,2.4,71.04.06,3,2.4,12.78-2.15,13.64-1.98.37-5.02-.13-7.2,0-37.33,2.05-77.72,4.09-115.11,3.4-2.16-.04-3.78-1.26-5.98.25-1.15-1.01-1.33-2.41-1.45-3.85-1.03-12.04-.15-25.72-.44-37.94-.11-4.74-.37-9.59-.48-14.39-.17-7.66.51-20.47-.47-27.35-.14-.96-1.07-2.04-.99-2.36.1-.38,1.01-.51,1.3-.9ZM180.21,82.59l-52.49.95c-.68.09-1.67.87-1.93,1.46-.28.63-.62,6.23-.63,7.42-.08,5.63,1.16,11.72,1.36,17.25.47,12.78.23,25.63.92,38.42.23,4.2,1.48,8.41.98,12.69,3.32-.89,6.86-1.24,10.31-1.48,11.16-.79,22.71.54,34.07.07,2.67-.11,5.54-.92,8.38-.5-1.37-21.03-2.14-42.01-1.94-63.1l.98-13.17ZM118.27,86.5c-3.09-.27-6.79-1.31-9.75-1.52-4.77-.34-10.55,1.07-15.35,1.47l-34.31-.5c-.5.51,1.36,12.16,1.46,14.13.94,18.39-.94,37.01.98,55.22-1.83,1.65-.41,1.29-.15,2.48.22,1.05-.21,3.04.84,3.48,1.51.63.85-.98,1.67-.95l.25,1.92c10.65-2.91,21.74-.67,32.63-.95,6.5-.16,10.73-1.15,16.79-2.39,1.58-.32,3.76.16,5.49-.51-.34-.7-.49-1.33-.51-2.13-.56-18.3-.99-35.91-.43-54.22.16-5.18.08-10.37.39-15.54Z"/><rect class="cls-1" width="251.92" height="213.34"/></g></svg>