<?xml version="1.0" encoding="UTF-8"?><svg id="Capa_2" xmlns="http://www.w3.org/2000/svg" width="88.87mm" height="75.26mm" viewBox="0 0 251.92 213.34"><defs><style>.cls-1{fill:none;}</style></defs><g id="Capa_1-2"><path d="M174.71,159.15c-.41.45-.89.89-1.33,1.31-2.35.7-4.89.16-7.32.34-19.29,1.4-38.28,1.85-57.55,2.88-5.94.32-6.98.8-13.29-.63-14.44-3.27-28.63-8.74-42.48-13.88-1.1-1.08-.48-9.48-.57-11.66-.45-11.4-.88-23.09-1-34.5-.16-14.75.05-29.53.16-44.27,1.77-2.13,1.95-.85,3.94-1.04,19.56-1.82,39.37-4.07,59-4.84,13.78-.54,26.26,6,39.2,10.2,6.71,2.18,13.68,3.58,20.27,6.11.77.67,1.38,1.13,1.65,2.19.96,3.73,1.2,12.06,1.46,16.29.98,15.99.75,31.97.94,47.99.1,7.83,2.76,17.16-3.08,23.52ZM121.21,57.65c-7.86.87-15.85.6-23.73.97-6.4.3-12.77.91-19.17,1.45-3.59.31-8.03-1.08-10.81,1.89l35.84,11.89,18.84-2.29c.07-1.23-.44-2.36-.5-3.58-.09-1.82.49-4.4.36-5.72-.11-1.13-1.46-2.89-.82-4.62ZM157.66,70.12l-32.13-11.03.47,12,31.66-.97ZM100.54,78.8c-8.56-1.8-16.66-5.25-25-7.86-1.8-.56-3.74-.63-5.54-1.17-5.18-1.56-9-5.57-14.49-5.89-.54,4.09,1.37,8.25,1.46,12.22.04,1.81-.52,3.26-.52,4.79-.06,17.99,1.34,35.89,1.44,53.73.02,3.59-.01,7.18.08,10.76,1.01.22,2,.48,3.05.55,7.87.54,15.36-1.02,23.04-1.45,2.44-.14,15.68.43,16.49-.53v-65.15ZM168.69,77.32c-3.33.62-6.94,1.67-10.31,1.91-7.19.53-14.44.1-21.56-.01-3.48-.05-6.9,0-10.33.5l1.98,62.29,41.18,9.18c.09-3.27-.11-6.58-.02-9.86.33-11.86-1.39-23.19-1.92-34.98-.43-9.71,2.03-19.43.98-29.05ZM121.69,80.19l-13.91.49c1.11,6.5.13,13.3.48,19.9.29,5.37,1.72,11.01,1.93,16.3.25,6-1.41,12.02-1,17.79.21,2.95,1.48,5.87,1.46,8.86l12.92-1.95-1.89-61.38ZM111.14,148.32v8.64l41.25-4.08c.01-.89-15.65-2.86-17.38-3.25s-4.74-2.02-5.99-2.17c-2.33-.28-7.31.75-9.95.89s-5.31-.14-7.93-.02ZM100.59,148.8l-27.82,1.2c0,1.64,24.78,5.97,27.82,6.48v-7.68Z"/><rect class="cls-1" width="251.92" height="213.34"/></g></svg>