<?xml version="1.0" encoding="UTF-8"?><svg id="Capa_2" xmlns="http://www.w3.org/2000/svg" width="88.87mm" height="75.26mm" viewBox="0 0 251.92 213.34"><defs><style>.cls-1{fill:none;}</style></defs><g id="Capa_1-2"><path d="M196.61,147.93c-.16.11-1.03,2.84-1.45,3.59-2.45,4.43-5.95,7.99-8.03,12.62l-152.1-3.26c-1.45-.55-2.38-3.64-2.56-5.11-.64-5.42.22-12.56.03-18.26-.54-17.14-1.63-34.16-1.44-51.29.05-4.12-.51-9.57-.03-13.47.53-4.34,7.21-12.01,9.82-16.08,1-1.57.69-3.39,3.39-3.36,1.15.01,2.05.86,3.34,1,8.91,1,19.62-1.06,28.33-.51,38.05,2.39,76.45,1.69,114.61,3.9,2.2.13,3.73-1.15,5.98,1.17,1.46,1.5,1.17,10.69,1.46,13.41.5,4.73,1.68,9.63,1.93,14.38.45,8.43-.24,17.68-.02,26.41.21,8.66.55,17.31.46,25.92-.03,2.62,1.08,5.26-1.19,7.88-1.12,1.29-1.95.67-2.53,1.07ZM187.88,65.81l-135.73-3.37-.48,9.12c13.95.76,28.14-.97,41.95,1.93l86.85-.47c2.32-.31,5.42-5.59,7.41-7.22ZM41.11,71.56c-.04-1.51.08-3.05,0-4.56-.03-.54.31-1.32-.47-1.19-.03,1.41-4.79,5.29-3.84,6.23l4.31-.48ZM191.23,135.84l-1.96-25.18.54-3.34.22-36.72c-2.49,3.09-5.59,5.82-6.36,9.95-.96,5.13,1.08,10.01.9,14.3-.04.9-1,.65-1.04,1-.37,3.18,1.26,10.62,1.46,14.34.42,8.1-.03,16.35,1.01,24.42.06.45.27,1.67.74,1.76l4.49-.52ZM41.6,75.88l-4.81.25,3.12,70.76,4.34-8.38c-.56-11.07-.79-22.08-1.22-33.13-.38-9.84-.72-19.68-1.44-29.5ZM55.02,136.33l40.55-.98c18.75.69,37.33,3.49,56.08,3.88,5.67.12,8.95-1.46,13.93-1.93,2.6-.25,15.09.48,16.09-.21.49-.38.41-.92.47-1.45,1.26-10.44-1.1-24.27-1.48-35.02-.23-6.32.38-12.69-.19-19-4.26-.91-9.03-.63-13.45-.93-17.72-1.21-36.02-3.2-53.7-3.85-17.29-.64-34.98.49-52.32.04-3.08-.08-6.55-.95-9.81-.5l3.84,59.97ZM182.6,146.4c-1.56.21-3.02-.39-4.54-.5-26.11-1.8-54.32,1.42-80.58-.96-3.42-.49-7.36.53-10.55.52-12.32-.04-24.74.55-36.95-1.03l-7.91,11.08c.58.43,6.89-1,8.39-1,2.92,0,6.58.95,9.57,1.03,8.89.23,18.33-.83,27.38,0,25.86-2.27,51.8,1.38,77.66,1.92,5.67.12,11.46-.47,17.04.46l.48-11.52ZM186.92,146.4v6.96c0,.27.7,1.06.48,1.68.46.5,5.51-7.52,5.76-8.39l-6.24-.24Z"/><rect class="cls-1" width="251.92" height="213.34"/></g></svg>