<?xml version="1.0" encoding="UTF-8"?><svg id="Capa_2" xmlns="http://www.w3.org/2000/svg" width="88.87mm" height="75.26mm" viewBox="0 0 251.92 213.34"><defs><style>.cls-1{fill:none;}</style></defs><g id="Capa_1-2"><path d="M39.24,154.99c-1.19-.79-1.28-24.9-1.49-28.49-1.18-20.43-2.53-38.85-1.43-59.49.06-1.14.64-7.68.96-7.92,1.28-.29,1.28,1.29,1.92,1.67,1.3.79,15.67-.08,18.46-.24,38.01-2.27,78.53-.59,117.05-.93,9.43-.08,21.45-1.54,30.69-.75,4.11.35,1.84,3.16,1.66,5.29-.68,7.74.89,17.07.98,24.93-1.28,16.49,2.61,35.69.96,51.85-.2,1.92-1.23,2.86-1.37,3.92-.29,2.21,1.16,2.69-2.15,4.56-3.74,2.11-5.03.7-8.25.82-11.96.42-22.49.64-34.51.5-16.56-.2-32.79,1-49.4.96-17.76-.04-35.53.83-53.24,1.48-4.64.17-13.14-.35-17.28.47-1.26.25-1.9,2.03-3.56,1.39ZM88.12,145.92l.26-77.27c-.3-.43-2.3-.79-2.96-.88-9.35-1.18-18.69-2.75-28.26-2.48l-15.56.51c1.02,3.37.25,7.23.48,10.78.32,4.79,1.63,9.61,1.93,14.38.68,10.63-.43,21.58-.52,32.14-.07,8.37.58,16.46,1.96,24.7,5.51.81,10.7-1.53,16.02-1.91,8.61-.62,17.96.5,26.64.02ZM201.31,143.52l.95-77.72c-8.73,2.47-18.47,1.19-27.59,1.42-4.39.11-9.5.94-13.88,1.02-1.63.03-2.98-.47-4.56-.52-.3,12.54,1.93,24.59,1.46,37.2-.2,5.23-1.2,10.57-1.48,15.79-.35,6.41.28,14.52-.45,20.66-.15,1.32-.85,1.91-.97,3.1,15.57.82,30.97-.37,46.52-.95ZM147.56,67.27c-.49-.51-12.6-1.14-14.14-1-6.78.61-12.41.83-19.14,1-2.35.06-17.8.24-18.43.99-.21,7.73.09,15.5-.03,23.24-.05,3.18-.95,7.37-.98,10.53-.06,6.27,1.24,13.36,1.46,19.65.29,8.4-.38,16.83.46,25.21,6.48-.93,13.31-.39,19.92-.5.84-.01,1.65.42,2.38.4,9.32-.22,18.68-2.58,28.06-2.3l.45-77.21Z"/><rect class="cls-1" width="251.92" height="213.34"/></g></svg>