<?xml version="1.0" encoding="UTF-8"?><svg id="Capa_2" xmlns="http://www.w3.org/2000/svg" width="88.87mm" height="75.26mm" viewBox="0 0 251.92 213.34"><defs><style>.cls-1{fill:none;}</style></defs><g id="Capa_1-2"><path d="M186.82,160.41c-16.11-.39-32.08,2.33-48.08,3.28-25.73,1.52-51.08,1.22-76.74,3.36l-23.28.46-4.23-90.11,2.07-.8c18.59-.62,37.14-4.81,55.72-5.34,4.72-.13,9.92.52,14.81.32,28.46-1.16,56.87-3.22,85.34-3.88,1.36-.03,5.61.14,5.9,1.76.11.6-.48,1.82-.42,2.82,1.72,25.91,3.56,52.9,3.02,78.68-.05,2.15,1.68,5.91-1.18,7.07-1.19.49-2.61.08-3.48.83-1.12.96-1.3,5.11-3.46,5.69-1.78.48-5.29-2.53-5.99-4.14ZM191.72,73.96l-45.57,2.4c.16,6.6.1,13.35.46,19.93.61,11.14,1.22,22.41,1.94,33.56.58,8.91,2.01,17.8,3.37,26.61l31.15-1.9c-2.43-6.01-2.67-12.98-2.88-19.42s-.32-14.16,1.56-20.52c1.33-4.51,10.2-3.98,10.46-4.97l-.51-35.69ZM148.06,156.46l-3.83-80.1-48.92,1.92,5.49,81.59,47.26-3.4ZM88.59,77.32l-17.02.48c-9.12-1.05-18.69,1.18-27.82,1.91-1.82.15-3.69-.09-5.51,0l6.72,83.96,29.01-3.4,18.47.04-3.84-82.99Z"/><rect class="cls-1" width="251.92" height="213.34"/><rect class="cls-1" width="251.92" height="213.34"/></g></svg>