<?xml version="1.0" encoding="UTF-8"?><svg id="Capa_2" xmlns="http://www.w3.org/2000/svg" width="88.87mm" height="75.26mm" viewBox="0 0 251.92 213.34"><defs><style>.cls-1{fill:none;}</style></defs><g id="Capa_1-2"><path d="M186.44,48.53l.98,13.65c.15,21.6-.27,43.21-.04,64.8.03,2.77,1.41,5.45-.93,8.18l-1.92-.29-.26,1.41c-14.7,9.24-28.99,19.57-43.91,28.54-6.01,3.61-12.78,8.05-19.39,9.5-.29.06-.2.76-.56.84-1.57.35-5.22-.32-7.04-.53-13.57-1.61-27.71-3.69-41.24-5.77-6.46-.99-12.9-2.29-19.3-3.61-2.52,4.55-5.94-1.05-6-4.23-.2-10.28,1.42-20.82,1.02-31.2-.21-5.54-1.28-11.21-1.48-16.75-.22-6.23.72-12.84.52-18.75-.17-5.03-2.49-10.3-.9-15.49,1.16-.53,2.36-.45,3.55-1.01,7.71-3.61,18.77-12.2,26.63-17.02,10.68-6.55,24.14-15.74,35.12-21,5.48-2.62,5.45-.64,10.21.04,19.71,2.78,39.65,4.37,59.29,7.86,1.98.35,3.61,1.46,5.65.83ZM175.41,52.38c-18.96-2.19-37.5-7-56.59-8.16l.96,41.26c.22.23,2.81-.53,3.31-.77,4.9-2.35,10.23-8.05,15.44-10.47l36.89-21.86ZM115.46,85.95l-1.45-41.26c-5.81,3.69-11.74,7.27-17.51,11.02-7.29,4.75-13.5,8.71-21.01,13.05-6.22,3.6-12.37,7.3-18.55,10.95l58.51,6.23ZM181.16,58.13c-.95-1.05-13.38,8.36-14.9,9.31-9.96,6.24-21.22,11.89-30.91,18.5-3.85,2.62-6.87,6.97-11.15,9.23-1.48,9.65,0,19.46-.11,29.16,4.54.19,9.16-.25,13.69-.02,1.86.1,13.26,1.14,13.86,1.51.53.33.64,1.29,1.09,1.4,2.87.69,7.85.25,10.93.48,2.31.17,14.97,1.79,15.86.51.54-2.61,0-5.32.21-7.94.53-6.5,1.73-13.12,1.93-19.65.21-6.56-2.66-14.25-.96-21.11l.46-21.36ZM114.97,95.55c-2.81,1.16-6.06-.73-9-1.31-17.23-3.4-32.2-3.76-49.23-5.93-.96-.12-1.81-.54-2.67-.92-.09,3.91.17,7.81.52,11.7.68,7.48.87,12.16.89,19.69.02,11.93,0,24,1.96,35.74l9.44-2.26c3.98-3.14,8.81-4.74,13.1-7.05,11.91-6.43,23.15-14.17,35.4-20-.55-7.27-1.13-14.46-.91-21.78.08-2.56.9-5.21.5-7.89ZM173.97,133.93l-49.4-5.28-.5,30.01,2.65,4.96c8.16-4.25,15.08-10.45,23.42-14.43l23.83-15.26ZM115.89,165.07l-.44-33.54-52.75,27.83,6.52,1.86,18.65,1.49c7.12-.02,16.92,3.77,23.57,3.8,1.64,0,2.8-1.46,4.45-1.45Z"/><rect class="cls-1" width="251.92" height="213.34"/></g></svg>