<?xml version="1.0" encoding="UTF-8"?><svg id="Capa_2" xmlns="http://www.w3.org/2000/svg" width="88.87mm" height="75.26mm" viewBox="0 0 251.92 213.34"><defs><style>.cls-1{fill:none;}</style></defs><g id="Capa_1-2"><path d="M199.31,76.44c-.17,1.73,1.03,4.01,1.02,5.51-.02,3.26-.63,7.18-.49,10.98.6,15.41,1.6,31.03,2.42,46.51.3,5.64,1.48,12.25,1.48,17.76,0,1.52-.87,3.73-2.32,4.44l-50.95,18.59-3.13.24c-21.6-6.44-43.3-12.55-64.88-19.07-13.32-4.03-28.62-7.83-41.45-12.75-.97-.37-3.9-1.54-4.67-2.03-.58-.38-.99-1.41-1.35-2.02l-.62-30.08c-.35-16.94-.33-34.05.02-50.87.02-.9.51-1.73.49-2.64l2.15.78c18.3-6.06,35.9-14.38,54.08-20.85,7.03,1.13,13.13,4.4,19.78,6.65,24.42,8.25,49.19,15.26,73.38,23.99,4.96,1.79,10.12,2.96,15.04,4.87ZM85.24,50.93c-.28-.31-3.44,1.53-4.21,1.78-8.19,2.72-15.2,5.72-23.14,9-2.84,1.17-6.84,2.05-9.45,3.5-.55.3-.81-.03-.62,1.07l36.45,10.56.96-25.9ZM182.12,80.68l-84.89-28.79c-.89,2.06,0,3.65.02,5.5.1,7.76-.29,15.6.19,23.31,17.06,5.18,34.28,10.21,51.84,13.64,9.2-3.77,18.86-6.74,28.03-10.56,1.15-.48,3.2-1.39,4.19-2.03.47-.3.86.05.62-1.07ZM83.72,118.98l.35-36.41c-2.11-.85-4.39-1.26-6.5-2.14-9.86-4.1-21.04-9.07-31.41-11.75-2.41-.62-3.87-1.24-6.46-.45l2.38,71.46c5.05-.5,9.33-4.1,13.58-6.32,6.08-3.17,12.05-6.56,18.13-9.69,3.25-1.68,6.9-2.5,9.93-4.69ZM191.71,84.04l-41.02,15.8.72,31.94.97,5.27,39.82,12.22c-.87-5.35-2.36-10.03-1.91-15.58.82-10.19.26-19.17.45-29.29.07-3.67.99-8.34,1.02-11.98.02-2.64-1.38-5.68-.04-8.39ZM146.58,100.39l-49.83-13.96.03,33.54c8.54,2.31,16.82,5.66,25.37,7.97,2.49.68,5.32.71,8.06,1.53,5.87,1.77,11.08,5.69,17.38,6.36l-1.01-35.45ZM148.07,145.92l-61.08-17.7c-7.94,4.77-17.56,7.18-26.2,10.75-4.54,1.87-9.04,4.07-13.44,6.23,14.11,4.01,28.65,6.58,42.79,10.45,13.74,3.76,27.03,9.01,40.67,13.05,5.55,1.65,11.54,3.64,17.26,4.08v-26.86ZM191.23,158.4l-38.84-11.04v24.94c2.25-1.24,3.42.98,3.63.99,3.52.1,11.89-6.27,15.56-7.93,5.57-2.53,12.46-3.39,17.87-5.63.67-.28,1.58-.53,1.78-1.33Z"/><rect class="cls-1" width="251.92" height="213.34"/></g></svg>