<?xml version="1.0" encoding="UTF-8"?><svg id="Capa_2" xmlns="http://www.w3.org/2000/svg" width="88.87mm" height="75.26mm" viewBox="0 0 251.92 213.34"><defs><style>.cls-1{fill:none;}</style></defs><g id="Capa_1-2"><path d="M193.66,154.6l-.29,1.42c-2.69-.62-5.7.93-8.17.96-.9.01-.41-.91-1.37-1.04-3.56-.46-8.66,1.47-9.55,1.38-.79-.08-1.49-1.18-2.93-1.37-3.62-.47-10.56-.16-14.43,0-6.03.25-11.86,1.41-17.78,1.41-9.29,0-21.63-1.56-30.67-.47-.94.11-.66.89-1.28,1.14-2.47,1.04-2.37-.65-3.59-1.02-2.96-.9-9.05-.13-12.36-.12-16.44.09-35.18,1.09-51.35.04-1.21-.08-2.35-.48-3.55-.52l-.45-90.11c.3-.36,7.99-.91,9.31-1.01,41.97-3.09,84.05-2.09,126.11-1.42,7.86.13,17.97-.88,25.45-.03,1.59.18,2.46.39,2.66,2.14,1.38,12-1.48,26.23.47,38.39-.65,16.22.01,32.51-1.23,48.7-1.17,1.97-3.04,1.38-5,1.5ZM90.04,68.68l-20.88-.46c-7.84-.92-16.07.74-23.94.96-2.09.06-3.98-.05-6.01-.5l3.35,84.43,24.68-1.94,22.8.5v-83ZM182.12,72.04c-2.99-1.02-6.17-1.02-9.3-1.49-7.45-1.12-13.75.08-21.14.09-2.66,0-6.09-1.02-8.59-.95-1.63.05-2.89,1.22-4.34,1.42-6.39.88-12.86-.42-19.92,1.14-6.36,1.41-5.44,8.9-6.95,14.2-4.75,16.62-9.58,32.09-12.58,49.3-.3,1.71-.29,5.26-.69,6.5-.44,1.32-3.13.79-1.72,4.25,2.55,6.27,11.9,3.84,17.36,4.72,1.29.21,2.04,1.21,3.22,1.57,9.18,2.79,18.25-1.17,27.02-1.12,1.97.01,8.01.31,9.36-.71.78-.59.53-10.64.49-12.5-.21-9.52-.65-19.21-.96-28.78-.1-3.05-2.02-6.3,3.19-6.32,3.53-.01,2.19,2.42,2.57,4.4,1.58,8.33,1.74,21.75,1.92,30.7.08,4.03.23,8.53-1.94,12.05-1.09.68-2.74-1.29-2.4.68,2.91-.39,7.1.54,9.82,0,.99-.2,1.26-1.02,2-1.28,1.82-.64,6.43-.09,8.59-.14,3.46-.08,6.63-.52,10.2-.09.6-1.71,2.01-3.43,1.51-5.35-.09-.35-1.79-.4-.47-2.72l1.67,3.34c.61,0,1.6-3.75,1.68-4.54,1.03-9.47-.5-21.11-.5-30.73,0-9.19.92-18.55.52-27.82-.09-2.04-.23-5.28-.46-7.19-.05-.44-2.81-4.09-3.88-3.58l.48-1.43h-6.23s.47,2.39.47,2.39Z"/><rect class="cls-1" width="251.92" height="213.34"/><rect class="cls-1" width="251.92" height="213.34"/></g></svg>