<?xml version="1.0" encoding="UTF-8"?><svg id="Capa_2" xmlns="http://www.w3.org/2000/svg" width="88.87mm" height="75.26mm" viewBox="0 0 251.92 213.34"><defs><style>.cls-1{fill:none;}</style></defs><g id="Capa_1-2"><path d="M134.93,36.74c.49.24.39.74,1.99,1.1,15.01,3.37,31.56,4.72,46.65,8.05,1.79.39,8.7,2.16,9.77,3.07.47.4.28.97.3,1.49.97-.52.78-1.99,2.85-1.41,2.68,17.57,2.26,35.32.49,52.96-.68,9.37.76,19.05.54,28.32-.02.89-1.35,6.42-1.74,6.94-3.48,1.54-6.54,3.75-9.97,5.38-9.12,4.33-19.01,7.58-28.31,11.98-13.31,6.28-26.05,14.01-39.46,20.01-10.86,4.86-17.71.61-28.37-1.23-13.82-2.39-27.83-4.52-41.51-7.02-1.14-.21-1.46-1.24-2.14-1.73-.38-.27-1.23-.19-1.69-.47-.72-.44-1.65-3.62-1.76-4.59-.99-19.63.72-40.5-.46-59.98-.1-1.6-.85-3.01-.93-4.35-.35-6.12-.75-12.22-.46-18.35,28.91-15.96,59.97-27.64,90.09-41.1,1.62-.78,2.83.31,4.13.94ZM54.55,76.83c16.83,3.26,33.3,7.74,49.78,12.4,5.72-.83,10.19-3.96,15.13-6.24,1.87-.87,10.3-3.57,10.8-5.03l-.89-34.22c-4.55,1.84-9.03,5.01-13.43,6.95-17.26,7.61-35.62,13.35-52.6,21.75l-8.79,4.4ZM183.08,53.34c-15.67-3.16-30.92-8.24-47-9.12l1.44,30.22,45.56-21.1ZM190.27,57.17c-2.06-.19-1.91,1.6-2.9,2.61-2.53,2.57-15.65,6.99-19.81,8.97-9.99,4.76-19.16,11.64-30,14.37l1.38,37.14,50.85,12.22.48-75.31ZM50.71,154.07c5.42-2.34,11.49-3.77,16.91-5.87,7.42-2.88,17.14-6.54,24.18-9.87,4.01-1.89,7.89-4.81,11.91-6.8l-.44-35.05c-12.32-4.57-24.86-6.97-37.61-9.9-3.39-.78-6.85-2.2-10.03-2.92-2.59-.59-6-.22-8.76-1.55l3.84,71.96ZM129.76,119.93l.56-33.02-20.18,9.34,1.48,31.92,18.14-8.23ZM181.16,136.33l-47.33-10.4c-4.86,1.34-9.66,3.07-14.23,5.19-1.59.74-5.59,2.45-6.73,3.34-.42.33-.77.53-.77,1.15l1.45,32.86,67.62-32.14ZM104.42,138.72c-12.55,4.35-24.32,10.56-36.28,16.24-3.65,1.74-8.07,2.96-11.2,5.34l47.96,10.08-.48-31.66Z"/><rect class="cls-1" width="251.92" height="213.34"/></g></svg>