<?xml version="1.0" encoding="UTF-8"?><svg id="Capa_2" xmlns="http://www.w3.org/2000/svg" width="88.87mm" height="75.26mm" viewBox="0 0 251.92 213.34"><defs><style>.cls-1{fill:none;}</style></defs><g id="Capa_1-2"><path d="M176.73,58.73c.93,1.35.1,2.72.17,3.9,1.63,25.99,1.61,54.01,1.37,80.19-.02,2.1.74,4.13-.52,6.39l-99.69.34c-.68-.76-.85-1.45-.97-2.43-.67-5.59-.35-14.59-.49-20.62-.47-19.57.69-39.02.52-58.57-.03-3.94-2.7-8.86,3.17-9.64,5.94-.79,13.12-.43,19.19-.48,23.21-.18,46.79-.37,69.94-.22,1,0,6.97.72,7.32,1.12ZM173.48,65.8c.2-.21.52-1.9.48-2.39-1.1.31-1.02,1.52-.95,2.4.15-.02.41.07.47,0ZM93.15,63.88c-2.69-.24-5.67.17-8.39,0,.92,6.14.43,12.68.46,18.97.11,19.33.65,39.12.05,58.53-.03.92-.37,1.72-.5,2.61,4.57.36,8.98-.62,13.43-1.44l-.48-76.99-.78-1.13c-1.31.32-2.82-.46-3.77-.54ZM170.07,65.39c-4.1-1.22-8.23-.68-12.41-.55.53,6.71-1.1,12.77-.98,19.45.16,8.71.92,17.72.93,26.42,0,7.75-1.31,15.7-.37,23.39.13,1.03,1.21,7.4,1.67,7.53l12.65-.03c-.47-1.58.5-3.82.43-5.06-.06-.98-1.61-2.86-1.83-4.33-.8-5.31-.34-13.55-.49-19.18-.38-14.14-.06-28.63.46-42.68.06-1.65.06-3.33-.06-4.96ZM152.36,64.86h-48.9c1.34,9.42,1.15,19.03,1.42,28.55.03,1.14.49,2.18.52,3.32.36,15.26-.69,30.64.46,45.83,9.6.42,19.89.98,29.51.5,5.47-.27,11.4-1.72,17.01-1.46l-.02-76.75Z"/><rect class="cls-1" width="251.92" height="213.34"/></g></svg>