<?xml version="1.0" encoding="UTF-8"?><svg id="Capa_2" xmlns="http://www.w3.org/2000/svg" width="88.87mm" height="75.26mm" viewBox="0 0 251.92 213.34"><defs><style>.cls-1{fill:none;}</style></defs><g id="Capa_1-2"><path d="M199.87,72.52c.72,5.03.29,10.07.46,15.13.79,22.83.56,45.73.96,68.6.03,1.9,1.16,3.26-.04,5.22-.13.21-3.09,3.28-3.31,3.38-2.2.99-5.89.13-8.4.24-14.63.61-29.69,2.97-44.13,4.31-33.97-4.4-69.73-4.2-103.52-9.14-.67-.1-2.67-.45-2.97-.88l-1.18-32.39-.23-55.91,4.8-2.41.51,1,49.8-6.21c33.29,3.69,66.85,6.65,100.29,9.06,2.29.17,4.67.17,6.95,0ZM89.55,69.65l-35.72,1.92-6.96.95,43.16,2.88-.48-5.75ZM170.13,78.75c-.96-1.23-4.29-1.26-6-1.43-14.6-1.49-29.91-1.78-44.6-2.89-7.13-.54-14.23-1.68-21.35-1.92v3.36s32.85,2.4,32.85,2.4c6.46.47,13.77,1.8,20.13,1.93s12.7-1.44,18.97-1.46ZM90.52,79.24l-48.45-5.28.46,36.72c.39,12.82,2.82,26.18,3.37,38.84.09,2.03.13,4.03-.47,5.99l46.04-7.2-.95-69.07ZM145.2,83.55l-47.01-3.84,2.43,65.7,44.84,4.37,1.2-50.18c-.42-5.38-1.84-10.63-1.46-16.05ZM194.12,82.6c-9.34-3.49-18.98-1.02-28.55-.49-2.5.14-13.9-.49-14.99.6-2.68,16.65-1.24,33.68-1.53,50.52-.02,1.13-.5,2.18-.52,3.32-.1,4.72.12,9.46.02,14.17,15.07,1.21,30.22,2.05,45.08,4.79l.49-72.91ZM145.15,158.43c-9.94-1.25-19.96-1.94-29.93-2.92-6.08-.6-13.31-2.21-19.21-2.4-4.57-.15-12.68,1.86-17.72,2.41-6.01.64-12.18.68-18.18,1.48-.38.05-1.73.33-1.72.68l86.09,7.92.69-7.17ZM181.16,161.27l-32.14-2.41.48,6.72,19.85-1.5c2.51-.29,4.84-1.38,7.3-1.81,1.47-.26,3.75.62,4.51-1Z"/><rect class="cls-1" width="251.92" height="213.34"/></g></svg>