<?xml version="1.0" encoding="UTF-8"?><svg id="Capa_2" xmlns="http://www.w3.org/2000/svg" width="88.87mm" height="75.26mm" viewBox="0 0 251.92 213.34"><defs><style>.cls-1{fill:none;}</style></defs><g id="Capa_1-2"><path d="M142.49,182.68c-15.93-6.04-33.46-9.62-50.05-14.46-9.27-2.71-18.54-5.82-27.8-8.65-6.63-2.02-17.02-4.25-23.04-7.18-1.14-.56-2.05-1.49-3.11-2.17l-1.95-85.9,53.74-18.48c36.5,8.62,71.17,22.94,107.19,33.14l1.48.92c1.34,1.92,1.23,16.8,1.38,20.21.8,17.66,1.62,35.57,1.96,53.21.08,4.22,1.15,11.24-2.65,13.7-3.33,2.15-18.76,4.55-23.85,5.89-8.56,2.25-17.48,4.93-25.9,7.68-1.92.63-5.86,3.07-7.4,2.09ZM90.51,53.33c-12.58,3.65-25.2,5.86-37.4,10.8-1.95.79-4.13,1.72-6.05,2.58-.57.26-.86-.23-.68,1l43.64,11.52.48-25.9ZM183.56,84.52c-7.53-2.64-15.21-4.94-22.91-7.07-8.54-2.36-17.53-3.94-25.89-6.73-5.88-1.96-11.36-4.71-17.38-6.6-5.16-1.62-10.57-3.04-15.82-3.6l-.2,22.12c8.89,2.86,18.75,3.86,27.64,6.32,6.51,1.8,12.71,5.09,19.4,6.44l12.27-4.31,22.9-6.58ZM89.99,85.04c-16.7-2.65-31.7-10.94-47.91-15.4l3.84,74.83c14.54-6.19,28.81-13.05,44.12-17.27-2.21-2.06.36-2.77.42-4.53.02-.66-.43-1.54-.44-2.41-.08-11.74.15-23.5-.03-35.23ZM145.19,99.38l-43.88-12.48c-.15,6.73-.05,13.63.24,20.39.17,4.05,1.7,11.82,1.3,15.3-.09.79-1.45,2.02-1.31,2.21l43.64,12.96v-38.38ZM190.75,151.19l-1.44-62.84-40.78,10.78.7,39.62c14.11,3.27,27.94,7.43,41.51,12.44ZM145.19,150.72l-53.49-16.81-41.96,14.42c.07.75.73.72,1.23.92,9.43,3.72,19.76,4.13,29.71,7.22,15.04,4.67,29.92,9.79,45.21,13.79,6.39,1.67,12.92,2.71,19.29,4.45v-23.99ZM188.36,163.19l-39.33-11.04.48,22.07c7.99-1.55,15.65-4.4,23.5-6.48,3.94-1.05,8.36-1.54,12.21-2.66.46-.13,4.03-1.04,3.15-1.89Z"/><rect class="cls-1" width="251.92" height="213.34"/></g></svg>