<?xml version="1.0" encoding="UTF-8"?><svg id="Capa_2" xmlns="http://www.w3.org/2000/svg" width="88.87mm" height="75.26mm" viewBox="0 0 251.92 213.34"><defs><style>.cls-1{fill:none;}</style></defs><g id="Capa_1-2"><path d="M176.33,159.31c-.49.34-1.83-.38-2.54-.29-23.82,2.96-47.94,4.84-71.89,6.94-15.11-5.94-31.3-9.59-46.5-14.9-2.9-1.01-3.98-4-4.22-6.81-1.19-14.01,1.19-29.47-.97-43.65-.32-8.49.29-17.02.52-25.43.07-2.52-.48-13.81.11-15.02.78-1.61,4.19-2.36,5.88-2.5,22.15-1.9,45.07-.63,67.16-4.26,16.5,5.33,33.43,9.64,49.6,16.02.5.45,2.24,4.93,2.37,5.78,3.58,23.95.95,51.47.97,75.76,0,2.98,1.21,5.36-.49,8.36ZM122.17,59.57c-.44-.44-5.39.96-6.5.98-15.83.18-31.5-.44-47.47-.03l-5.98,1.45c11.13,1.94,21.7,6.09,32.61,8.88,1.79.46,3.85.42,5.4.83,1.26.33,2.58,1.71,3.44,1.75,3.92.18,10.63-1.46,14.9-1.87,1.35-.13,2.73.07,4.07,0l-.48-11.99ZM126.97,59.57v11.51l31.66-2.16-31.66-9.35ZM96.75,78.28c-13.35-3.24-26.49-7.16-39.33-12-1.4,25.67-1.24,51.35.47,77,.42,2.27,5.09,1.76,6.97,1.7,8.68-.26,17.2-.87,25.86-.96.87,0,6.73-.75,6.91-1.05.25-3.88-.11-7.8.07-11.68.76-16.42-.41-31.64-.94-48-.06-1.77-.95-3.14-.02-5.01ZM168.7,76.36l-42.21,2.4,1.5,63.27c4.57,1.39,9.35,1.79,13.95,3.07,2.86.8,5.55,2.11,8.61,2.9,5.58,1.43,11.55,1.98,17.18,3.2l.96-74.84ZM122.65,79.23c-5.13.39-10.18,1.31-15.35.96v61.88s15.35-.95,15.35-.95v-61.89ZM97.66,147.89c-9.43-.04-18.87-1.22-28.25.19l28.54,7.44c.56.03.25-6.74-.28-7.63ZM107.3,147.36v8.64l41.73-3.12c-9.68-.65-19.47-4.97-29-5.54-4.18-.25-8.54.22-12.73.02Z"/><rect class="cls-1" width="251.92" height="213.34"/></g></svg>