<?xml version="1.0" encoding="UTF-8"?><svg id="Capa_2" xmlns="http://www.w3.org/2000/svg" width="88.87mm" height="75.26mm" viewBox="0 0 251.92 213.34"><defs><style>.cls-1{fill:none;}</style></defs><g id="Capa_1-2"><path d="M206.94,58.25c1.1,1.33.48,8.91.58,11.17.94,19.4.33,38.65.45,58.03.05,8.37,1.35,10.07-.76,18.78-.13.52.51,1.28.12,2.08-.17.34-3.27,2.33-3.76,2.51-2.19.83-8.42.41-11.16.39-22.81-.11-45.76-.72-68.58-1.48-21.61.88-43.32.51-64.72,2.42-2.15.19-10.17,2.13-11.32.16-.38-.65-.22-1.58-.48-2.2-.16-.38-1.82-.84-.62-1.81h1.62c-.98-2.02-1.74-3.67-1.93-5.97-1.47-16.99.76-35.22-1.44-52.29l.5-30.48c1.83-.31,1.59.69,2.15,1.92.45-.02,0-.82.56-.97,5.85-1.56,14.09.07,20.04-.98,43.63-.64,87.05-1.95,130.48-2.33,2.07-.02,3.27-.86,5.53-.3.29.07,2.64,1.22,2.74,1.34ZM194.11,65.32c-4.23.5-8.46.57-12.73.5-33.35-.55-66.82-.26-100.2,0-7.81.06-15.52.03-23.28.46l4.8,77.72c4.44-.96,9.14-.32,13.69-.46,28.78-.89,57.25.93,85.84-.97l32.37-.97c-1.61-19.24-.8-38.56-.5-57.82.02-1.13.51-2.19.52-3.32.03-5.08-.43-10.07-.5-15.13ZM57.43,144c-.05-2.15.07-4.32,0-6.47-.67-18.6-2.07-37.08-2.41-55.63-.09-5.08.22-10.13-.67-15.16l-2.67-.45c-.66,5.15.66,10.19.95,15.12.95,15.82,1.38,31.65,1.9,47.51.17,5.01,1.61,10.25.02,15.09h2.88Z"/><rect class="cls-1" width="251.92" height="213.34"/></g></svg>