<?xml version="1.0" encoding="UTF-8"?><svg id="Capa_2" xmlns="http://www.w3.org/2000/svg" width="88.87mm" height="75.26mm" viewBox="0 0 251.92 213.34"><defs><style>.cls-1{fill:none;}</style></defs><g id="Capa_1-2"><path d="M198.84,79.3c-.65,2.96-1.01,5.18-.91,8.35.34,11.93,1.59,24.01,1.96,35.94.39,12.47-.3,25.51.43,37.95.11,1.84,1.68,1.38-.2,3.59-1.22,1.43-1.97,1.76-3.82,1.93-5.21.48-11.45-.17-16.83-.04-39.27.91-78.65,1.55-117.95,2.44-5.34.12-12.84-.73-17.79-.05-1.85.25-4.44,3.79-5.03-1.15-.78-6.58.25-15.24.04-22.11-.59-19.54-.61-39.01-.54-58.51,0-.8.65-5.52.99-5.77,1.83-1.34,5.75-.56,7.95-.69,46.42-2.83,94.79-1.6,141.48-2.4,3.34-.06,6.95-1.53,10.23.52ZM89.98,88.4l-46.47-2.45c-.03,7.92.05,15.85.02,23.77-.03,10.69.17,21.39.48,32.1.2,6.8.15,13.62.46,20.41,11.27-.75,22.46-3.21,33.8-3.86,2.16-.12,11.66.52,12.5-.45,1.23-1.45,1.25-9.14,1.21-11.3-.28-16.02-1.37-31.92-1.44-47.98-.01-3.2-.94-6.86-.55-10.24ZM145.19,90.75l-17.51.39c-4.47-.07-8.99-1.11-13.41-1.36-5.74-.33-11.45,1.36-17.04-.46l1.92,71.48,5.27-.47-2.87.95c14.7-.6,29.49-1.62,44.05-3.42l-.41-67.1ZM188.84,89.31l-41.73,1.44.97,67.16c1.62-.4,3.88-.87,5.52-.95,8.6-.47,17.3-.42,25.89-.97,3.35-.21,7-1.77,10.31-.48.4-3.44-.81-6.94-.97-10.29-.77-15.95,0-32.1.04-47.97,0-2.65-.05-5.3-.02-7.94Z"/><rect class="cls-1" width="251.92" height="213.34"/></g></svg>