<?xml version="1.0" encoding="UTF-8"?><svg id="Capa_2" xmlns="http://www.w3.org/2000/svg" width="88.87mm" height="75.26mm" viewBox="0 0 251.92 213.34"><defs><style>.cls-1{fill:none;}</style></defs><g id="Capa_1-2"><path d="M209.63,148.5c-.49.38-.55,1.55-1.82,1.29-11.86.09-23.68-.82-35.54-.53-2.43.06-5.78,1.03-8.13,1.02s-5.32-.93-7.65-1.02c-15.13-.6-29.05-.26-44.08,1.52-4.64.55-10.53,2.36-14.93,2.38-7.68.03-15.81-1.33-23.53-1.02-9.45.39-18.94,2.55-28.75,1.93-1.46-.09-4.74-.38-5.98-.75-2.58-.76-3.23-6.22-3.39-8.58-1.49-21.18.16-45.61.04-67.2-.02-3.08-.61-6.24-.53-9.59.03-1.15.55-8,.74-8.38.34-.68,1.78-1.22,2.52-1.32,2.72-.38,7.93-.03,10.94-.09,7.62-.14,14.45,1.19,22.04.94,9.79-.33,19.41-1.85,29.28-1.45,21.24.85,42.5,1.4,63.79.52,13.63-.56,27.51-2.6,41.24-1.47.57.05,5.15,1.07,5.48,1.25,1.68.94.11,1.89.1,3.31-.04,10.83.88,21.76.86,32.61-.03,14.82,1.52,31.64.52,46.1-.24,3.55-.39,6.33-3.2,8.56ZM72.77,64.84l-28.78.96.48,78.19c1.69.05,3.33.72,5.06.52.92-.11.84-1.36,1.98-1.4.8-.03,1.23,1.18,2.77,1.39,5.28.72,11.33-1.93,16.83-.95l.6-.14c2.16-4,2.14-8.59,2.02-13.08-.32-12.09-.83-24.44-.98-36.45-.12-9.68.13-19.37.03-29.04ZM204.18,64.85l-31.65.95.49,75.8c9.92-2.61,20.1-.66,30.19-.99.6-3.55-.09-7.13,0-10.79.44-16.72,1.73-33.64,1.96-50.33.07-5.04-1.31-9.62-.98-14.65ZM162.41,66.33c-15.63-1.51-31.49.21-47.21-.03-9.86-.15-21.81-1.9-31.52-.37-1.12.18-1.57.3-2.08,1.31l-2.59-.48-.46,23.29c-.23,11.35.14,21.76.48,33.06.21,7.06-1.43,14.7,2.42,20.86.35.26,4.48-.92,5.5-.94,7.68-.17,15.11-1.81,22.02-1.93,3.22-.06,6.9.92,10.07,1,11.34.3,22.33-.18,33.6-.97,3.67-.26,7.14.32,10.79-.97l-1.01-73.82Z"/><rect class="cls-1" width="251.92" height="213.34"/></g></svg>