<?xml version="1.0" encoding="UTF-8"?><svg id="Capa_2" xmlns="http://www.w3.org/2000/svg" width="88.87mm" height="75.26mm" viewBox="0 0 251.92 213.34"><defs><style>.cls-1{fill:none;}</style></defs><g id="Capa_1-2"><path d="M195.49,49.56c1.6,6.05-.37,12.05-.44,17.9-.04,3.37.91,6.84,1,10.08.46,16.19-.29,32.33-.04,48.49.06,3.95,1.8,8.86-.96,12.43-21.4,9.23-42.48,19.28-63.29,29.76-3.23,1.62-6.11,3.89-9.41,5.46-8.71,4.12-12.04,4.49-21.37,2.81-13.02-2.35-26.83-5.24-39.71-8.25-2.59-.61-15.85-3.57-17-4.59-4.56-4.07-2.3-10.97-2.16-16.03.38-13.91-.77-29.09-1-43.21-.12-7.11-1.71-22.51.37-28.42,1.56-4.43,5.35-3.66,9.24-5.15,21.54-8.26,42.68-19.71,63.62-29.43,2.47-1.15,13.71-6.74,15.34-6.78,1.15-.03,4.78,1.82,6.39,2.19,17.57,3.98,37.6,5.69,54.82,10.89,1.55.47,2.97,1.55,4.62,1.85ZM180.68,51.42l-47.48-10.56,1.44,32.62c12.71-4.96,24.73-11.38,37.25-16.71l8.79-5.35ZM128.88,41.34c-13.4,3.68-25.26,11.3-37.71,17.2-8.77,4.15-17.97,7.47-26.72,11.65-3.98,1.9-8.4,3.88-11.82,6.64,17.97,2.35,35.68,6.31,53.5,9.53l24.69-11.29-1.94-33.74ZM189.79,57.17c-19.29,5.49-36.05,16.93-55.1,23.09l2.81,40.01,52.77,10.3c-.61-5.04-.32-10.07-.46-15.13-.1-3.82-.47-7.65-.52-11.47-.2-15.62.58-31.19.5-46.79ZM104.83,133.85c-.43-4.7,1.02-38.57-.39-39.99-1.02-1.03-6.91-.99-8.75-1.32-8.77-1.58-17.62-4.61-26.64-5.97-4.86-.74-11.49-.42-15.93-1.82-2.13-.67-4.12-2.65-6.72-2.16l4.32,75.8c1.75-.85,3.16-2.68,4.94-3.45s3.56-.57,5.12-1.11c8.91-3.07,16.73-8.36,25.23-12.18,6.16-2.77,12.86-4.48,18.82-7.8ZM130.8,84.52l-18.68,7.69-.97,38.36,21.04-11.08-1.39-34.96ZM114.02,167.98c.59.6,9.47-4.53,10.86-5.21,16.79-8.15,33.59-16.56,50.68-24.14,2.81-1.25,6.09-1.28,7.99-3.99-.4-.67-1-.59-1.59-.79-9.66-3.26-20.7-4.72-30.64-6.77-5.48-1.13-10.92-2.44-16.36-3.74-2.52,3.66-7.8,4.14-11.53,5.85-1.54.71-11.51,5.83-11.73,6.49l2.32,32.3ZM105.86,168.94l-.45-29.05-.74-1.64-44.36,21.82c-.21,1.14.51.58,1.18.72,6.46,1.4,12.88,2.79,19.33,4.18,8.07,1.74,16.96,2.01,25.04,3.97Z"/><rect class="cls-1" width="251.92" height="213.34"/></g></svg>