<?xml version="1.0" encoding="UTF-8"?><svg id="Capa_2" xmlns="http://www.w3.org/2000/svg" width="88.87mm" height="75.26mm" viewBox="0 0 251.92 213.34"><defs><style>.cls-1{fill:none;}</style></defs><g id="Capa_1-2"><path d="M164.31,49.56c.26,1.15-.13,2.36.09,3.51,3.38,18.02,1.13,38.12,1.88,56.65.31,7.7,3.7,24-.52,30.15-.46.66-1.33.9-1.79,1.57-3,4.38-18.55,28.77-21.53,29.8-1.15.4-6.69,1.1-8.04,1.11-4.03.03-10.56-1.81-15.34-1.99-15.04-.57-30.44-1.09-45.57-1.44-3.28-.08-5.8,1.95-7.21-2.83-1.67-5.65-.46-15.18-.69-21.38-.81-22.63-2.96-45.37-1.33-67.97,4.81-7.35,10.26-14.48,14.94-21.99,1.12-1.8,3.47-7.84,5.35-8.12.7-.1,3.88-.06,4.77-.04,15.99.48,31.97,1.2,47.96,1.95,7.97.38,16.69-.1,24.48.46.89.06,1.75.16,2.55.57ZM158.14,53.33c-3.58-.14-7.22.18-10.81.02-14.84-.65-29.76-2.26-44.56-2.92-2.59-.12-12.13-.27-13.89.92l1.16,25.96,13.21-.02c5.47-.11,11.25.46,16.75.52,7.33.08,14.67-.03,22-.1l16.14-24.38ZM86.2,77.31l-1.43-23.5-12.95,22.54c4.83-.07,9.66-.12,14.38.96ZM161.98,132.97l-1.2-70.52c-2.06,2.58-3.98,5.39-5.72,8.19-2.97,4.78-5.1,10.63-9.15,14.36l2.17,31.88-.02,17.05,13.91-.96ZM87.16,84.51l-16.31-1.44,2.41,68.6,14.28-18.09c.45-16.39-.18-32.73-.38-49.07ZM140.88,133.93l-2.37-48.25-47.51-.69,1.97,49.36c1.17.24,2.32.6,3.54.57,4.49-.1,10.02-1.54,14.39-1.53,1.51,0,2.61.86,4.29,1.03,7.96.82,17.63-.42,25.69-.5ZM140.88,139.2l-12.73.5c-10.07-.22-20.73-1.69-30.66-1.96-8.96-.24-10.84,7.35-15.2,13.62-2.26,3.24-5.26,6.1-7.12,9.67l31.44.22c11.37.87,22.9,1.61,34.27.5v-22.55ZM148.07,139.2v11.27c0,.1.45,1.87.95,1.68l9.6-13.42-10.55.47Z"/><rect class="cls-1" width="251.92" height="213.34"/></g></svg>