<?xml version="1.0" encoding="UTF-8"?><svg id="Capa_2" xmlns="http://www.w3.org/2000/svg" width="88.87mm" height="75.26mm" viewBox="0 0 251.92 213.34"><defs><style>.cls-1{fill:none;}</style></defs><g id="Capa_1-2"><path d="M210.83,74.51c.39,7.23.21,14.54.53,21.77.78,17.95,1.72,36.17,1,54.21-.09,2.37-.21,7.5-.61,9.47-.19.96-1.94,4.06-2.78,4.47-.67.48-1.24-.53-1.66-.52-10.08.04-20.2.87-30.23,1.2-41.64,1.37-83.24,2.49-124.93,2.64-1.78,3.51-2.44.6-3.69.32-.66-.15-1.33.46-2.05.18-1.73-.67-2.76-5.9-2.9-7.68-.9-11.34.48-23.24.52-34.54.05-15.09-1.36-31.62-.01-46.54.62-6.8,1.81-3.74,5.06-3.15,5.9,1.07,19.07-1.57,25.85-1.91,18.15-.91,36.52-1.03,54.72-1.4,21.72-.44,43.42.38,65.23,0,3.57-.06,6.09-1.21,9.95.08.81.27,1.6,1.15,2.13,1.25,1.03.2,2.63-.91,3.9.16ZM205.62,78.75l-.72-.95-1.17.74.94,10.29.91-4.02c.01-1.51-2.24-5.85.04-6.06ZM202.26,78.76l-150.32,4.26c-.98,8.41-.76,16.82-.27,25.23.67,11.63,1.86,21.77,1.89,33.56.02,5.87,1.59,12.28-.46,17.76.27,1.34,5.22-.12,6.48-.22,15.73-1.27,33.71-2.15,49.37-1.91,19.87.32,40.62-.17,60.47-1.44,10.65-.68,21.24-2.61,31.88-3.38l.95-73.88Z"/><rect class="cls-1" width="251.92" height="213.34"/></g></svg>