<?xml version="1.0" encoding="UTF-8"?><svg id="Capa_2" xmlns="http://www.w3.org/2000/svg" width="88.87mm" height="75.26mm" viewBox="0 0 251.92 213.34"><defs><style>.cls-1{fill:none;}</style></defs><g id="Capa_1-2"><path d="M203.13,72.13c.25.82.49,1.7.57,2.55,1.4,16,.19,32.95.95,48.95.26,5.63,1.6,11.7,1.93,17.26.35,5.84-1.37,10.52-3.23,15.95-1.75,1.02-2.72,2.87-4.44,3.72-3.03,1.5-7.51,2.27-10.81,3.58-9.58,3.79-20.03,9.43-29.49,12.72-7.75,2.7-21.39-1.63-29.45-3.63-23.23-5.76-47.92-12.62-70.67-19.98-2.53-.82-14.29-5.74-15.3-5.8-.71-.05-1.1.98-2.19.81-1.64-.26-2.5-2.72-3.27-3.98-2.95-17.08-.81-34.21-2.76-51.36l.38-30.23,3.02-3.75c.94-.39,1.22.72,2.26.46,5.13-1.27,14.37-7.13,19.82-9.5,7.58-3.29,15.56-5.62,23.09-9.05,17.26,2.2,33.5,8.49,50.5,11.88,5.58,1.11,11.92,1.49,17.39,2.75,8.33,1.92,18.08,6.46,26.47,9.03,5.57,1.7,12.01,2.75,17.54,4.53,2.81.9,4.97,2.42,7.69,3.1ZM178.76,77.79c-.06-.68-.7-.75-1.18-.97-9.13-4.18-18.91-6.84-28.45-9.93-3.79-1.23-7.4-3.02-11.25-4.09-10.76-3.02-22.9-3.8-33.66-6.63-5.13-1.35-9.74-3.89-14.66-5.72l1.17,18.74c.54,1.66,4.92,3.33,6.62,3.94,10.31,3.65,22.76,5.5,33.46,8.26,5.27,1.36,12,4.19,17.16,4.95.89.13,1.8-.41,2.22-.31.71.16.82,1.61,1.52,1.79.57.15,10.01-2.92,11.36-3.41,5.25-1.92,10.29-5.27,15.69-6.61ZM81.88,53.81l-7.57,1.3-20.73,7.81,28.77,5.76-.48-14.87ZM82.32,76.4c-12.12-2.73-24.42-4.54-36.19-8.62-1.98,2.08-3.69,5.37-3.6,8.34.26,8.13,2,16.35,2.42,24.46.66,12.54-1.11,25.25,1.45,37.65l36.91-16.33-.99-45.51ZM147.04,96.09l-55.08-17.34,3.4,35.45c8.81,3.32,18.75,4.84,27.41,8.32,7.75,3.11,14.91,8.19,23.37,9.48l.89-35.91ZM193.59,80.73c-.62-.32-1.09-.31-1.76-.2-4.52.74-11.98,4.66-16.65,6.4-3.52,1.31-9.6,2.35-12.59,4.2-1.91,1.18-4.45,5.38-6.6,6.83l.23,35.97c3.97.16,8.09,1.13,11.88,2.27,5.33,1.59,10.77,5.09,15.83,6.23,4.29.97,9.14.57,13.54,1.09-2.35-20.88-3.24-41.81-3.89-62.79ZM147.59,167.5l-1.9-21.84c-6.36-.94-12.11-4.47-17.98-6.48-7.96-2.73-16.91-4.52-25.09-7.05-3.83-1.19-10.08-4.22-13.54-4.75-1.11-.17-1.29.62-1.77.7-.64.1-1-.84-1.58-.65-.72.24-2.86,2-4.15,2.59-9.89,4.5-20.16,8.53-30.38,12.07l45.18,12.12,44.39,13.21c2.43-.35,4.4-.59,6.82.08ZM186.92,156.48c-10.63-.82-19.36-8.12-30.21-9.12l1.44,22.07,28.77-12.95Z"/><rect class="cls-1" width="251.92" height="213.34"/></g></svg>