<?xml version="1.0" encoding="UTF-8"?><svg id="Capa_2" xmlns="http://www.w3.org/2000/svg" width="88.87mm" height="75.26mm" viewBox="0 0 251.92 213.34"><defs><style>.cls-1{fill:none;}</style></defs><g id="Capa_1-2"><path d="M202.67,70.68c.8.5.74,5.58.51,6.8-.69,3.64-3.24,7.32-4.04,10.38-.68,2.6.2,16.9.3,20.83.33,12.95,1.87,27.07,1.77,39.87-.02,2.59-.41,6.18-.83,8.67-1.13,1.6-3.71.73-4.61,1.63-.99.99-1.69,7-4.99,5.54-1.2-.53-4.31-3.89-4.66-4.01-.75-.26-3.3-.17-4.26-.09-2,.16-4.25,1.51-5.26,1.51-1.37,0-3.41-1.13-6.25-1.03-15.13.55-30.38,2.64-45.54,3.38-25.88,1.27-51.99,2.22-78.2,2.86-2.49.06-5.24,1.29-7.83-.05l-4.57-89.69,1.94-.73c18.14-.41,37.57-5.22,55.53-5.47,27.51-.38,55.03-1.51,82.53-2.36,5.35-.17,19.47-2.19,23.58-.12.93.47,1.53,1.42,2.52,1.8.74.29,1.93.03,2.34.29ZM185.96,73.96h-5.75c1.22,5.48-1.66,10.8-1.91,16.31l7.67-16.31ZM165.82,75.4l-20.15.95c-.13,4.73.51,9.45.76,14.15,1.09,20.74,1.39,42.17,4.56,62.81.08.55.8,3.11,1.23,3.2l13.61-1.48c-5.82-8.46-6.41-20.4-6.45-30.46-.05-12.67,1.74-25.76,3.14-38.33.39-3.47,1.83-7.68,3.31-10.84ZM147.59,156.47c-.11-8.09-1.44-16.15-1.92-24.23-.61-10.35-.05-20.75-1.46-31.16l-.19-24.28c-1.46-1.21-3.35.03-4.83.03-13.77.01-27.83,1.2-41.81,1.14-.85,0-1.68.33-2.53.32l5.8,81.46c4.48.73,8.83-.92,13.13-1.37,11.22-1.16,22.53-1.61,33.81-1.92ZM91.96,160.31l-3.57-82.55c-.34-.49-.93-.41-1.45-.47-14.7-1.78-31.42,1.82-46.06,2.45-1.13.05-2.11.02-3.12-.51l6.92,83.98,1.44.47c15.16-2.52,30.43-3.96,45.83-3.38Z"/><rect class="cls-1" width="251.92" height="213.34"/><rect class="cls-1" width="251.92" height="213.34"/></g></svg>