<?xml version="1.0" encoding="UTF-8"?><svg id="Capa_2" xmlns="http://www.w3.org/2000/svg" width="88.87mm" height="75.26mm" viewBox="0 0 251.92 213.34"><defs><style>.cls-1{fill:none;}</style></defs><g id="Capa_1-2"><path d="M203.59,72.15c1.15.91.5,6.27.07,7.76-.74,2.6-4.02,8.05-4.29,10.09s.47,3.87.52,5.76c.26,10.72-.15,21.48-.04,32.18.08,7.75.77,15.7.5,23.49-.07,2.07.75,6.72-1.45,7.66-1.13.48-2.48-.03-3.36.48-1.36.8-1.44,6.1-4.55,5.97-2.14,0-5.03-4.21-5.37-4.29-.77-.19-5.7-.14-6.6.03-1.2.23-1.96,1.59-3.36,1.44-.97-.11-1.3-1.14-2.03-1.36-1.98-.61-16.3.63-19.56.87-3.99.3-6.45.84-10.55.91-12.6.23-25.67,1.28-38.37,1.52-18.71.35-38.02.53-57.1.91-3.27.07-6.83,1.27-10.24-.03-.25-7.88-.16-15.84-.51-23.72-.96-21.76-2.97-43.42-2.45-65.24l.35-.75c.61-.32,1.14-.69,1.84-.83,3.06-.61,8.2-.27,11.52-.57,17.26-1.6,32.99-3.26,50.34-3.33,29.37-.13,58.81-1.48,88.29-1.92,7.5-.11,6.93-1.6,14,2.27.72.4,1.99.36,2.41.7ZM186.92,74.92h-5.76c-.1,2.87-.05,6.5-.53,9.3-.43,2.49-1.71,4.54-1.86,7l8.15-16.31ZM163.42,75.88l-17.26.96.96,23.02,11-20.76c1.54-1.57,4.76-.48,5.3-3.22ZM89.08,76.83c-8.17-.5-16.51-.8-24.72-.5-3.11.11-6.44.3-9.57.5-5.04.34-10.48,2.08-15.57,1.14l-.98.54,2.86,28.3c-.76,11.16.6,22.07,1.44,33.1.57,7.43.99,14.88,1.44,22.3l27.56-2.9,19.93.5-2.4-83ZM144.71,76.84l-49.34,1.19c.79,5.3.56,10.91.91,16.32,1.02,16.09,1.93,32.32,2.87,48.46.3,5.09.09,10.23.5,15.33l.95,1.46,33.09-2.65c-2.41-4.74-1.15-9.88-.26-14.89,1.54-8.7,4.61-18.16,7.57-26.49.56-1.56,3.72-7.89,3.72-8.75v-29.98ZM164.86,155.51l-2.53-5.38-2.74-11.4c-.77,6.06-.97,12.06-3.36,17.75l8.63-.96Z"/><rect class="cls-1" width="251.92" height="213.34"/></g></svg>