<?xml version="1.0" encoding="UTF-8"?><svg id="Capa_2" xmlns="http://www.w3.org/2000/svg" width="88.87mm" height="75.26mm" viewBox="0 0 251.92 213.34"><defs><style>.cls-1{fill:none;}</style></defs><g id="Capa_1-2"><path d="M164.98,151.04c-4.23-1.93-10.41-.38-15.21-.31-15.81.24-31.74-.62-47.48.48l-31.37-.92-.57,1.84c-1.42,1.01-5.01-3.59-4.78-5.01.29-22.43-1.32-44.79-.97-67.19.06-3.86,1.03-8.48.52-12.47-.18-1.44-1.34-2.23-1.4-2.94-.05-.51,2.94-4.43,2.34-5.92,2.92,1.25,2.16-.7,3.58-.97,4.47-.84,10.29-.29,14.91-.45,30.62-1.02,63.64-.58,94.48-.04,1.74.03,3.31.71,5.29.53,3.34-.3,5.27-3.63,5.96,3.09,1.13,11.12,1.42,24.27,1.47,35.51.06,15.45-1.83,31.43-1.38,47.01.04,1.27,1.05,2.12.8,3.7-.13.81-1.1,3.26-2.06,3.25-6.2.55-13.66-.76-19.69-.02-1.54.19-2.92,1.5-4.42.82ZM110.04,65.95c-1.44-1.17-15.33-.57-18.35-.6-1.13-.01-2.18-.5-3.32-.52-5.12-.08-9.61.34-14.65.98l.48,3.36-1.91-1.44c.49,1.73.55,3.26.49,5.06-.43,13.21-3.08,25.73-2.43,39.33.28,5.93,2.31,12.91,2.43,18.24.06,2.41-1.82,9.73.95,11.03.7.33,1.48-.35,2.13-.25,4.85.75,10.28.42,15.35.48,4.88.06,10.05-.28,14.86.49,3.07.49,3.13,2.46,5.27-1.97.58-17.35.58-34.65.72-52.04.02-2.79-.56-9.12-.27-11.04.09-.62,1.26-.87,1.28-2.35s-1.01-3.52-.47-5.28c-2.32-.05-1.13-2.3-2.57-3.48ZM165.33,65.81c-1.4-.24-2.72.53-4.07.52-11.07-.14-22.46-1.55-33.59-1.02-2.29.11-4.69.92-7.14.47,0,1.38-1.44,1.7-1.64,2.25-1.22,3.42,1.51,13.9.42,18.19.05,16.58-1.9,35.33-.52,51.81.11,1.26.23,2.68,1.23,3.58,2.17-1.82,2.43-.21,3.85-.02,5.62.73,9.66,1.45,15.31,1.44,8.29-.01,16.52.28,24.72-.94l1.43-76.28ZM183.56,65.32l-10.07.49.96,74.83c2.61.01,4.86-.49,6.96,1.36,2.7-.19,1.14-10.94,1.17-13.13.29-19.61,1.4-39.35,1.5-58.99,0-1.45-.82-2.99-.52-4.56Z"/><rect class="cls-1" width="251.92" height="213.34"/></g></svg>