<?xml version="1.0" encoding="UTF-8"?><svg id="Capa_2" xmlns="http://www.w3.org/2000/svg" width="88.87mm" height="75.26mm" viewBox="0 0 251.92 213.34"><defs><style>.cls-1{fill:none;}</style></defs><g id="Capa_1-2"><path d="M173.17,48.37c.31.36.95.49,1.22.92,1.12,1.8.42,9.28.52,11.97.8,21.15.61,42.59,1,63.76.08,4.36.58,10.65-2.17,14.19-13.74,10.86-26.84,22.85-40.84,33.02-9.52-1.18-19.12-1.11-28.71-1.85-10.86-.85-21.76-2.56-32.62-3.35-4.35-.32-8.8.5-13.09-.58-.47-.97-.95-1.91-1.07-3.01-.97-8.69-.1-19.83-.45-28.82-.27-7.15-.77-14.36-.98-21.56-.25-8.65-1.07-17.7-.49-26.41.07-1.13.5-5.1.94-5.78.4-.62,1.37-.85,1.79-1.33,11.45-13.17,25.58-24.59,38.89-35.73,8.74.64,17.47-.3,26.28-.1,13.21.31,28.56.74,41.7,1.94,1.42.13,6.1.65,7.13,1.02.86.32.56,1.23.95,1.68ZM164.38,52.84c-.08-.64-.65-.84-1.22-.94-13.67-2.2-27.97-1.6-41.73-2.4-3.78-.22-7.86-1.18-11.5-1.45-3.26-.24-6.91-.88-7.45,3.09-.69,5.11-.45,15.99-.41,21.56.02,2.36.88,5.38.43,7.97,3.42.15,6.91-.2,10.33-.02,5.39.29,11.67,1.84,16.79,1.96,1.67.04,2.81-.73,4.06-1.69,5.19-3.99,10.73-11.18,15.81-15.85,4.29-3.95,9.12-7.43,13.42-11.53.39-.37.91-.7,1.46-.7ZM97.71,80.2c.11-6.15-.14-12.33-.02-18.49.07-3.49.93-7.35.52-11.04-.08-.73-.05-1.19-.74-1.65l-30.93,29.02,31.17,2.16ZM168.22,132.49c-.03-5.43.79-10.63.96-16.07.51-16.1-.33-32.22-.5-48.44-.03-3.22.54-6.19.49-9.38-2.16,1.67-3.01,3.5-6.02,3.81-8.14,7.83-16.95,15.13-24.45,23.52-2.89,6.68-2.09,14.97-2.17,22.3-.08,7.44.1,14.89.02,22.33,6.93-.72,13.56,1.99,20.39,2.39,3.79.22,7.51-.24,11.27-.47ZM97.71,88.83c-2.49.76-4.56-.37-6.94-.49-3.61-.18-7.45.27-11.04.01-5.2-.37-10.35-2.13-15.59-2.39.94,2.38-1.15,4.2-1.43,6.96-.36,3.48-.1,8.39-.03,12.01.2,9.55,1.5,19.18,1.96,28.74.28,5.81-.92,11.66-.52,17.31.06.84.55,5.02,1.22,5.01l33.23-25.99c.07-6.43.25-12.91.12-19.35-.11-5.66-.62-11.6-.98-17.25-.08-1.21.64-2.99,0-4.56ZM127.45,130.09l1.46-18.93-.71-19.48c-4.99-1.83-10.26-1.48-15.34-1.93-1.08-.1-2.12-.79-3.39-.92-1.03-.11-5.98-.13-6.41.55l.14,38.34,24.25,2.37ZM127.45,134.88c-8.45.5-16.72-2.1-25.09-2.3-2.94,2.65-5.72,5.48-8.74,8.04-7,5.93-15.64,11.61-22.25,17.56-.43.38-1.12.68-.99,1.39l57.55,3.61-.48-28.31ZM136.56,135.84v23.99l25.42-20.87-25.42-3.12Z"/><rect class="cls-1" width="251.92" height="213.34"/></g></svg>