<?xml version="1.0" encoding="UTF-8"?><svg id="Capa_2" xmlns="http://www.w3.org/2000/svg" width="88.87mm" height="75.26mm" viewBox="0 0 251.92 213.34"><defs><style>.cls-1{fill:none;}</style></defs><g id="Capa_1-2"><path d="M66.81,167.24c-1.33-1.25-1.56-1.92-1.74-3.79-.87-9.53-.45-23.22-.47-33.11-.05-17.51,1.32-35.1.02-52.55.55-.06,1.41.19,1.84-.08.32-.2,3.03-5.54,3.72-6.6,5.24-8.18,10.39-16.42,15.82-24.48.66-.63,2.03-1.25,2.91-1.31,5.53-.37,12.44.96,18.18.3l58.28,3.11c.32.22.86,6.51.92,7.71,1.32,26.08.22,52.37,1.42,78.22.04.94.86,1.58.77,2.16-.17,1.05-3.55,6.74-4.38,8.09-3.86,6.32-13.57,21.42-18.43,26.18-3.08,3.01-5.38,1.27-8.85,1.19-22.51-.54-42.79-1.15-65.25-3.82-2.62-.31-2.58.81-4.76-1.23ZM158.62,53.34c-11.12-.71-22.21-1.85-33.35-1.94-5.16-.04-10.65.46-15.81.49-6.69.04-13.27-.69-19.9-1.43v26.86c8.9,1.79,18.07.62,27.12.94,2.07.07,4.65.89,6.7.97,5.9.25,11.84-.45,17.69.52,1.98-3.73,4.55-7.33,7.1-10.74,2.53-3.39,6.78-7.51,8.58-11.09.75-1.49.44-3.25,1.89-4.59ZM71.33,77.8h8.39c1.31-.89,5.89-.2,6.41-1.74l.3-21.29-15.11,23.03ZM145.67,135.36h14.15c.15,0,1.65-2.16,1.78-2.53.95-2.65-.08-4-.12-6.32-.34-17.63.28-35.26-.46-52.79-.04-.99.2-8.86-.24-8.87l-15.58,23.28.47,47.24ZM135.12,90.75c-2.63.41-5.03-1.78-7.5-1.89-9.74-.44-19.5.65-29.19-1.94l-8.39.47v46.54s23.24,1.46,23.24,1.46l22.32-.02-.48-44.61ZM85.72,87.87h-9.83c-.1,0-.54-.72-.71-.48.03,8.11.33,16.11.48,24.22.11,6.06-.29,12.35-.02,18.25.26,5.65,1.58,11.29.98,17.01,1.91-1.37,8.52-9.48,8.63-11.31.07-1.16-.86-1.84-.9-2.82-.17-4.1.84-9.73.92-13.92.19-10.34-.14-20.66.46-30.96ZM135.6,141.12c-15.57.34-31.16-3.06-46.69-1.36l-4.35,5.72-7.47,12.91c5.22-1.7,10.49.7,15.57.98,8.62.47,18.53-.64,27.38-.04,5.15.35,10.2,2.23,15.57,1.46v-19.67ZM146.15,141.6v17.27l6.62-10.41,2.98-6.14c-3.18-.44-6.36-.92-9.6-.72Z"/><rect class="cls-1" width="251.92" height="213.34"/></g></svg>