<?xml version="1.0" encoding="UTF-8"?><svg id="Capa_2" xmlns="http://www.w3.org/2000/svg" width="88.87mm" height="75.26mm" viewBox="0 0 251.92 213.34"><defs><style>.cls-1{fill:none;}</style></defs><g id="Capa_1-2"><path d="M93.3,48.19c.25.36-.16,1.19.37,1.33s1.45-.14,2.25.08c34.44,9.71,69.56,17.18,103.88,27.31l.57,15.98c.72,20.07.53,40.36.96,60.45.1,4.56.55,8.73-2.41,12.5-13.68,2.39-26.9,6.75-40.38,9.98-4.21,1.01-9.03,1.57-12.57,3.23l-57.26-14.32c-13.4-2.1-28.14-4.33-41.24-8.6-1.75-.57-8.43-2.71-9.29-3.7-1.66-7.23-.72-15.09-.88-22.59-.38-17.5-.84-35.27-.48-52.73.04-2.17-.46-8.92.22-10.34.44-.91,3.04-1.74,4.1-2.14,16.39-6.17,33.61-10.46,49.97-16.74.59-.27,1.84-.2,2.19.31ZM90.51,55.25l-43.16,12.94,43.64,10.08-.48-23.02ZM181.16,80.68c-12.51-3.17-24.98-6.55-37.49-9.75-10.94-2.8-22.63-4.8-33.39-8.34-3.91-1.28-6.28-3.64-11.13-2.54,1.65,5.8-.58,13.85.48,19.43.12.65.14.86.81,1.11,3.89,1.45,10.76,1.37,15.12,2.15s8.92,1.94,13.34,2.97c6.31,1.48,14.14,2.77,19.41,6.32l32.86-11.34ZM90.93,82.18l-47.9-12.06c.24,8.22.16,16.51.46,24.73.48,13.16.95,26.07.52,39.34-.12,3.71-1.36,7.42-.5,11.25,15.95-4.55,31.39-10.93,47.94-13.45l-.52-49.81ZM192.67,152.63l-1.64-68.15c-.5-.73-1.56-.43-2.3-.34-5.73.69-17.52,4.09-23.5,5.78s-10.26,4.04-15.74,6.32c-.14,1.83-1.74,3.78-1.93,5.27-.82,6.43,0,14.18.04,20.63.04,6.17-.25,12.36.19,18.52,4.39,1.15,8.79,2.59,13.21,3.58,5.52,1.23,11.73,1.64,17.01,3.14,4.7,1.33,9.82,3.93,14.65,5.25ZM144.65,95.61l-44.54-11.1c.01,15.05-.11,30.2,1.66,45.11,13.27,3.42,26.34,7.93,39.9,10.02l1.64-.17c.87-.62.34-6.66.45-8.19.19-2.7.87-5.94.97-8.62.34-8.99-.24-18.07-.08-27.06ZM143.21,150.78c-10.43-2.61-20.9-5.09-31.32-7.77-2.63-.68-11.66-3.86-13.43-3.81-.23,0-.41.81-.87,1.12-2.09,1.44-2.45.25-4.39.35-2.37.11-8.6,1.53-11.44,2.04-12.03,2.14-23.89,5.44-35.88,7.78l98.08,21.35.27-7.94-1.04-13.11ZM186.44,162.22l-38.37-10.07.48,21.59c12.71-3.61,24.77-9.21,37.89-11.52Z"/><rect class="cls-1" width="251.92" height="213.34"/></g></svg>