<?xml version="1.0" encoding="UTF-8"?><svg id="Capa_2" xmlns="http://www.w3.org/2000/svg" width="88.87mm" height="75.26mm" viewBox="0 0 251.92 213.34"><defs><style>.cls-1{fill:none;}</style></defs><g id="Capa_1-2"><path d="M199.67,161.59c-.07.15-.65.15-.67.22-.13.36.89,1.56-.07,2.1-12.6,5.08-25.82,8.45-38.76,12.58-3.38,1.08-8.59,3.66-11.6,4.23-4.17.78-21.49-4.85-26.97-6.17-18.87-4.54-37.91-8.47-56.71-13.32-8.22-2.12-16.19-5.08-24.63-6.31-3.16-4.15-1.43-8.86-1.53-13.58-.02-1.13-.48-2.18-.52-3.32-.84-24.25-2.62-48.31-1.82-72.62l2.6-1.06,1.75.9c16.19-4.64,32.07-11.21,48.58-14.33,36.35,9.42,72.9,17.98,109.56,26.19,2.16,1.47.33,2.78.26,4.09-.11,2.05,1.08,6.01,1.19,8.37.68,14.28,0,28.42-.02,42.71,0,7.02,2.1,23.58-.65,29.33ZM180.2,82.12c-9.32-1.3-17.91-5.6-26.85-7.92-3.14-.82-6.45-1.1-9.6-1.91-16.17-4.15-32.34-8.25-48.69-11.65-2.02.29-.34,8.56-.23,10.21s-.43,8.02.46,8.65c16.72,3.79,33.55,7.16,50.21,11.18,2.79.67,2.5,2,4.94-.66l29.75-7.89ZM85.72,61.01c-11.79,1.65-23.68,4.4-34.54,9.35l34.54,6.96v-16.31ZM47.83,144.96l40.53-12.94c.46-.77.34-11.85.25-13.7-.3-6.06-1.15-12.11-1.46-18.2l-.93-17.78c-3.86-.14-7.32-1.72-10.96-2.47-5.69-1.16-11.81-1.41-17.37-2.78-4.69-1.15-9.02-3.54-13.9-4.08.22,5.82-.3,11.72-.02,17.53.61,13,1.93,26.31,2.89,39.32.37,5,.22,10.09.97,15.11ZM143.75,144l.25-47.5-49.17-11.99,2.15,46.06c2.62,2.01,5.99,1.05,8.91,1.64,2.21.45,5.11,2.65,7.54,3.49,2.88,1,5.79.98,8.38,1.69,3.82,1.05,7.62,3.33,11.38,4.44,3.45,1.02,7.09,1.24,10.55,2.15ZM192.19,84.99c-13.48,5.4-28.72,5.08-41.99,11.03l-.17,49.36c5.26.89,10.44,2.24,15.67,3.27,2.94.58,6.33.54,9.33,1.22,2.83.64,17.57,6.19,19.08,5.14-1.6-2.8-1.66-6.21-1.43-9.34,1.15-15.56.16-31.76-.51-47.48-.19-4.38.18-8.83.02-13.21ZM143.28,152.16c-8.04-1.88-16.1-3.79-24.09-5.9-4.46-1.18-20.06-6.52-23.16-6.52-1.27,0-9.48,2.07-11.28,2.58-3.63,1.01-7.05,2.7-10.66,3.73-8.2,2.34-16.47,4.74-24.83,6.35l91.84,20.88-.25-3.58,2.41-17.54ZM184.52,162.23l-34.99-8.14c-.11,1.82-.98,4.28-1,6-.03,2.63.88,6.42,1,9.11.06,1.5-.98,2.89,0,4.52l1.05-.08,33.93-11.41Z"/><rect class="cls-1" width="251.92" height="213.34"/></g></svg>