<?xml version="1.0" encoding="UTF-8"?><svg id="Capa_2" xmlns="http://www.w3.org/2000/svg" width="88.87mm" height="75.26mm" viewBox="0 0 251.92 213.34"><defs><style>.cls-1{fill:none;}</style></defs><g id="Capa_1-2"><path d="M198.78,160.67c-1.08,1.15-3.28.78-4.36,1.16-.69.25-.62,1.24-1.12,1.37-.42.11-7.17.84-8.09.89-.24.01-.18-.83-.78-1.06-4.06-1.61-7.15,1.13-9.74,1.17-1.39.02-1.69-1.29-3.33-1.52-2.25-.31-4.23.48-6.24.52-6.04.14-11.59-.14-17.65.57-10.81,1.26-22.92-.76-34.18-.13-2.44.14-4.07.37-5.83,1.45-2.11,1.28-2.14-.45-3.37-.84-3.89-1.24-6.68-.12-9.93-.07-14.24.22-28.52-.24-42.7-.54-4.96-.1-9.74.48-14.65.03l-.88-90.11c.81-1.29,9.35-.92,11.18-1.05,15.49-1.08,31.11-2.06,46.53-2.88,33.01,3.56,68.36-1.49,101.22.94,1.4.1,2.74.24,4.07.73l.48.96c.63,20.43.69,40.96.49,61.43-.03,3.53-.02,7,0,10.51.02,2.34-.18,15.47-1.1,16.45ZM90.52,75.88c-12.72-.75-25.4-1.07-38.15-.5-4.18.19-8.44.89-12.69.5l2.88,83.96c4.06-.1,8.18-.22,12.23-.49,7.38-.49,13.15-1.05,20.61-.93,5.07.08,10.08-.04,15.13.46v-83ZM156.46,156.95c2.62-.15,5.29.11,7.91,0l-.48-1.44c5.41,2.49,11.39.63,16.97,1.47.63-2.23,4.48.45,6.2-.08l2.25-5.04-1.24-1.14.27-1.93c1.06.28.65,2.34,1.68,2.87.83.43,1.49-2.29,1.56-2.75,1.6-11.06.08-29.28.09-41.16.01-8.11.9-16.72-.04-24.87-.36-3.11-1.32-1.82-1.76-2.28s.45-2.73-2.02-2.34l.48-1.43h-5.96s-.28,1.92-.28,1.92c-2.63-.71-14.35-2.08-15.28.8-.75,2.31,2.04,3.95,1.88,6.12-5.35,21.24-7.09,43.31-11.18,64.67-.47,2.48-1.98,4.29-2.28,6.83.26.74,1.06-.23,1.21-.23ZM164.38,77.32h-12.47l1.98.76c2.05,2.85-3.85,15.43-4.95,19.05-.14.47-.78,1.46-.14,1.78,2.06-3.43,8.28-17.96,11.29-19.41,1.32-.64,4.25-.05,4.3-2.18ZM124.57,157.43c-1.43-3.36-3.37-6.65-3.77-10.37-.45-4.17.22-8.28.44-12.39.04-.64.34-3-.5-3.14-.61,4.19-2.4,8.58-2.82,12.77-.48,4.77.55,9.19-2.46,13.61l9.11-.48Z"/><rect class="cls-1" width="251.92" height="213.34"/><rect class="cls-1" width="251.92" height="213.34"/></g></svg>