<?xml version="1.0" encoding="UTF-8"?><svg id="Capa_2" xmlns="http://www.w3.org/2000/svg" width="88.87mm" height="75.26mm" viewBox="0 0 251.92 213.34"><defs><style>.cls-1{fill:none;}</style></defs><g id="Capa_1-2"><path d="M198.78,160.67c-1.4,1.48-4.49.83-6.24,1.19-5.26,1.08-4.86.82-10.16.83-19.49.05-38.99,1.56-58.55,1.48-24.11-.1-48.13-.01-72.38-.52-4.96-.1-9.74.48-14.65.03l-.88-90.11c.81-1.29,9.35-.92,11.18-1.05,15.49-1.08,31.11-2.06,46.53-2.88,33.03,3.53,68.33-1.46,101.22.94,1.29.09,2.86.18,4.01.78,2.28,1.19.73,1.87.74,2.81.31,25.56.98,51.26.28,76.8-.06,2.13-.26,6.11-.54,8.11-.08.53-.19,1.19-.56,1.58ZM90.52,75.88c-12.72-.75-25.4-1.07-38.15-.5-4.18.19-8.44.89-12.69.5l2.88,83.96c4.06-.1,8.18-.22,12.23-.49,7.38-.49,13.15-1.05,20.61-.93,5.07.08,10.08-.04,15.13.46v-83ZM193.63,76.84l-46.05.48.46,60.23,1.96,19.86,43.62-.94c-.07-22.01-1.41-43.9-.98-65.98l.98-13.65ZM146.15,77.31l-49.4-.48,1.92,82.04,21.81-1.46,25.68.02c-.21-6.96-.3-13.92-.46-20.89-.42-17.38-.6-34.87-.04-52.29.07-2.19.92-4.59.5-6.94Z"/><rect class="cls-1" width="251.92" height="213.34"/></g></svg>