<?xml version="1.0" encoding="UTF-8"?><svg id="Capa_2" xmlns="http://www.w3.org/2000/svg" width="88.87mm" height="75.26mm" viewBox="0 0 251.92 213.34"><defs><style>.cls-1{fill:none;}</style></defs><g id="Capa_1-2"><path d="M203.64,61.07c.72,20.76.76,41.71.57,62.56-.05,5.85.17,11.87,0,17.75-.08,2.66-.85,5.69-.6,8.52-1.92,3.49-4.46,1.64-7.34,1.74-15.66.59-31.65,1.82-47.08,3.29-.72.07-1.86-.89-3.27-.9-1.33,0-2.35.74-3.34.77-13.76.35-29.64-2.09-43.09-1.01-15.03,1.21-30.01.58-45.16.27-5.12-.11-10.05.47-15.13.03l-.18-91.2c1.84-1.12,3.63-.28,5.72-.41,3.47-.21,7.06-.76,10.54-.98,42.08-2.64,84.39-1.75,126.59-.94,2.88.05,21.15-.47,21.78.53ZM93.4,65.32c-12.72-.76-25.4-1.04-38.15-.5-1.14.05-2.18.48-3.32.52-3.27.12-6.58-.13-9.85-.02l3.36,84.92,28.04-1.94,19.93.98v-83.96ZM102.51,148.8c1.09-.32,11.8.3,13.66.49,3.93.39,8.08,1.71,11.98,1.93,8.4.47,16.59-3.13,25.2-1.94-.75-3.57.73-7.94.95-11.75.92-15.19.54-31.82,0-47.01-.12-3.58-.68-9.27,4.24-5.67,1.88,21.07.69,42.34,1.06,63.46,2.8.16,5.51.75,8.36.49s5.41-1.81,8.22-1.86c4.66-.08,9.76.62,14.38.4.94-.04,1.22-1.08,1.97-1.31,1.18-.36,2.74.05,3.98-.1-.62-1.64.9-1.83,1-2.6.23-1.71.04-4.89-.02-6.77-.37-10.94-1.19-22.12-1.48-33.06-.25-9.44,1.26-23.43-.45-32.18-.22-1.15-1.13-.95-1.34-1.3-.61-1,.68-2.36-2.51-2.28l.48-1.43c-.36-.3-4.4.28-5.42,0-.54-.14-.51-1.25-1.08-1.39-1.09-.27-8.61.81-10.51.92-8.36.49-16.52,1.12-24.98.96-1.3-.02-2.47-.62-3.81-.53-1.65.11-2.68,1.4-4.33,1.5-2.35.15-5.75-.66-8.64-.53-2.71.12-6.2,1.21-8.69,1.28-5.68.17-14.33-1.61-20.54-1.77-1.5-.04-3.09.1-4.35.97-.83,1.21.49,2.27.61,3.2,1.6,12.49-.76,29.84-.84,43.1-.06,9.46.46,18.95.5,28.32,0,2.25,1.7,5.25.96,7.91,1.1.13,1.36-.53,1.44-1.44-.3.09-.85.63-.95.48v-2.88c1.55-.24.59.34.67.81.06.33.29,1.5.28,1.59Z"/><rect x="105.39" y="114.26" width=".95" height="2.87"/><rect class="cls-1" width="251.92" height="213.34"/></g></svg>