<?xml version="1.0" encoding="UTF-8"?><svg id="Capa_2" xmlns="http://www.w3.org/2000/svg" width="88.87mm" height="75.26mm" viewBox="0 0 251.92 213.34"><defs><style>.cls-1{fill:none;}</style></defs><g id="Capa_1-2"><path d="M202.1,68.87c.15.06.83,1.44,2.55.79.94,14.73.88,29.61,2.44,44.33l-.25,39.61c-.79,3.01-3.52,3.41-5.65,4.77-7.32,4.69-14.66,7-22.59,10.63-5.14,2.35-9.92,5.26-15.06,7.52-16.38-2.75-32.65-6.98-48.94-10.31-21.79-4.46-44.29-7.82-65.89-12.77-2.93-.67-10.52-2.17-12.73-3.54-.7-.43-1.92-2.41-2.16-3.16-.61-1.89-.78-9.06-.87-11.61-.77-22.13-1.79-47.78-.03-69.63.09-1.14-1.14-2.44.51-3.26.34-.17,1.11.12,1.76-.17,6.74-2.95,13.43-6.95,20.14-10.13,5.44-2.58,14.71-7.66,19.97-9.29,3.86-1.2,3.47,1.21,5.49,1.91,2.57.89,7.35.69,10.31,1.2,6.73,1.17,13.27,3.13,19.94,4.52,28.51,5.91,60.13,10.33,87.95,17.57,1.17.3,1.98.57,3.1,1ZM73.25,51.41c-10.18,1.71-18.68,8.02-27.34,13.19,9.18,2.32,18.41,4.84,27.82,5.99.18-.52-.48-1.05-.48-1.2v-17.99ZM185.96,74.44c-6.83-2.11-13.92-1.92-20.8-2.95-17.76-2.65-36.28-6.65-53.63-11.12-3.32-.86-7.17-1.1-10.37-2.1s-8.07-4.68-11.09-4.72c-.96-.01-3.77,2.21-5.79,1.21.27,6.48-1.9,12.76.06,19.14l45.61,8.35c8.79.96,17.99,5.83,26.58,6.51,5.61.44,7.72-2.35,12.32-4.81,5.07-2.71,11.23-5.45,16-8.46.42-.27,1.06-.46,1.1-1.05ZM73.71,77.82l-32.11-6.73c.31,5.22-1.18,10.4-1.46,15.57-.64,11.73.21,25.14.52,36.94.16,6.33.2,12.64.46,18.97l33.55-15.37-.96-49.37ZM157.18,138.24l-.94-41.04-71.48-17.01c.35,5.18-.49,10.96,0,16.07.19,2.03,1.11,4.21,1.37,6.31.86,6.91,1.88,13.83,1.99,20.8,4.79.82,9.73.98,14.48,2.07,6.32,1.45,12.83,4.57,19.19,6.23,11.61,3.04,23.73,3.77,35.38,6.58ZM198.91,147.36l-.46-36.24-2.17-30.44c-9.6,4.8-19.43,8.94-29.47,12.74-4.75,5.15-1.92,12.36-1.47,18.68.66,9.26.65,18.58,1.87,27.77,10.3,3.51,20.96,5.68,31.7,7.48ZM157.66,167.51v-19.43l-61.77-14.05c-5.41,1.65-10.83-1.63-16.27-2.4-9.49,6.02-21.38,8.8-31.31,13.57-.56.27-1.32.48-1.44,1.19,4.86,1.12,10.18.84,14.98,1.57,3.46.52,6.97,2.62,10.73,3.18,10.1,1.52,20.54,1.9,30.4,4.61,12.74,3.5,22.66,5.69,35.61,8.03,6.36,1.15,12.65,2.81,19.06,3.72ZM168.21,149.76v16.31c7.52-3.45,14.02-8.81,22.07-11.27l-22.07-5.04Z"/><rect class="cls-1" width="251.92" height="213.34"/></g></svg>