<?xml version="1.0" encoding="UTF-8"?><svg id="Capa_2" xmlns="http://www.w3.org/2000/svg" width="88.87mm" height="75.26mm" viewBox="0 0 251.92 213.34"><defs><style>.cls-1{fill:none;}</style></defs><g id="Capa_1-2"><path d="M30.56,69.16l.11-1.82c4.48-3.92,9.31-7.46,13.81-11.37,1.56-1.36,4.62-5.41,6.51-5.52,1.02-.06,4.3,1.3,6.18,1.46s4.29.02,6.27,0c33.19-.36,66.85,2.02,100.2,3.84,9.24.5,18.61.49,27.83,1.42,3.15.32,6.77,1.18,10,1.51.9.57,1.16,3.25,1.27,4.49,1.24,14.81-1.08,31.91-.93,46.99.1,10.35-.07,24.02,1.44,34.06.12.82,1.13,1.41.9,2.32-.06.22-2.4,3.01-2.82,3.47-3.73,4.06-9.22,7.5-13.66,10.8-2.96,2.2-4.79,5.12-8.71,5.72-8.66,1.33-23.84-.19-33.02-.48-17.73-.56-35.15-2.38-52.8-3.32-14.67-.78-29.43-1.47-44.11-2.41-3.79-.24-12.94.15-16.05-1.22-3.66-1.61-2.7-9.75-2.87-12.96-.79-14.49-.81-29.13-1.46-43.63-.42-9.32-1.11-19.42-.47-28.78.07-1.03.57-5.51,1.19-5.51l1.19.95ZM191.71,64.37l-18.94-.97c-35.18-3.69-71.14-5.79-106.48-6.19-1.97-.02-11.08-1.43-12.02-.07l.3,12.48,28.03,2.42c28.69.36,57.21,4.47,85.83,5.3,1.9.06,4.74.22,6.51-.25.87-.23,13.22-9.14,14.6-10.34.77-.67,1.67-1.49,2.17-2.38ZM47.83,59.57c-1.21.31-2.6,1.59-3.58,2.41-2.68,2.23-5.07,4.9-7.92,6.95.71-.03,2.12.72,2.64.72h8.87v-10.07ZM196.51,69.64l-10.03,6.99-6.57,5.69c1.72,8.64,1,17.23,1.23,25.95.11,3.98.39,8.03.48,11.95.16,7.14,0,14.24.5,21.37,4.43-.25,9.04-1.54,13.42-.48l.96-71.48ZM48.26,78.33l-10.02-1.01,4.32,68.6,7.14-5.33c-1.77-13.37-2.76-26.96-2.37-40.5.11-3.61.85-7.85,1-11.47.06-1.38.32-9.95-.07-10.28ZM174.93,141.6l-3.33-53.52c-3.74-.35-7.56-.3-11.3-.69-18.56-1.93-37.58-5.2-56.12-6.71-9.84-.8-19.9-.4-29.73-.97-6.47-.37-12.97-1.46-19.43-1.92l1.92,59.01,117.98,4.8ZM174.93,149.27c-5.59-.47-11.47-.05-17.02-.48-8.78-.68-18-2.66-26.87-3.35s-18.03-.48-26.87-.94c-12.76-.67-24.2-2.43-36.9-.96-4.23.49-8.83-.85-12.84.12l-10.44,8.26c7.19,1.27,14.54.44,21.82.72,7.1.28,13.18,1.04,20.62.95,17.84-.21,35.33-.8,53.24.49,5.18.37,10.71,1.61,15.84,1.91,6.52.38,13.21-.64,19.65.49l-.23-7.2ZM189.31,150.24l-6.71-.48v5.28c.32.36,7.76-3.87,6.71-4.79Z"/><rect class="cls-1" width="251.92" height="213.34"/></g></svg>