<?xml version="1.0" encoding="UTF-8"?><svg id="Capa_2" xmlns="http://www.w3.org/2000/svg" width="88.87mm" height="75.26mm" viewBox="0 0 251.92 213.34"><defs><style>.cls-1{fill:none;}</style></defs><g id="Capa_1-2"><path d="M131.18,76.02c11.73-.67,23.62.22,35.37-.16l1.45.47c1.1,6.31.9,12.65,1.15,19,.69,17.53.94,35.16,1.46,52.75.16,5.41,1.11,11.34.48,16.8-.11.93-.35,2.5-1.57,2.53-5.62-.49-11.28-1.07-16.93-.89-1.56.05-.96.52-3.34.3-8.34-.76-17.02-.21-25.43-.25-15.14-.06-30.25,1.14-45.56,1.39-.99.02-2.12.59-2.85.51-.92-.1-1.16-.94-1.68-1.15-.42-.17-1.02.15-1.42-.06-1.04-.55-2.58-4.1-2.85-5.32-2.15-9.88-.51-22.4-2.47-32.55l1.19-52.1c.79-1.12,4.34.03,5.76.05,19.08.31,38.23-.24,57.24-1.32ZM131.77,82.59l-56.57,2.43c-.74,13.97-.13,27.97.43,41.97.43,10.67,1.57,21.45,1.98,32.12.04.98-.08,1.76-.52,2.63l19.92.5c12.47-1.99,25.05-1.29,37.63-1.46-1.93-8.91-.99-18.07-1.42-27.12-.29-6.19-1.26-12.5-1.48-18.67-.38-10.77.33-21.63.02-32.4ZM160.97,82.65l-9.55.42-.5,14.18c-.05,16.18.82,32.61,1.48,48.89.09,2.23-.47,14.3.43,14.92l12.98-.27c-1.32-7.67-2.13-15.49-1.94-23.28.33-12.98.65-25.78.01-38.83-.15-3.04-.47-8.11-.98-11.01-.31-1.75-1.88-3.14-1.94-5.01ZM142.79,83.07h-7.67c-.62,5.1.67,10.11.95,15.12,1.07,18.67.68,37.52,1.9,56.14.06.84.9,6.9,1.25,6.96l5.01-.02c-.6-13.84,1.39-28.2.5-42-.27-4.18-1.67-8.27-1.96-12.43-.53-7.7.44-16.01.02-23.77Z"/><rect class="cls-1" width="251.92" height="213.34"/></g></svg>