<?xml version="1.0" encoding="UTF-8"?><svg id="Capa_2" xmlns="http://www.w3.org/2000/svg" width="88.87mm" height="75.26mm" viewBox="0 0 251.92 213.34"><defs><style>.cls-1{fill:none;}</style></defs><g id="Capa_1-2"><path d="M200.22,64.49c1.45,1.35.56,3.29.58,4.89.13,10.88-.18,21.92.02,32.65.29,15.41,1.05,30.61.94,46.07-.02,2.31.96,2.75-.68,5.04-.42.59-4.04,3.78-4.58,4.05-2.07,1.01-1.63-.62-2.6-.75-6.45-.85-15.03.64-21.62.99-19.25,1.03-39.89,1.69-58.98,3.37-4.07.36-8.4,1.63-12.48,1.91-6.07.41-12.58-.22-18.72-.01-11.1.37-20.76,2.37-31.98-.6-5.01-1.32-14.52-4.53-18.26-7.41-.84-.65-2.23.22-2.95-1.1-.64-1.18-1.17-6.33-1.23-7.91-.18-4.89.68-9.83.49-14.89-.73-20.5-3.59-41.7-4.35-62.32-.05-1.41-.39-3.69.79-4.56.33-.24,7.14-1.35,8.11-1.46,4.39-.48,8.66-.19,12.94-.49,40.97-2.86,82.18-4.2,123.28-5.73,1.57-.06,3.89-.97,5.2-.83s9.9,4.07,12.31,4.87c2.24.75,12.82,3.34,13.77,4.22ZM172.52,60.04c-6.03.96-12.34.35-18.48.46-35.04.62-70.05,4.49-105,5.32-3.84.09-7.7-.18-11.54-.02-.58.02-1.78-.36-1.67.47l19.85,4.27c29.65-3.25,59.96-3.52,89.72-4.29,9.22-.24,18.4-.12,27.6-.94l-.49-5.28ZM185.48,63.89l-9.58-3.84.53,4.74,9.06-.9ZM50.71,76.84l-21.1-5.75c.87,15.29,2.06,30.56,3.35,45.82.67,7.93.89,16,1.98,23.92.44,3.16,1.84,6.11,1.38,9.41l16.78-1.44c-.04-1.51.09-3.04,0-4.55-.95-15.51-2.32-29.46-2.37-45.08-.02-7.44-.02-14.89-.02-22.33ZM172.53,72.04c-7.26.75-14.54.74-21.82.97-22.36.71-44.89,2.09-67.16,2.87-1.89.07-3.9-.15-5.75.01-6.63.58-13.16,2.58-19.91,1.91l5.01,70.07c.77,1.11,3.55,0,4.81-.05,11.99-.38,23.98-.7,35.99-1.42,18.72-1.13,37.9-1.81,56.59-3.36,3.93-.33,8.29-1.18,12.26-1.65l-.02-69.34ZM191.71,72.52h-15.35l1.83,69.39.74.75,13.97,2.79-1.19-72.92ZM178.76,147.84c-1.44.18-3.28-.85-4.57-.75-25.55,1.93-51.87,2.47-77.68,4.59-5.93.49-13.37,1.88-19.18,1.95-4.52.05-9.4-1.36-14.07.05l-.56,1.83c1.72-.23,3.33.54,5.03.53,23.39-.14,46.68-3.47,70.02-4.84,12.91-.76,25.91-1.31,38.86-2.39.56-.05,2.15-.15,2.15-.96ZM53.58,156.95c-.07-.94.45-2.88-.78-3.29l-7.37.42,8.15,2.87Z"/><rect class="cls-1" width="251.92" height="213.34"/></g></svg>