<?xml version="1.0" encoding="UTF-8"?><svg id="Capa_2" xmlns="http://www.w3.org/2000/svg" width="88.87mm" height="75.26mm" viewBox="0 0 251.92 213.34"><defs><style>.cls-1{fill:none;}</style></defs><g id="Capa_1-2"><path d="M206.94,56.81c1.13,1.19.47,8.05.61,10.19,1.56,23.35.38,46.07,1.92,69.08.29,4.29,2.57,8.97-1.6,12.38l-2.24-.62-.79,1.96c-7.22-.82-14.7-.64-22.02-.54-39.65.55-79.17,1.99-118.94,1.96-2.65,0-7.31-.73-9.96.08-.85.26-1.14,1.55-2.48,1.37-.23-.03-.21-.91-.57-.99-2-.45-3.03,1.77-4.88-.79-1.6-2.21-.63-2.93-.73-4.8-1.13-19.51-1.17-38.94-1.72-58.46-.23-8.16-2.35-19.42-.77-27.11.5-2.45,1.7-3.49,4.36-3.11.67.1,1.29,1.1,2.42,1.22s2.45-.5,3.77-.51c48.89-.35,98.28.46,147.28-1.4,2.04-.08,4.61-1.7,6.33.11ZM200.83,142.08c.41-7.8-.49-15.54-.51-23.29-.03-14.47.74-28.03,0-42.65-.1-1.99.48-11.85-.43-12.52l-1.46-.22v1.44s-1.44-.95-1.44-.95c-.74,14.79.08,29.52.02,44.4-.04,10.09-1.22,20.55-.52,30.7.07,1.05.33,2.04.55,3.05l3.79.05ZM193.54,63.97c-.46-.27-9.15.82-10.68.89-32.49,1.59-64.9.27-97.38.94-4.91.1-9.94.69-14.87.48-5.19-.22-10.65-1.67-16.06-.96.24,1.62.83,3.42.95,5.04,1.19,16.11-.45,32.64.49,48.44.47,7.96,3.05,15.73,2.88,23.75l11.72-.98,122.57.5c.37-1.72-.53-3.47-.52-5.04.07-9.47,1.3-19.28,1.5-28.76.21-9.89-.66-19.97-.52-29.74.04-2.6,2.23-13.24-.07-14.57Z"/><rect class="cls-1" width="251.92" height="213.34"/></g></svg>