<?xml version="1.0" encoding="UTF-8"?><svg id="Capa_2" xmlns="http://www.w3.org/2000/svg" width="88.87mm" height="75.26mm" viewBox="0 0 251.92 213.34"><defs><style>.cls-1{fill:none;}</style></defs><g id="Capa_1-2"><path d="M198.37,77.86c.02,3.51.85,7.27,1.02,10.73.8,16.4-.58,32.63-.01,48.95.29,8.25,1.83,16.71,1.98,24.93.03,1.76-.64,3.3-1.46,4.82-3.09.51-6.26.08-9.37.23-38.1,1.74-76.47,2.14-114.65,2.85-8.81.16-17.98,1.06-26.84.71-.94-.04-2.54-.14-3.16-.89-.73-.88-2.35-6.01-2.37-7.26-.2-14.29.34-28.75,0-43.14-.28-12.03-2.3-27.64-.98-39.36.06-.54-.01-1.08.49-1.45.61-.46,9.21.79,10.8.8,11.63.08,24.62-.71,36.47-.98,29.84-.68,58.63-2.09,88.69-1.44,2.64.06,18.78-.46,19.38.53ZM141.83,83.55c-6.18.41-12.76,1.76-18.94,1.44-2.2-.12-4.98-.91-7.18-.97-3.1-.09-5.84.63-8.9.5l2.4,75.8,35.01-.97c-1.76-13.53-1.82-27.33-1.94-41.03-.07-8.07-.04-16.31.04-24.42.04-3.48-.11-6.9-.5-10.34ZM192.2,84.51l-47.48-.95c1.47,12.14,1.12,24.47,2.42,36.68-.41,12.98-1.21,26.14.91,38.91,8.9.76,18.58-2.74,27.16.66l17.96-1.41-.96-73.88ZM100.11,84.51c-.89.14-1.69.45-2.61.5-12.91.74-26.06,1.22-38.88.46-1.47-.09-3.93-.21-5.3-.04-.84.11-.66.83-1.06.95-1.08.32-2.32.41-3.44.55l1.86,76.52c1.36.7,2.72-.22,4.06-.23,6.43-.02,13.22.06,19.69-.02,6.9-.09,15.22.05,21.63-.96,1.57-.25,3.4.12,5.01-.02l-.96-77.72Z"/><rect class="cls-1" width="251.92" height="213.34"/></g></svg>