<?xml version="1.0" encoding="UTF-8"?><svg id="Capa_2" xmlns="http://www.w3.org/2000/svg" width="88.87mm" height="75.26mm" viewBox="0 0 251.92 213.34"><defs><style>.cls-1{fill:none;}</style></defs><g id="Capa_1-2"><path d="M154.37,154.14c-.43,1.22-1.39,4.61-2.69,4.77-4.37.55-4.29-3.83-6.72-3.93-9.93,1.04-20.26,2.43-30.25,2.47-7.38.03-14.63.33-22.02.48-6.86.14-13.75-1.36-20.62-1.48-3.29-.05-6.28.75-9.61.49-5.44-.43-11.79-2.18-17.29-2.92l-4.54,1.75c-.45-1.58-2-1.51-2.83-2.48-1.63-1.9-1.01-10.02-1.03-12.92-.11-13.26-.43-27.06-.5-40.33-.05-9.23-.76-18.5-.94-27.75-.08-4.22.55-7.82.93-11.94,1.03-1.48,9.55-1.51,11.8-1.76,11.27-1.22,22.75-2.53,34.06-3.35,24.88-1.79,49.84-.43,74.8.02,10.56.19,21.14.02,31.69.44,4.02.16,8.9,0,12.81.62,1.56.25,4.94,1.24,5.09,3.08.07.9-1.67,1.55-1.42,2.78,2.94,27.58-.57,55.24,1.33,82.94-1.42,4.59-4.95,5.44-9.26,6-9.62,1.24-19.55,1.37-29.21,1.96-4.51.28-9.09.62-13.58,1.05ZM199.87,61.96h-44.13s.48,79.64.48,79.64c14.06.31,28.12,2.45,42.21.96,1.84-21.12,1.53-42.37,1.46-63.59,0-2.4,0-4.75,0-7.16.01-3.28-.05-6.58-.02-9.86ZM43.57,65.27l1.86,84.96c7.79.91,15.49-.58,23.24-.98,6.94-.36,13.94-.47,20.89-.46-.27-8.05.35-16.2.02-24.25-.36-8.91-2.03-17.92-2.44-26.83-.44-9.51.62-19.02.45-28.51-14.58-2.02-29.53-.95-44.02-3.94ZM148.07,62.93c-13.66.06-27.4.25-41,1.44-1.71.15-3.58.81-5.29.95-1.59.13-7.56-.43-8.17.46-.31.7-.27,1.46-.24,2.2.53,16.69,1.48,33.63,2.93,50.35l-.02,30,49.19-5.72,2.61-79.66Z"/><rect class="cls-1" width="251.92" height="213.34"/></g></svg>