<?xml version="1.0" encoding="UTF-8"?><svg id="Capa_2" xmlns="http://www.w3.org/2000/svg" width="88.87mm" height="75.26mm" viewBox="0 0 251.92 213.34"><defs><style>.cls-1{fill:none;}</style></defs><g id="Capa_1-2"><path d="M178.67,54.91c2.94-.06,9.86-.82,12.07.6,2.41,1.55.86,2.45,1.19,4.07.8,3.93,3.71,6.26,4.13,11.72,1.91,25.27.4,53.54.49,79.2,0,1.07-.47,2.14-.44,2.88.05,1.24,1.38,1.98,1.3,2.78-.06.65-.97,1.36-1.25,2.12-.19.53.49,1.25-.08,1.79-2.73,2.6-9.64,1.38-13.21,1.69-2.32.2-5.32,1.43-7.7,1.45-3.49.04-8.14-.4-11.99-.48-37.44-.71-75.29,1.44-112.66.44-3.5-.09-7.12-.11-10.59.3-3.19-2.26-3.26-6.76-4.52-10.13-2.79-7.48-4.55-9.63-4.35-18.23.4-17.17.72-34.6,1-51.77.12-7.46-.82-16.9-.04-24.03.06-.52,0-1.08.49-1.44,1.83.12,3.05.81,5.06.78,5.03-.07,10.74-.85,15.8-1.01,41.71-1.33,83.63-1.91,125.34-2.72ZM187.88,60.53l-60.7-.03c-26.72,3.59-53.62,1.47-80.55,2.9-2.31.12-4.65-.08-6.95,0l2.87,7.92c3.99,1.14,8.06-.47,11.77-.72,21.73-1.47,43.45-.52,65.24-.95,20.89-.41,42-2.74,62.8-2.9,1.76-.01,3.16-1.18,5.04.48l.49-6.72ZM36.8,73.96v20.15l.95-3.6c.23-4.34-.11-8.66-.38-12.95-.05-.89,1.02-3.04-.58-3.6ZM187.4,74.92c-1.2.07-1.8.91-3.12.99-3.86.25-9.5-.7-13.92-.53-24.47.91-49.07,1.07-73.34,1.48-10.88.19-21.77.45-32.61.96-5.88.27-11.5-.27-17.25,1.84-.3.21-.66,2.96-.76,3.66-1.04,7.91-.26,15.71-.03,23.48.17,5.61.9,11.39,1,16.79.13,7.49-1.24,15.28-.98,22.81,5.14-.25,10.46-.15,15.59-.49,35.02-2.29,70.4-1.94,105.5-1.41,2.13.03,4.67.15,6.75,0,4.12-.31,7.9-2.16,12.21-1.46l.95-68.12ZM37.27,98.42v-2.87h-.47v2.87h.47ZM36.8,141.84c-.79-12.75.59-26.27,0-39.1-.84-.11-.45,1.08-.48,1.67-.21,4.95.13,9.94.02,14.9-.16,7.29-1.29,15.21-.5,22.53.11,1.01.34,2.71,1.43,3.12.46-1.1-.43-2.45-.47-3.12ZM187.88,147.83c-5.11-.85-9.8,1.11-14.61,1.46-5.42.4-11.24-.59-16.82-.52-33.28.44-66.28.92-99.72,0-2.65-.07-7.2-.33-9.63.02-.7.1-.78-.28-.71.72.15,2.17,1.13,4.82.49,6.95,11.08-.39,22.2-1.54,33.36-.98,20.35,1.02,40.93-.25,61.37-.93,14.54-.49,28.25-.8,42.69-2.4,1.18-.13,2.41.06,3.59,0v-4.32Z"/><rect class="cls-1" width="251.92" height="213.34"/></g></svg>