<?xml version="1.0" encoding="UTF-8"?><svg id="Capa_2" xmlns="http://www.w3.org/2000/svg" width="88.87mm" height="75.26mm" viewBox="0 0 251.92 213.34"><defs><style>.cls-1{fill:none;}</style></defs><g id="Capa_1-2"><path d="M198.78,160.67c-1.14,1.21-3.72.76-4.67,1.32-1.2.7-1.9,6.88-5.26,5.28-2.59-1.23-3.03-4.37-6.46-4.58s-5.86,1.49-7.7,1.51c-1.39.02-1.69-1.29-3.33-1.52-2.25-.31-4.23.48-6.24.52-6.04.14-11.59-.14-17.65.57-10.81,1.26-22.92-.76-34.18-.13-2.44.14-4.07.37-5.83,1.45-2.11,1.28-2.14-.45-3.37-.84-3.89-1.24-6.68-.12-9.93-.07-14.24.22-28.52-.24-42.7-.54-4.96-.1-9.74.48-14.65.03l-.88-90.11c.81-1.29,9.35-.92,11.18-1.05,14.77-1.03,29.74-2.47,44.53-2.43,35.37.11,71.44.45,106.87,1.15,1.49.14,2.91,2.07,3.77,2.46.77.35,1.91.13,2.41.47.71.47.52,3.36.48,4.37-.2,4.7-3.17,9.04-4.84,13.39.35,15.03-.78,30.14-.96,45.1-.09,7.34,1.02,14.7-.03,22.06-.08.53-.19,1.19-.56,1.58ZM90.52,75.88c-12.72-.75-25.4-1.07-38.15-.5-4.18.19-8.44.89-12.69.5l2.88,83.96c4.06-.1,8.18-.22,12.23-.49,7.38-.49,13.15-1.05,20.61-.93,5.07.08,10.08-.04,15.13.46v-83ZM133.2,76.84h-36.45s1.93,76.27,1.93,76.27l1.67-9.6c5.91-22.28,13.71-45.84,26.97-64.65l5.88-2.02ZM188.36,76.84h-6.24c.38,5.32-1.08,10.3-2.39,15.34l8.63-15.34ZM164.38,77.32h-12.47l1.98.76c2.05,2.85-3.85,15.43-4.95,19.05-.14.47-.78,1.46-.14,1.78,2.06-3.43,8.28-17.96,11.29-19.41,1.32-.64,4.25-.05,4.3-2.18ZM124.57,157.43c-1.43-3.36-3.37-6.65-3.77-10.37-.45-4.17.22-8.28.44-12.39.04-.64.34-3-.5-3.14-.61,4.19-2.4,8.58-2.82,12.77-.48,4.77.55,9.19-2.46,13.61l9.11-.48ZM164.38,156.95c-3.68-4.97-3.98-11.38-5.04-17.28-.78,0-1.67,9.99-1.89,11.07-.46,2.29-1.97,4.03-2.19,6.44.26.74,1.09-.23,1.21-.23h7.91ZM100.11,158.87l-1.43-4.79v4.51s1.43.28,1.43.28ZM181.16,156.95c0-1.76-1.43-1.76-1.43,0h1.43Z"/><rect class="cls-1" width="251.92" height="213.34"/><rect class="cls-1" width="251.92" height="213.34"/></g></svg>