<?xml version="1.0" encoding="UTF-8"?><svg id="Capa_2" xmlns="http://www.w3.org/2000/svg" width="88.87mm" height="75.26mm" viewBox="0 0 251.92 213.34"><defs><style>.cls-1{fill:none;}</style></defs><g id="Capa_1-2"><path d="M198.07,154.68c-1.48,1.17-.95,7.15-4.93,5.91-1.7-.53-4.19-3.41-4.62-3.56-1.54-.53-5.33.03-6.97.55-.88.28-1.5,1.19-2.59,1.31-1.38.14-2.74-1.12-5.22-.96-10.95.69-22.99,3.52-34.07,4.78-6.52.74-13.14.77-19.65,1.45-24.49,2.55-49.11,5.66-73.87,7.66-1.66.13-3.37-.07-5.03.01l-9.11-89.37c1.37-1.73,3.26-1.06,4.98-1.36,28.98-5.07,56.68-8.17,85.91-10.98,22.53-2.16,45.12-3.77,67.62-6.27,2.83-.61,4.84,1.51,6.83,2.32,1.54.63,2.99-.74,3.46,2.3.84,5.44-1.55,10.87-3.58,15.78,1.75,15.15,2.38,30.4,3.62,45.59.5,6.12,1.27,11.02,1.41,17.25.05,2.02,1.67,4.96-.68,6.51-1.08.71-2.87.57-3.49,1.07ZM183.56,70.6l-40.32,5.11c1.21,12.48,2.88,24.9,4.35,37.35s2.17,25.07,5.01,37.68c.16.72.96,3.69,1.55,3.84l16.46-1.95c-.27-2.12-1.95-3.55-2.62-5.77-1.4-4.6-.69-11.64-.25-16.53,1.88-20.62,7.13-41,15.82-59.73ZM141.84,75.4l-48.92,4.32,10.38,81.51c15.27-2.97,30.66-4.92,46.17-6.24-.16-2.2-.22-4.68-.48-6.85-1.78-14.38-3.93-28.8-5.22-43.24-.87-9.81-1.08-19.7-1.92-29.5ZM86.2,79.24l-19.42.96c-10.36.91-20.59,3.36-30.94,3.83l11.03,83.48c10.05-.59,20.01-3.83,29.99-4.79,2.39-.23,16.91-.32,17.48-.99l-8.14-82.49Z"/><rect class="cls-1" width="251.92" height="213.34"/><rect class="cls-1" width="251.92" height="213.34"/></g></svg>