<?xml version="1.0" encoding="UTF-8"?><svg id="Capa_2" xmlns="http://www.w3.org/2000/svg" width="88.87mm" height="75.26mm" viewBox="0 0 251.92 213.34"><defs><style>.cls-1{fill:none;}</style></defs><g id="Capa_1-2"><path d="M207.43,73.37c.14-.07.93-2.23,2.44-.07l1.07,14.8c.07.81-.45,1.65-.43,2.4.51,17.31.67,35.06.41,52.27-.07,4.78.39,13.3-.6,17.67-.08.34-1.64,3.36-1.8,3.47-.88.6-15.47.15-18.02.2-13.37.3-26.88,1.18-40.25,1.48-34.37.77-68.26.37-102.69.67-.53,0-.95.49-1.41.69l-.67-.7c-.32-2.76-1.7-5.98-1.96-8.6-.52-5.09.23-11.08.01-16.33-.65-15.88-1.21-31.64-1.44-47.45-.08-5.46-.2-10.87-.48-16.31l2.88-3.38c13.81.89,27.67.72,41.44-.74,39.61,2.31,79.28-.88,118.99-.49.77,0,2.12.6,2.51.4ZM200.28,154.49c.58-4.31,1.21-8.79,1.5-13.13.95-14.28-.4-26.3-.97-40.27-.28-6.82.47-13.61.49-20.41l-16.55,1.91c-10.03-.35-19.94,1.45-29.97.96l1.51,72.85,43.99-1.92ZM98.19,83.07l-48.92-1.91,2.4,77.71c10.58-1.56,21.19-2.13,31.89-2.13,5.07,0,10.02.82,15.11.21l-.48-73.88ZM150.95,156.95l-.69-73.43c-.61-.88-7.11-.35-8.68-.43-1.14-.06-2.19-.49-3.32-.52-10.31-.29-20.64,1.01-30.96.5l1.92,75.8,41.73-1.92Z"/><rect class="cls-1" width="251.92" height="213.34"/></g></svg>