<?xml version="1.0" encoding="UTF-8"?><svg id="Capa_2" xmlns="http://www.w3.org/2000/svg" width="88.87mm" height="75.26mm" viewBox="0 0 251.92 213.34"><defs><style>.cls-1{fill:none;}</style></defs><g id="Capa_1-2"><path d="M206.73,144.82c.11.24,1.64.49.95,1.92l-2.84,2.41c-14.59.11-29.43,2.03-44,4.03-19.24,2.63-40.66,6.81-60.03,7.6-1.5.06-3.94.23-5.3.05-.92-.12-.64-1.01-.96-1.01-8.59-.09-17.19-1.21-25.87-1.9-4.69-.38-8.27-.33-12.99-.92-2.59-.33-13.33-1.25-14.73-2.05-1.04-.6-1.17-1.43-1.3-2.54-.73-6.16-.15-14.26-.45-20.66-.95-20.23-2.87-40.68-1.94-60.91.14-3.11-.29-6.28.22-9.37,3.84-1.74,7.91-2.69,12.07-3.28,11.9-1.67,24.02-2.18,35.91-3.42,19.66-2.05,40.35-6.63,59.94-7.69,4.81-.26,5.62.79,9.15,1.44,12.54,2.31,27.03,1.83,39.78,2.9,2.26.19,12.2.94,12.24,3.57.01.75-.95,1.7-1,2.9-.05,1.09.53,2.18.54,3.33.22,25.73-1.76,54.4-.04,79.67.06.91.33,3.22.65,3.92ZM148.55,53.81c-7.25.26-15.05.07-22.24,1.01-10.68,1.4-21.85,4.31-32.68,5.21-6.45.54-13.12-.01-19.65,1.45-.68.15-1.49-.02-1.68.95,14.8,5.61,29.52,3.02,44.43-.41l31.83-3.91c-.96-1.51-.12-2.73,0-4.31ZM166.29,55.26l-12.46-1.44.48,3.36,11.98-1.91ZM201.79,60.52l-47.48,4.32c.89,11.4,1.47,22.82,1.46,34.32,0,10.84.38,22.89,0,33.58-.05,1.52-.75,2.98-.5,4.54,4.9-.67,9.46.96,14.16,1.43,3.5.35,7.16.19,10.54.49,6.64.59,13.06,2.18,19.91,1.44l1.92-80.12ZM148.55,65.8c-16.87,1.06-33.81,2.27-50.35,5.77.83,5.93.39,12,.45,17.99.08,8.67-.44,17.71,0,26.39.29,5.69,1.84,12.12,1.93,17.73.05,3.4-1.23,6.92,0,10.11,1.02.75,21.64-3.59,24.78-4.05,6.4-.93,13.78-.9,20.05-2.01,1.06-.19,2.29-1.37,3.56-1.48l-.41-70.46ZM90.87,74.55c-.07-.12-2-1.87-2.13-1.94-2.95-1.67-9.92-1.13-13.3-1.57-1.83-.24-3.6-1.45-5.36-1.83-5.04-1.09-11.53-.95-16.68-1.54-1.76-.2-3.99-1.27-5.37-1.36-1.2-.08-2.54.86-4.04-.02-.61.7,1.34,12.15,1.45,14.13.47,8.12-.55,16.44-.52,24.46.04,11.85.86,23.74,1.94,35.53.31,3.37-.14,6.87,1.01,10.26l44.56-5.23c-.93-7.2-.35-14.57-.46-21.85-.22-14.16.81-30.95-.97-44.6-.16-1.2.32-3.67-.13-4.44ZM176.84,145.44c-10.15-1.96-19.71-1.9-29.99-1.9-3.76,0-6.39-.39-10.47.04-12.1,1.28-23.86,4.5-35.8,6.65.06,1.97.74,3.48-.48,5.27l76.74-10.06ZM92.43,152.16l-4.31.95c.97-.37,4.61.97,4.31-.95Z"/><rect class="cls-1" width="251.92" height="213.34"/></g></svg>