<?xml version="1.0" encoding="UTF-8"?><svg id="Capa_2" xmlns="http://www.w3.org/2000/svg" width="88.87mm" height="75.26mm" viewBox="0 0 251.92 213.34"><defs><style>.cls-1{fill:none;}</style></defs><g id="Capa_1-2"><path d="M184.91,56.83c1.65-.03,2.82.3,4.12.3,3.5,0,6.56-.08,10.1.07,2.96.12,6.01-.31,8.92.19l.38.58c.6,7.82.39,15.6.53,23.46.3,16.73-.98,33.66-.48,50.37.13,4.26,1.36,10.33,1,14.4-.12,1.36-.26,2.46-1.46,3.33l-106.75.21c-1.27-.29-2.21,1.12-3.29,1.01-16.43-1.73-34.08-1.12-50.9-1-1.38,0-3.14.99-3.81-.46l-.27-90.46c7.3-.26,14.52.38,21.87.29,1.13-.01,2.18-.49,3.32-.52,39.05-.87,77.76-1.16,116.71-1.76ZM95.31,64.37c-4.3.65-8.83.65-13.21.5-3.45-.12-7.54-.87-10.99-1-8.26-.3-16.5.36-24.72-.94l1.92,81.56c5.21-.31,10.38-.46,15.61-.5,8.41-.07,14.35-.79,22.53-1.41,3.06-.23,6.27.15,9.35,0-.05-14.17.65-28.29.5-42.48-.09-8.54-.65-17.6-1-25.87-.14-3.27.13-6.58.01-9.85ZM152.39,66.28l-48.93-1.92c.27,2.55-.52,4.92-.5,7.45.02,2.4.87,5.7.98,8.15.77,17.35.63,34.95,1.9,52.31.12,1.61.65,6.82,1.06,8.05.12.36.34.6.67.77l44.81.04v-74.84ZM203.7,66.28h-47.48c-.08,1.23.46,2.36.5,3.58.58,16.57-1.24,32.32-.02,48.95.55,7.44,2.08,14.84,1.91,22.31,2.96.05,5.93-.06,8.89-.02,6.73.09,14.29.52,21.1.04,4.19-.3,8.38-1.98,12.69-1.46l2.39-73.4Z"/><rect class="cls-1" width="251.92" height="213.34"/></g></svg>