<?xml version="1.0" encoding="UTF-8"?><svg id="Capa_2" xmlns="http://www.w3.org/2000/svg" width="88.87mm" height="75.26mm" viewBox="0 0 251.92 213.34"><defs><style>.cls-1{fill:none;}</style></defs><g id="Capa_1-2"><path d="M199.73,74.09c.55.64,1,2.57,1.1,3.46.78,7.01.38,14.53.46,21.61.17,15.31-.07,31.16,0,46.49.02,5.03,2.4,14.32-3.85,16.31-2.7.86-10.66.47-14.11.75-6.86.55-13.76,1.46-20.63,1.91-6.56.42-14.29.99-20.62.97-30.19-.13-61.09-4.2-91.12-4.36-2.25-.01-4.76.95-7.17.56l-.27-1.48-3.83,1.92-1.46-53.47c.95-10.62-1.2-23.26,0-33.63.17-1.52.77-1.87,2.22-2.1,9.12-1.46,20.35-2.13,29.71-2.91,36.93-3.08,76.03.86,113.17,2.42,3.63.15,14.22-1.01,16.43,1.55ZM87.64,75.88c-2.53.38-5-.43-7.41-.5-5.19-.16-10.65.74-15.85.98-6.81.3-13.62-.13-20.38.96.08,5.36-.09,10.73-.02,16.09.21,15.95.92,31.96,1.93,47.96.32,5.13.24,10.44.49,15.59l43.64-4.31-2.4-76.76ZM144.64,76.9c-10.98-.58-21.82-.34-32.78-.06-.91.02-1.84.48-2.86.49-4.44.07-8.85-.93-13.17.02l3.8,72.4,45.08.49-.07-73.33ZM194.12,80.67l-44.12-3.84c-1.81,12.3-1.75,24.81-2.9,37.16l.02,36.24c6.98-.19,13.9.05,20.81,1.01,8.32,1.16,9.26,2.45,18.31.93.82-.14,5.28-.32,5.48-.51-1.01-13.63-.37-27.38.49-41.01.63-9.98,2.54-19.93,1.92-29.99ZM144.24,160.31c-3.42-.14-6.89.2-10.31,0-16.49-.96-32.92-2.04-49.42-1.45l-14.61,1.22c0,.52,9.24.19,10.31.24,19.72,1.01,39.61,1.36,59.45,2.42,1.51.08,3.07-.1,4.58-.02v-2.4ZM168.21,160.31c-4.98-.89-10.08-.34-15.13-.47-1.97-.05-3.89-1.17-5.91.05l-.07,3.29,21.1-2.88Z"/><rect class="cls-1" width="251.92" height="213.34"/></g></svg>