<?xml version="1.0" encoding="UTF-8"?><svg id="Capa_2" xmlns="http://www.w3.org/2000/svg" width="88.87mm" height="75.26mm" viewBox="0 0 251.92 213.34"><defs><style>.cls-1{fill:none;}</style></defs><g id="Capa_1-2"><path d="M205.57,62.5c-.42,2.88-1.04,4.72-.92,7.88.54,14.3,2.78,28.81,3.4,43.14.44,10.1-.45,19.78-.04,29.78.11,2.69,1.16,5.42.17,8.26-.06.18-2.41,2.63-2.57,2.72-.2.11-3.93,1.55-4.16,1.6-6.41,1.33-17.76.82-24.81,1.09-21.27.81-40.47,3.15-61.42,4.77-4.63.36-12.84-.29-16.77.49-1.1.22-1.54,1.32-1.99,1.39-.56.09-1.02-.72-1.49-.82-.84-.19-1.81.48-2.77.43-2.38-.12-4.3-.42-7.19-.49-5.43-.14-11.37-1.28-16.77-1.5-8.9-.36-17.96.28-26.78-.55l-3.6-2.41.66-92.45c8.01-1.11,16.3-1.89,24.43-2.43,22.07-1.45,43.74-3.4,65.71-5.28,22.13-1.89,42.69-.94,64.74,1.44,4.28.46,8.15,1.51,12.18,2.93ZM160.06,63.41h-3.35v.47h3.35v-.47ZM149.51,63.89l-51.31,3.83c1.2.39,2.32.57,3.6.52,9.9-.37,19.85-1.71,29.73-2.43,5.72-.42,11.52-.29,17.27-.96.71-.08,1.47-.38.71-.96ZM200.83,68.2c-3.49.14-6.83-.52-10.33-.5-10.46.06-21.66.1-32.11.99-3.49.3-2.07,1.22-3.13,2.13-.4.34-1.38.27-1.7.72-.41.57-.28,3.21-.23,4.12.84,16.11,1.91,32.46,2.44,48.41.14,4.16-.83,15.13.99,18.2.69,1.16,2.06,1.02,2.69,2.19l28.2,2.41c3.36.29,9-.1,11.98.49,1.25.25,1.88,1.98,3.6,1.43l-2.4-80.59ZM89.97,150.65l-.14-78.16c-3.72-1.35-7.71-.67-11.54-.93-12.06-.84-24.13-1.59-36.22-.48l3.86,83.45c3.52-.12,7.26.27,10.76.02,6.26-.44,13.63-1.71,20.15-2.4,4.37-.46,8.71-1.43,13.13-1.5ZM149.99,70.6l-51.8,1.92.96,76.75,51.79-7.21c-.85-9.33-.72-18.69-.93-28.07-.3-13.01-.99-26.26-.52-39.34.05-1.37.67-2.66.5-4.06ZM159.1,152.16l-4.31-.48c-.2,1.34.23.89,1.19.96.64.04,2.99.38,3.12-.48ZM150.95,152.16l-51.32,3.84v1.44c16.78-.73,33.36-3.33,50.13-4.31.96-.06,1.38.37,1.19-.96ZM90.03,156.96h-3.35v.47h3.35v-.47Z"/><rect class="cls-1" width="251.92" height="213.34"/></g></svg>