<?xml version="1.0" encoding="UTF-8"?><svg id="Capa_2" xmlns="http://www.w3.org/2000/svg" width="88.87mm" height="75.26mm" viewBox="0 0 251.92 213.34"><defs><style>.cls-1{fill:none;}</style></defs><g id="Capa_1-2"><path d="M200.01,73.86c.05.09.73.08.8.42,1.67,7.33.27,21.07.47,29.2.14,5.94,1.15,11.72,1,17.75-.16,6.1-1.58,12.14-1.96,18.19-.39,6.28.82,14.14-.02,20.12-.97,6.87-8.9,4.02-13.63,4.09-38.95.55-76.5,1.46-115.56.5-8.21-.2-18.01.83-25.92.02-1.41-.14-5.72-1.15-6.24-2.42l-1.2-85.38c9.51-.1,18.47-3.45,27.73-5.12,8.13-1.47,23.82-4.52,31.49-3.98,30.46,2.15,61.43,1.75,92.04,3.88,1.27.09,2.61.9,3.91.93,2.28.05,4.89-1.42,7.22.45.28.42-.27,1.08-.14,1.35ZM91.48,147.84l-1.45-71.48c-5.39.79-10.73,2.54-16.12,3.3-6.5.92-13.14,1.52-19.68,2.39-3.55.47-7.16.36-10.67,1.08l.43,74.3c4.01-.39,8.04-.84,11.99-1.67,8.96-1.88,18.43-5.42,27.32-7.22,2.7-.55,5.41-.87,8.17-.7ZM104.83,78.19l-2.8-.87c-.09,1.23.45,2.36.5,3.58.33,9.17-1.42,17.75-1,26.9.63,13.69,1.43,24.93.59,38.84-.08,1.39,1.13,2.54-.57,4.07,4.31-.54,8.3-1.1,12.59-.36,5.22.91,9.33,2.22,14.97,2.3s10.91-1.42,16.57-1.46l-.69-71.99c-.62-.9-9.65-.34-11.56-.43-4.22-.2-26.39-2.52-28.4-1.31-.12.07-.11.52-.19.72ZM190.28,83.08l-41.73-3.36,1.43,71.25,38.86,2.15c-.85-5.26.99-10.19,1.43-15.12s-.21-10.27,0-14.84c.17-3.69,1.45-8.66,1.47-12.04.04-5.55-1.58-13.4-1.95-19.15-.19-2.93-.03-6.03.5-8.89ZM102.51,159.36c-1.8-.94-3.66.08-5.04,0-3.95-.24-7.64-1.52-11.75.24,4.67-.24,10.81,1.09,15.26.63.69-.07,1.34.05,1.53-.87ZM116.42,159.35h-10.79c-.36,0-1.41.78-2.16.48v.47c1.29.53,3.32-.47,4.07-.47h8.87v-.48Z"/><rect class="cls-1" width="251.92" height="213.34"/></g></svg>