<?xml version="1.0" encoding="UTF-8"?><svg id="Capa_2" xmlns="http://www.w3.org/2000/svg" width="88.87mm" height="75.26mm" viewBox="0 0 251.92 213.34"><defs><style>.cls-1{fill:none;}</style></defs><g id="Capa_1-2"><path d="M99.24,175.75c-.2.12-.25.87-.58,1.1-.83.58-4.71-.57-5.85-.85-13.65-3.34-28.12-7.86-41.51-12.21-2.67-.87-6.08-1.54-8.03-3.48l-.52,1c-3.08.55-3.4-5.38-3.55-7.48-.57-8.02-.18-16.85-.46-24.96-.56-15.64-2.3-33.93-1-49.41.4-4.79,2.05-4.67,5.93-6.54,30.64-14.79,64.81-25.08,96.07-38.75,6.08,1.66,12.47,2.17,18.51,3.95,4.94,1.45,9.94,3.66,15.03,5.11,8.94,2.55,18.54,3.49,26.58,8.43l.49.95,1.45,23.97c-1.28,17.91,1.63,38.04,0,55.69-.14,1.46-.44,2.8-1.21,4.06-21.24,8.03-41.98,17.31-63.08,25.65-11.1,4.39-22.91,8.12-33.83,12.7-.79.33-1.54,1.27-1.95,1.35-.74.14-1.76-.74-2.49-.28ZM186.92,52.37c-7.46-1.09-15.16-3.48-22.44-5.62-2.7-.79-5.55-2.59-8.23-3.28-4.52-1.18-9.48-1.29-13.94-3.57l1.92,31.18c10.17-4.06,20.54-7.9,30.54-12.39,3.56-1.6,8.05-3.6,11.46-5.32.51-.26.91.25.68-1ZM139.91,40.86c-5.69.37-10.42,3.7-15.5,5.85-17.47,7.37-34.62,15.04-52.26,22.09-6.98,2.79-13.89,5.79-20.97,8.28l45.92,14.06c2.52.21,13.44-5.83,16.59-7.18,8.82-3.79,17.9-7.01,26.62-11.02l-.4-32.07ZM193.63,59.57c-2.62-.4-4.2,1.76-6.23,2.64-11.59,4.98-22.9,10.09-34.36,15.53-2.69,1.27-5.57,2.21-8.25,3.5v36.31c8.74,3.48,17.99,5.53,27.16,7.61,2.81.64,5.65.51,8.36,1.24,4.91,1.32,8.85,4.95,13.67.21l-.35-67.03ZM103.95,132.97l36.7-14.38-.25-35.03c-4.15,2.49-8.92,3.69-13.27,5.67-3.19,1.45-6.39,3.76-9.76,5.11-2.07.83-14.66,4.38-15.11,5.04-1.52,2.26.51,12.38.72,15.6.39,5.99.27,12.03.97,17.99ZM48.79,155.03l45.34-18.21c.79-1.17-.67-7.01-.76-8.88-.41-8.65.52-17.31.52-25.95-.15-2.11-4.27-3.75-6.13-4.43-6.91-2.5-15.34-2.67-22.29-4.57-4.41-1.2-13.74-5.26-18.12-7.3-1.01-.47-1.85-1.24-2.88-1.67l4.32,71ZM182.12,133.44c-.07-.73-.72-.74-1.22-.93-7.42-2.86-16.48-3.78-24.3-5.92-4.72-1.29-9.31-3.58-14.03-3.92l-38.33,14.08.68,28.84,20.15-9.35c10.24-2.71,19.48-8.3,29.27-11.98s19.15-5.18,27.8-10.82ZM94.83,140.64l-42.2,15.82c3.73,1.15,7.69,1.28,11.53,2.15,4.1.92,8.85,2.23,12.93,3.38,2.33.65,17.96,6.31,18.7,5.51l-.96-26.86Z"/><rect class="cls-1" width="251.92" height="213.34"/></g></svg>