<?xml version="1.0" encoding="UTF-8"?><svg id="Capa_2" xmlns="http://www.w3.org/2000/svg" width="88.87mm" height="75.26mm" viewBox="0 0 251.92 213.34"><defs><style>.cls-1{fill:none;}</style></defs><g id="Capa_1-2"><path d="M199.49,60.15c.49,9.15.89,18.32,1.34,27.48.8,16.26,1.35,32.6,1.89,48.96.06,1.92,1.21,9.51.55,10.54-.59.91-3.11,2.87-4.18,2.97-.74.07-1.81-.38-2.79-.36-18.93.25-40.54-2.1-59.04-.48-1.01.09-1.8.99-2.28.91-.41-.07-.86-.8-1.55-.88-.76-.09-1.85.5-2.84.5-25.46.1-50.92.04-76.37.25-1.02,0-2.83.2-3.26-.75-.33-29.45-1.91-58.86-.97-88.28.67-1.35,3.85-1.36,5.25-1.43,16.28-.87,32.69-.52,48.97-.94,28.84-.75,57.9-1.85,86.77-2.44,3.15-.06,15.76-.92,8.52,3.96ZM113.47,64.91c-3.27.44-5.69-1.13-8.82-1.05-6.94.18-14.75,1.56-21.57,1.5-2.85-.03-5.87-1.24-8.63-1.47-6.22-.52-12.82.76-18.93-.49.12,5.99-.17,12.02-.02,18.01.37,15.48.17,30.49,0,46.01-.07,5.96.37,11.28,1.96,17.03l57.05-.94c-.04-.74-.43-1.41-.48-2.15-1.6-21.9-.43-43.87-.5-65.75-.01-3.36,1.41-7.31-.05-10.7ZM123.37,142.56c2.77-.32,6.04.24,8.87,0l-1.68-78.68-9.35.49c.88,3.5.39,7.21.46,10.81.41,20.11,1.31,40.33,1.5,60.43.02,2.42-1.12,4.99-1,7.43.54.18.99-.45,1.2-.48ZM192.18,64.86c-6.89-1.45-13.36.7-20.39.48-2.89-.09-6.75-1.01-9.57-1.02s-6.18,1.54-9.11,1.52c-2.48-.02-16.14-2.86-17.03-1.96l1.44,78.2,59,.48c-.24-6.95-1.07-13.92-1.46-20.85-.77-13.66-.17-27.71-1.48-41.21-.26-2.7-1.6-4.95-1.86-7.26-.31-2.78.16-5.64.46-8.38ZM61.26,147.36c-.95.26-3.41-.62-3.83.47.95-.26,3.41.62,3.83-.47Z"/><rect class="cls-1" width="251.92" height="213.34"/></g></svg>