<?xml version="1.0" encoding="UTF-8"?><svg id="Capa_2" xmlns="http://www.w3.org/2000/svg" width="88.87mm" height="75.26mm" viewBox="0 0 251.92 213.34"><defs><style>.cls-1{fill:none;}</style></defs><g id="Capa_1-2"><path d="M202.27,140.64l-.25,1.43-81.3,21.35c-6.33,3.23-13.12,4.74-20.02,5.88-8.23,1.36-9.54-.26-16.8-2.14-12.31-3.19-24.7-6.15-36.91-9.62-.93-.26-1.97.06-2.99-.36-.22-.09-3.13-3.13-3.3-3.4-1.63-2.54-.85-6.18-1.03-9.06-1.59-25.51-1.64-51.32-1.17-76.98,1.85-4.06,5.87-3.77,9.31-5.08,31.49-12.02,66.34-17.71,98.59-28.06,19.8,3,38.83,9.64,58.12,14.8l1.83,1.05c.75,20.66.62,41.43.74,62.15.03,5.84-.26,11.78-.02,17.72.07,1.64,1.03,4.28.94,5.74-.04.62-1.96,6.03-2.36,6.29-1.53.98-3.02-2.1-3.37-1.71ZM147.59,40.86l-95.44,25.42c4.84.39,8.93,3.18,13.5,4.48s22.01,5.5,25.68,5.46c1.32-.02,1.9-1.12,4.12-.72,1.3.24,1.13,1.11,1.65,1.31,4.57,1.7,6.03-.41,10.19-1.65,13.45-4,27.33-6.6,40.72-10.84l-.43-23.46ZM185.96,50.93c-4.38-.68-8.52-2.58-12.82-3.73-3.22-.86-6.58-.93-10.2-2.27-1.2-.45-2.18-1.71-3.24-2.04-1.11-.34-2.73-.07-3.95-.6l-.96,19.67c9.77-4.45,20.47-6.36,30.5-10.02.67-.24.82.17.67-1.01ZM199.39,57.65l-44.86,11.49c-.76,7.23-1.19,15.54-.71,22.83.21,3.14,1.24,6.78,1.45,10.06.41,6.53.06,13.3.55,19.84,7.64,1.78,14.73,6.11,22.66,6.36l22.84,4.26c-.95-9.45-.31-19.05-.46-28.56-.07-4.16-1-9.26-1.02-13.4-.02-5.63,1.18-12.13,1.01-17.78-.14-4.79-1.57-10.18-1.46-15.09ZM147.59,71.08c-5.45,1.44-10.79,3.33-16.3,4.56-6.4,1.44-9.81,1.8-16.05,4.1-5.67,2.08-11.25,4.33-16.94,6.32-.2,1.17-1.07,2.31-1.09,3.47-.04,3.7.9,8.69,1,12.47.29,11.75.36,23.53.46,35.28,17.12-3.65,33.45-9.86,49.66-16.29l-.74-49.91ZM91.45,85.01c-10.4-2.66-20.78-5.79-31.05-9-1.46-.46-3.09-1.7-4.29-1.95-3.44-.7-8.1.14-11.64-1.55.08,3.11-.12,6.26-.02,9.37.58,18.54.87,37.2,1.93,55.63.25,4.31-.21,8.01,1.45,12.23,8.96-1.64,17.97-5.71,26.84-7.45,5.26-1.04,10.7-.81,15.8-2.67l.98-54.62ZM98.67,143.04v19.91c0,.18.63.72.48,1.2,17.38-4.6,34.65-9.69,51.79-15.11l40.77-11.03c-5.1-1.43-10.28-2.54-15.45-3.74-7.52-1.76-14.89-3.06-22.19-6.12l-55.41,14.9ZM90.51,144.96l-35.96,9.11c5.35-.5,10.27,2.03,15.25,3.22,3.16.76,6.61.98,9.69,1.82,4.32,1.18,7.87,4.08,12.46,4.56.2-6.26-.73-12.5-1.44-18.71Z"/><rect class="cls-1" width="251.92" height="213.34"/></g></svg>