<?xml version="1.0" encoding="UTF-8"?><svg id="Capa_2" xmlns="http://www.w3.org/2000/svg" width="88.87mm" height="75.26mm" viewBox="0 0 251.92 213.34"><defs><style>.cls-1{fill:none;}</style></defs><g id="Capa_1-2"><path d="M213.22,58.2c.28.48-.08,1.45.1,2.04.26.86,1.03,1.54.96,2.4-.08.94-1.22,1.57-1.33,2.49-.18,1.45,1.22,5.56,1.32,7.6.29,5.74-.9,12.89-1,18.71-.29,17.93.85,35.42-.46,53.26-.06.81-.57,4.58-.93,4.84-1.22.4-2.25-.48-3.58-.28-1.06.16-1.73,1.35-2.93,1.43-5.49.37-13.04-1.38-18.66-1.44-13.67-.15-27.25,1.53-40.77,2.43-8.18.55-17.66-1.1-26.42-1-20.93.25-41.96,2.27-62.78,2.44-3.65.03-7.23-.95-10.57-.98-1.21-.01-2.74.83-3.85.73-.59-.06-3.16-2.41-3.52-2.95-2.45-3.64-1.43-10.37-1.49-14.83-.08-6.2.05-12.42,0-18.71-.14-17.48-1.43-37.84-.04-55.17.22-2.74.24-3.39,3.15-3.56,11.44-.67,23.51-.29,34.98-.52,19.36-.38,38.73-1.17,58.05-1.42,9.57-.12,19.07,1.31,28.78.96,5.25-.19,7.19-.28,12.46.02,7.83.44,18.59.46,26.41,0,2.35-.14,4.83-1.31,7.2-1.01.36.05,4.8,2.26,4.94,2.5ZM182.6,64.84c-6.18.17-12.29-.76-18.49-.5-9.61.41-19.18.64-28.76.97-10.25.35-20.07-.5-30.19-.45-8.7.04-19.87-.39-28.32.46-1.24.12-2.37.63-3.53,1.03.08,10.98-1.34,22.29-.57,33.29.41,5.82,1.96,12.2,2.41,18.22.63,8.39.09,16.86,1.45,25.18l106.47-3.84-.48-74.36ZM203.2,64.39l-14.04.43c-1.34.31-.85,11.15-.82,12.75.35,15.64,1.52,31.97-.4,47.45l1.37,13.85c.58,1.73,11.45-.29,13.44.33,1.13-9.49-.59-19.03-.5-28.57.08-8.51,1.89-17.01,1.92-25.39.02-5.09.66-12.57.05-17.31-.16-1.25-1.19-2.17-1.01-3.54ZM64.61,142.56c-.23-6.94-.17-13.93-.46-20.88-.53-12.87-1.38-25.91-1.48-38.82-.04-5.56,1.05-11.15.02-16.58-4.2,1.23-8.74,1.42-13.13,1.41-.91.25-.72,5.25-.91,6.37-2.06,12.52-1.72,17.39-1.29,29.86.26,7.38-.18,14.73,0,22.07.15,5.85.27,11.69.46,17.53l16.78-.96Z"/><rect class="cls-1" width="251.92" height="213.34"/></g></svg>