<?xml version="1.0" encoding="UTF-8"?><svg id="Capa_2" xmlns="http://www.w3.org/2000/svg" width="88.87mm" height="75.26mm" viewBox="0 0 251.92 213.34"><defs><style>.cls-1{fill:none;}</style></defs><g id="Capa_1-2"><path d="M70.02,166.9c-1.39-1.37-1.94-6.65-2.06-8.72-1.19-19.56.14-40.43-.44-59.97.39-3.22-.83-21.93.58-23.17,1.86-1.63,4.51-.46,6.34-.56,9.54-.5,18.69.48,27.84-.02,1.89-.1,4-1.06,5.73-1,1.36.05,2.51.96,3.86,1.01,1.81.06,4.49-1.02,6.24-1,1.2.01,2.04.89,3.32.99,17.66,1.41,35.6-1.24,53.27-1,2.24.03,5.1.92,7.22.93,1.51,0,3.51-.84,5.06-.65.32.04,4.14,1.19,4.28,1.37,2.14,13.67.18,27.57.43,41.33.02,1.02.47,1.95.49,2.86.35,13.91.71,27.81.99,41.76l-3.1,5.06-58.58.41c-18.12.74-36.48.71-54.68.52-1.16-.01-2.3-.62-3.34-.55-1.29.08-2.2,1.65-3.47.4ZM114.43,82.18c-13.59.43-27.19.54-40.7-.54l1.91,78.68c7.29.86,14.54.14,21.85-.02,4.7-.11,8.5-.05,13.41-.46,1.51-.12,3.05.07,4.55,0,.05-22.03.24-43.95.46-65.98.01-1.4.55-2.71.53-4.3-.03-2.7-1.2-4.89-2.02-7.37ZM127.69,158.87c3.37.65,8.63-.48,12.23,0l1.44-76.76c-5.99-.41-11.84.83-17.75,1.44,1.8,13.7,1.5,27.65,1.46,41.51-.03,9.83-.86,19.83-.04,29.74.06.68.24,2.6.63,2.98.08.08,1.92,1.06,2.03,1.08ZM145.67,158.39h36.93c.16-20.58-.77-41.31,1.87-61.7l-1.36-13.34c-12.41-2.1-25.31-.94-37.92-1.24l.48,76.28Z"/><rect class="cls-1" width="251.92" height="213.34"/></g></svg>