<?xml version="1.0" encoding="UTF-8"?><svg id="Capa_2" xmlns="http://www.w3.org/2000/svg" width="88.87mm" height="75.26mm" viewBox="0 0 251.92 213.34"><defs><style>.cls-1{fill:none;}</style></defs><g id="Capa_1-2"><path d="M28.3,155.38c-.66-.56-1.47-2.51-1.59-3.45-1.2-9.91.4-23.18.03-33.61-.23-6.49-1.29-13.13-1.48-19.63l.5-35.76c3.22.88,6.56-.25,9.83-.48,46.19-3.25,92.47-4.37,138.6-7.2,2.54,0,20.13,6.2,23.05,7.65,3.07,1.52,1.44,2.53,1.63,4.56,2.5,26.63,2.95,55.72,1.94,82.54-.04,1.04-.83,2.29-.77,2.87.04.41.74.86.75,1.44.01.53-1.45,2.66-1.91,2.89-9.67.47-19.37.37-29.04.7-19.95.68-39.96,1.83-59.93,3.38-17.31,1.34-34.52,3.61-51.8,3.83-3.32.04-9.76-2.53-13.43-3.83-4.66-1.64-9.16-3.76-13.81-5.37-.85-.3-1.79.15-2.59-.52ZM172.53,60.53c-2.5.45-5.1-.53-7.43-.53-2.01,0-3.74.85-5.74,1.02-2.38.2-4.83-.49-6.78-.45-15.36.35-30.67,1.79-46,2.83-21.69,1.47-43.03,2.05-64.76,2.38-.89.01-1.7.44-2.43.46-1.08.02-3.43-1.19-4.02.04,5.05.42,9.88,2.17,14.74,3.25,2.11.47,6.95,1.89,8.51,2.05,2.73.27,6.73-.89,9.58-1,5.05-.19,10.4.45,15.29.32,19.51-.52,40.41-3.19,60.04-4.61,9.49-.68,19.07-.87,28.5-1.95l.51-3.81ZM184.52,62.93l-8.63-2.88.48,3.84c2.12-.12,4.32.18,6.43-.05.46-.05,1.8-.21,1.72-.91ZM191.23,71.08l-14.87.48c.09,1.83-.11,3.71-.02,5.54.77,15.83,1.63,31.62,1.96,47.45.1,4.87-.83,12.46-.35,16.73.02.15,1,2.67,1.11,2.77,1.09.99,11.76,4.51,12.16,3.79.02-13.85.38-27.67.46-41.52.01-2.56,0-5.08,0-7.64-.03-9.19.43-18.49-.46-27.61ZM50.23,149.76l.88-70.68c-.6-1.79-4.52-1.08-6.17-1.5-2.21-.56-10-3.85-12.31-4.96-.41-.2-1.48-1.19-1.58-1.05l3.83,79.15,15.35-.96ZM171.98,72.59l-112.64,7.6.96,68.6c7.02-1.51,14.26-.99,21.34-1.44,21.08-1.34,42.13-3.98,63.29-5.29,5.54-.34,11.73.12,17.28-.47,3.46-.37,6.86-1.58,10.32-1.91-.68-8.06-.19-16.13-.02-24.24.28-13.23,1.26-27.57.02-40.76-.07-.72-.22-1.44-.55-2.08ZM181.16,149.28c-1.64,0-3.04-1.81-4.29-2.19-2.28-.69-7.63.65-10.32.76-32.45,1.32-64.94,2.3-97.4,3.8-2.45.11-5.06.91-7.67.5-1.7.14.37,3.57-.23,4.8,3.88-.3,7.84-.23,11.72-.51.87-.06,1.52-.84,2.4-.88,1.32-.05,3.45.88,5.06.41l-4.31-.95,105.03-5.76ZM50.23,152.63h-10.55l7.06,3.25,3.49,1.06v-4.32Z"/><rect class="cls-1" width="251.92" height="213.34"/></g></svg>