<?xml version="1.0" encoding="UTF-8"?><svg id="Capa_2" xmlns="http://www.w3.org/2000/svg" width="88.87mm" height="75.26mm" viewBox="0 0 251.92 213.34"><defs><style>.cls-1{fill:none;}</style></defs><g id="Capa_1-2"><path d="M198.84,69.23c.12,12.03.02,24.11.05,36.17.02,6.02.04,12.17,0,18.19-.07,11.35.33,22.69-.54,34-1.25,2.15-3.26,1.38-4.86,1.75-.53.12-.33,1.25-1.51,1.46-.63.12-6.86.78-7.22.73-.56-.07-1.06-.86-1.64-1.01-4.3-1.12-7.34,1.45-9.36,1.24-.97-.1-1.32-1.24-2.42-1.45-.98-.19-9.49.22-10.45.46-.59.15-.55,1.66-1.53,1.48-3.02-2.42-8.68-1.51-12.45-.97-3.56.51-1.78.23-4.81-.07-1.58-.16-2.66.73-3.83.77-8.44.25-23.18-2.16-30.6-.13-.73.2-1.44,1.2-2.12,1.27-.81.08-1.19-1.04-1.94-1.28-3.75-1.2-7.21-.1-10.42-.06-14.25.19-28.52-.24-42.7-.54-4.96-.11-9.73.48-14.65.03-.5-2.45.53-5.24.52-7.44-.08-25.03-2.39-50.28-.98-75.3.13-2.34-1.03-7.58,1.44-8.15l55.9-3.09,10,.93,92.13-.04,3.99,1.05ZM89.56,73.48c-1.73.28-3.35-.39-5.02-.5-12.3-.79-24.24.04-36.45.52-3.11.12-6.27-.13-9.37-.02l3.36,83.96,28.53-1.96,18.95,1v-83ZM155.26,155.03v-23.75c1.14-1.32,5.62-1.99,6.62-.63.08.1.57,2.42.57,2.55v22.31c2.91-.2,6.03-1.24,8.93-1.39,2.41-.12,6.46.42,9.01.46l.56-1.01c2.28.3,4.94,1.9,6.37-.3,2.22-3.4-.18-5.01.08-6.12l.94-.76.49,2.88c1.51,1.09,2.35-4.29,2.41-5.02.84-9.96-.51-20.31-.52-30.26,0-9.18.99-18.56.52-27.82-.06-1.12-.43-6.71-.57-7.12-.22-.61-1.09-.62-1.26-.89-.61-1.01.68-2.35-2.51-2.28l.48-1.43h-5.76s-.24,1.92-.24,1.92c-2.8-.81-5.77-.66-8.6-.99-9.07-1.05-17.17-.29-26.43-.43-1.64-.03-3.2-.7-4.78-.54-1.72.18-2.27,1.49-3.47,1.83-3.24.92-3.14-.99-4.8,2.87-6.54,15.25-13.49,44.72-15.89,61.35-.42,2.9-.02,6.36-.66,9.41-.42,2-1.55,3.61-1.79,5.64l9.11-.48-.48-1.43c4.27,2.04,7.8,2.52,12.25.62l2.44,2.68c3.21-2.28,6.29-.23,10.02-.41,2.3-.11,4.7-1.01,6.94-1.46Z"/><path d="M135.13,144.48c.07-4.14.41-8.55,1.01-12.66.08-.54.17-2.24.9-2.21-.44,2.15.49,4.92.37,6.84-.05.88-.64,2.02-.8,3.05-.26,1.67.49,4.01-1.48,4.99Z"/><path d="M144.71,101.78c-.86.11-.46-1.07-.42-1.61.16-1.83.65-3.93.92-5.81.08-.58-.43-2.11.69-1.69.96.61.43.95.3,1.69-.43,2.46-1.43,4.87-1.49,7.42Z"/><path d="M121.69,147.35c-2.31-.05-1.23-3.21-1.43-4.79,1.19.44,2.32,4.12,1.43,4.79Z"/><rect class="cls-1" width="251.92" height="213.34"/><rect class="cls-1" width="251.92" height="213.34"/></g></svg>