<?xml version="1.0" encoding="UTF-8"?><svg id="Capa_2" xmlns="http://www.w3.org/2000/svg" width="88.87mm" height="75.26mm" viewBox="0 0 251.92 213.34"><defs><style>.cls-1{fill:none;}</style></defs><g id="Capa_1-2"><path d="M195.45,56.33c.37,4.84-.03,10.03.08,15.01.54,23.42.81,47.04.52,70.52-.01.88-.5,1.81-.47,2.42.06,1.09,1.51,1.46,1.37,2.3-.18,1.07-2.48,2.11-3.55,2.24-7.94.94-18.99-.16-27.37-.03-15.57.23-31.46.83-46.96.95-20.85.17-41.72-.03-62.56-.03-.97-.83-.43-17.57-.51-20.36-.32-11.75-1-23.72-1.48-35.46.96-10.45-1.2-22.95,0-33.15.21-1.81,1.61-2.21,3.31-2.34,4.99-.39,10.18-.08,15.2-.25,35.29-1.16,70.74-.92,105.95-2.44,3.02-.13,6.09.11,9.11.05l.27-1.46c1.62-.61,2.28,1.04,3.21,1.33,1.15.36,2.75-.18,3.88.7ZM114.91,61.55c-1.11-.69-7.86.82-9.74.91-9.08.44-17.52-.65-26.38-1-6.5-.26-12.97.37-19.45.5l-.47,9.35c3.67,18.21.71,35.69.66,53.82-.02,6.73.51,13.59.78,20.31l55.57-1.03c-.28-6.27-.14-12.62-.39-18.9-.23-5.76-1.43-11.42-.98-17.25.97-12.74.34-25.47.46-38.4.03-2.7,1.31-5.58-.05-8.3ZM186.42,61.99l-57.53.46c-.06,3.48.53,6.84.5,10.33-.2,22.5,1.53,45.01.96,67.65-.02.82-.15,1.41-.51,2.13l57.01-.07c.26-1.57,1.32-2.33,1.52-3.99,1.12-9.05-.11-20.61-.03-29.78.1-11.15,1.4-22.83.49-34.03-.06-.71-.16-3.58-1.43-3.12l-.48,4.31c.43-2.48-.42-5.17-.48-7.43-.06-1.86.96-4.18-.02-6.45ZM124.57,62.44l-2.89.28,2.22,79.39,2.11-.3c-.12-3.51.12-7.03,0-10.54-.32-10.19-1.12-20.52-1.45-30.69-.26-7.82-.32-15.72-.99-23.48l.99-14.65Z"/><rect class="cls-1" width="251.92" height="213.34"/></g></svg>