<?xml version="1.0" encoding="UTF-8"?><svg id="Capa_2" xmlns="http://www.w3.org/2000/svg" width="88.87mm" height="75.26mm" viewBox="0 0 251.92 213.34"><defs><style>.cls-1{fill:none;}</style></defs><g id="Capa_1-2"><path d="M196.15,70.01c.35.34,1.69.23,2.3.81,1.97,1.89-1.06,10.24-1.02,12.97.08,4.32,1.19,9.49,1.47,13.92.98,15.21,1.32,30.48,3.36,45.57-.59,2.92.4,6.41.03,9.14-.48,3.53-3.26,1.95-4.59,3.08-1.02.87-1.31,4.44-2.66,5.49-2.81,2.19-5.33-2.47-7.17-3.32-2.02-.93-5.66.53-7.92.7-43.64,3.31-86.71,8.71-130.44,11.53-2.94.19-5.82,1.04-8.88.48l-7.84-89.75c.88-1.02,4.48-.75,6.08-1,15.05-2.35,31.3-5.38,46.35-6.88,17.28-1.72,35.11-2.24,52.52-3.59,12.32-.96,24.6-2.01,36.93-2.88,5.43-.38,14.1-2.16,19.16-1.4,3.8.57.73,3.58,2.3,5.13ZM187.4,71.09l-43.64,4.32c1.26,10.27,1.89,20.63,2.88,30.93.91,9.47,1.7,19.26,2.93,28.73.32,2.42,3,19.34,3.82,19.93l30.65-3.32c-.79-2.36-1.75-4.63-2.27-7.08-2.31-10.88-1.57-22.57-1.11-33.43.37-8.92.56-23.78,3.61-31.93.36-.96,1.36-1.53,1.58-2.25.52-1.72.03-4.15,1.54-5.89ZM142.31,75.4l-48.89,3.87,9.05,81.32,47.04-5.55-3.35-24.71-.97-17.26-.95-5.29-1.93-32.38ZM86.63,78.81c-3.37-.01-6.85-.13-10.2.01-11.64.5-22.65,2.48-34.12,3.77-1.83.21-4.37.54-5.98,0,.73,10.2,3.25,20.28,4.31,30.47,1.11,10.74,1.89,20.93,3.3,31.72.86,6.57,1.15,14.18,2.47,20.55.12.58.11.95.78,1.17l26.32-4.26,20.38-.97-7.25-82.46Z"/><rect class="cls-1" width="251.92" height="213.34"/><rect class="cls-1" width="251.92" height="213.34"/></g></svg>